<svg viewBox="0 0 64 64" fill="none" xmlns="http://www.w3.org/2000/svg">
<!-- <path d="M62.3099 0.0200195H0.159912V62.17H62.3099V0.0200195Z" fill="#E01A83"/> -->
<path d="M5.57988 7.77019C5.46988 7.77019 5.15988 7.95019 4.63988 8.13019C4.11988 8.31019 3.96987 8.36019 3.86987 8.41019V6.73018C4.2836 6.56275 4.68466 6.36557 5.06989 6.14018C5.43654 5.95435 5.77355 5.71506 6.06989 5.43018H7.83987V17.2802H5.56989L5.57988 7.77019Z" fill="white"/>
<path d="M9.83003 16.5499C9.26221 15.8482 8.97374 14.9614 9.02003 14.0599V8.74988C8.96476 7.82905 9.24546 6.91944 9.81003 6.18988C10.4567 5.5925 11.3047 5.26074 12.185 5.26074C13.0654 5.26074 13.9134 5.5925 14.56 6.18988C15.1246 6.91944 15.4053 7.82905 15.35 8.74988V14.0599C15.3968 14.96 15.1042 15.845 14.53 16.5399C14.235 16.8615 13.8717 17.1128 13.4667 17.2755C13.0618 17.4382 12.6255 17.508 12.19 17.4799C11.7526 17.5066 11.3146 17.4373 10.9069 17.2766C10.4992 17.1159 10.1316 16.8679 9.83003 16.5499ZM13.05 14.0099V8.78987C13.0613 8.41668 13.0071 8.04441 12.89 7.68988C12.8251 7.55685 12.7241 7.44473 12.5986 7.3663C12.4731 7.28787 12.328 7.24629 12.18 7.24629C12.032 7.24629 11.887 7.28787 11.7614 7.3663C11.6359 7.44473 11.5349 7.55685 11.47 7.68988C11.3553 8.04495 11.3012 8.41682 11.31 8.78987V13.9999C11.31 14.9999 11.61 15.4799 12.19 15.4799C12.77 15.4799 13.05 14.9999 13.05 13.9999V14.0099Z" fill="white"/>
<path d="M20 10.0001V5.47014H21.08C21.3444 5.46086 21.6084 5.4981 21.86 5.58014C22.06 5.64031 22.2309 5.77201 22.34 5.95014C22.4593 6.16694 22.5148 6.41311 22.5 6.66014C22.5002 6.82807 22.4835 6.99559 22.45 7.16014C22.4223 7.29484 22.3642 7.42141 22.28 7.53014C22.1917 7.63635 22.0783 7.71885 21.95 7.77014L22.58 10.0001H21.75L21.2 7.92014H20.82V10.0001H20ZM20.82 7.40013H21.08C21.2105 7.40779 21.3408 7.38379 21.46 7.33014C21.5083 7.30991 21.5518 7.27992 21.588 7.24207C21.6241 7.20421 21.652 7.15929 21.67 7.11014C21.7141 6.98155 21.7344 6.84601 21.73 6.71014C21.7424 6.53061 21.6969 6.35182 21.6 6.20014C21.5402 6.13734 21.4666 6.0893 21.385 6.0598C21.3035 6.0303 21.2162 6.02014 21.13 6.03014H20.82V7.40013Z" fill="white"/>
<path d="M23 10.0002V5.47021H24.9V6.00021H23.82V7.30022H24.67V7.88022H23.82V9.38022H24.91V10.0002H23Z" fill="white"/>
<path d="M25.26 9.99988V5.46988H26.32C26.6175 5.45642 26.9143 5.50759 27.19 5.61987C27.3901 5.71129 27.5476 5.87591 27.63 6.07988C27.7259 6.33531 27.7701 6.60724 27.76 6.87988V8.52988C27.7699 8.80903 27.7257 9.08747 27.63 9.34988C27.5488 9.56191 27.3921 9.73643 27.19 9.83987C26.9291 9.95552 26.6452 10.0102 26.36 9.99988H25.26ZM26.08 9.41988H26.34C26.481 9.43484 26.6227 9.39942 26.74 9.31989C26.785 9.28573 26.8218 9.24197 26.8477 9.1918C26.8737 9.14164 26.8881 9.08632 26.89 9.02988C26.9019 8.8701 26.9019 8.70966 26.89 8.54988V6.81989C26.9082 6.67378 26.9082 6.52599 26.89 6.37988C26.882 6.32942 26.8637 6.28116 26.8362 6.23813C26.8086 6.1951 26.7725 6.15825 26.73 6.12988C26.6063 6.06774 26.4681 6.0401 26.33 6.04988H26.09L26.08 9.41988Z" fill="white"/>
<path d="M29.47 10.0002C29.1936 10.0175 28.9183 9.95133 28.68 9.81015C28.4954 9.68761 28.3607 9.50321 28.3 9.29015C28.2231 9.02374 28.186 8.74742 28.19 8.47015V5.41016H29V8.57016C28.9897 8.7033 28.9897 8.83702 29 8.97015C29.0099 9.08153 29.0555 9.18674 29.13 9.27016C29.1701 9.31054 29.2188 9.34139 29.2725 9.36043C29.3261 9.37947 29.3834 9.38622 29.44 9.38016C29.4966 9.38697 29.5541 9.38058 29.6079 9.3615C29.6617 9.34241 29.7103 9.31116 29.75 9.27016C29.8207 9.1844 29.8658 9.0804 29.88 8.97015C29.8903 8.83702 29.8903 8.7033 29.88 8.57016V5.41016H30.68V8.47015C30.6869 8.74691 30.6532 9.02318 30.58 9.29015C30.5193 9.50601 30.3802 9.69145 30.19 9.81015C29.9732 9.94127 29.7232 10.0072 29.47 10.0002Z" fill="white"/>
<path d="M32.47 10C32.1955 10.0162 31.9229 9.94633 31.69 9.80005C31.5034 9.67078 31.3631 9.485 31.29 9.27005C31.215 9.01692 31.1779 8.75406 31.18 8.49005V6.87004C31.1758 6.59933 31.2129 6.32957 31.29 6.07005C31.3591 5.85298 31.5002 5.66599 31.69 5.54004C31.9272 5.40595 32.1981 5.34343 32.47 5.36005C32.7234 5.34574 32.9759 5.40108 33.2 5.52005C33.3763 5.61997 33.511 5.77955 33.58 5.97005C33.6553 6.1922 33.6925 6.42549 33.69 6.66005V7.04004H32.9V6.65004C32.9 6.52004 32.9 6.41005 32.9 6.30005C32.8883 6.20782 32.8501 6.12097 32.79 6.05005C32.7002 5.98857 32.5939 5.95566 32.485 5.95566C32.3762 5.95566 32.2698 5.98857 32.18 6.05005C32.1108 6.11998 32.0683 6.212 32.06 6.31004C32.0493 6.43314 32.0493 6.55694 32.06 6.68004V8.68004C32.0422 8.81613 32.0422 8.95396 32.06 9.09004C32.0781 9.18361 32.1275 9.26825 32.2 9.33005C32.2825 9.38569 32.3806 9.4137 32.48 9.41005C32.5343 9.4159 32.5892 9.40999 32.6409 9.39273C32.6927 9.37548 32.7401 9.34727 32.78 9.31004C32.8389 9.23547 32.8737 9.14483 32.88 9.05005C32.8909 8.93029 32.8909 8.8098 32.88 8.69005V8.28005H33.67V8.64005C33.6777 8.88476 33.6404 9.1288 33.56 9.36005C33.4966 9.55841 33.3657 9.72826 33.19 9.84004C32.9709 9.96287 32.7205 10.0185 32.47 10Z" fill="white"/>
<path d="M34.1199 10.0002V5.47021H35.9999V6.00021H34.9999V7.30022H35.8399V7.88022H34.9999V9.38022H35.9999V10.0002H34.1199Z" fill="white"/>
<path d="M36.3699 10V5.47001H37.4399C37.7341 5.45608 38.0277 5.50729 38.2999 5.62001C38.5026 5.71103 38.6633 5.87537 38.7499 6.08001C38.8409 6.33672 38.8849 6.60771 38.8799 6.88002V8.53001C38.8847 8.80884 38.8407 9.08636 38.7499 9.35002C38.6627 9.55835 38.5077 9.73104 38.3099 9.84001C38.0457 9.95648 37.7584 10.0112 37.4699 10H36.3699ZM37.1999 9.42001H37.4499C37.594 9.4348 37.7388 9.3995 37.8599 9.32002C37.9033 9.2787 37.9381 9.2291 37.9622 9.17415C37.9862 9.11919 37.999 9.05999 37.9999 9.00001C38.0118 8.84023 38.0118 8.6798 37.9999 8.52002V6.79001C38.0131 6.64364 38.0131 6.49639 37.9999 6.35002C37.9796 6.24963 37.9226 6.16044 37.8399 6.10002C37.7153 6.04049 37.5778 6.01299 37.4399 6.02002H37.1999V9.42001Z" fill="white"/>
<path d="M20.0498 17.3498V12.8198H20.8598V17.3498H20.0498Z" fill="white"/>
<path d="M21.4199 17.3498V12.8198H21.9999L23.1099 15.3998V12.8198H23.7899V17.3498H23.2399L22.1299 14.6398V17.3498H21.4199Z" fill="white"/>
<path d="M24.3198 17.3498V12.8198H26.2198V13.3998H25.1498V14.6998H25.9998V15.2798H25.1598V16.7798H26.2398V17.3498H24.3198Z" fill="white"/>
<path d="M28.78 18.2499C28.674 18.1927 28.5736 18.1258 28.48 18.0499C28.3669 17.9568 28.2631 17.853 28.17 17.7399C28.0686 17.6361 27.9781 17.5222 27.9 17.3999H27.8C27.5316 17.4129 27.2648 17.3506 27.03 17.2199C26.8437 17.099 26.703 16.9196 26.63 16.7099C26.5368 16.4538 26.4927 16.1824 26.5 15.9099V14.2199C26.4918 13.9507 26.5359 13.6823 26.63 13.4299C26.7049 13.2239 26.8455 13.0482 27.03 12.9299C27.273 12.8178 27.5374 12.7598 27.805 12.7598C28.0726 12.7598 28.337 12.8178 28.58 12.9299C28.7683 13.0466 28.9125 13.2224 28.99 13.4299C29.0758 13.6842 29.1164 13.9516 29.11 14.2199V15.9199C29.112 16.1149 29.0919 16.3095 29.05 16.4999C29.0141 16.6649 28.9461 16.8212 28.85 16.9599C28.7526 17.0883 28.6257 17.1912 28.48 17.2599L28.63 17.4199L28.79 17.5799C28.8349 17.6259 28.8853 17.6662 28.94 17.6999L28.78 18.2499ZM27.78 16.7999C27.8908 16.8084 28.0009 16.7764 28.09 16.7099C28.1622 16.6451 28.2084 16.5563 28.22 16.4599C28.2364 16.3472 28.2364 16.2327 28.22 16.1199V13.9999C28.2364 13.8872 28.2364 13.7727 28.22 13.6599C28.2053 13.5674 28.1595 13.4827 28.09 13.4199C28.0009 13.3535 27.8908 13.3215 27.78 13.3299C27.6724 13.323 27.566 13.355 27.48 13.4199C27.4105 13.4827 27.3647 13.5674 27.35 13.6599C27.3388 13.773 27.3388 13.8869 27.35 13.9999V16.0799C27.3388 16.193 27.3388 16.3069 27.35 16.4199C27.3616 16.5163 27.4078 16.6051 27.48 16.6699C27.5221 16.7116 27.5721 16.7445 27.627 16.7668C27.6819 16.7892 27.7407 16.8004 27.8 16.7999H27.78Z" fill="white"/>
<path d="M30.82 17.4098C30.5481 17.4253 30.2775 17.3628 30.04 17.2298C29.8539 17.1022 29.7164 16.9154 29.65 16.6998C29.5767 16.4328 29.543 16.1566 29.55 15.8798V12.8198H30.35V15.9998C30.3397 16.133 30.3397 16.2667 30.35 16.3998C30.3642 16.5101 30.4092 16.6141 30.48 16.6998C30.5201 16.7402 30.5688 16.7711 30.6224 16.7901C30.6761 16.8091 30.7333 16.8159 30.79 16.8098C30.8481 16.8167 30.9071 16.8104 30.9625 16.7913C31.0179 16.7723 31.0683 16.741 31.11 16.6998C31.1767 16.6117 31.2213 16.5088 31.24 16.3998C31.2502 16.2667 31.2502 16.133 31.24 15.9998V12.8398H32.04V15.8998C32.0439 16.1771 32.0069 16.4534 31.93 16.7198C31.8661 16.934 31.7323 17.1206 31.55 17.2498C31.3245 17.3651 31.073 17.4203 30.82 17.4098Z" fill="white"/>
<path d="M32.3499 17.3498L33.2498 12.8198H34.1398L35.0398 17.3498H34.2798L34.0999 16.3498H33.3098L33.1299 17.3498H32.3499ZM33.3499 15.7798H33.9998L33.6898 13.8698L33.3499 15.7798Z" fill="white"/>
<path d="M35.3298 17.3498V12.8198H36.1598V16.8198H37.2498V17.3898L35.3298 17.3498Z" fill="white"/>
<path d="M37.54 17.3498V12.8198H38.36V17.3498H37.54Z" fill="white"/>
<path d="M39.3599 17.3498V13.4298H38.6399V12.8198H40.8999V13.4298H40.1899V17.3498H39.3599Z" fill="white"/>
<path d="M41.1899 17.3498V12.8198H41.9999V17.3498H41.1899Z" fill="white"/>
<path d="M42.5598 17.3498V12.8198H44.4598V13.3998H43.3898V14.6998H44.2398V15.2798H43.3898V16.7798H44.4798V17.3498H42.5598Z" fill="white"/>
<path d="M46 17.4101C45.7629 17.4203 45.5277 17.3649 45.32 17.2501C45.1367 17.1411 44.9931 16.9764 44.91 16.7801C44.8037 16.5444 44.7492 16.2886 44.75 16.0301L45.46 15.8901C45.4675 16.0448 45.4876 16.1986 45.52 16.3501C45.5448 16.4679 45.604 16.5758 45.69 16.6601C45.726 16.6975 45.7696 16.7267 45.818 16.7457C45.8663 16.7647 45.9182 16.773 45.97 16.7701C46.0245 16.7757 46.0796 16.7677 46.1302 16.7467C46.1808 16.7258 46.2254 16.6926 46.26 16.65C46.3192 16.5617 46.3473 16.4562 46.34 16.3501C46.3488 16.1772 46.3034 16.0058 46.21 15.8601C46.1063 15.7189 45.9854 15.5912 45.85 15.48L45.28 14.98C45.1285 14.8491 45 14.6936 44.9 14.5201C44.7976 14.3264 44.7493 14.1088 44.76 13.8901C44.7488 13.7375 44.7706 13.5844 44.8241 13.4411C44.8776 13.2978 44.9615 13.1678 45.07 13.0601C45.1856 12.9581 45.3202 12.88 45.4661 12.8303C45.6119 12.7805 45.7662 12.76 45.92 12.7701C46.1052 12.7626 46.2897 12.7968 46.46 12.87C46.5944 12.9252 46.7093 13.0192 46.79 13.1401C46.8811 13.2546 46.946 13.3877 46.98 13.5301C47.0228 13.6835 47.0496 13.841 47.06 14.0001L46.35 14.12C46.3614 13.9936 46.3614 13.8665 46.35 13.7401C46.3295 13.6438 46.2847 13.5543 46.22 13.48C46.1855 13.4441 46.1432 13.4164 46.0965 13.3991C46.0497 13.3817 45.9997 13.3752 45.95 13.3801C45.8958 13.3769 45.8415 13.386 45.7912 13.4068C45.741 13.4276 45.6962 13.4595 45.66 13.5001C45.598 13.5875 45.5664 13.6929 45.57 13.8001C45.5655 13.9325 45.5965 14.0637 45.66 14.18C45.7395 14.2921 45.8337 14.393 45.94 14.48L46.5 14.98C46.6884 15.1365 46.8505 15.3222 46.98 15.5301C47.1172 15.7631 47.1864 16.0298 47.18 16.3001C47.1825 16.4989 47.1344 16.695 47.04 16.87C46.9438 17.036 46.8059 17.1739 46.64 17.2701C46.4426 17.3719 46.2219 17.4202 46 17.4101Z" fill="white"/>
<path d="M36.9998 40.7998H25.5598C25.5419 40.7998 25.5241 40.8034 25.5077 40.8106C25.4912 40.8177 25.4764 40.8282 25.4642 40.8413C25.452 40.8545 25.4426 40.87 25.4367 40.887C25.4308 40.9039 25.4284 40.9219 25.4298 40.9398V44.3798C25.4284 44.3977 25.4308 44.4157 25.4367 44.4326C25.4426 44.4496 25.452 44.4651 25.4642 44.4783C25.4764 44.4914 25.4912 44.5019 25.5077 44.509C25.5241 44.5162 25.5419 44.5199 25.5598 44.5198H36.9998C37.0178 44.5199 37.0356 44.5162 37.052 44.509C37.0685 44.5019 37.0833 44.4914 37.0955 44.4783C37.1077 44.4651 37.1171 44.4496 37.123 44.4326C37.1289 44.4157 37.1312 44.3977 37.1298 44.3798V40.9398C37.1312 40.9219 37.1289 40.9039 37.123 40.887C37.1171 40.87 37.1077 40.8545 37.0955 40.8413C37.0833 40.8282 37.0685 40.8177 37.052 40.8106C37.0356 40.8034 37.0178 40.7998 36.9998 40.7998Z" fill="white"/>
<path d="M36.9998 33.48H25.5598C25.5419 33.4799 25.5241 33.4836 25.5077 33.4907C25.4912 33.4979 25.4764 33.5084 25.4642 33.5215C25.452 33.5347 25.4426 33.5502 25.4367 33.5672C25.4308 33.5841 25.4284 33.6021 25.4298 33.62V37.06C25.4284 37.0779 25.4308 37.0959 25.4367 37.1128C25.4426 37.1298 25.452 37.1453 25.4642 37.1584C25.4764 37.1716 25.4912 37.1821 25.5077 37.1892C25.5241 37.1964 25.5419 37.2 25.5598 37.2H36.9998C37.0178 37.2 37.0356 37.1964 37.052 37.1892C37.0685 37.1821 37.0833 37.1716 37.0955 37.1584C37.1077 37.1453 37.1171 37.1298 37.123 37.1128C37.1289 37.0959 37.1312 37.0779 37.1298 37.06V33.62C37.1312 33.6021 37.1289 33.5841 37.123 33.5672C37.1171 33.5502 37.1077 33.5347 37.0955 33.5215C37.0833 33.5084 37.0685 33.4979 37.052 33.4907C37.0356 33.4836 37.0178 33.4799 36.9998 33.48Z" fill="white"/>
<path d="M36.8398 28.2798L31.3499 22.7898C31.3312 22.7715 31.306 22.7612 31.2798 22.7612C31.2537 22.7612 31.2285 22.7715 31.2099 22.7898L25.7199 28.2798C25.704 28.2921 25.6926 28.3093 25.6876 28.3288C25.6826 28.3482 25.6843 28.3688 25.6924 28.3872C25.7004 28.4056 25.7144 28.4207 25.732 28.4303C25.7497 28.4398 25.77 28.4432 25.7898 28.4398H36.7899C36.8079 28.4386 36.8252 28.4319 36.8394 28.4206C36.8536 28.4094 36.864 28.3942 36.8694 28.3769C36.8748 28.3596 36.8749 28.3411 36.8696 28.3238C36.8643 28.3065 36.854 28.2911 36.8398 28.2798Z" fill="white"/>
<path d="M41.9999 44.5598L47.4899 39.0698C47.5082 39.0511 47.5185 39.026 47.5185 38.9998C47.5185 38.9736 47.5082 38.9485 47.4899 38.9298L41.9999 33.4398C41.9876 33.4239 41.9704 33.4126 41.9509 33.4076C41.9315 33.4026 41.911 33.4043 41.8926 33.4123C41.8742 33.4204 41.859 33.4344 41.8494 33.452C41.8399 33.4697 41.8365 33.49 41.8399 33.5098V44.5098C41.8412 44.5279 41.8479 44.5451 41.8591 44.5593C41.8703 44.5736 41.8855 44.584 41.9028 44.5894C41.9201 44.5948 41.9386 44.5949 41.9559 44.5896C41.9732 44.5843 41.9886 44.5739 41.9999 44.5598Z" fill="white"/>
<path d="M25.72 49.7199L31.21 55.2099C31.2287 55.2282 31.2538 55.2384 31.28 55.2384C31.3062 55.2384 31.3313 55.2282 31.35 55.2099L36.84 49.7199C36.8559 49.7076 36.8672 49.6904 36.8722 49.6709C36.8772 49.6515 36.8755 49.6309 36.8675 49.6125C36.8594 49.5941 36.8455 49.579 36.8278 49.5694C36.8101 49.5599 36.7898 49.5565 36.77 49.5599H25.77C25.7519 49.5611 25.7347 49.5678 25.7205 49.579C25.7063 49.5903 25.6958 49.6055 25.6904 49.6228C25.685 49.6401 25.6849 49.6586 25.6902 49.6759C25.6955 49.6932 25.7059 49.7085 25.72 49.7199Z" fill="white"/>
<path d="M20.5598 33.44L15.0699 38.9299C15.0515 38.9486 15.0413 38.9738 15.0413 39C15.0413 39.0261 15.0515 39.0513 15.0699 39.07L20.5598 44.56C20.5721 44.5759 20.5893 44.5872 20.6088 44.5922C20.6282 44.5972 20.6488 44.5955 20.6672 44.5874C20.6856 44.5794 20.7008 44.5654 20.7103 44.5478C20.7198 44.5301 20.7232 44.5098 20.7198 44.49V33.49C20.7186 33.4719 20.7119 33.4546 20.7007 33.4404C20.6894 33.4262 20.6742 33.4157 20.6569 33.4103C20.6396 33.4049 20.6211 33.4049 20.6038 33.4102C20.5865 33.4155 20.5712 33.4258 20.5598 33.44Z" fill="white"/>
</svg>
