<svg viewBox="0 0 64 64" fill="none" xmlns="http://www.w3.org/2000/svg">
<!-- <path d="M62.7199 0.399902H0.649902V62.4699H62.7199V0.399902Z" fill="#40AE49"/> -->
<path d="M5.93999 8.1398C5.83999 8.1898 5.51998 8.3198 5.00998 8.4998C4.49998 8.6798 4.33998 8.7298 4.22998 8.7798V7.09981C4.64707 6.93269 5.05147 6.7355 5.43999 6.5098C5.80582 6.3226 6.14264 6.08347 6.43999 5.7998H8.20999V17.6298H5.93999V8.1398Z" fill="white"/>
<path d="M10.6799 17.39C10.2316 17.1126 9.90339 16.6773 9.75991 16.17C9.57261 15.5205 9.48826 14.8456 9.50991 14.17H11.6999C11.6717 14.6708 11.7361 15.1725 11.8899 15.65C11.9537 15.7722 12.0462 15.877 12.1595 15.9554C12.2728 16.0339 12.4034 16.0836 12.5402 16.1004C12.677 16.1171 12.8158 16.1003 12.9447 16.0515C13.0735 16.0026 13.1886 15.9232 13.2799 15.82C13.4295 15.5788 13.5155 15.3035 13.5299 15.02C13.5723 14.5379 13.589 14.0539 13.5799 13.57C13.6046 13.0266 13.5404 12.4828 13.3899 11.96C13.3361 11.7915 13.2267 11.6463 13.0795 11.5481C12.9323 11.45 12.7562 11.4048 12.5799 11.42C12.0499 11.42 11.7099 11.78 11.5799 12.49H9.62992L9.79992 5.77002H15.2499V7.71002H11.6499L11.5199 10.33C11.7099 10.128 11.9522 9.98261 12.2199 9.91002C12.5651 9.79619 12.9264 9.73878 13.2899 9.74002C13.6558 9.72412 14.019 9.80895 14.3399 9.98529C14.6608 10.1616 14.9272 10.4227 15.1099 10.74C15.5678 11.5814 15.7825 12.5336 15.7299 13.49C15.7485 14.2743 15.6644 15.0576 15.4799 15.82C15.3373 16.3975 15.0066 16.9112 14.5399 17.28C13.9506 17.674 13.2469 17.8605 12.5399 17.81C11.8926 17.8497 11.2474 17.704 10.6799 17.39Z" fill="white"/>
<path d="M20.46 10.31V5.79004H21.2899V9.79004H22.38V10.36L20.46 10.31Z" fill="white"/>
<path d="M22.6399 10.31V5.79004H23.4599V10.31H22.6399Z" fill="white"/>
<path d="M24 10.31V5.79004H25.86V6.36005H24.86V7.68004H25.7V8.25005H24.86V10.31H24Z" fill="white"/>
<path d="M26.1099 10.31V5.79004H27.9999V6.37004H26.9299V7.67004H27.7699V8.25005H26.9299V9.74005H27.9999V10.31H26.1099Z" fill="white"/>
<path d="M21.6898 17.77C21.4214 17.783 21.1547 17.7206 20.9198 17.59C20.7281 17.4682 20.5835 17.2848 20.5098 17.07C20.424 16.8157 20.3834 16.5483 20.3898 16.28V14.59C20.3834 14.3216 20.424 14.0543 20.5098 13.8C20.5911 13.5947 20.7344 13.4199 20.9198 13.3C21.1574 13.1774 21.4227 13.1188 21.6898 13.13C21.957 13.1179 22.2226 13.1765 22.4598 13.3C22.6481 13.4166 22.7923 13.5925 22.8698 13.8C22.9592 14.0536 23.0032 14.321 22.9998 14.59V16.29C23.0024 16.5556 22.9584 16.8196 22.8698 17.07C22.7962 17.2848 22.6516 17.4682 22.4598 17.59C22.2254 17.7217 21.9583 17.7841 21.6898 17.77ZM21.6898 17.16C21.7978 17.1708 21.9057 17.1385 21.9898 17.07C22.062 17.0052 22.1082 16.9163 22.1198 16.82C22.1362 16.7072 22.1362 16.5927 22.1198 16.48V14.4C22.1362 14.2872 22.1362 14.1727 22.1198 14.06C22.1052 13.9675 22.0593 13.8828 21.9898 13.82C21.9057 13.7514 21.7978 13.7191 21.6898 13.73C21.5823 13.7231 21.4758 13.755 21.3898 13.82C21.3203 13.8828 21.2745 13.9675 21.2598 14.06C21.2482 14.173 21.2482 14.2869 21.2598 14.4V16.48C21.2434 16.5927 21.2434 16.7072 21.2598 16.82C21.2714 16.9163 21.3176 17.0052 21.3898 17.07C21.474 17.1385 21.5818 17.1708 21.6898 17.16Z" fill="white"/>
<path d="M23.4399 17.7097V13.1797H23.9999L25.0999 15.7597V13.1797H25.7799V17.7097H25.2399L24.1399 14.9997V17.7097H23.4399Z" fill="white"/>
<path d="M27.5 17.7097V13.1797H28.33V17.1797H29.43V17.7497L27.5 17.7097Z" fill="white"/>
<path d="M29.46 17.7097L30.36 13.1797H31.25L32.1499 17.7097H31.39L31.21 16.6597H30.42L30.24 17.7097H29.46ZM30.46 16.1397H31.08L30.77 14.2397L30.46 16.1397Z" fill="white"/>
<path d="M32.4199 17.7097V13.1797H32.9999L34.0999 15.7597V13.1797H34.7799V17.7097H34.2399L33.1199 14.9997V17.7097H32.4199Z" fill="white"/>
<path d="M35.2898 17.71V13.18H36.3598C36.654 13.166 36.9477 13.2173 37.2198 13.33C37.3204 13.3755 37.4111 13.4405 37.4866 13.5212C37.5621 13.6018 37.621 13.6966 37.6598 13.8C37.7594 14.0512 37.807 14.3199 37.7998 14.59V16.24C37.8067 16.5198 37.7592 16.7983 37.6598 17.06C37.5827 17.2713 37.4293 17.4461 37.2298 17.55C36.9656 17.6665 36.6783 17.7212 36.3898 17.71H35.2898ZM36.1198 17.13H36.3698C36.5139 17.1448 36.6587 17.1095 36.7798 17.03C36.8643 16.9555 36.9179 16.852 36.9298 16.74C36.9417 16.5802 36.9417 16.4198 36.9298 16.26V14.53C36.943 14.3836 36.943 14.2363 36.9298 14.09C36.9101 13.9921 36.8526 13.9059 36.7698 13.85C36.6468 13.7859 36.508 13.7581 36.3698 13.77H36.1298L36.1198 17.13Z" fill="white"/>
<path d="M26.3199 42.4199H24.4899C24.4125 42.4199 24.3499 42.4826 24.3499 42.5599V47.0999C24.3499 47.1772 24.4125 47.2399 24.4899 47.2399H26.3199C26.3972 47.2399 26.4599 47.1772 26.4599 47.0999V42.5599C26.4599 42.4826 26.3972 42.4199 26.3199 42.4199Z" fill="white"/>
<path d="M46.5098 49.1797H16.2298C16.1918 49.1822 16.1562 49.1992 16.1302 49.227C16.1042 49.2549 16.0898 49.2916 16.0898 49.3297V51.1797C16.0898 51.1976 16.0935 51.2154 16.1006 51.2319C16.1078 51.2483 16.1182 51.2631 16.1314 51.2753C16.1445 51.2876 16.1601 51.2969 16.177 51.3028C16.194 51.3087 16.2119 51.3111 16.2298 51.3097H46.5098C46.5453 51.3098 46.5795 51.2964 46.6055 51.2723C46.6315 51.2482 46.6473 51.2151 46.6498 51.1797V49.3297C46.6499 49.2916 46.6355 49.2549 46.6095 49.227C46.5835 49.1992 46.5479 49.1822 46.5098 49.1797Z" fill="white"/>
<path d="M46.5098 52.8599H16.2298C16.1927 52.8599 16.1571 52.8746 16.1309 52.9009C16.1046 52.9271 16.0898 52.9627 16.0898 52.9999V54.8599C16.0898 54.8778 16.0935 54.8956 16.1006 54.912C16.1078 54.9285 16.1182 54.9433 16.1314 54.9555C16.1445 54.9677 16.1601 54.9771 16.177 54.983C16.194 54.9889 16.2119 54.9912 16.2298 54.9899H46.5098C46.5453 54.99 46.5795 54.9766 46.6055 54.9525C46.6315 54.9283 46.6473 54.8952 46.6498 54.8599V52.9999C46.6498 52.9627 46.6351 52.9271 46.6088 52.9009C46.5826 52.8746 46.547 52.8599 46.5098 52.8599Z" fill="white"/>
<path d="M40.75 37.3901C40.0044 36.7881 39.0871 36.4379 38.13 36.3901C37.2204 36.3931 36.3482 36.752 35.7 37.3901C35.6721 37.4134 35.6496 37.4424 35.6341 37.4752C35.6185 37.508 35.6103 37.5438 35.61 37.5801V37.7401C35.6087 37.7796 35.6161 37.8189 35.6317 37.8551C35.6472 37.8914 35.6706 37.9238 35.7 37.9501C35.7287 37.9743 35.7626 37.9914 35.7991 38.0001C35.8355 38.0088 35.8735 38.0088 35.91 38.0001H36C36.057 37.9787 36.1083 37.9444 36.15 37.9001C36.5279 37.7118 36.9485 37.6256 37.37 37.6501C38.5373 37.6718 39.6527 38.1366 40.49 38.9501C40.5624 39.0203 40.6592 39.0598 40.76 39.0601C40.8447 39.071 40.9304 39.0496 41 39.0001C41.8341 38.1803 42.9507 37.7115 44.12 37.6901C44.5415 37.6656 44.9621 37.7518 45.34 37.9401C45.3874 37.9871 45.4459 38.0215 45.51 38.0401C45.5654 38.0571 45.6246 38.0571 45.68 38.0401C45.7346 38.0249 45.7827 37.9922 45.817 37.9471C45.8513 37.9019 45.8699 37.8468 45.87 37.7901V37.6401C45.8695 37.5687 45.8407 37.5004 45.79 37.4501C45.1417 36.7864 44.2577 36.4055 43.33 36.3901C42.3747 36.4324 41.4589 36.7833 40.72 37.3901" fill="white"/>
<path d="M38.8699 25.32C38.8373 25.3347 38.8086 25.3568 38.786 25.3846C38.7635 25.4124 38.7477 25.4451 38.74 25.48V25.58C38.7248 25.6165 38.717 25.6555 38.717 25.695C38.717 25.7345 38.7248 25.7735 38.74 25.81C38.7627 25.8392 38.7914 25.8633 38.8241 25.8805C38.8569 25.8978 38.893 25.9078 38.9299 25.91C38.9795 25.9195 39.0304 25.9195 39.08 25.91C39.1395 25.8997 39.2004 25.8997 39.2599 25.91C39.7113 25.9378 40.1477 26.0823 40.5263 26.3295C40.905 26.5767 41.2129 26.918 41.42 27.32C41.4644 27.3943 41.5362 27.4482 41.6199 27.47H41.71C41.7627 27.4814 41.8172 27.4814 41.8699 27.47C42.2879 27.2558 42.7503 27.1428 43.22 27.14C43.7178 27.1166 44.2075 27.2727 44.6 27.58C44.625 27.6234 44.6591 27.6609 44.7 27.69L44.8 27.74H44.8699C44.9094 27.749 44.9505 27.749 44.99 27.74C45.0214 27.7236 45.0491 27.7009 45.0715 27.6734C45.0938 27.6459 45.1103 27.6141 45.1199 27.58V27.49C45.1255 27.467 45.1255 27.443 45.1199 27.42C45.1301 27.3773 45.1301 27.3327 45.1199 27.29C44.9265 26.9146 44.6321 26.6006 44.27 26.3833C43.9078 26.166 43.4923 26.054 43.07 26.06C42.6976 26.0609 42.3284 26.1286 41.9799 26.26C41.7683 25.9125 41.4797 25.6183 41.1364 25.3998C40.7932 25.1814 40.4044 25.0446 40 25C39.6065 25.0035 39.2195 25.0994 38.8699 25.28" fill="white"/>
<path d="M32.4699 29.9998V30.1398C32.4732 30.1771 32.4845 30.2132 32.503 30.2457C32.5215 30.2782 32.5468 30.3064 32.5772 30.3282C32.6076 30.35 32.6423 30.3651 32.679 30.3722C32.7157 30.3794 32.7535 30.3786 32.7899 30.3698C32.8395 30.3456 32.8838 30.3116 32.9199 30.2698C33.2732 30.082 33.6703 29.9922 34.0699 30.0098C34.9521 30.0214 35.8019 30.3436 36.4699 30.9198C36.5348 30.9739 36.6155 31.0055 36.6999 31.0098C36.7921 31.0013 36.8778 30.9584 36.9399 30.8898C37.2739 30.5117 37.6828 30.207 38.1407 29.9953C38.5986 29.7835 39.0955 29.6693 39.5999 29.6598C39.8715 29.6459 40.1424 29.6974 40.3899 29.8098C40.4353 29.8444 40.4859 29.8714 40.5399 29.8898H40.7199C40.7734 29.872 40.8193 29.8366 40.8502 29.7894C40.8811 29.7422 40.8951 29.686 40.8899 29.6298V29.5098C40.8895 29.4749 40.8813 29.4406 40.8657 29.4095C40.8501 29.3783 40.8276 29.351 40.7999 29.3298C40.2677 28.8482 39.5777 28.5778 38.8599 28.5698C38.0197 28.6087 37.2199 28.9414 36.5999 29.5098C36.0101 29.1017 35.3166 28.8694 34.5999 28.8398C34.1911 28.8443 33.7879 28.9359 33.4172 29.1083C33.0465 29.2807 32.7168 29.5301 32.4499 29.8398C32.4261 29.8652 32.4077 29.8951 32.3957 29.9277C32.3836 29.9604 32.3783 29.9951 32.3799 30.0298" fill="white"/>
<path d="M17.14 32.4102C17.1426 31.5393 17.4904 30.7051 18.1071 30.0902C18.7238 29.4754 19.5591 29.1302 20.43 29.1302H20.64C20.6881 28.4779 20.8797 27.8443 21.2011 27.2747C21.5225 26.7051 21.9658 26.2135 22.4992 25.8351C23.0327 25.4567 23.6432 25.2008 24.287 25.0858C24.9309 24.9708 25.5922 24.9994 26.2237 25.1697C26.8552 25.3399 27.4413 25.6476 27.94 26.0706C28.4388 26.4937 28.838 27.0218 29.1089 27.617C29.3799 28.2123 29.516 28.8601 29.5076 29.5141C29.4991 30.1681 29.3463 30.8121 29.06 31.4001C30.2029 31.7183 31.1954 32.4326 31.8602 33.4152C32.525 34.3978 32.8188 35.5849 32.6889 36.7641C32.5591 37.9434 32.0142 39.0381 31.1515 39.8526C30.2889 40.667 29.1647 41.1482 27.98 41.2102H21.35C20.6645 41.2098 19.9941 41.0087 19.4215 40.6317C18.849 40.2547 18.3994 39.7183 18.1282 39.0887C17.857 38.4591 17.7761 37.7639 17.8955 37.0889C18.0148 36.4138 18.3293 35.7885 18.8 35.2901C18.2925 35.0007 17.8712 34.5814 17.5795 34.0752C17.2877 33.5691 17.136 32.9944 17.14 32.4102Z" fill="white"/>
</svg>
