<svg viewBox="0 0 64 64" fill="none" xmlns="http://www.w3.org/2000/svg">
<!-- <path d="M62.3701 0.410156H0.310059V62.4702H62.3701V0.410156Z" fill="#007DBB"/> -->
<path d="M5.63017 8.14029C5.32757 8.28147 5.01705 8.405 4.70016 8.51028C4.29016 8.64028 4.03017 8.74029 3.92017 8.78029V7.1003C4.33815 6.93915 4.74275 6.74521 5.13017 6.52029C5.50045 6.3363 5.83822 6.0931 6.13017 5.80029H7.90017V17.6403H5.63017V8.14029Z" fill="white"/>
<path d="M12.4601 14.8303H8.89014V13.0503L12.0001 5.80029H14.5001V13.1203H15.6801V14.8303H14.5001V17.6403H12.5001L12.4601 14.8303ZM12.4601 13.1203V8.12029L10.6601 13.1203H12.4601Z" fill="white"/>
<path d="M20.1501 10.3203V5.80029H21.0001V9.75029H22.1001V10.3203H20.1501Z" fill="white"/>
<path d="M22.3301 10.3203V5.80029H23.1501V10.3203H22.3301Z" fill="white"/>
<path d="M23.6802 10.3203V5.80029H25.5402V6.37029H24.5402V7.68028H25.3902V8.26028H24.5402V10.3203H23.6802Z" fill="white"/>
<path d="M25.8 10.3203V5.80029H27.7V6.38029H26.63V7.68028H27.47V8.25029H26.63V9.75029H27.71V10.3203H25.8Z" fill="white"/>
<path d="M20.1501 17.7103V13.1903H21.2601C21.4415 13.1853 21.6228 13.2021 21.8001 13.2403C21.9515 13.2747 22.0944 13.3393 22.2201 13.4303C22.3416 13.5189 22.4353 13.6403 22.4901 13.7803C22.5643 13.9609 22.5984 14.1553 22.5901 14.3503C22.5922 14.5106 22.5651 14.6698 22.5101 14.8203C22.4668 14.942 22.3907 15.0493 22.2901 15.1303C22.1812 15.2035 22.0588 15.2544 21.9301 15.2803C22.0916 15.3017 22.2439 15.3675 22.3701 15.4703C22.4923 15.5644 22.583 15.6935 22.6301 15.8403C22.694 16.0165 22.7245 16.203 22.7201 16.3903C22.7224 16.5833 22.6955 16.7755 22.6401 16.9603C22.5957 17.1179 22.5133 17.2621 22.4001 17.3803C22.2867 17.4919 22.1501 17.5772 22.0001 17.6303C21.8222 17.6858 21.6365 17.7128 21.4501 17.7103H20.1501ZM21.0001 15.0003H21.2801C21.4107 15.0092 21.5414 14.9852 21.6601 14.9303C21.7482 14.8827 21.8158 14.8044 21.8501 14.7103C21.8848 14.5867 21.9016 14.4587 21.9001 14.3303C21.9114 14.2018 21.8835 14.0728 21.8201 13.9603C21.7949 13.9152 21.7605 13.8759 21.7192 13.8449C21.6779 13.8139 21.6305 13.7919 21.5801 13.7803C21.443 13.7453 21.3017 13.7285 21.1601 13.7303H21.0001V15.0003ZM21.0001 17.1003H21.3201C21.4118 17.1124 21.505 17.1023 21.592 17.071C21.6789 17.0397 21.7572 16.988 21.8201 16.9203C21.9244 16.753 21.9734 16.5571 21.9601 16.3603C21.967 16.2072 21.9432 16.0542 21.8901 15.9103C21.8548 15.8032 21.7796 15.7137 21.6801 15.6603C21.5607 15.5956 21.4259 15.5645 21.2901 15.5703H21.0001V17.1003Z" fill="white"/>
<path d="M23.0901 17.7099V13.1899H25.0001V13.7699H23.9301V15.0699H24.7701V15.6399H23.9301V17.1399H25.0001V17.7099H23.0901Z" fill="white"/>
<path d="M25.3101 17.7099V13.1899H26.1401V17.1399H27.2301V17.7099H25.3101Z" fill="white"/>
<path d="M28.67 17.77C28.4015 17.783 28.1348 17.7206 27.9 17.59C27.7137 17.4691 27.573 17.2897 27.5 17.08C27.4066 16.8274 27.3625 16.5592 27.37 16.29V14.59C27.3625 14.324 27.4067 14.0591 27.5 13.81C27.5683 13.6003 27.7105 13.4227 27.9 13.31C28.1358 13.1828 28.4025 13.1239 28.67 13.14C28.9376 13.1217 29.2049 13.1807 29.44 13.31C29.632 13.4222 29.7775 13.5996 29.85 13.81C29.9386 14.0604 29.9826 14.3244 29.98 14.59V16.29C29.9815 16.5588 29.9376 16.8259 29.85 17.08C29.7743 17.2911 29.6299 17.4708 29.44 17.59C29.2061 17.7233 28.9386 17.7858 28.67 17.77ZM28.67 17.16C28.7779 17.1709 28.8858 17.1385 28.97 17.07C29.0393 17.0055 29.088 16.922 29.11 16.83C29.1203 16.7169 29.1203 16.6031 29.11 16.49V14.4C29.1207 14.2869 29.1207 14.173 29.11 14.06C29.0884 13.9621 29.0317 13.8754 28.9507 13.8165C28.8696 13.7575 28.7697 13.7303 28.67 13.74C28.5624 13.7331 28.456 13.765 28.37 13.83C28.3018 13.8897 28.256 13.9708 28.24 14.06C28.2292 14.173 28.2292 14.2869 28.24 14.4V16.49C28.2296 16.6031 28.2296 16.7169 28.24 16.83C28.2546 16.9225 28.3005 17.0072 28.37 17.07C28.456 17.1349 28.5624 17.1669 28.67 17.16Z" fill="white"/>
<path d="M30.89 17.7099L30.25 13.1899H30.94L31.32 16.1199L31.79 13.1999H32.35L32.83 16.1199L33.2 13.1899H33.88L33.25 17.7099H32.58L32.08 14.7099L31.58 17.7099H30.89Z" fill="white"/>
<path d="M35.88 17.7099L35.24 13.1899H35.93L36.3 16.1199L36.77 13.1999H37.34L37.82 16.1199L38.19 13.1899H38.87L38.24 17.7099H37.57L37.06 14.7099L36.57 17.7099H35.88Z" fill="white"/>
<path d="M38.8501 17.7099L39.7501 13.1899H40.6301L41.5401 17.7099H40.7701L40.5901 16.7099H39.8101L39.6201 17.7099H38.8501ZM39.8501 16.1399H40.4701L40.1601 14.2399L39.8501 16.1399Z" fill="white"/>
<path d="M42.0601 17.7099V13.7899H41.3401V13.1899H43.6001V13.7899H42.8901V17.7099H42.0601Z" fill="white"/>
<path d="M43.8501 17.7099V13.1899H45.7401V13.7699H44.6701V15.0699H45.5201V15.6399H44.6701V17.1399H45.7601V17.7099H43.8501Z" fill="white"/>
<path d="M46.0701 17.7101V13.1901H47.1501C47.4137 13.1822 47.6769 13.216 47.9301 13.2901C48.1288 13.3582 48.2981 13.4923 48.4101 13.6701C48.5294 13.8869 48.5849 14.1331 48.5701 14.3801C48.5869 14.543 48.5869 14.7072 48.5701 14.8701C48.5446 15.0055 48.4862 15.1326 48.4001 15.2401C48.3172 15.352 48.202 15.4357 48.0701 15.4801L48.7001 17.7101H47.8701L47.3201 15.6401H46.9501V17.7101H46.0701ZM46.9001 15.1201H47.1501C47.2805 15.1277 47.4109 15.1037 47.5301 15.0501C47.6257 15.0064 47.7009 14.9276 47.7401 14.8301C47.7833 14.7013 47.8037 14.5659 47.8001 14.4301C47.8155 14.2503 47.7697 14.0705 47.6701 13.9201C47.6102 13.8573 47.5366 13.8092 47.4551 13.7797C47.3735 13.7502 47.2862 13.7401 47.2001 13.7501H46.9001V15.1201Z" fill="white"/>
<path d="M48.0001 45.75C47.2201 44.69 42.1501 38.23 35.0001 38.23C28.8301 38.23 22.2301 43.83 22.2301 43.83C22.2301 43.83 19.7501 38.75 14.6801 38.26H14.5501C14.4978 38.2624 14.4484 38.2843 14.4114 38.3213C14.3744 38.3583 14.3525 38.4077 14.3501 38.46C14.3672 38.5238 14.3942 38.5845 14.4301 38.64C15.9456 40.7593 16.7604 43.2995 16.7604 45.905C16.7604 48.5104 15.9456 51.0506 14.4301 53.17V53.24C14.4203 53.276 14.4203 53.314 14.4301 53.35C14.4323 53.4006 14.4527 53.4488 14.4877 53.4856C14.5226 53.5223 14.5696 53.5452 14.6201 53.55H14.7301C19.8201 53.07 22.3101 47.98 22.3101 47.98C22.3101 47.98 28.9101 53.58 35.0801 53.58C42.1801 53.58 47.2501 47.12 48.0801 46.06L48.1401 45.99C48.1532 45.9654 48.1601 45.9379 48.1601 45.91C48.1601 45.8821 48.1532 45.8546 48.1401 45.83L48.0801 45.76M39.0801 46.76C38.6683 46.762 38.2652 46.6417 37.9218 46.4143C37.5784 46.187 37.3103 45.8628 37.1513 45.4829C36.9923 45.103 36.9497 44.6845 37.0289 44.2804C37.108 43.8762 37.3053 43.5047 37.5958 43.2128C37.8863 42.9209 38.2569 42.7218 38.6606 42.6407C39.0644 42.5596 39.4831 42.6002 39.8638 42.7574C40.2444 42.9145 40.5699 43.1811 40.7989 43.5234C41.0278 43.8656 41.1501 44.2682 41.1501 44.68C41.1501 45.2299 40.9323 45.7575 40.5444 46.1472C40.1565 46.537 39.63 46.7573 39.0801 46.76Z" fill="white"/>
<path d="M21.84 32.4401V32.3802C21.8796 32.3715 21.9205 32.3715 21.96 32.3802C22.0128 32.3809 22.0631 32.4025 22.1 32.4401C25.98 36.1301 30.04 33.1401 30.89 32.4401L30.97 32.3601H31.13L31.21 32.4401C32.06 33.1401 36.12 36.1301 39.99 32.4401C40.0076 32.4205 40.0292 32.405 40.0534 32.3946C40.0776 32.3842 40.1037 32.3793 40.13 32.3802C40.1661 32.3704 40.204 32.3704 40.24 32.3802C40.2625 32.3976 40.2826 32.4177 40.3001 32.4401C41.0501 33.1801 44.3001 35.9702 47.7301 32.9902C47.7661 32.9482 47.7872 32.8954 47.7901 32.8401V31.4301C47.7901 31.4026 47.7846 31.3753 47.7741 31.3498C47.7635 31.3243 47.748 31.3012 47.7285 31.2817C47.709 31.2622 47.6859 31.2467 47.6604 31.2361C47.6349 31.2256 47.6076 31.2201 47.5801 31.2201L47.4801 31.2701C46.3147 31.8999 44.9791 32.1424 43.6667 31.9626C42.3543 31.7828 41.1332 31.1901 40.18 30.2701L40.09 30.1901C40.0643 30.1801 40.0358 30.1801 40.01 30.1901H40C39.9543 30.2014 39.9148 30.2301 39.89 30.2701C39.01 30.9401 34.89 33.6902 31.33 30.3202L31.27 30.2701C31.2525 30.2505 31.2309 30.235 31.2067 30.2246C31.1825 30.2142 31.1563 30.2093 31.13 30.2102C31.1037 30.2086 31.0773 30.2132 31.0529 30.2236C31.0286 30.234 31.0071 30.2499 30.99 30.2701L30.93 30.3202C27.31 33.6902 23.25 30.9401 22.36 30.2701C22.3509 30.2498 22.3371 30.232 22.3197 30.218C22.3023 30.2041 22.2819 30.1946 22.2601 30.1901H22.2C22.1708 30.1809 22.1393 30.1809 22.11 30.1901L22.02 30.2701C21.0685 31.1893 19.8491 31.7816 18.5385 31.9614C17.2278 32.1412 15.8939 31.8991 14.7301 31.2701L14.63 31.2201C14.6025 31.2201 14.5752 31.2256 14.5497 31.2361C14.5242 31.2467 14.5011 31.2622 14.4816 31.2817C14.4621 31.3012 14.4466 31.3243 14.436 31.3498C14.4255 31.3753 14.42 31.4026 14.42 31.4301V32.8401C14.4191 32.8679 14.4239 32.8956 14.4342 32.9215C14.4446 32.9473 14.4602 32.9707 14.4801 32.9902C17.9101 35.9902 21.1601 33.1801 21.9101 32.4401" fill="white"/>
<path d="M14.5999 26.0801C14.5729 26.0787 14.5458 26.0829 14.5203 26.0923C14.4949 26.1018 14.4717 26.1163 14.452 26.135C14.4324 26.1537 14.4167 26.1762 14.4061 26.2011C14.3954 26.2261 14.3899 26.2529 14.39 26.2801V27.7001C14.3884 27.7265 14.393 27.7529 14.4034 27.7772C14.4138 27.8015 14.4297 27.823 14.4499 27.8401C17.8799 30.8401 21.1299 28.0301 21.8799 27.2901V27.2301C21.9193 27.2199 21.9606 27.2199 22 27.2301C22.0481 27.2297 22.0945 27.2475 22.1299 27.2801C26.0099 30.9801 30.0699 27.9801 30.9199 27.2801L31 27.2101C31.0257 27.2 31.0542 27.2 31.08 27.2101C31.1058 27.2009 31.1341 27.2009 31.16 27.2101L31.2399 27.2801C32.0899 27.9801 36.1499 30.9801 40.0199 27.2801C40.0594 27.2477 40.1089 27.23 40.16 27.2301C40.1959 27.2198 40.234 27.2198 40.2699 27.2301L40.33 27.2901C41.08 28.0301 44.33 30.8201 47.76 27.8401C47.7768 27.7949 47.7768 27.7452 47.76 27.7001V26.2801C47.7614 26.2534 47.7572 26.2268 47.7477 26.2018C47.7381 26.1769 47.7234 26.1543 47.7046 26.1354C47.6857 26.1166 47.6631 26.1019 47.6382 26.0923C47.6132 26.0828 47.5866 26.0786 47.5599 26.0801L47.4599 26.1401C46.2941 26.7683 44.9589 27.0099 43.6469 26.8302C42.3349 26.6505 41.1139 26.0586 40.16 25.1401L40.07 25.0601H39.9899H40C39.9578 25.0783 39.9202 25.1056 39.8899 25.1401C39.0099 25.8201 34.89 28.5701 31.33 25.1901L31.2699 25.1401C31.2319 25.104 31.1823 25.0828 31.1299 25.0801C31.0772 25.0808 31.0269 25.1024 30.9899 25.1401L30.93 25.1901C27.31 28.5701 23.25 25.8201 22.36 25.1401C22.3358 25.1036 22.3008 25.0757 22.26 25.0601H22.1999H22.11L22.03 25.1401C21.076 26.0586 19.855 26.6505 18.543 26.8302C17.231 27.0099 15.8958 26.7683 14.73 26.1401L14.6299 26.0801" fill="white"/>
</svg>
