<svg viewBox="0 0 64 64" fill="none" xmlns="http://www.w3.org/2000/svg">
<!-- <path d="M62.89 0.370117H0.76001V62.5001H62.89V0.370117Z" fill="#F4F4F5"/> -->
<path d="M22.5501 25.9999C23.0245 25.1971 23.5991 24.4578 24.2601 23.7999L18.6501 17.6499C17.2311 19.0036 16.0302 20.5688 15.0901 22.2899L22.5501 25.9999Z" fill="#5FBB46"/>
<path d="M36.29 21.6501C37.1346 22.0346 37.9248 22.5289 38.64 23.1201L44.27 16.9801C42.7751 15.6899 41.0882 14.6407 39.27 13.8701L36.29 21.6501Z" fill="#D19F2A"/>
<path d="M49.17 23.5L41.72 27.21C42.0792 28.0545 42.328 28.9418 42.46 29.85L50.76 29.06C50.5177 27.1362 49.9815 25.261 49.17 23.5Z" fill="#C22033"/>
<path d="M41.18 26.1398L48.64 22.4198C47.7164 20.7126 46.5397 19.1549 45.15 17.7998L39.53 23.9298C40.1746 24.5909 40.7294 25.3339 41.18 26.1398Z" fill="#2D9A47"/>
<path d="M21.06 31.4299C21.06 31.2599 21.06 31.0999 21.06 30.9299L12.76 30.1899C12.76 30.5999 12.76 31.0099 12.76 31.4299C12.7597 32.9842 12.9512 34.5325 13.33 36.0399L21.33 33.7499C21.1569 32.9888 21.0697 32.2106 21.07 31.4299" fill="#48773C"/>
<path d="M40.1401 38.25C39.5583 38.9671 38.8861 39.6057 38.1401 40.15L42.5201 47.24C44.1422 46.1325 45.5855 44.7836 46.8001 43.24L40.1401 38.25Z" fill="#FDB714"/>
<path d="M42.5801 31.4298C42.5837 32.2001 42.4999 32.9684 42.3301 33.7198L50.3301 36.0198C50.7049 34.5186 50.893 32.977 50.8901 31.4298C50.8901 31.0398 50.8901 30.6498 50.8901 30.2598L42.6001 31.0398C42.6001 31.1698 42.6001 31.2998 42.6001 31.4298" fill="#EF412A"/>
<path d="M23.64 38.4099L17.01 43.4099C18.2427 44.9347 19.7032 46.2603 21.34 47.3399L25.72 40.2499C24.949 39.7187 24.2499 39.0902 23.64 38.3799" fill="#F99D25"/>
<path d="M21.1999 29.7301C21.3491 28.8102 21.6145 27.913 21.9899 27.0601L14.5399 23.3501C13.7006 25.1359 13.1472 27.0425 12.8999 29.0001L21.1999 29.7301Z" fill="#007DBB"/>
<path d="M41.4801 47.8798L37.1001 40.7998C36.2961 41.2404 35.4392 41.5765 34.55 41.7998L36.1001 49.9998C37.9942 49.5668 39.8093 48.8415 41.4801 47.8498" fill="#8F1838"/>
<path d="M42.0001 34.8799C41.7134 35.7245 41.3238 36.5305 40.8401 37.2799L47.4901 42.2799C48.5799 40.7116 49.4293 38.9892 50.0101 37.1699L42.0001 34.8799Z" fill="#00ADD8"/>
<path d="M33.37 42.0801C32.8565 42.1526 32.3386 42.1893 31.82 42.1901C31.4 42.1901 30.98 42.1901 30.57 42.1201L29 50.3101C30.9545 50.5925 32.9406 50.5757 34.89 50.2601L33.37 42.0801Z" fill="#F36E24"/>
<path d="M32.51 20.7001C33.4154 20.751 34.31 20.9225 35.17 21.2101L38.17 13.4401C36.3537 12.7921 34.4475 12.4311 32.52 12.3701L32.51 20.7001Z" fill="#EA1D2D"/>
<path d="M29.3799 41.9102C28.4594 41.6954 27.5716 41.3592 26.7399 40.9102L22.3599 48.0002C24.0673 48.9763 25.916 49.6813 27.8399 50.0901L29.3799 41.9102Z" fill="#E01A83"/>
<path d="M28.5901 21.1699C29.4718 20.8914 30.3863 20.73 31.3101 20.6899V12.3599C29.3601 12.3971 27.4274 12.7344 25.5801 13.3599L28.5901 21.1699Z" fill="#1A3668"/>
<path d="M22.9101 37.4501C22.3766 36.6632 21.9496 35.8091 21.6401 34.9102L13.6401 37.2001C14.2366 39.0913 15.1275 40.8766 16.2801 42.4902L22.9101 37.4501Z" fill="#CD8B2A"/>
<path d="M25.1601 22.9998C25.8666 22.4436 26.6391 21.9767 27.4601 21.6098L24.4601 13.8398C22.6845 14.5925 21.03 15.6034 19.55 16.8398L25.1601 22.9998Z" fill="#00558A"/>
</svg>
