<svg viewBox="0 0 64 64" fill="none" xmlns="http://www.w3.org/2000/svg">
<!-- <path d="M62.4801 0.370117H0.350098V62.5001H62.4801V0.370117Z" fill="#1A3668"/> -->
<path d="M5.76007 8.11002C5.65007 8.17002 5.34007 8.29001 4.82007 8.48001L4.05005 8.76001V7.08002C4.4619 6.90844 4.86269 6.7114 5.25006 6.49002C5.61962 6.30482 5.95721 6.06176 6.25006 5.77002H8.00006V17.62H5.73007L5.76007 8.11002Z" fill="white"/>
<path d="M12.5901 7.50002H9.37012V5.77002H14.8001V7.25002L12.3001 17.62H10.1001L12.5901 7.50002Z" fill="white"/>
<path d="M20.2002 5.76025H21.5302C22.3102 5.76025 22.6902 6.19026 22.6902 7.05026C22.7149 7.21573 22.7008 7.38467 22.649 7.54376C22.5973 7.70285 22.5092 7.84773 22.3919 7.967C22.2746 8.08626 22.1312 8.17664 21.9729 8.231C21.8147 8.28537 21.646 8.30223 21.4802 8.28026H21.0002V10.2803H20.1802L20.2002 5.76025ZM21.3402 7.70026C21.4224 7.7099 21.5056 7.70245 21.5848 7.67836C21.664 7.65427 21.7373 7.61405 21.8002 7.56026C21.8853 7.40443 21.9235 7.22732 21.9102 7.05026C21.9291 6.9109 21.9291 6.76962 21.9102 6.63026C21.9011 6.58677 21.8831 6.54562 21.8573 6.50946C21.8315 6.47331 21.7984 6.44293 21.7602 6.42026C21.6418 6.36414 21.5108 6.34001 21.3802 6.35027H21.0002V7.70026H21.3402Z" fill="white"/>
<path d="M23.4801 5.76025H24.36L25.2701 10.2903H24.5001L24.3201 9.29025H23.5401L23.3501 10.2903H22.5701L23.4801 5.76025ZM24.2401 8.76025L23.9301 6.86026L23.6201 8.76025H24.2401Z" fill="white"/>
<path d="M25.6001 5.76011H26.6901C27.0677 5.73532 27.4431 5.83356 27.7601 6.04011C27.8861 6.15774 27.9832 6.30288 28.0439 6.46418C28.1046 6.62549 28.1272 6.79862 28.1101 6.97012C28.1202 7.21028 28.0758 7.44961 27.9801 7.67011C27.9389 7.76107 27.8795 7.84261 27.8055 7.90969C27.7316 7.97677 27.6446 8.02797 27.5501 8.06011L28.1801 10.2901H27.3601L26.8101 8.22012H26.4201V10.2901H25.6001V5.76011ZM26.6801 7.76011C26.7708 7.76964 26.8624 7.75939 26.9488 7.73004C27.0351 7.70068 27.114 7.65294 27.1801 7.59011C27.2955 7.43887 27.3491 7.24941 27.3301 7.06011C27.347 6.87705 27.3012 6.69367 27.2001 6.54011C27.1389 6.47972 27.0648 6.43397 26.9834 6.40626C26.902 6.37855 26.8154 6.36962 26.7301 6.38012H26.4201V7.76011H26.6801Z" fill="white"/>
<path d="M29.0601 6.37025H28.3V5.76025H30.6201V6.37025H29.8801V10.2903H29.0601V6.37025Z" fill="white"/>
<path d="M30.8601 5.76025H31.4401L32.5401 8.35027V5.76025H33.2201V10.2903H32.6701L31.5701 7.59026V10.2903H30.8601V5.76025Z" fill="white"/>
<path d="M33.79 5.76025H35.69V6.35027H34.61V7.65025H35.46V8.23026H34.61V9.73026H35.7V10.2903H33.79V5.76025Z" fill="white"/>
<path d="M36.0601 5.76022H37.1501C37.5275 5.73686 37.9025 5.83498 38.2201 6.04022C38.346 6.15785 38.4431 6.30298 38.5038 6.46429C38.5646 6.62559 38.5872 6.79873 38.5701 6.97022C38.5802 7.21038 38.5358 7.44971 38.4401 7.67022C38.3979 7.76054 38.3381 7.84155 38.2643 7.90852C38.1905 7.97548 38.1041 8.02705 38.0101 8.06022L38.6401 10.2902H37.8101L37.2701 8.22022H36.8801V10.2902H36.0601V5.76022ZM37.1401 7.76022C37.2307 7.76909 37.3222 7.75851 37.4084 7.7292C37.4946 7.69988 37.5736 7.6525 37.6401 7.59022C37.7555 7.43897 37.8091 7.24952 37.7901 7.06022C37.807 6.87716 37.7612 6.69377 37.6601 6.54022C37.5985 6.48042 37.5243 6.43506 37.4431 6.40739C37.3618 6.37972 37.2754 6.37045 37.1901 6.38023H36.8801V7.76022H37.1401Z" fill="white"/>
<path d="M39.2902 9.99999C39.0752 9.71097 38.9594 9.36019 38.9602 8.99999L39.6702 8.85999C39.6678 9.0876 39.7156 9.31294 39.8102 9.51999C39.842 9.59079 39.8942 9.6505 39.9601 9.69147C40.026 9.73244 40.1026 9.75282 40.1802 9.74999C40.2344 9.75318 40.2887 9.74404 40.3389 9.72325C40.3892 9.70247 40.434 9.67059 40.4702 9.62999C40.5351 9.54015 40.5669 9.43062 40.5602 9.32C40.5663 9.16134 40.5245 9.00452 40.4402 8.86998C40.331 8.71812 40.2033 8.58041 40.0602 8.45999L39.4902 7.95999C39.3339 7.82328 39.202 7.66095 39.1002 7.47998C39.0025 7.28823 38.9544 7.0751 38.9602 6.85999C38.9516 6.70836 38.9758 6.55667 39.031 6.41519C39.0862 6.27372 39.1712 6.14576 39.2802 6.03998C39.5163 5.83085 39.8252 5.72309 40.1402 5.73999C40.2971 5.72652 40.4549 5.75029 40.6009 5.80938C40.7469 5.86846 40.8768 5.96118 40.9802 6.07999C41.1607 6.34244 41.2614 6.65155 41.2702 6.96999L40.5602 7.09999C40.5564 6.90924 40.5226 6.72025 40.4602 6.53998C40.4333 6.4789 40.388 6.42775 40.3306 6.39368C40.2733 6.35961 40.2067 6.34435 40.1402 6.34999C40.086 6.34752 40.0319 6.35698 39.9818 6.37772C39.9317 6.39846 39.8868 6.42996 39.8502 6.46999C39.8114 6.51127 39.7816 6.56011 39.7627 6.61347C39.7438 6.66682 39.7361 6.72352 39.7402 6.77999C39.7351 6.90612 39.7663 7.03106 39.8302 7.13999C39.9053 7.2613 39.9999 7.36942 40.1102 7.45999L40.6702 7.95999C40.8647 8.13125 41.0332 8.33002 41.1702 8.54999C41.2925 8.76997 41.3546 9.01833 41.3502 9.26999C41.3543 9.47342 41.3024 9.67406 41.2002 9.84999C41.1122 10.0196 40.9719 10.1563 40.8002 10.24C40.6209 10.343 40.4168 10.3949 40.2102 10.39C40.0376 10.3962 39.8658 10.3646 39.7068 10.2972C39.5479 10.2298 39.4057 10.1283 39.2902 9.99999Z" fill="white"/>
<path d="M41.7202 5.76025H42.5402V7.65025H43.4702V5.76025H44.2902V10.2903H43.4702V8.29025H42.5402V10.2903H41.7202V5.76025Z" fill="white"/>
<path d="M44.8901 5.76025H45.7001V10.2903H44.8901V5.76025Z" fill="white"/>
<path d="M46.28 5.76025H47.61C48.38 5.76025 48.77 6.19026 48.77 7.05026C48.7951 7.21668 48.7809 7.38664 48.7286 7.5466C48.6763 7.70656 48.5874 7.85209 48.4688 7.97157C48.3503 8.09106 48.2055 8.18118 48.046 8.23477C47.8865 8.28837 47.7166 8.30395 47.55 8.28026H47.1V10.2803H46.28V5.76025ZM47.42 7.70026C47.5006 7.7091 47.5822 7.70123 47.6596 7.67714C47.737 7.65305 47.8087 7.61326 47.87 7.56026C47.964 7.40767 48.0061 7.22876 47.99 7.05026C48.009 6.9109 48.009 6.76962 47.99 6.63026C47.9787 6.58636 47.9587 6.54516 47.9312 6.50909C47.9038 6.47303 47.8693 6.44282 47.83 6.42026C47.7152 6.36405 47.5874 6.33987 47.46 6.35027H47.14V7.70026H47.42Z" fill="white"/>
<path d="M49.32 10.0002C49.105 9.71118 48.9893 9.36041 48.99 9.00021L49.7 8.86021C49.6977 9.08782 49.7454 9.31316 49.84 9.52021C49.8735 9.59181 49.9275 9.65187 49.9952 9.6928C50.0628 9.73374 50.141 9.75371 50.22 9.75021C50.2728 9.75336 50.3256 9.74415 50.3742 9.72332C50.4228 9.70249 50.4659 9.67061 50.5 9.63021C50.5649 9.54037 50.5967 9.43084 50.59 9.32021C50.5961 9.16156 50.5543 9.00474 50.47 8.8702C50.3608 8.71834 50.2331 8.58063 50.09 8.46021L49.52 7.96021C49.3666 7.82075 49.2351 7.65892 49.13 7.4802C49.0358 7.28755 48.9911 7.07447 49 6.86021C48.9902 6.70932 49.0128 6.5581 49.0663 6.41666C49.1197 6.27523 49.2028 6.14686 49.31 6.0402C49.5492 5.82952 49.8618 5.72172 50.18 5.74021C50.3353 5.72835 50.4912 5.7529 50.6353 5.81193C50.7794 5.87096 50.9077 5.96283 51.01 6.08021C51.1949 6.34049 51.2961 6.65096 51.3 6.97021L50.59 7.10021C50.5913 6.90899 50.5574 6.71916 50.49 6.5402C50.4649 6.47992 50.4215 6.4291 50.3658 6.39498C50.3101 6.36086 50.2451 6.3452 50.18 6.35021C50.1242 6.34694 50.0685 6.35599 50.0166 6.37673C49.9648 6.39747 49.9181 6.42939 49.88 6.47021C49.8055 6.55596 49.7662 6.66669 49.77 6.78021C49.7649 6.90634 49.7962 7.03128 49.86 7.14021C49.9351 7.26152 50.0298 7.36964 50.14 7.46021L50.7 7.96021C50.8972 8.12881 51.0661 8.32801 51.2 8.55021C51.3223 8.77019 51.3844 9.01855 51.38 9.27021C51.3825 9.4722 51.3343 9.6716 51.24 9.85021C51.1464 10.0156 51.0077 10.1509 50.84 10.2402C50.6573 10.3436 50.4499 10.3954 50.24 10.3902C50.0675 10.3965 49.8957 10.3648 49.7367 10.2974C49.5777 10.23 49.4355 10.1286 49.32 10.0002Z" fill="white"/>
<path d="M20.2002 13.1602H22.0702V13.7301H21.0002V15.0502H21.8502V15.6302H21.0002V17.6902H20.1802L20.2002 13.1602Z" fill="white"/>
<path d="M22.57 17.3799C22.3479 17.0543 22.2421 16.6631 22.27 16.2699V14.5699C22.2435 14.1831 22.3493 13.7987 22.57 13.4799C22.6999 13.3494 22.8566 13.2488 23.0293 13.1849C23.202 13.121 23.3865 13.0954 23.57 13.1099C23.7538 13.0926 23.9391 13.1169 24.1122 13.1809C24.2853 13.245 24.4418 13.3472 24.57 13.4799C24.7907 13.7987 24.8965 14.1831 24.87 14.5699V16.2699C24.8964 16.6599 24.7907 17.0473 24.57 17.3699C24.4455 17.5087 24.2902 17.6163 24.1165 17.6841C23.9428 17.7518 23.7556 17.7778 23.57 17.7599C23.3855 17.7752 23.2 17.749 23.0269 17.6833C22.8539 17.6175 22.6978 17.5139 22.57 17.3799ZM24 16.9999C24.069 16.8427 24.0998 16.6713 24.09 16.4999V14.4099C24.1018 14.2416 24.0709 14.073 24 13.9199C23.94 13.7999 23.82 13.7499 23.63 13.7499C23.44 13.7499 23.32 13.7999 23.26 13.9199C23.1831 14.0712 23.1485 14.2405 23.16 14.4099V16.4999C23.1496 16.6724 23.184 16.8447 23.26 16.9999C23.297 17.0632 23.3518 17.114 23.4177 17.1461C23.4835 17.1781 23.5575 17.1899 23.63 17.1799C23.7025 17.1886 23.7759 17.1762 23.8415 17.1443C23.9071 17.1124 23.9621 17.0623 24 16.9999Z" fill="white"/>
<path d="M25.3301 13.1604H26.4201C26.795 13.131 27.1687 13.2297 27.4801 13.4404C27.6098 13.5556 27.7101 13.7 27.7727 13.8618C27.8353 14.0235 27.8584 14.1979 27.8401 14.3704C27.8452 14.6101 27.8009 14.8484 27.7101 15.0704C27.6679 15.1607 27.6082 15.2417 27.5344 15.3086C27.4605 15.3756 27.3741 15.4272 27.2801 15.4604L27.9101 17.6904H27.0801L26.5401 15.6204H26.1501V17.6904H25.3301V13.1604ZM26.4101 15.1004C26.5 15.1106 26.5911 15.1016 26.6772 15.074C26.7634 15.0464 26.8428 15.0009 26.9101 14.9404C27.0246 14.7887 27.0781 14.5996 27.0601 14.4104C27.077 14.2273 27.0312 14.0439 26.9301 13.8904C26.8685 13.8306 26.7944 13.7852 26.7131 13.7575C26.6318 13.7299 26.5454 13.7206 26.4601 13.7304H26.1501V15.1004H26.4101Z" fill="white"/>
<path d="M29.9301 13.7702H29.1702V13.1602H31.4901V13.7702H30.7502V17.6902H29.9301V13.7702Z" fill="white"/>
<path d="M31.7002 13.1602H32.5202V15.0502H33.4502V13.1602H34.2702V17.6902H33.4502V15.6902H32.5202V17.6902H31.7002V13.1602Z" fill="white"/>
<path d="M34.8 13.1602H36.7001V13.7502H35.6201V15.0502H36.4701V15.6201H35.6201V17.1302H36.7101V17.6902H34.8V13.1602Z" fill="white"/>
<path d="M38.4302 17.3603C38.2175 17.0123 38.1163 16.6075 38.1402 16.2003V14.6803C38.1143 14.2698 38.2155 13.8612 38.4302 13.5103C38.5521 13.3678 38.7068 13.2569 38.881 13.1872C39.0551 13.1176 39.2436 13.0912 39.4302 13.1103C39.6117 13.0885 39.7958 13.1076 39.9689 13.1665C40.142 13.2253 40.2996 13.3223 40.4302 13.4503C40.6456 13.7371 40.7488 14.0928 40.7202 14.4503V14.6903H39.9302V14.4303C39.9425 14.3006 39.9425 14.17 39.9302 14.0403C39.9144 13.9539 39.8683 13.8759 39.8002 13.8203C39.7167 13.7588 39.6134 13.7303 39.5102 13.7403C39.4545 13.7349 39.3982 13.741 39.3448 13.7582C39.2915 13.7754 39.2423 13.8034 39.2002 13.8403C39.1299 13.9107 39.0843 14.0019 39.0702 14.1003C39.0579 14.2334 39.0579 14.3673 39.0702 14.5003V16.4003C39.0573 16.5988 39.0916 16.7976 39.1702 16.9803C39.2147 17.0423 39.2732 17.0927 39.341 17.1275C39.4088 17.1624 39.484 17.1805 39.5602 17.1805C39.6364 17.1805 39.7116 17.1624 39.7794 17.1275C39.8472 17.0927 39.9058 17.0423 39.9502 16.9803C40.0336 16.7918 40.0713 16.5862 40.0602 16.3803V15.9603H39.5702V15.4403H40.8002V17.7303H40.2602L40.2102 17.2903C40.1543 17.4472 40.049 17.5816 39.9101 17.6736C39.7713 17.7655 39.6064 17.81 39.4402 17.8003C39.2473 17.834 39.0487 17.8102 38.8692 17.732C38.6896 17.6537 38.537 17.5245 38.4302 17.3603Z" fill="white"/>
<path d="M41.4001 17.3799C41.1779 17.0543 41.0722 16.6631 41.1001 16.2699V14.5699C41.0736 14.1831 41.1794 13.7987 41.4001 13.4799C41.5296 13.3489 41.6863 13.2478 41.859 13.1839C42.0318 13.12 42.2165 13.0947 42.4001 13.1099C42.5838 13.0926 42.7691 13.1169 42.9422 13.1809C43.1154 13.245 43.2718 13.3472 43.4001 13.4799C43.6208 13.7987 43.7266 14.1831 43.7001 14.5699V16.2699C43.7265 16.6599 43.6208 17.0473 43.4001 17.3699C43.2746 17.5075 43.1191 17.6142 42.9457 17.6819C42.7723 17.7495 42.5855 17.7762 42.4001 17.7599C42.2155 17.776 42.0298 17.7501 41.8566 17.6843C41.6835 17.6185 41.5274 17.5145 41.4001 17.3799ZM42.7801 16.9699C42.849 16.8127 42.8799 16.6413 42.8701 16.4699V14.3799C42.8819 14.2116 42.8509 14.043 42.7801 13.8899C42.7201 13.7699 42.6001 13.7199 42.4101 13.7199C42.3372 13.7095 42.2628 13.7199 42.1955 13.75C42.1283 13.7801 42.0709 13.8286 42.0301 13.8899C41.9619 14.0439 41.9311 14.2118 41.9401 14.3799V16.4699C41.9303 16.6413 41.9611 16.8127 42.0301 16.9699C42.0705 17.0322 42.1274 17.0821 42.1945 17.1139C42.2616 17.1457 42.3363 17.1581 42.4101 17.1499C42.4796 17.1617 42.551 17.1539 42.6164 17.1274C42.6817 17.1009 42.7384 17.0568 42.7801 16.9999V16.9699Z" fill="white"/>
<path d="M44.8302 13.1602H45.7102L46.6202 17.6902H45.8502L45.6802 16.6902H44.8902L44.7002 17.6902H43.9302L44.8302 13.1602ZM45.5902 16.1602L45.2802 14.2601L44.9702 16.1602H45.5902Z" fill="white"/>
<path d="M46.9102 13.1602H47.7302V17.1602H48.8301V17.7202H46.9102V13.1602Z" fill="white"/>
<path d="M49.31 17.4104C49.095 17.1214 48.9793 16.7706 48.98 16.4104L49.69 16.2704C49.6876 16.498 49.7354 16.7233 49.83 16.9304C49.8635 17.002 49.9175 17.062 49.9851 17.103C50.0527 17.1439 50.131 17.1639 50.21 17.1604C50.2628 17.1635 50.3156 17.1543 50.3642 17.1335C50.4128 17.1127 50.4558 17.0808 50.49 17.0404C50.5549 16.9505 50.5866 16.841 50.58 16.7304C50.5861 16.5717 50.5443 16.4149 50.46 16.2804C50.3508 16.1285 50.2231 15.9908 50.08 15.8704L49.51 15.3704C49.3509 15.2324 49.2187 15.0663 49.12 14.8804C49.0258 14.6913 48.9811 14.4814 48.99 14.2704C48.98 14.118 49.0025 13.9652 49.0559 13.8221C49.1094 13.679 49.1925 13.5489 49.3 13.4404C49.5427 13.237 49.8537 13.1333 50.17 13.1504C50.3253 13.1385 50.4811 13.1631 50.6252 13.2221C50.7693 13.2811 50.8977 13.373 51 13.4904C51.1805 13.7528 51.2813 14.0619 51.29 14.3804L50.58 14.5104C50.5822 14.3191 50.5483 14.1291 50.48 13.9504C50.4549 13.8901 50.4114 13.8393 50.3557 13.8052C50.3001 13.771 50.2351 13.7554 50.17 13.7604C50.1142 13.7571 50.0584 13.7662 50.0066 13.7869C49.9547 13.8076 49.9081 13.8396 49.87 13.8804C49.8312 13.9217 49.8015 13.9705 49.7825 14.0239C49.7636 14.0772 49.7559 14.1339 49.76 14.1904C49.7565 14.3163 49.7877 14.4408 49.85 14.5504C49.9279 14.6696 50.0221 14.7773 50.13 14.8704L50.69 15.3704C50.8845 15.5416 51.0529 15.7404 51.19 15.9604C51.3123 16.1804 51.3744 16.4287 51.37 16.6804C51.3724 16.8824 51.3243 17.0818 51.23 17.2604C51.1364 17.4257 50.9976 17.561 50.83 17.6504C50.5866 17.7765 50.3103 17.825 50.0385 17.7892C49.7667 17.7535 49.5124 17.6352 49.31 17.4504V17.4104Z" fill="white"/>
<path d="M47.27 38.0799C47.2689 35.9764 46.4525 33.9553 44.9924 32.4411C43.5323 30.9269 41.5421 30.0376 39.4401 29.9599C38.8796 28.3749 37.8416 27.0025 36.4689 26.0319C35.0962 25.0612 33.4563 24.54 31.7751 24.54C30.0938 24.54 28.454 25.0612 27.0812 26.0319C25.7085 27.0025 24.6705 28.3749 24.11 29.9599C22.4428 30.0191 20.8343 30.5904 19.5032 31.596C18.1721 32.6017 17.1831 33.9929 16.6707 35.5806C16.1582 37.1682 16.1472 38.8751 16.6391 40.4692C17.1311 42.0633 18.1021 43.4672 19.4201 44.4899C19.2059 45.2241 19.0982 45.9852 19.1001 46.7499C19.1019 48.2288 19.5072 49.6792 20.2721 50.9448C21.0371 52.2105 22.1327 53.2436 23.4412 53.9328C24.7496 54.622 26.2213 54.9412 27.6978 54.8561C29.1742 54.771 30.5994 54.2849 31.8201 53.4499C33.1517 54.3492 34.7232 54.8266 36.33 54.8199C37.5867 54.8214 38.8266 54.5311 39.952 53.972C41.0775 53.413 42.0578 52.6003 42.8158 51.598C43.5739 50.5957 44.0889 49.4311 44.3204 48.1959C44.552 46.9608 44.4936 45.6887 44.1501 44.4799C45.1227 43.7208 45.9093 42.7497 46.4499 41.6406C46.9906 40.5316 47.2711 39.3138 47.27 38.0799ZM38.27 32.6699C38.2659 34.2228 37.706 35.7229 36.6917 36.8987C35.6773 38.0744 34.2755 38.8482 32.74 39.0799C32.6849 38.7494 32.6548 38.4151 32.6501 38.0799C32.6525 36.525 33.2131 35.0227 34.2298 33.8463C35.2466 32.6698 36.6519 31.8975 38.1901 31.6699C38.2427 32.0007 38.2695 32.335 38.27 32.6699ZM31.8101 51.3399C31.1914 50.7407 30.6985 50.0242 30.36 49.2322C30.0215 48.4403 29.8443 47.5888 29.8387 46.7275C29.8331 45.8663 29.9993 45.0126 30.3274 44.2163C30.6556 43.42 31.1393 42.6971 31.7501 42.0899C32.3687 42.6892 32.8616 43.4057 33.2001 44.1977C33.5386 44.9896 33.7158 45.8411 33.7214 46.7023C33.727 47.5636 33.5608 48.4173 33.2327 49.2136C32.9045 50.0099 32.4209 50.7327 31.8101 51.3399ZM25.3701 31.6699C26.9082 31.8975 28.3135 32.6698 29.3303 33.8463C30.347 35.0227 30.9076 36.525 30.9101 38.0799C30.9053 38.4151 30.8753 38.7494 30.8201 39.0799C29.9732 38.9568 29.1591 38.6666 28.4253 38.2263C27.6915 37.7859 27.0525 37.2041 26.5455 36.5147C26.0384 35.8252 25.6734 35.0419 25.4716 34.2103C25.2698 33.3786 25.2353 32.5151 25.3701 31.6699ZM30.21 40.9899C29.6704 42.0658 28.8421 42.9704 27.8178 43.6026C26.7936 44.2348 25.6137 44.5698 24.4101 44.5699C23.3654 44.5759 22.3352 44.3252 21.4101 43.8399C21.9493 42.7629 22.7771 41.8569 23.8013 41.223C24.8254 40.5891 26.0056 40.2522 27.21 40.2499C28.2557 40.2458 29.2862 40.5 30.21 40.9899ZM33.3201 40.9399C34.0871 40.5376 34.9271 40.2932 35.7902 40.2211C36.6534 40.149 37.5222 40.2506 38.3454 40.5201C39.1686 40.7895 39.9295 41.2212 40.5829 41.7897C41.2364 42.3582 41.7693 43.052 42.1501 43.8299C41.383 44.2322 40.5431 44.4767 39.6799 44.5488C38.8167 44.6209 37.9479 44.5193 37.1247 44.2498C36.3015 43.9804 35.5407 43.5487 34.8872 42.9802C34.2337 42.4117 33.7008 41.7179 33.3201 40.9399ZM31.7801 26.1699C33.0535 26.1611 34.3013 26.5272 35.3682 27.2224C36.4351 27.9177 37.2739 28.9114 37.7801 30.0799C36.4865 30.3001 35.2653 30.8298 34.2206 31.6238C33.1759 32.4178 32.3386 33.4525 31.7801 34.6399C31.2249 33.4597 30.3949 32.4297 29.3597 31.6362C28.3244 30.8428 27.1141 30.3092 25.83 30.0799C26.3329 28.9193 27.164 27.9309 28.221 27.2362C29.2781 26.5416 30.5152 26.1709 31.7801 26.1699ZM17.9201 38.0799C17.9231 36.4793 18.5165 34.9361 19.5868 33.7459C20.657 32.5558 22.1288 31.8023 23.7201 31.6299C23.6731 31.9612 23.6497 32.2954 23.6501 32.6299C23.649 33.7605 23.8852 34.8787 24.3434 35.9122C24.8016 36.9457 25.4716 37.8716 26.3101 38.6299C25.0079 38.7818 23.7613 39.2445 22.6754 39.9789C21.5894 40.7133 20.6959 41.698 20.0701 42.8499C19.3943 42.2439 18.8537 41.5024 18.4833 40.6737C18.1129 39.845 17.921 38.9476 17.9201 38.0399M20.74 46.7099C20.74 46.2563 20.7869 45.8039 20.8801 45.3599C21.98 45.8942 23.1872 46.1712 24.4101 46.1699C25.7834 46.1735 27.1354 45.8295 28.3401 45.1699C28.099 46.4476 28.1695 47.7645 28.5455 49.0091C28.9215 50.2538 29.592 51.3894 30.5001 52.3199C29.5148 52.8982 28.3943 53.2057 27.2519 53.2113C26.1096 53.2169 24.986 52.9205 23.9951 52.3519C23.0043 51.7834 22.1814 50.963 21.6097 49.974C21.0381 48.9849 20.738 47.8623 20.74 46.7199M42.8201 46.6599C42.8174 48.3804 42.1328 50.0296 40.9163 51.2461C39.6997 52.4627 38.0505 53.1473 36.33 53.1499C35.2073 53.1522 34.1037 52.8591 33.1301 52.2999C34.5614 50.7947 35.3597 48.7971 35.36 46.7199C35.3616 46.1963 35.3114 45.6737 35.21 45.1599C36.4136 45.8223 37.7663 46.1666 39.1401 46.1599C40.3707 46.1633 41.5855 45.8827 42.6901 45.3399C42.7788 45.7675 42.8224 46.2032 42.8201 46.6399M37.3 38.5699C38.1289 37.8067 38.7893 36.8788 39.2387 35.8456C39.6882 34.8124 39.9168 33.6967 39.9101 32.5699C39.9058 32.2356 39.8824 31.9017 39.8401 31.5699C41.0839 31.7024 42.2627 32.192 43.2344 32.9796C44.2061 33.7673 44.9291 34.8193 45.316 36.0088C45.703 37.1982 45.7375 38.4743 45.4152 39.6829C45.093 40.8915 44.4278 41.981 43.5001 42.8199C42.8842 41.6646 41.9993 40.6743 40.9202 39.9329C39.8411 39.1914 38.5994 38.7205 37.3 38.5599" fill="white"/>
</svg>
