<svg viewBox="0 0 64 64" fill="none" xmlns="http://www.w3.org/2000/svg">
<!-- <path d="M1.00896 0.391684L0.922363 62.4116L62.9423 62.4982L63.0289 0.47828L1.00896 0.391684Z" fill="#48773C"/> -->
<path d="M6.41996 8.12027C6.11651 8.25946 5.8061 8.38297 5.48996 8.49028C5.07996 8.63028 4.81996 8.72028 4.70996 8.77028V7.08028C5.12716 6.91732 5.53162 6.72345 5.91996 6.50027C6.29025 6.31628 6.62802 6.07308 6.91996 5.78027H8.68996V17.6303H6.41996V8.12027Z" fill="white"/>
<path d="M10.6001 16.9002C10.0643 16.1244 9.80377 15.1915 9.86007 14.2503V13.8403H12.1101V14.2302C12.0885 14.6776 12.1636 15.1244 12.3301 15.5402C12.4034 15.6713 12.5135 15.7781 12.6468 15.8474C12.78 15.9167 12.9306 15.9455 13.0801 15.9302C13.227 15.9482 13.3758 15.9192 13.5051 15.8474C13.6345 15.7755 13.7377 15.6645 13.8001 15.5303C13.9432 15.1091 14.0043 14.6644 13.9801 14.2203C14.0129 13.7338 13.9163 13.2473 13.7001 12.8103C13.5901 12.6496 13.4399 12.5206 13.2643 12.4364C13.0888 12.3521 12.8942 12.3155 12.7001 12.3303H12.2901V10.6802H12.6601C12.8551 10.7005 13.0522 10.6739 13.2348 10.6026C13.4175 10.5313 13.5804 10.4173 13.7101 10.2703C13.9347 9.85757 14.0354 9.38879 14.0001 8.92025C14.0243 8.53527 13.9521 8.15033 13.7901 7.80026C13.7131 7.67375 13.6017 7.57176 13.4689 7.50624C13.336 7.44071 13.1873 7.41436 13.0401 7.43025C12.8962 7.41512 12.7512 7.44561 12.6256 7.51739C12.5 7.58917 12.4001 7.69861 12.3401 7.83026C12.1883 8.20108 12.1168 8.59981 12.1301 9.00025V9.52026H9.86007V8.88026C9.83227 8.44595 9.89038 8.01042 10.0311 7.5986C10.1718 7.18678 10.3923 6.80674 10.6801 6.48025C10.9919 6.18701 11.3602 5.96041 11.7625 5.81426C12.1649 5.66812 12.5927 5.60552 13.0201 5.63026C13.8875 5.57887 14.7399 5.87377 15.3901 6.45025C15.6803 6.7674 15.9034 7.13994 16.0461 7.5455C16.1887 7.95105 16.2479 8.38125 16.2201 8.81025C16.2424 9.40956 16.0933 10.0028 15.7901 10.5203C15.6788 10.7312 15.5257 10.9172 15.3399 11.0668C15.1542 11.2164 14.9399 11.3265 14.7101 11.3903C15.7101 11.7603 16.2201 12.6903 16.2201 14.1903C16.2766 15.1438 16.0087 16.0883 15.4601 16.8702C15.166 17.2155 14.7942 17.4861 14.3753 17.66C13.9564 17.8338 13.5022 17.9058 13.0501 17.8702C12.5948 17.9057 12.1375 17.8367 11.7129 17.6686C11.2883 17.5006 10.9077 17.2377 10.6001 16.9002Z" fill="white"/>
<path d="M22.1701 10.3601C21.8967 10.3793 21.6241 10.3129 21.3901 10.1701C21.1985 10.0417 21.0572 9.8509 20.9901 9.63015C20.9136 9.37735 20.8765 9.11426 20.8801 8.85015V7.24015C20.8767 6.9662 20.9137 6.69324 20.9901 6.43014C21.0612 6.21675 21.2021 6.03357 21.3901 5.91015C21.626 5.77203 21.8972 5.70597 22.1701 5.72014C22.4231 5.7106 22.6743 5.76567 22.9001 5.88015C23.0749 5.98642 23.2088 6.14846 23.2801 6.34014C23.3554 6.56229 23.3926 6.79558 23.3901 7.03014V7.41015H22.6001V7.00014C22.606 6.88355 22.606 6.76673 22.6001 6.65014C22.5902 6.55742 22.5518 6.47006 22.4901 6.40014C22.4003 6.33865 22.294 6.30576 22.1851 6.30576C22.0763 6.30576 21.97 6.33865 21.8801 6.40014C21.8109 6.47007 21.7684 6.5621 21.7601 6.66015C21.749 6.78323 21.749 6.90706 21.7601 7.03014V9.03014C21.7421 9.16287 21.7421 9.29741 21.7601 9.43014C21.7664 9.47742 21.782 9.523 21.806 9.5642C21.8301 9.6054 21.8621 9.64141 21.9001 9.67014C21.9805 9.73017 22.0801 9.75864 22.1801 9.75014C22.2881 9.76103 22.396 9.72867 22.4801 9.66015C22.5369 9.58444 22.5716 9.4944 22.5801 9.40014C22.5913 9.27706 22.5913 9.15322 22.5801 9.03014V8.63015H23.3701V9.00014C23.3726 9.24124 23.3355 9.48111 23.2601 9.71015C23.1973 9.91142 23.0665 10.0846 22.8901 10.2001C22.6708 10.3224 22.4206 10.378 22.1701 10.3601Z" fill="white"/>
<path d="M23.8 10.3V5.77002H24.6301V9.77002H25.7201V10.34L23.8 10.3Z" fill="white"/>
<path d="M26 10.3V5.77002H26.82V10.3H26Z" fill="white"/>
<path d="M27.3201 10.3L27.4001 5.77002H28.2501L28.9001 8.91002L29.5701 5.77002H30.3901L30.4801 10.3H29.8601L29.8001 7.16002L29.1501 10.3H28.6601L28.0001 7.14001L27.9401 10.3H27.3201Z" fill="white"/>
<path d="M30.75 10.3L31.66 5.77002H32.54L33.45 10.3H32.68L32.5 9.30002H31.71L31.53 10.3H30.75ZM31.75 8.73001H32.36L32.06 6.83002L31.75 8.73001Z" fill="white"/>
<path d="M34 10.3V6.38002H33.28V5.77002H35.54V6.38002H34.8V10.3H34Z" fill="white"/>
<path d="M35.76 10.3V5.77002H37.66V6.36002H36.58V7.66002H37.43V8.23001H36.58V9.73001H37.67V10.3H35.76Z" fill="white"/>
<path d="M20.72 17.6999L21.62 13.1699H22.51L23.41 17.6999H22.65L22.47 16.6999H21.68L21.5 17.6999H20.72ZM21.72 16.1299H22.34L22.03 14.2299L21.72 16.1299Z" fill="white"/>
<path d="M24.8701 17.7599C24.5951 17.7811 24.3209 17.7108 24.0901 17.5599C23.9003 17.434 23.7592 17.247 23.6901 17.0299C23.6135 16.7771 23.5764 16.5141 23.5801 16.2499V14.6399C23.5766 14.366 23.6137 14.093 23.6901 13.8299C23.7611 13.6166 23.9021 13.4334 24.0901 13.3099C24.324 13.1672 24.5967 13.1008 24.8701 13.1199C25.1235 13.1056 25.3759 13.161 25.6001 13.2799C25.7748 13.3862 25.9087 13.5483 25.9801 13.7399C26.0558 13.9585 26.093 14.1886 26.0901 14.4199V14.7999H25.3001V14.4099C25.3001 14.2899 25.3001 14.1699 25.3001 14.0699C25.2902 13.9772 25.2518 13.8899 25.1901 13.8199C25.1492 13.7843 25.1016 13.757 25.0501 13.7399C24.9986 13.7227 24.9442 13.7159 24.8901 13.7199C24.778 13.7144 24.6678 13.7499 24.5801 13.8199C24.5128 13.8912 24.4707 13.9825 24.4601 14.0799C24.449 14.2064 24.449 14.3335 24.4601 14.4599V16.4599C24.4423 16.596 24.4423 16.7339 24.4601 16.8699C24.4663 16.9172 24.482 16.9628 24.506 17.004C24.53 17.0452 24.562 17.0812 24.6001 17.1099C24.6826 17.1656 24.7806 17.1936 24.8801 17.1899C24.9343 17.1958 24.9892 17.1899 25.041 17.1726C25.0927 17.1554 25.1402 17.1272 25.1801 17.0899C25.2389 17.0154 25.2738 16.9247 25.2801 16.8299C25.2912 16.7102 25.2912 16.5897 25.2801 16.4699V15.9999H26.0701V16.3699C26.0717 16.611 26.0345 16.8507 25.9601 17.0799C25.8967 17.2783 25.7658 17.4482 25.5901 17.5599C25.3753 17.6967 25.1246 17.7664 24.8701 17.7599Z" fill="white"/>
<path d="M27 17.6999V13.7799H26.28V13.1699H28.54V13.7799H27.83V17.6999H27Z" fill="white"/>
<path d="M28.76 17.6999V13.1699H29.57V17.6999H28.76Z" fill="white"/>
<path d="M31.33 17.7602C31.0647 17.7735 30.8011 17.7111 30.57 17.5802C30.38 17.461 30.2356 17.2814 30.16 17.0702C30.0752 16.8122 30.0346 16.5417 30.04 16.2702V14.5802C30.0336 14.3119 30.0742 14.0445 30.16 13.7902C30.2375 13.5827 30.3817 13.4068 30.57 13.2902C30.8039 13.1676 31.0661 13.1089 31.33 13.1202C31.6003 13.1082 31.8691 13.1668 32.11 13.2902C32.2954 13.4101 32.4387 13.5849 32.52 13.7902C32.6057 14.0445 32.6464 14.3119 32.64 14.5802V16.2802C32.6456 16.5452 32.605 16.8091 32.52 17.0602C32.4463 17.275 32.3017 17.4584 32.11 17.5802C31.872 17.7122 31.6017 17.7746 31.33 17.7602ZM31.33 17.1502C31.4408 17.1586 31.5509 17.1266 31.64 17.0602C31.7061 16.9948 31.7513 16.9113 31.77 16.8202C31.7807 16.7038 31.7807 16.5866 31.77 16.4702V14.3902C31.7812 14.2771 31.7812 14.1632 31.77 14.0502C31.7513 13.9591 31.7061 13.8756 31.64 13.8102C31.5509 13.7437 31.4408 13.7117 31.33 13.7202C31.2252 13.7109 31.121 13.7432 31.04 13.8102C30.9707 13.8746 30.9219 13.9581 30.9 14.0502C30.8887 14.1632 30.8887 14.2771 30.9 14.3902V16.4702C30.8892 16.5866 30.8892 16.7038 30.9 16.8202C30.9146 16.9127 30.9605 16.9974 31.03 17.0602C31.116 17.1251 31.2224 17.1571 31.33 17.1502Z" fill="white"/>
<path d="M33.0801 17.6999V13.1699H33.6601L34.7601 15.7499V13.1699H35.4401V17.6999H34.8901L33.7901 14.9999V17.7099L33.0801 17.6999Z" fill="white"/>
<path d="M55.3301 39.3301C52.679 35.7561 49.229 32.8515 45.2555 30.8483C41.2819 28.8451 36.8951 27.7988 32.4452 27.793C27.9953 27.7872 23.6057 28.822 19.6269 30.8147C15.6482 32.8075 12.1905 35.703 9.5301 39.2701L9.3501 39.5201L9.5301 39.7801C12.1791 43.3565 15.6281 46.2635 19.6014 48.2688C23.5746 50.2741 27.9619 51.3221 32.4125 51.3289C36.8631 51.3357 41.2536 50.3011 45.2329 48.308C49.2123 46.3148 52.6702 43.4184 55.3301 39.8501C55.3821 39.8293 55.4266 39.7934 55.458 39.7471C55.4894 39.7007 55.5062 39.646 55.5062 39.5901C55.5062 39.5341 55.4894 39.4794 55.458 39.4331C55.4266 39.3867 55.3821 39.3508 55.3301 39.3301ZM24.7301 33.6001C24.8601 33.4201 25.2701 32.9001 25.3201 32.8301C25.4475 32.7102 25.6152 32.6424 25.7901 32.6401C25.9301 32.6401 26.1301 32.6901 26.1501 32.8001C26.1631 33.0146 26.1182 33.2288 26.0201 33.4201C25.7522 33.6861 25.3969 33.846 25.0201 33.87C24.8001 33.87 24.7101 33.6701 24.7501 33.6001M24.2601 34.6001V34.54C24.4755 34.3665 24.7435 34.2713 25.0201 34.2701C25.2601 34.2201 25.5801 34.35 25.6101 34.51C25.6401 34.67 25.0101 34.9501 24.8901 35.0601C24.5601 35.3701 24.0401 35.9901 23.7401 36.0601C23.6598 36.0918 23.5704 36.0918 23.4901 36.0601C23.6877 35.5632 23.9286 35.0847 24.2101 34.6301M29.3601 45.2501C29.2774 45.7056 29.0736 46.1304 28.7701 46.4801C28.4126 46.8068 27.9444 46.9855 27.4601 46.9801C27.0201 46.9801 26.9601 45.78 26.9601 45.18C26.9601 44.97 26.6701 45.5901 26.5201 44.3401C26.4201 43.5401 25.9001 44.4201 25.8701 43.8801C25.8401 43.3401 25.5701 43.4601 25.3101 43.1201C25.0501 42.7801 24.7001 43.1201 24.3101 43.3201C23.9201 43.5201 24.0901 43.5801 23.5501 43.4101C23.0553 42.2217 22.8004 40.9473 22.8001 39.6601C22.8001 39.3301 22.8001 39.0101 22.8501 38.6601C22.8653 38.6271 22.8856 38.5968 22.9101 38.5701C23.4201 37.9601 23.4101 37.8201 23.4101 37.8201L23.9701 37.6301C24.5075 37.7167 25.0362 37.8506 25.5501 38.0301C26.1101 38.2401 26.9801 38.7101 27.5501 38.5001C27.9201 38.3501 28.2001 38.1501 28.1701 37.8401C28.1401 37.5301 27.8301 37.3601 27.4601 37.6201C27.3201 37.7201 27.0301 37.0401 26.8101 37.0701C26.5901 37.1001 27.0901 37.87 26.8901 37.9C26.6901 37.93 26.3101 37.1101 26.2501 36.9701C26.1901 36.8301 25.8801 36.51 25.6101 36.76C25.0501 37.3 24.1201 37.26 23.9401 37.4C23.3701 37.82 23.2301 37.2601 23.2401 36.9201C23.2588 36.8421 23.2822 36.7653 23.3101 36.6901C23.4655 36.5851 23.644 36.5193 23.8303 36.4984C24.0167 36.4775 24.2053 36.5021 24.3801 36.5701C24.6301 36.7401 24.8101 36.57 24.9101 36.43C25.0101 36.29 24.9701 36.17 24.9101 36.04C24.8501 35.91 25.0301 35.8001 25.1601 35.7701C25.4133 35.6441 25.6572 35.5004 25.8901 35.3401C26.3682 35.1876 26.882 35.1876 27.3601 35.3401C27.5219 35.4334 27.7118 35.4655 27.8954 35.4307C28.0789 35.3958 28.2438 35.2962 28.3601 35.15C28.5538 34.9134 28.7915 34.7164 29.0601 34.5701C29.2001 34.5001 28.7101 34.0501 28.3101 34.5701C27.9101 35.0901 27.7101 35.1001 27.5301 35.1001C27.3501 35.1001 26.2301 34.8301 26.0901 34.4701C25.9501 34.1101 26.4401 33.8601 26.8501 33.6601C27.4478 33.5211 28.057 33.4374 28.6701 33.4101C29.2501 33.2801 30.0001 32.9901 30.3801 33.2401C30.7601 33.4901 28.8101 33.9401 29.4401 34.2401C29.6701 34.3701 30.7001 33.6501 31.0501 33.4701C31.8801 33.0401 30.2501 32.9001 30.4601 32.0301C30.6701 31.1601 28.4601 31.43 27.3501 31.51C28.8752 30.5311 30.6478 30.0073 32.4601 30.0001C34.6231 30.0031 36.7223 30.7336 38.42 32.074C40.1177 33.4144 41.3152 35.2868 41.8201 37.3901C41.837 37.5396 41.837 37.6905 41.8201 37.8401C41.776 37.9496 41.702 38.0446 41.6065 38.1142C41.511 38.1837 41.3979 38.225 41.2801 38.2333C41.1623 38.2417 41.0445 38.2167 40.9402 38.1613C40.8358 38.1059 40.7492 38.0223 40.6901 37.9201C40.5901 37.7801 40.1801 37.3901 40.1901 38.0601C40.2001 38.7301 40.8401 38.7901 40.1901 39.1901C39.8919 39.4004 39.5501 39.5405 39.1901 39.6001C39.0176 39.7345 38.8822 39.9106 38.7965 40.1117C38.7108 40.3129 38.6776 40.5326 38.7001 40.7501C38.7701 41.1201 39.6401 42.1201 38.9901 42.0801C38.3874 41.7858 37.8733 41.3373 37.5001 40.7801C37.3001 40.2501 37.0801 39.7201 36.9301 39.3201C36.9105 39.2226 36.8657 39.132 36.8002 39.0572C36.7347 38.9823 36.6508 38.926 36.5568 38.8936C36.4628 38.8613 36.3619 38.8541 36.2643 38.8727C36.1666 38.8914 36.0755 38.9353 36.0001 39.0001C35.6601 39.2301 36.1001 39.4601 35.8501 40.0001C35.6001 40.5401 35.4301 40.9401 35.0701 40.5301C34.1301 39.4501 32.7601 39.9801 32.5501 38.7801C32.4301 38.1301 31.8701 38.1901 31.4101 37.7801C30.9501 37.3701 30.6801 37.2201 30.6001 37.4801C30.5201 37.7401 32.0701 38.9401 32.1801 39.2501C32.3401 39.7201 31.7101 40.1301 31.2601 40.2501C30.8101 40.3701 30.6001 39.9901 30.1501 39.5201C29.7001 39.0501 29.5101 38.7201 29.4801 39.0901C29.4954 39.4061 29.5826 39.7145 29.7351 39.9918C29.8876 40.269 30.1014 40.5079 30.3601 40.6901C30.7501 40.9301 31.1801 41.0501 31.0601 41.4501C30.9401 41.8501 31.0601 41.6201 30.6201 42.0501C30.4336 42.1764 30.288 42.3544 30.201 42.5621C30.114 42.7699 30.0894 42.9985 30.1301 43.2201C30.1301 43.8301 30.0001 43.8601 29.9101 44.3601C29.8201 44.8601 29.5901 44.4301 29.4001 45.1601M39.7401 41.3301C40.0601 41.3301 40.5501 41.76 40.3601 41.93C40.2147 42.0044 40.0513 42.0363 39.8886 42.0222C39.7259 42.008 39.5705 41.9484 39.4401 41.8501C39.2001 41.6601 39.5901 41.3501 39.7401 41.3301ZM39.3301 41.04C39.2301 41.04 39.1401 40.9001 39.0601 40.6601C39.0365 40.618 39.0282 40.5691 39.0364 40.5216C39.0447 40.474 39.0691 40.4308 39.1054 40.3991C39.1418 40.3675 39.1879 40.3493 39.2361 40.3476C39.2843 40.346 39.3316 40.3609 39.3701 40.3901C39.5701 40.4901 39.8301 40.7801 39.8301 40.9401C39.8301 41.1001 39.4401 41.08 39.3301 41.04ZM35.0801 41.04C34.9332 41.1107 34.7697 41.1397 34.6075 41.1239C34.4453 41.108 34.2905 41.0479 34.1601 40.9501C33.9201 40.7601 34.3201 40.4501 34.4601 40.4401C34.7801 40.4401 35.2701 40.86 35.0801 41.04ZM31.1401 43.0001C31.0001 43.2201 30.6401 44.84 30.4001 44.65C30.1601 44.46 30.5001 42.77 30.5701 42.65C30.9501 41.96 31.7701 41.99 31.1401 43.01M32.4401 49.29C31.5229 49.2888 30.6104 49.1575 29.7301 48.9C29.6627 48.8447 29.6147 48.7692 29.5931 48.6847C29.5716 48.6002 29.5775 48.511 29.6101 48.43C29.7922 48.0858 30.064 47.7971 30.3967 47.5947C30.7294 47.3923 31.1107 47.2835 31.5001 47.2801C33.0601 47.1301 35.1101 48.2801 35.4401 48.1101C35.7701 47.9401 36.4401 47.1101 37.4401 47.1101C37.7493 47.0881 38.0576 47.1652 38.3201 47.3301C36.6446 48.6175 34.5931 49.3201 32.4801 49.3301M39.2701 46.54C39.1665 46.5097 39.0661 46.4695 38.9701 46.4201C38.4401 46.1601 38.5101 46.5801 38.2501 46.4901C37.9901 46.4001 38.5401 45.7901 37.7601 46.3001C36.9801 46.8101 37.2001 46.2201 36.8601 45.3601C36.752 44.9552 36.7936 44.525 36.9774 44.1484C37.1611 43.7717 37.4745 43.4741 37.8601 43.3101C38.4293 43.1074 39.0148 42.9535 39.6101 42.8501C40.7701 42.5601 41.0101 41.85 41.2201 42.29L41.3401 42.5201C41.4297 42.7146 41.4773 42.9259 41.4801 43.1401C40.9923 44.417 40.239 45.5758 39.2701 46.54ZM41.9201 41.68C41.6601 41.61 40.5801 40.1101 41.4301 39.1301C41.5801 38.9701 41.1501 38.4901 41.2701 38.4801C41.4686 38.4681 41.6644 38.5315 41.8183 38.6575C41.9721 38.7836 42.0728 38.963 42.1001 39.1601C42.1001 39.3401 42.1001 39.5301 42.1001 39.7101C42.102 40.3818 42.035 41.052 41.9001 41.7101" fill="white"/>
</svg>
