<svg viewBox="0 0 64 64" fill="none" xmlns="http://www.w3.org/2000/svg">
<!-- <path d="M62.6401 0.0698242H0.590088V62.1198H62.6401V0.0698242Z" fill="#F99D25"/> -->
<path d="M6.00003 7.79996C5.89003 7.85996 5.58003 7.97995 5.06003 8.16995C4.54003 8.35995 4.40004 8.39996 4.29004 8.43996V6.76996C4.7019 6.59838 5.10265 6.40133 5.49002 6.17995C5.86195 5.99869 6.20016 5.7552 6.49002 5.45996H8.26004V17.3H6.00003V7.79996Z" fill="white"/>
<path d="M11 7.79996C10.89 7.85996 10.58 7.97995 10.06 8.16995C9.54003 8.35995 9.40004 8.39996 9.29004 8.43996V6.76996C9.70437 6.5967 10.1084 6.39969 10.5 6.17995C10.8686 5.99304 11.2059 5.75017 11.5 5.45996H13.26V17.3H11V7.79996Z" fill="white"/>
<path d="M18.47 10C18.2298 10.01 17.9913 9.95475 17.78 9.84003C17.5983 9.73367 17.4548 9.5727 17.37 9.38004C17.2731 9.13826 17.2222 8.88049 17.22 8.62003L17.92 8.48003C17.9257 8.63882 17.9491 8.79648 17.99 8.95003C18.0163 9.06521 18.0714 9.17185 18.15 9.26003C18.1891 9.29543 18.2349 9.32255 18.2848 9.33974C18.3346 9.35692 18.3874 9.36383 18.44 9.36003C18.4931 9.36582 18.5467 9.35782 18.5958 9.33679C18.6448 9.31577 18.6876 9.28245 18.72 9.24004C18.782 9.15258 18.8136 9.04719 18.81 8.94003C18.8152 8.76614 18.7663 8.59492 18.67 8.45003C18.5645 8.31353 18.4474 8.1864 18.32 8.07004L17.75 7.57004C17.596 7.43882 17.4642 7.28346 17.36 7.11003C17.2623 6.91471 17.2142 6.69834 17.22 6.48003C17.2121 6.32933 17.2356 6.17864 17.2889 6.03749C17.3423 5.89634 17.4244 5.76781 17.53 5.66003C17.7676 5.45451 18.0764 5.35038 18.39 5.37003C18.5709 5.36446 18.7511 5.39507 18.92 5.46004C19.0518 5.52405 19.1678 5.61621 19.26 5.73003C19.3419 5.85239 19.4027 5.9876 19.44 6.13004C19.482 6.2803 19.5088 6.4344 19.52 6.59003L18.82 6.72003C18.8102 6.59255 18.7935 6.46569 18.77 6.34003C18.7515 6.24004 18.7067 6.14683 18.64 6.07004C18.6032 6.03796 18.5603 6.01348 18.514 5.99803C18.4677 5.98258 18.4187 5.97646 18.37 5.98003C18.3172 5.97688 18.2644 5.98608 18.2158 6.00691C18.1672 6.02774 18.1241 6.05964 18.09 6.10004C18.0206 6.18419 17.985 6.29109 17.99 6.40002C17.9833 6.53397 18.0183 6.66671 18.09 6.78003C18.1654 6.89229 18.2563 6.9933 18.36 7.08003L18.92 7.58003C19.1108 7.73409 19.2732 7.92021 19.4 8.13004C19.5373 8.3593 19.6067 8.62286 19.6 8.89003C19.6025 9.09202 19.5543 9.29142 19.46 9.47003C19.3607 9.63093 19.2234 9.76489 19.06 9.86003C18.8778 9.95442 18.6752 10.0025 18.47 10Z" fill="white"/>
<path d="M21.1 9.99992C20.825 10.0151 20.5513 9.95275 20.31 9.81993C20.1277 9.69069 19.9939 9.50408 19.93 9.28992C19.8537 9.02681 19.8166 8.75386 19.82 8.47992V5.41992H20.63V8.56993C20.6194 8.70305 20.6194 8.83681 20.63 8.96992C20.6352 9.08247 20.6814 9.18922 20.76 9.26993C20.7997 9.31153 20.848 9.34386 20.9016 9.36461C20.9552 9.38535 21.0127 9.394 21.07 9.38992C21.1275 9.39549 21.1854 9.38754 21.2393 9.3667C21.2931 9.34586 21.3413 9.31272 21.38 9.26993C21.4545 9.18651 21.5001 9.0813 21.51 8.96992C21.5207 8.83681 21.5207 8.70305 21.51 8.56993V5.41992H22.31V8.47992C22.3135 8.75386 22.2764 9.02681 22.2 9.28992C22.1407 9.50627 22.0059 9.69427 21.82 9.81993C21.6004 9.94315 21.3518 10.0053 21.1 9.99992Z" fill="white"/>
<path d="M23.9301 9.99993C23.6931 10.0102 23.4578 9.95479 23.2501 9.83993C23.0647 9.73522 22.9176 9.57407 22.8301 9.37993C22.7332 9.13816 22.6823 8.88039 22.6801 8.61992L23.3902 8.47993C23.3928 8.63832 23.4129 8.79595 23.4502 8.94993C23.4806 9.06354 23.5352 9.16926 23.6101 9.25992C23.6902 9.32953 23.7942 9.36538 23.9001 9.35993C23.9546 9.3647 24.0093 9.35628 24.0598 9.33539C24.1103 9.31451 24.155 9.28176 24.1901 9.23993C24.2446 9.14947 24.2723 9.04547 24.2701 8.93993C24.2741 8.76758 24.229 8.59765 24.1402 8.44993C24.0339 8.31091 23.9132 8.18355 23.7801 8.06994L23.2101 7.56994C23.0564 7.44113 22.9276 7.28521 22.8301 7.10993C22.7243 6.91728 22.6725 6.6996 22.6801 6.47993C22.6716 6.3283 22.6958 6.17662 22.751 6.03515C22.8062 5.89367 22.8912 5.76571 23.0001 5.65993C23.1154 5.55752 23.25 5.47912 23.3959 5.42933C23.5419 5.37953 23.6963 5.35934 23.8501 5.36992C24.031 5.36436 24.2112 5.39497 24.3801 5.45994C24.5132 5.52185 24.6297 5.61436 24.7201 5.72993C24.8013 5.85406 24.8652 5.98862 24.9101 6.12993C24.9488 6.28053 24.9723 6.43463 24.9802 6.58993L24.2801 6.71993C24.2918 6.59353 24.2918 6.46632 24.2801 6.33993C24.2661 6.23856 24.2206 6.14415 24.1501 6.06994C24.1133 6.03786 24.0705 6.01338 24.0241 5.99793C23.9778 5.98248 23.9289 5.97636 23.8801 5.97993C23.8274 5.97753 23.7749 5.98708 23.7264 6.00786C23.6779 6.02864 23.6348 6.06013 23.6001 6.09994C23.5346 6.18614 23.4994 6.29162 23.5001 6.39992C23.4986 6.53329 23.5332 6.66459 23.6001 6.77993C23.6755 6.89219 23.7664 6.9932 23.8701 7.07993L24.4401 7.57993C24.6251 7.73708 24.7837 7.92276 24.9101 8.12993C25.0518 8.35734 25.1215 8.62223 25.1101 8.88993C25.1126 9.09192 25.0645 9.29131 24.9701 9.46993C24.8709 9.63083 24.7335 9.76478 24.5701 9.85993C24.3736 9.96407 24.1522 10.0125 23.9301 9.99993Z" fill="white"/>
<path d="M25.7701 9.99998V6.07999H25.05V5.47998H27.3101V6.07999H26.6001V9.99998H25.7701Z" fill="white"/>
<path d="M27.1501 9.99998L28.0602 5.47998H28.9402L29.8401 9.99998H29.0801L28.9001 8.99998H28.1101L27.9301 9.99998H27.1501ZM28.2002 8.42998H28.8102L28.5002 6.52998L28.2002 8.42998Z" fill="white"/>
<path d="M30.0701 9.99998V5.47998H30.8801V9.99998H30.0701Z" fill="white"/>
<path d="M31.3501 9.99992V5.47992H31.9301L33.0001 7.99992V5.41992H33.6801V9.99992H33.1301L32.0201 7.29993V9.99992H31.3501Z" fill="white"/>
<path d="M33.9402 9.99998L34.8402 5.47998H35.7202L36.6302 9.99998H35.8602L35.6902 8.99998H34.9002L34.7102 9.99998H33.9402ZM34.9402 8.42998H35.5602L35.2502 6.52998L34.9402 8.42998Z" fill="white"/>
<path d="M36.8301 9.99975V5.47974H37.9401C38.1228 5.45858 38.3074 5.45858 38.4901 5.47974C38.6415 5.51408 38.7844 5.57871 38.9101 5.66974C39.0251 5.76481 39.1173 5.8844 39.1801 6.01975C39.2455 6.20244 39.276 6.39578 39.2701 6.58974C39.2752 6.74934 39.2515 6.90855 39.2001 7.05974C39.1531 7.18208 39.0735 7.28927 38.9701 7.36974C38.8633 7.44697 38.7401 7.49833 38.6101 7.51975C38.7691 7.53683 38.9201 7.59844 39.0457 7.6975C39.1713 7.79656 39.2664 7.92905 39.3201 8.07975C39.3803 8.25661 39.4074 8.44306 39.4001 8.62975C39.4072 8.82298 39.3802 9.01594 39.3201 9.19974C39.2764 9.35368 39.1963 9.49488 39.0867 9.61147C38.977 9.72806 38.8411 9.81662 38.6901 9.86974C38.5085 9.92435 38.3197 9.95132 38.1301 9.94974L36.8301 9.99975ZM37.6601 7.31975H37.9401C38.0706 7.32742 38.2009 7.30339 38.3201 7.24975C38.3635 7.22721 38.4018 7.19609 38.4327 7.15827C38.4637 7.12045 38.4866 7.07671 38.5001 7.02974C38.5445 6.90815 38.5649 6.7791 38.5601 6.64974C38.569 6.52007 38.5375 6.39084 38.4701 6.27974C38.4449 6.23465 38.4105 6.19533 38.3691 6.16433C38.3278 6.13332 38.2805 6.11133 38.2301 6.09975C38.0963 6.06463 37.9584 6.04781 37.8201 6.04975H37.6601V7.31975ZM37.6601 9.41974H38.0001C38.0933 9.43176 38.1879 9.42173 38.2765 9.39046C38.3651 9.3592 38.4451 9.30758 38.5101 9.23975C38.6073 9.06983 38.6525 8.87511 38.6401 8.67974C38.6447 8.52747 38.6244 8.37548 38.5801 8.22974C38.5381 8.12639 38.4647 8.0389 38.3701 7.97974C38.2475 7.91366 38.1092 7.88253 37.9701 7.88974H37.6901L37.6601 9.41974Z" fill="white"/>
<path d="M39.71 9.99998V5.47998H40.54V9.42998H41.63V9.99998H39.71Z" fill="white"/>
<path d="M41.8101 9.99998V5.47998H43.7101V5.99998H42.6401V7.29999H43.4801V7.86998H42.6401V9.36998H43.7201V9.99998H41.8101Z" fill="white"/>
<path d="M46.3201 9.99979C46.0469 10.0164 45.775 9.95017 45.5401 9.80979C45.3522 9.67965 45.2145 9.48908 45.1501 9.2698C45.065 9.01875 45.0244 8.7548 45.0301 8.4898V6.8798C45.0247 6.605 45.0653 6.33124 45.1501 6.0698C45.2133 5.8552 45.3518 5.67058 45.5401 5.5498C45.778 5.41779 46.0483 5.35541 46.3201 5.36979C46.5722 5.35625 46.8236 5.40792 47.05 5.5198C47.2275 5.62287 47.3623 5.78602 47.4301 5.97979C47.5102 6.20071 47.5476 6.43489 47.5401 6.66979V7.0498H46.7501V6.6598C46.7559 6.5432 46.7559 6.42638 46.7501 6.30979C46.743 6.21634 46.7042 6.1281 46.6401 6.05979C46.5993 6.02433 46.5515 5.99796 46.4998 5.98244C46.448 5.96693 46.3936 5.96262 46.3401 5.96979C46.2843 5.9644 46.228 5.97049 46.1747 5.98769C46.1214 6.00489 46.0722 6.03284 46.0301 6.0698C45.9651 6.14259 45.9233 6.23311 45.9101 6.3298C45.8989 6.45288 45.8989 6.57671 45.9101 6.69979V8.69979C45.8921 8.83252 45.8921 8.96707 45.9101 9.0998C45.9274 9.19366 45.9769 9.27852 46.05 9.33979C46.1309 9.39899 46.2302 9.42737 46.33 9.41979C46.3843 9.42564 46.4392 9.41974 46.491 9.40249C46.5427 9.38523 46.5902 9.35703 46.6301 9.3198C46.6902 9.24888 46.7284 9.16203 46.74 9.0698C46.74 8.9598 46.74 8.83979 46.74 8.69979V8.28979H47.5301V8.6598C47.5356 8.90033 47.5018 9.14014 47.4301 9.36979C47.3632 9.57178 47.229 9.74474 47.05 9.85979C46.8243 9.97284 46.5717 10.0213 46.3201 9.99979Z" fill="white"/>
<path d="M47.9102 9.99998V5.47998H48.7302V9.99998H47.9102Z" fill="white"/>
<path d="M49.6502 9.99998V6.07999H48.9302V5.47998H51.1802V6.07999H50.4702V9.99998H49.6502Z" fill="white"/>
<path d="M51.3901 9.99998V5.47998H52.2101V9.99998H51.3901Z" fill="white"/>
<path d="M52.6802 9.99998V5.47998H54.5702V5.99998H53.5002V7.29999H54.3502V7.86998H53.5002V9.36998H54.5902V9.99998H52.6802Z" fill="white"/>
<path d="M56 10C55.7598 10.01 55.5213 9.95475 55.31 9.84003C55.1283 9.73367 54.9848 9.5727 54.9 9.38004C54.8042 9.13755 54.75 8.88057 54.74 8.62003L55.45 8.48003C55.4557 8.63882 55.4791 8.79648 55.52 8.95003C55.5463 9.06521 55.6014 9.17185 55.68 9.26003C55.7191 9.29543 55.7649 9.32255 55.8148 9.33974C55.8646 9.35692 55.9174 9.36383 55.97 9.36003C56.0231 9.36582 56.0767 9.35782 56.1258 9.33679C56.1748 9.31577 56.2176 9.28245 56.25 9.24004C56.312 9.15258 56.3436 9.04719 56.34 8.94003C56.3452 8.76614 56.2963 8.59492 56.2 8.45003C56.0945 8.31353 55.9774 8.1864 55.85 8.07004L55.28 7.57004C55.126 7.43882 54.9943 7.28346 54.89 7.11003C54.7923 6.91471 54.7442 6.69834 54.75 6.48003C54.7402 6.32914 54.7628 6.17792 54.8163 6.03648C54.8697 5.89505 54.9528 5.7667 55.06 5.66003C55.2976 5.45451 55.6064 5.35038 55.92 5.37003C56.1009 5.36446 56.2811 5.39507 56.45 5.46004C56.5818 5.52405 56.6978 5.61621 56.79 5.73003C56.8719 5.85239 56.9327 5.9876 56.97 6.13004C57.012 6.2803 57.0388 6.4344 57.05 6.59003L56.35 6.72003C56.3402 6.59255 56.3235 6.46569 56.3 6.34003C56.2815 6.24004 56.2367 6.14683 56.17 6.07004C56.1332 6.03796 56.0903 6.01348 56.044 5.99803C55.9977 5.98258 55.9487 5.97646 55.9 5.98003C55.8472 5.97688 55.7944 5.98608 55.7458 6.00691C55.6972 6.02774 55.6541 6.05964 55.62 6.10004C55.5506 6.18419 55.515 6.29109 55.52 6.40002C55.5133 6.53397 55.5483 6.66671 55.62 6.78003C55.6954 6.89229 55.7863 6.9933 55.89 7.08003L56.45 7.58003C56.6408 7.73409 56.8032 7.92021 56.93 8.13004C57.0673 8.3593 57.1367 8.62286 57.13 8.89003C57.1325 9.09202 57.0843 9.29142 56.99 9.47003C56.8907 9.63093 56.7534 9.76489 56.59 9.86003C56.4078 9.95442 56.2052 10.0025 56 10Z" fill="white"/>
<path d="M17.1001 17.3696L18.0001 12.8496H18.8901L19.7901 17.3696H19.0001L18.8301 16.3696H18.0401L17.8501 17.3696H17.1001ZM18.1001 15.7996H18.7201L18.4101 13.8996L18.1001 15.7996Z" fill="white"/>
<path d="M20 17.3696V12.8496H20.58L21.68 15.4296V12.8496H22.36V17.3696H21.81L20.7 14.6696V17.3696H20Z" fill="white"/>
<path d="M22.8101 17.3698V12.8498H23.8701C24.1675 12.8363 24.4643 12.8875 24.7401 12.9998C24.9379 13.0944 25.0943 13.258 25.1801 13.4598C25.2711 13.713 25.3152 13.9807 25.3101 14.2498V15.9098C25.315 16.1853 25.271 16.4596 25.1801 16.7198C25.0929 16.9281 24.9378 17.1008 24.7401 17.2098C24.4806 17.3301 24.1956 17.385 23.9101 17.3698H22.8101ZM23.6301 16.7897H23.8801C24.0242 16.8045 24.169 16.7692 24.2901 16.6898C24.3763 16.6166 24.4301 16.5124 24.4401 16.3998C24.4517 16.2433 24.4517 16.0862 24.4401 15.9297V14.1998C24.4588 14.0537 24.4588 13.9058 24.4401 13.7598C24.4333 13.7089 24.4155 13.6602 24.3879 13.617C24.3602 13.5738 24.3234 13.5372 24.2801 13.5098C24.1563 13.4476 24.0182 13.42 23.8801 13.4297H23.6401L23.6301 16.7897Z" fill="white"/>
<path d="M28 17.4299C27.7268 17.4465 27.4549 17.3803 27.22 17.24C27.0363 17.1055 26.8998 16.9165 26.83 16.6999C26.7534 16.4471 26.7163 16.1841 26.72 15.9199V14.3099C26.7165 14.036 26.7536 13.7631 26.83 13.4999C26.8984 13.288 27.0357 13.105 27.22 12.9799C27.4579 12.8479 27.7282 12.7856 28 12.7999C28.2554 12.7865 28.51 12.8381 28.74 12.9499C28.9105 13.061 29.0431 13.2215 29.12 13.4099C29.1953 13.6321 29.2325 13.8654 29.23 14.1V14.4799H28.43V14.0899C28.4408 13.9735 28.4408 13.8564 28.43 13.74C28.4283 13.6472 28.3927 13.5583 28.33 13.49C28.2458 13.4214 28.1379 13.3891 28.03 13.3999C27.9742 13.3939 27.9177 13.3997 27.8643 13.417C27.8109 13.4342 27.7617 13.4625 27.72 13.4999C27.6478 13.5689 27.6018 13.6608 27.59 13.7599C27.5792 13.883 27.5792 14.0069 27.59 14.13V16.13C27.5781 16.263 27.5781 16.3969 27.59 16.5299C27.6107 16.6249 27.6637 16.7097 27.74 16.7699C27.8204 16.83 27.92 16.8584 28.02 16.85C28.0727 16.8564 28.1263 16.8507 28.1765 16.8334C28.2268 16.8161 28.2724 16.7875 28.31 16.7499C28.3755 16.6786 28.4144 16.5867 28.42 16.49C28.4311 16.3702 28.4311 16.2497 28.42 16.13V15.7199H29.22V16.0899C29.2225 16.331 29.1853 16.5709 29.11 16.7999C29.0471 17.0012 28.9163 17.1744 28.74 17.2899C28.5101 17.4014 28.2547 17.4497 28 17.4299Z" fill="white"/>
<path d="M30.83 17.4297C30.5648 17.443 30.3012 17.3806 30.0701 17.2497C29.8801 17.1305 29.7357 16.9509 29.6601 16.7397C29.5751 16.4852 29.5345 16.218 29.5401 15.9497V14.2497C29.5344 13.9847 29.575 13.7208 29.6601 13.4697C29.7325 13.2594 29.878 13.082 30.0701 12.9697C30.3022 12.8423 30.5657 12.7834 30.83 12.7997C31.1008 12.7828 31.3709 12.8417 31.61 12.9697C31.7946 13.088 31.9351 13.2637 32.0101 13.4697C32.1034 13.7189 32.1475 13.9838 32.1401 14.2497V15.9997C32.1466 16.2689 32.1025 16.5368 32.0101 16.7897C31.9371 16.9994 31.7963 17.1788 31.61 17.2997C31.3671 17.4145 31.0971 17.4595 30.83 17.4297ZM30.83 16.8197C30.9409 16.8281 31.051 16.7962 31.1401 16.7297C31.2062 16.6643 31.2514 16.5808 31.27 16.4897C31.2804 16.3766 31.2804 16.2628 31.27 16.1497V14.0597C31.2808 13.9466 31.2808 13.8328 31.27 13.7197C31.254 13.6305 31.2082 13.5494 31.1401 13.4897C31.051 13.4233 30.9409 13.3913 30.83 13.3997C30.7253 13.3904 30.6211 13.4228 30.5401 13.4897C30.4654 13.5454 30.4152 13.6278 30.4001 13.7197C30.3893 13.8328 30.3893 13.9466 30.4001 14.0597V16.1497C30.3897 16.2628 30.3897 16.3766 30.4001 16.4897C30.4147 16.5822 30.4606 16.6669 30.5301 16.7297C30.6161 16.7947 30.7225 16.8266 30.83 16.8197Z" fill="white"/>
<path d="M32.51 17.3696L32.59 12.8496H33.44L34.08 15.9796L34.75 12.8496H35.58L35.66 17.3696H35.05L34.98 14.2296L34.34 17.3696H33.84L33.19 14.2096L33.13 17.3696H32.51Z" fill="white"/>
<path d="M36.0901 17.3696L36.1701 12.8496H37.0001L37.6401 15.9796L38.3101 12.8496H39.1301L39.2201 17.3696H38.6001L38.5401 14.2296L37.8901 17.3696H37.4001L36.7401 14.2096L36.6801 17.3696H36.0901Z" fill="white"/>
<path d="M40.9302 17.4296C40.6583 17.4462 40.3873 17.3837 40.1502 17.2496C39.9641 17.122 39.8267 16.9352 39.7602 16.7196C39.6875 16.4559 39.6538 16.183 39.6602 15.9096V12.8496H40.4602V15.9996C40.4495 16.1327 40.4495 16.2665 40.4602 16.3996C40.4701 16.511 40.5157 16.6162 40.5902 16.6996C40.6298 16.7412 40.6782 16.7735 40.7318 16.7943C40.7853 16.815 40.8429 16.8237 40.9002 16.8196C40.959 16.8238 41.0181 16.8152 41.0733 16.7945C41.1285 16.7738 41.1786 16.7414 41.2202 16.6996C41.2873 16.6127 41.3289 16.5088 41.3402 16.3996C41.3509 16.2665 41.3509 16.1327 41.3402 15.9996V12.8496H42.1402V15.9096C42.1466 16.183 42.1129 16.4559 42.0402 16.7196C41.9737 16.9352 41.8362 17.122 41.6502 17.2496C41.4306 17.3728 41.1819 17.435 40.9302 17.4296Z" fill="white"/>
<path d="M42.6201 17.3696V12.8496H43.2001L44.3001 15.4296V12.8496H45.0001V17.3696H44.4501L43.3501 14.6696V17.3696H42.6201Z" fill="white"/>
<path d="M45.46 17.3696V12.8496H46.27V17.3696H45.46Z" fill="white"/>
<path d="M47.2 17.3696V13.4496H46.48V12.8496H48.73V13.4496H48V17.3696H47.2Z" fill="white"/>
<path d="M48.9402 17.3696V12.8496H49.7502V17.3696H48.9402Z" fill="white"/>
<path d="M50.2202 17.3696V12.8496H52.1202V13.4296H51.0502V14.7296H51.8902V15.2996H51.0502V16.7996H52.1302V17.3696H50.2202Z" fill="white"/>
<path d="M53.52 17.4297C53.2831 17.4384 53.0482 17.3832 52.84 17.2697C52.6583 17.1634 52.5149 17.0024 52.43 16.8097C52.3297 16.5686 52.2754 16.3108 52.27 16.0497L52.98 15.9097C52.9857 16.0685 53.0091 16.2262 53.05 16.3797C53.0763 16.4949 53.1314 16.6015 53.21 16.6897C53.2491 16.7251 53.2949 16.7522 53.3448 16.7694C53.3946 16.7866 53.4474 16.7935 53.5 16.7897C53.5531 16.7955 53.6067 16.7875 53.6558 16.7665C53.7048 16.7455 53.7476 16.7121 53.78 16.6697C53.8392 16.5813 53.8673 16.4758 53.86 16.3697C53.8688 16.1968 53.8234 16.0255 53.73 15.8797C53.6238 15.7407 53.5031 15.6133 53.37 15.4997L52.8 14.9997C52.649 14.8682 52.5207 14.7128 52.42 14.5397C52.3224 14.3444 52.2743 14.128 52.28 13.9097C52.266 13.7585 52.2867 13.606 52.3404 13.4639C52.3941 13.3219 52.4795 13.1939 52.59 13.0897C52.7071 12.987 52.8434 12.9085 52.991 12.8587C53.1386 12.809 53.2946 12.7889 53.45 12.7997C53.6309 12.7942 53.8111 12.8248 53.98 12.8897C54.1103 12.9517 54.2235 13.0443 54.31 13.1597C54.3989 13.2794 54.4635 13.4152 54.5 13.5597C54.5429 13.7098 54.5697 13.864 54.58 14.0197L53.88 14.1497C53.8703 14.0222 53.8536 13.8954 53.83 13.7697C53.8073 13.6712 53.7629 13.5789 53.7 13.4997C53.6632 13.4676 53.6204 13.4432 53.574 13.4277C53.5277 13.4123 53.4787 13.4062 53.43 13.4097C53.3772 13.4066 53.3245 13.4158 53.2758 13.4366C53.2272 13.4574 53.1841 13.4893 53.15 13.5297C53.0807 13.6139 53.045 13.7208 53.05 13.8297C53.0455 13.9622 53.0766 14.0934 53.14 14.2097C53.2222 14.3196 53.316 14.4202 53.42 14.5097L53.98 15.0097C54.1708 15.1638 54.3332 15.3499 54.46 15.5597C54.5974 15.789 54.6667 16.0526 54.66 16.3197C54.6635 16.5186 54.6152 16.715 54.52 16.8897C54.4238 17.0556 54.2859 17.1935 54.12 17.2897C53.9345 17.3849 53.7285 17.433 53.52 17.4297Z" fill="white"/>
<path d="M11.1701 47.3798H20.5501C20.5803 47.3798 20.6102 47.3739 20.6381 47.3623C20.666 47.3507 20.6914 47.3338 20.7127 47.3125C20.7341 47.2911 20.751 47.2657 20.7626 47.2378C20.7741 47.2099 20.7801 47.18 20.7801 47.1498C20.7811 47.122 20.7762 47.0943 20.7659 47.0685C20.7556 47.0427 20.74 47.0193 20.7201 46.9998L16.0001 40.9998C15.9781 40.9771 15.9516 40.9591 15.9224 40.9471C15.8931 40.9351 15.8617 40.9292 15.8301 40.9298C15.7777 40.9153 15.7224 40.9153 15.6701 40.9298V40.9798L11.1201 46.9798L11.0001 46.9998C10.9899 47.0425 10.9899 47.0871 11.0001 47.1298C10.9934 47.185 11.007 47.2407 11.0382 47.2867C11.0695 47.3326 11.1163 47.3657 11.1701 47.3798Z" fill="white"/>
<path d="M20.5201 48.23H11.1302C11.0692 48.23 11.0107 48.2542 10.9675 48.2973C10.9244 48.3405 10.9001 48.399 10.9001 48.46V55.82C10.9001 55.881 10.9244 55.9395 10.9675 55.9826C11.0107 56.0258 11.0692 56.05 11.1302 56.05H14.1302V51.42C14.1302 51.359 14.1544 51.3005 14.1975 51.2574C14.2406 51.2142 14.2991 51.19 14.3601 51.19H17.1702C17.2312 51.19 17.2897 51.2142 17.3328 51.2574C17.3759 51.3005 17.4001 51.359 17.4001 51.42V56.05H20.5002C20.5612 56.05 20.6196 56.0258 20.6628 55.9826C20.7059 55.9395 20.7302 55.881 20.7302 55.82V48.46C20.7304 48.4023 20.7089 48.3466 20.67 48.304C20.6311 48.2614 20.5776 48.235 20.5201 48.23Z" fill="white"/>
<path d="M53 46.3098H43.7C43.6416 46.3098 43.5857 46.333 43.5444 46.3742C43.5031 46.4155 43.48 46.4715 43.48 46.5298V55.9198C43.48 55.9781 43.5031 56.0341 43.5444 56.0754C43.5857 56.1166 43.6416 56.1398 43.7 56.1398H53C53.0297 56.1412 53.0594 56.1365 53.0872 56.126C53.1151 56.1156 53.1405 56.0996 53.162 56.079C53.1835 56.0584 53.2006 56.0337 53.2123 56.0064C53.224 55.979 53.23 55.9495 53.23 55.9198V46.5298C53.23 46.5 53.224 46.4706 53.2123 46.4432C53.2006 46.4159 53.1835 46.3912 53.162 46.3706C53.1405 46.35 53.1151 46.334 53.0872 46.3236C53.0594 46.3131 53.0297 46.3084 53 46.3098ZM47.91 52.4398C47.91 52.4981 47.8868 52.5541 47.8455 52.5954C47.8043 52.6366 47.7483 52.6598 47.69 52.6598H44.9C44.8702 52.6612 44.8406 52.6565 44.8127 52.646C44.7849 52.6356 44.7594 52.6196 44.7379 52.599C44.7164 52.5784 44.6993 52.5537 44.6876 52.5264C44.6759 52.499 44.67 52.4696 44.67 52.4398V50.7498C44.67 50.72 44.6759 50.6906 44.6876 50.6632C44.6993 50.6359 44.7164 50.6112 44.7379 50.5906C44.7594 50.57 44.7849 50.554 44.8127 50.5436C44.8406 50.5331 44.8702 50.5284 44.9 50.5298H47.68C47.7089 50.5298 47.7375 50.5355 47.7642 50.5466C47.7909 50.5576 47.8151 50.5738 47.8355 50.5942C47.856 50.6147 47.8722 50.6389 47.8832 50.6656C47.8943 50.6923 47.9 50.7209 47.9 50.7498L47.91 52.4398ZM47.91 49.3198C47.91 49.3782 47.8868 49.4341 47.8455 49.4754C47.8043 49.5166 47.7483 49.5398 47.69 49.5398H44.9C44.8702 49.5411 44.8406 49.5365 44.8127 49.526C44.7849 49.5156 44.7594 49.4996 44.7379 49.479C44.7164 49.4584 44.6993 49.4337 44.6876 49.4064C44.6759 49.379 44.67 49.3496 44.67 49.3198V47.6298C44.67 47.6001 44.6759 47.5706 44.6876 47.5432C44.6993 47.5159 44.7164 47.4912 44.7379 47.4706C44.7594 47.45 44.7849 47.434 44.8127 47.4236C44.8406 47.4131 44.8702 47.4085 44.9 47.4098H47.68C47.7089 47.4098 47.7375 47.4155 47.7642 47.4265C47.7909 47.4376 47.8151 47.4538 47.8355 47.4742C47.856 47.4947 47.8722 47.5189 47.8832 47.5456C47.8943 47.5723 47.9 47.6009 47.9 47.6298L47.91 49.3198ZM52.16 52.4398C52.16 52.4696 52.154 52.499 52.1423 52.5264C52.1307 52.5537 52.1135 52.5784 52.092 52.599C52.0705 52.6196 52.0451 52.6356 52.0172 52.646C51.9894 52.6565 51.9597 52.6612 51.93 52.6598H49.16C49.1303 52.6612 49.1005 52.6565 49.0727 52.646C49.0448 52.6356 49.0194 52.6196 48.9979 52.599C48.9764 52.5784 48.9593 52.5537 48.9476 52.5264C48.936 52.499 48.9299 52.4696 48.93 52.4398V50.7498C48.9299 50.72 48.936 50.6906 48.9476 50.6632C48.9593 50.6359 48.9764 50.6112 48.9979 50.5906C49.0194 50.57 49.0448 50.554 49.0727 50.5436C49.1005 50.5331 49.1303 50.5284 49.16 50.5298H51.93C51.9597 50.5284 51.9894 50.5331 52.0172 50.5436C52.0451 50.554 52.0705 50.57 52.092 50.5906C52.1135 50.6112 52.1307 50.6359 52.1423 50.6632C52.154 50.6906 52.16 50.72 52.16 50.7498V52.4398ZM52.16 49.3198C52.16 49.3496 52.154 49.379 52.1423 49.4064C52.1307 49.4337 52.1135 49.4584 52.092 49.479C52.0705 49.4996 52.0451 49.5156 52.0172 49.526C51.9894 49.5365 51.9597 49.5411 51.93 49.5398H49.16C49.1303 49.5411 49.1005 49.5365 49.0727 49.526C49.0448 49.5156 49.0194 49.4996 48.9979 49.479C48.9764 49.4584 48.9593 49.4337 48.9476 49.4064C48.936 49.379 48.9299 49.3496 48.93 49.3198V47.6298C48.9299 47.6001 48.936 47.5706 48.9476 47.5432C48.9593 47.5159 48.9764 47.4912 48.9979 47.4706C49.0194 47.45 49.0448 47.434 49.0727 47.4236C49.1005 47.4131 49.1303 47.4085 49.16 47.4098H51.93C51.9597 47.4085 51.9894 47.4131 52.0172 47.4236C52.0451 47.434 52.0705 47.45 52.092 47.4706C52.1135 47.4912 52.1307 47.5159 52.1423 47.5432C52.154 47.5706 52.16 47.6001 52.16 47.6298V49.3198Z" fill="white"/>
<path d="M31.3801 24.5098H22.2801C22.2191 24.5098 22.1606 24.534 22.1174 24.5771C22.0743 24.6203 22.05 24.6788 22.05 24.7398V55.8398C22.05 55.8695 22.056 55.899 22.0677 55.9263C22.0794 55.9537 22.0965 55.9784 22.118 55.999C22.1395 56.0195 22.165 56.0355 22.1928 56.046C22.2207 56.0564 22.2503 56.0611 22.2801 56.0598H31.3801C31.4384 56.0598 31.4944 56.0366 31.5356 55.9953C31.5769 55.9541 31.6001 55.8981 31.6001 55.8398V24.7398C31.6014 24.7101 31.5967 24.6804 31.5863 24.6525C31.5758 24.6247 31.5598 24.5992 31.5393 24.5777C31.5187 24.5562 31.494 24.5391 31.4666 24.5274C31.4392 24.5157 31.4098 24.5097 31.3801 24.5098ZM25.9601 52.5098C25.9601 52.5416 25.9474 52.5721 25.9249 52.5946C25.9024 52.6171 25.8719 52.6298 25.8401 52.6298H23.7601C23.7282 52.6298 23.6977 52.6171 23.6752 52.5946C23.6527 52.5721 23.6401 52.5416 23.6401 52.5098V50.1798C23.64 50.1644 23.6431 50.1493 23.6493 50.1352C23.6554 50.1212 23.6644 50.1086 23.6757 50.0982C23.687 50.0879 23.7004 50.08 23.7149 50.0751C23.7294 50.0702 23.7448 50.0684 23.7601 50.0698H25.8401C25.8553 50.0684 25.8707 50.0702 25.8852 50.0751C25.8997 50.08 25.9131 50.0879 25.9244 50.0982C25.9357 50.1086 25.9447 50.1212 25.9508 50.1352C25.957 50.1493 25.9601 50.1644 25.9601 50.1798V52.5098ZM25.9601 47.1698C25.9601 47.2016 25.9474 47.2321 25.9249 47.2546C25.9024 47.2771 25.8719 47.2898 25.8401 47.2898H23.7601C23.7282 47.2898 23.6977 47.2771 23.6752 47.2546C23.6527 47.2321 23.6401 47.2016 23.6401 47.1698V44.8498C23.6401 44.818 23.6527 44.7874 23.6752 44.7649C23.6977 44.7424 23.7282 44.7298 23.7601 44.7298H25.8401C25.8719 44.7298 25.9024 44.7424 25.9249 44.7649C25.9474 44.7874 25.9601 44.818 25.9601 44.8498V47.1698ZM25.9601 41.8398C25.9601 41.8716 25.9474 41.9021 25.9249 41.9246C25.9024 41.9471 25.8719 41.9598 25.8401 41.9598H23.7601C23.7282 41.9598 23.6977 41.9471 23.6752 41.9246C23.6527 41.9021 23.6401 41.8716 23.6401 41.8398V39.5198C23.6401 39.4879 23.6527 39.4574 23.6752 39.4349C23.6977 39.4124 23.7282 39.3998 23.7601 39.3998H25.8401C25.8719 39.3998 25.9024 39.4124 25.9249 39.4349C25.9474 39.4574 25.9601 39.4879 25.9601 39.5198V41.8398ZM25.9601 36.5098C25.9601 36.5416 25.9474 36.5721 25.9249 36.5946C25.9024 36.6171 25.8719 36.6298 25.8401 36.6298H23.7601C23.7282 36.6298 23.6977 36.6171 23.6752 36.5946C23.6527 36.5721 23.6401 36.5416 23.6401 36.5098V34.1998C23.6401 34.1679 23.6527 34.1374 23.6752 34.1149C23.6977 34.0924 23.7282 34.0798 23.7601 34.0798H25.8401C25.8719 34.0798 25.9024 34.0924 25.9249 34.1149C25.9474 34.1374 25.9601 34.1679 25.9601 34.1998V36.5098ZM25.9601 31.1798C25.9601 31.2116 25.9474 31.2421 25.9249 31.2646C25.9024 31.2871 25.8719 31.2998 25.8401 31.2998H23.7601C23.7282 31.2998 23.6977 31.2871 23.6752 31.2646C23.6527 31.2421 23.6401 31.2116 23.6401 31.1798V28.8498C23.6401 28.818 23.6527 28.7874 23.6752 28.7649C23.6977 28.7424 23.7282 28.7298 23.7601 28.7298H25.8401C25.8719 28.7298 25.9024 28.7424 25.9249 28.7649C25.9474 28.7874 25.9601 28.818 25.9601 28.8498V31.1798ZM30.05 52.5098C30.05 52.5416 30.0374 52.5721 30.0149 52.5946C29.9924 52.6171 29.9619 52.6298 29.9301 52.6298H27.8501C27.8182 52.6298 27.7877 52.6171 27.7652 52.5946C27.7427 52.5721 27.7301 52.5416 27.7301 52.5098V50.1798C27.73 50.1644 27.7331 50.1493 27.7393 50.1352C27.7454 50.1212 27.7544 50.1086 27.7657 50.0982C27.777 50.0879 27.7904 50.08 27.8049 50.0751C27.8194 50.0702 27.8348 50.0684 27.8501 50.0698H29.9301C29.9453 50.0684 29.9607 50.0702 29.9752 50.0751C29.9897 50.08 30.0031 50.0879 30.0144 50.0982C30.0257 50.1086 30.0347 50.1212 30.0408 50.1352C30.047 50.1493 30.0501 50.1644 30.05 50.1798V52.5098ZM30.05 47.1698C30.05 47.2016 30.0374 47.2321 30.0149 47.2546C29.9924 47.2771 29.9619 47.2898 29.9301 47.2898H27.8501C27.8182 47.2898 27.7877 47.2771 27.7652 47.2546C27.7427 47.2321 27.7301 47.2016 27.7301 47.1698V44.8498C27.7301 44.818 27.7427 44.7874 27.7652 44.7649C27.7877 44.7424 27.8182 44.7298 27.8501 44.7298H29.9301C29.9619 44.7298 29.9924 44.7424 30.0149 44.7649C30.0374 44.7874 30.05 44.818 30.05 44.8498V47.1698ZM30.05 41.8398C30.05 41.8555 30.047 41.8711 30.0409 41.8857C30.0349 41.9003 30.0261 41.9135 30.0149 41.9246C30.0038 41.9358 29.9905 41.9446 29.976 41.9506C29.9614 41.9567 29.9458 41.9598 29.9301 41.9598H27.8501C27.8343 41.9598 27.8187 41.9567 27.8041 41.9506C27.7896 41.9446 27.7763 41.9358 27.7652 41.9246C27.7541 41.9135 27.7452 41.9003 27.7392 41.8857C27.7332 41.8711 27.7301 41.8555 27.7301 41.8398V39.5198C27.7301 39.4879 27.7427 39.4574 27.7652 39.4349C27.7877 39.4124 27.8182 39.3998 27.8501 39.3998H29.9301C29.9619 39.3998 29.9924 39.4124 30.0149 39.4349C30.0374 39.4574 30.05 39.4879 30.05 39.5198V41.8398ZM30.05 36.5098C30.05 36.5416 30.0374 36.5721 30.0149 36.5946C29.9924 36.6171 29.9619 36.6298 29.9301 36.6298H27.8501C27.8182 36.6298 27.7877 36.6171 27.7652 36.5946C27.7427 36.5721 27.7301 36.5416 27.7301 36.5098V34.1998C27.7301 34.1679 27.7427 34.1374 27.7652 34.1149C27.7877 34.0924 27.8182 34.0798 27.8501 34.0798H29.9301C29.9619 34.0798 29.9924 34.0924 30.0149 34.1149C30.0374 34.1374 30.05 34.1679 30.05 34.1998V36.5098ZM30.05 31.1798C30.05 31.2116 30.0374 31.2421 30.0149 31.2646C29.9924 31.2871 29.9619 31.2998 29.9301 31.2998H27.8501C27.8182 31.2998 27.7877 31.2871 27.7652 31.2646C27.7427 31.2421 27.7301 31.2116 27.7301 31.1798V28.8498C27.7301 28.818 27.7427 28.7874 27.7652 28.7649C27.7877 28.7424 27.8182 28.7298 27.8501 28.7298H29.9301C29.9619 28.7298 29.9924 28.7424 30.0149 28.7649C30.0374 28.7874 30.05 28.818 30.05 28.8498V31.1798Z" fill="white"/>
<path d="M53.02 43.3101H43.67C43.565 43.3101 43.48 43.3951 43.48 43.5001V45.3701C43.48 45.475 43.565 45.5601 43.67 45.5601H53.02C53.1249 45.5601 53.21 45.475 53.21 45.3701V43.5001C53.21 43.3951 53.1249 43.3101 53.02 43.3101Z" fill="white"/>
<path d="M42.3701 30.39C42.3555 30.3397 42.3255 30.2952 42.2842 30.2629C42.2429 30.2306 42.1925 30.2121 42.1402 30.21C42.0979 30.1963 42.0524 30.1963 42.0102 30.21L41.9402 30.3L33.0002 41.71C32.9753 41.733 32.9554 41.7609 32.9417 41.7918C32.9279 41.8227 32.9206 41.8562 32.9202 41.89V55.83C32.9202 55.891 32.9444 55.9495 32.9875 55.9926C33.0307 56.0358 33.0891 56.06 33.1501 56.06H42.2401C42.2699 56.06 42.2994 56.054 42.3267 56.0424C42.3541 56.0307 42.3788 56.0136 42.3994 55.9921C42.4199 55.9706 42.4359 55.9451 42.4464 55.9173C42.4568 55.8894 42.4615 55.8597 42.4601 55.83V30.43C42.4332 30.4106 42.4026 30.397 42.3701 30.39ZM38.6002 36.55L38.6702 36.47C39.2802 35.68 40.3102 34.41 40.8102 33.8L40.8802 33.72C40.904 33.6895 40.9342 33.6647 40.9688 33.6474C41.0034 33.6301 41.0415 33.6207 41.0801 33.62C41.139 33.6229 41.1953 33.645 41.2405 33.683C41.2856 33.7209 41.3171 33.7725 41.3301 33.83V36.7C41.3302 36.7673 41.3042 36.8319 41.2576 36.8804C41.211 36.9289 41.1473 36.9574 41.0801 36.96H38.8001C38.7329 36.9574 38.6694 36.9289 38.6227 36.8804C38.5761 36.8319 38.5501 36.7673 38.5501 36.7C38.5501 36.6459 38.5677 36.5933 38.6002 36.55ZM37.1902 52.44C37.1902 52.4698 37.1842 52.4992 37.1725 52.5266C37.1608 52.5539 37.1437 52.5787 37.1222 52.5992C37.1007 52.6198 37.0753 52.6358 37.0474 52.6462C37.0196 52.6567 36.9899 52.6614 36.9601 52.66H34.2502C34.1918 52.66 34.1358 52.6368 34.0946 52.5956C34.0533 52.5543 34.0302 52.4984 34.0302 52.44V50.74C34.0302 50.6817 34.0533 50.6257 34.0946 50.5845C34.1358 50.5432 34.1918 50.52 34.2502 50.52H37.0002C37.0299 50.5187 37.0595 50.5233 37.0874 50.5338C37.1153 50.5442 37.1407 50.5602 37.1622 50.5808C37.1837 50.6014 37.2008 50.6261 37.2125 50.6534C37.2242 50.6808 37.2302 50.7103 37.2302 50.74L37.1902 52.44ZM37.1902 49.3C37.1902 49.3298 37.1842 49.3592 37.1725 49.3866C37.1608 49.4139 37.1437 49.4387 37.1222 49.4592C37.1007 49.4798 37.0753 49.4958 37.0474 49.5062C37.0196 49.5167 36.9899 49.5214 36.9601 49.52H34.2502C34.1918 49.52 34.1358 49.4968 34.0946 49.4556C34.0533 49.4143 34.0302 49.3584 34.0302 49.3V47.6C34.0302 47.5417 34.0533 47.4857 34.0946 47.4445C34.1358 47.4032 34.1918 47.38 34.2502 47.38H37.0002C37.0299 47.3787 37.0595 47.3833 37.0874 47.3938C37.1153 47.4042 37.1407 47.4202 37.1622 47.4408C37.1837 47.4614 37.2008 47.4861 37.2125 47.5134C37.2242 47.5408 37.2302 47.5703 37.2302 47.6L37.1902 49.3ZM37.1902 46.16C37.1902 46.221 37.1659 46.2795 37.1228 46.3226C37.0796 46.3658 37.0211 46.39 36.9601 46.39H34.2502C34.2204 46.39 34.1909 46.384 34.1636 46.3724C34.1362 46.3607 34.1115 46.3436 34.0909 46.3221C34.0704 46.3006 34.0544 46.2751 34.0439 46.2473C34.0335 46.2194 34.0288 46.1897 34.0302 46.16V44.47C34.0288 44.4403 34.0335 44.4106 34.0439 44.3827C34.0544 44.3549 34.0704 44.3295 34.0909 44.308C34.1115 44.2865 34.1362 44.2693 34.1636 44.2577C34.1909 44.246 34.2204 44.24 34.2502 44.24H37.0002C37.0612 44.24 37.1196 44.2643 37.1628 44.3074C37.2059 44.3505 37.2302 44.409 37.2302 44.47L37.1902 46.16ZM37.1902 39.29V43C37.1902 43.0584 37.167 43.1143 37.1257 43.1556C37.0844 43.1968 37.0285 43.22 36.9702 43.22H34.2602C34.2281 43.2259 34.1951 43.2247 34.1636 43.2163C34.1321 43.2079 34.1029 43.1927 34.078 43.1716C34.0531 43.1506 34.0332 43.1243 34.0198 43.0946C34.0063 43.0649 33.9996 43.0326 34.0002 43V42.53C33.9945 42.5036 33.9945 42.4764 34.0002 42.45C34.3502 41.96 35.9102 40.03 36.5702 39.23L36.6402 39.15C36.6701 39.1129 36.71 39.0852 36.7552 39.0701C36.8004 39.0549 36.849 39.053 36.8953 39.0646C36.9415 39.0761 36.9835 39.1007 37.0162 39.1353C37.049 39.1699 37.0712 39.2132 37.0801 39.26L37.1902 39.29ZM41.3301 52.44C41.3301 52.4984 41.307 52.5543 41.2657 52.5956C41.2245 52.6368 41.1685 52.66 41.1101 52.66H38.4001C38.3713 52.66 38.3426 52.6543 38.3159 52.6433C38.2893 52.6322 38.265 52.616 38.2446 52.5956C38.2242 52.5752 38.208 52.5509 38.1969 52.5242C38.1858 52.4975 38.1801 52.4689 38.1801 52.44V50.74C38.1801 50.7111 38.1858 50.6825 38.1969 50.6558C38.208 50.6291 38.2242 50.6049 38.2446 50.5845C38.265 50.564 38.2893 50.5478 38.3159 50.5368C38.3426 50.5257 38.3713 50.52 38.4001 50.52H41.1101C41.1685 50.52 41.2245 50.5432 41.2657 50.5845C41.307 50.6257 41.3301 50.6817 41.3301 50.74V52.44ZM41.3301 49.3C41.3301 49.3584 41.307 49.4143 41.2657 49.4556C41.2245 49.4968 41.1685 49.52 41.1101 49.52H38.4001C38.3713 49.52 38.3426 49.5143 38.3159 49.5033C38.2893 49.4922 38.265 49.476 38.2446 49.4556C38.2242 49.4352 38.208 49.4109 38.1969 49.3842C38.1858 49.3575 38.1801 49.3289 38.1801 49.3V47.6C38.1801 47.5711 38.1858 47.5425 38.1969 47.5158C38.208 47.4891 38.2242 47.4649 38.2446 47.4445C38.265 47.424 38.2893 47.4078 38.3159 47.3968C38.3426 47.3857 38.3713 47.38 38.4001 47.38H41.1101C41.1685 47.38 41.2245 47.4032 41.2657 47.4445C41.307 47.4857 41.3301 47.5417 41.3301 47.6V49.3ZM41.3301 46.16C41.3315 46.1897 41.3268 46.2194 41.3164 46.2473C41.3059 46.2751 41.2899 46.3006 41.2693 46.3221C41.2488 46.3436 41.2241 46.3607 41.1967 46.3724C41.1694 46.384 41.1399 46.39 41.1101 46.39H38.4001C38.3704 46.39 38.341 46.384 38.3136 46.3724C38.2862 46.3607 38.2615 46.3436 38.2409 46.3221C38.2204 46.3006 38.2044 46.2751 38.1939 46.2473C38.1835 46.2194 38.1788 46.1897 38.1801 46.16V44.47C38.1788 44.4403 38.1835 44.4106 38.1939 44.3827C38.2044 44.3549 38.2204 44.3295 38.2409 44.308C38.2615 44.2865 38.2862 44.2693 38.3136 44.2577C38.341 44.246 38.3704 44.24 38.4001 44.24H41.1101C41.1399 44.24 41.1694 44.246 41.1967 44.2577C41.2241 44.2693 41.2488 44.2865 41.2693 44.308C41.2899 44.3295 41.3059 44.3549 41.3164 44.3827C41.3268 44.4106 41.3315 44.4403 41.3301 44.47V46.16ZM41.3301 43.03C41.3301 43.0884 41.307 43.1443 41.2657 43.1856C41.2245 43.2268 41.1685 43.25 41.1101 43.25H38.4001C38.3713 43.25 38.3426 43.2443 38.3159 43.2333C38.2893 43.2222 38.265 43.206 38.2446 43.1856C38.2242 43.1651 38.208 43.1409 38.1969 43.1142C38.1858 43.0875 38.1801 43.0589 38.1801 43.03V41.33C38.1801 41.3011 38.1858 41.2725 38.1969 41.2458C38.208 41.2191 38.2242 41.1949 38.2446 41.1745C38.265 41.154 38.2893 41.1378 38.3159 41.1268C38.3426 41.1157 38.3713 41.11 38.4001 41.11H41.1101C41.1685 41.11 41.2245 41.1332 41.2657 41.1745C41.307 41.2157 41.3301 41.2717 41.3301 41.33V43.03ZM41.3301 39.89C41.3301 39.9484 41.307 40.0043 41.2657 40.0456C41.2245 40.0868 41.1685 40.11 41.1101 40.11H38.4001C38.3713 40.11 38.3426 40.1043 38.3159 40.0933C38.2893 40.0822 38.265 40.066 38.2446 40.0456C38.2242 40.0251 38.208 40.0009 38.1969 39.9742C38.1858 39.9475 38.1801 39.9189 38.1801 39.89V38.19C38.1801 38.1611 38.1858 38.1325 38.1969 38.1058C38.208 38.0791 38.2242 38.0549 38.2446 38.0345C38.265 38.014 38.2893 37.9978 38.3159 37.9868C38.3426 37.9757 38.3713 37.97 38.4001 37.97H41.1101C41.1685 37.97 41.2245 37.9932 41.2657 38.0345C41.307 38.0757 41.3301 38.1317 41.3301 38.19V39.89Z" fill="white"/>
</svg>
