<svg viewBox="0 0 64 64" fill="none" xmlns="http://www.w3.org/2000/svg">
<!-- <path d="M62.9999 0.0600586H0.919922V62.1401H62.9999V0.0600586Z" fill="#CD8B2A"/> -->
<path d="M6.25003 7.78995C6.14003 7.84995 5.83003 7.96996 5.31003 8.15996C4.79003 8.34996 4.64004 8.38996 4.54004 8.43996V6.75995C4.9519 6.58837 5.35265 6.39133 5.74002 6.16995C6.10746 5.98542 6.44466 5.74602 6.74002 5.45996H8.51004V17.2899H6.25003V7.78995Z" fill="white"/>
<path d="M9.77002 15.7L12.63 11.27L12.81 11.01C13.1149 10.5625 13.3889 10.0948 13.63 9.60998C13.8053 9.22382 13.894 8.80403 13.89 8.37999C13.912 8.07389 13.8348 7.76886 13.67 7.50998C13.5978 7.41202 13.5025 7.33339 13.3926 7.28106C13.2827 7.22873 13.1616 7.20432 13.04 7.20999C12.8677 7.19493 12.6947 7.2316 12.5433 7.31532C12.3919 7.39904 12.2689 7.52599 12.19 7.67997C12.0285 8.10015 11.9635 8.5513 12 8.99998V9.53997H9.81003V8.95999C9.75883 8.01649 10.0343 7.08416 10.59 6.31999C10.8948 5.97708 11.2741 5.7086 11.6988 5.53524C12.1236 5.36188 12.5824 5.28825 13.04 5.31999C13.4612 5.26852 13.8886 5.31345 14.2899 5.4514C14.6912 5.58934 15.0558 5.81668 15.3564 6.11624C15.6569 6.4158 15.8854 6.77974 16.0246 7.18057C16.1638 7.5814 16.2101 8.00862 16.16 8.42997C16.166 8.86159 16.0983 9.29108 15.96 9.69998C15.8339 10.0709 15.6732 10.4292 15.48 10.77C15.29 11.08 15 11.53 14.62 12.1L12.34 15.52H15.86V17.3H9.81003L9.77002 15.7Z" fill="white"/>
<path d="M20.6799 10.0002V5.48017H21.7599C22.0212 5.46994 22.282 5.50721 22.5299 5.59017C22.7313 5.64768 22.9031 5.78008 23.0099 5.96018C23.1328 6.17596 23.1917 6.42218 23.1799 6.67017C23.1803 6.8348 23.1635 6.99901 23.1299 7.16018C23.1024 7.29796 23.0443 7.4278 22.9599 7.54017C22.8736 7.64623 22.7593 7.72593 22.6299 7.77018L23.2599 10.0002H22.4299L21.8799 7.93017H21.4999V10.0002H20.6799ZM21.4999 7.41018H21.7599C21.8904 7.41784 22.0208 7.39382 22.14 7.34017C22.2356 7.29647 22.3107 7.21771 22.3499 7.12017C22.3932 6.99138 22.4135 6.85599 22.4099 6.72018C22.4238 6.54051 22.3781 6.36128 22.2799 6.21018C22.2201 6.14738 22.1465 6.09933 22.0649 6.06983C21.9834 6.04033 21.8961 6.03017 21.8099 6.04017H21.4999V7.41018Z" fill="white"/>
<path d="M23.6299 9.99998V5.47998H25.5299V5.99998H24.4599V7.29999H25.2999V7.86998H24.4599V9.36998H25.5399V9.99998H23.6299Z" fill="white"/>
<path d="M27 10C26.7598 10.01 26.5213 9.95475 26.31 9.84003C26.1283 9.73367 25.9848 9.5727 25.9 9.38004C25.8042 9.13755 25.75 8.88057 25.74 8.62003L26.45 8.48003C26.4557 8.63882 26.4791 8.79648 26.52 8.95003C26.5441 9.06601 26.5994 9.1732 26.68 9.26003C26.7186 9.29674 26.7641 9.3254 26.8139 9.34428C26.8637 9.36317 26.9168 9.37192 26.97 9.37003C27.0231 9.37582 27.0767 9.36782 27.1258 9.3468C27.1748 9.32578 27.2176 9.29244 27.25 9.25003C27.3134 9.15949 27.3451 9.05047 27.34 8.94003C27.3473 8.76901 27.2981 8.60034 27.2 8.46004C27.0989 8.31669 26.9777 8.18869 26.84 8.08003L26.27 7.57004C26.1167 7.44076 25.988 7.28493 25.89 7.11003C25.7923 6.91471 25.7442 6.69834 25.75 6.48003C25.7402 6.32914 25.7628 6.17792 25.8163 6.03648C25.8697 5.89505 25.9528 5.7667 26.06 5.66003C26.2976 5.45451 26.6064 5.35038 26.92 5.37003C27.1009 5.36446 27.2811 5.39507 27.45 5.46004C27.5841 5.5248 27.7007 5.62082 27.79 5.74004C27.8736 5.85781 27.9346 5.99004 27.97 6.13004C28.0128 6.28352 28.0396 6.44103 28.05 6.60004L27.35 6.72003C27.3402 6.59255 27.3235 6.46569 27.3 6.34003C27.284 6.24221 27.2386 6.15155 27.17 6.08003C27.0957 6.0097 26.9973 5.9705 26.895 5.9705C26.7927 5.9705 26.6943 6.0097 26.62 6.08003C26.5506 6.16419 26.515 6.2711 26.52 6.38004C26.5133 6.51399 26.5483 6.64671 26.62 6.76003C26.6927 6.87432 26.784 6.97571 26.89 7.06003L27.45 7.56003C27.6384 7.71652 27.8004 7.90221 27.93 8.11003C28.0673 8.33929 28.1367 8.60286 28.13 8.87003C28.1325 9.07201 28.0843 9.27141 27.99 9.45003C27.8935 9.61316 27.7555 9.74774 27.59 9.84003C27.4114 9.94561 27.2075 10.0009 27 10Z" fill="white"/>
<path d="M28.3999 9.99996V5.47995H29.7299C29.9627 5.46901 30.194 5.52082 30.3999 5.62996C30.568 5.73223 30.698 5.88679 30.7699 6.06996C30.8552 6.28975 30.896 6.52427 30.8899 6.75995C30.9014 7.00554 30.8497 7.24998 30.7399 7.46996C30.6479 7.64598 30.5002 7.78662 30.3199 7.86995C30.1171 7.95367 29.8992 7.99454 29.6799 7.98996H29.2299V9.98996L28.3999 9.99996ZM29.2299 7.40996H29.5399C29.6596 7.41576 29.779 7.39529 29.8899 7.34996C29.9724 7.30292 30.0361 7.22869 30.0699 7.13995C30.088 7.01393 30.088 6.88597 30.0699 6.75995C30.0826 6.62692 30.0826 6.49299 30.0699 6.35996C30.06 6.31287 30.0407 6.26825 30.0132 6.22875C29.9857 6.18924 29.9506 6.15566 29.9099 6.12996C29.7915 6.07384 29.6605 6.0497 29.5299 6.05995H29.2199L29.2299 7.40996Z" fill="white"/>
<path d="M32.41 9.99996C32.1415 10.013 31.8748 9.95064 31.64 9.81997C31.4504 9.70276 31.3086 9.522 31.24 9.30996C31.1466 9.05733 31.1025 8.78918 31.1099 8.51996V6.81997C31.1025 6.55401 31.1467 6.28912 31.24 6.03995C31.3083 5.83033 31.4505 5.65266 31.64 5.53995C31.8758 5.41274 32.1425 5.35387 32.41 5.36995C32.6776 5.35167 32.9449 5.41068 33.18 5.53995C33.372 5.65221 33.5175 5.82961 33.59 6.03995C33.6833 6.28912 33.7274 6.55401 33.72 6.81997V8.51996C33.7274 8.78918 33.6833 9.05733 33.59 9.30996C33.5144 9.52113 33.3699 9.70076 33.18 9.81997C32.9461 9.95325 32.6786 10.0158 32.41 9.99996ZM32.41 9.38996C32.5161 9.39804 32.6219 9.36984 32.71 9.30996C32.7795 9.24171 32.8281 9.15496 32.85 9.05996C32.8608 8.94688 32.8608 8.83304 32.85 8.71996V6.62996C32.8608 6.51689 32.8608 6.40303 32.85 6.28995C32.8284 6.19204 32.7718 6.10543 32.6907 6.04647C32.6096 5.9875 32.5097 5.96028 32.41 5.96996C32.3024 5.96307 32.1959 5.995 32.1099 6.05996C32.0418 6.11969 31.996 6.20077 31.98 6.28995C31.9692 6.40303 31.9692 6.51689 31.98 6.62996V8.71996C31.9692 8.83304 31.9692 8.94688 31.98 9.05996C31.994 9.15553 32.0398 9.24359 32.1099 9.30996C32.1956 9.37781 32.3008 9.41637 32.41 9.41996V9.38996Z" fill="white"/>
<path d="M34.1599 9.99998V5.47998H34.7299L35.8299 8.05998V5.47998H36.5199V9.99998H35.9999L34.8899 7.29999V9.99998H34.1599Z" fill="white"/>
<path d="M38.1799 10C37.9397 10.01 37.7012 9.95475 37.4899 9.84003C37.3082 9.73367 37.1647 9.5727 37.0799 9.38004C36.9841 9.13755 36.93 8.88057 36.9199 8.62003L37.6299 8.48003C37.6356 8.63882 37.659 8.79648 37.6999 8.95003C37.724 9.06601 37.7793 9.1732 37.8599 9.26003C37.8985 9.29674 37.944 9.3254 37.9938 9.34428C38.0436 9.36317 38.0967 9.37192 38.1499 9.37003C38.203 9.37582 38.2566 9.36782 38.3057 9.3468C38.3547 9.32578 38.3975 9.29244 38.4299 9.25003C38.4933 9.15949 38.525 9.05047 38.5199 8.94003C38.5272 8.76901 38.478 8.60034 38.3799 8.46004C38.2789 8.31669 38.1576 8.18869 38.0199 8.08003L37.4499 7.57004C37.2967 7.44076 37.1679 7.28493 37.0699 7.11003C36.9722 6.91471 36.9241 6.69834 36.9299 6.48003C36.9201 6.32914 36.9427 6.17792 36.9962 6.03648C37.0496 5.89505 37.1327 5.7667 37.2399 5.66003C37.4775 5.45451 37.7863 5.35038 38.0999 5.37003C38.2808 5.36446 38.461 5.39507 38.6299 5.46004C38.764 5.5248 38.8806 5.62082 38.9699 5.74004C39.0535 5.85781 39.1145 5.99004 39.1499 6.13004C39.1927 6.28352 39.2195 6.44103 39.2299 6.60004L38.5299 6.72003C38.5367 6.59346 38.5367 6.4666 38.5299 6.34003C38.5139 6.24221 38.4685 6.15155 38.3999 6.08003C38.3256 6.0097 38.2272 5.9705 38.1249 5.9705C38.0226 5.9705 37.9242 6.0097 37.8499 6.08003C37.7806 6.16419 37.7449 6.2711 37.7499 6.38004C37.7432 6.51399 37.7782 6.64671 37.8499 6.76003C37.9226 6.87432 38.0139 6.97571 38.1199 7.06003L38.6799 7.56003C38.8683 7.71652 39.0304 7.90221 39.1599 8.11003C39.2973 8.33929 39.3666 8.60286 39.3599 8.87003C39.3624 9.07201 39.3143 9.27141 39.2199 9.45003C39.1235 9.61316 38.9854 9.74774 38.8199 9.84003C38.6268 9.95472 38.4043 10.0103 38.1799 10Z" fill="white"/>
<path d="M39.6099 9.99998V5.47998H40.4199V9.99998H39.6099Z" fill="white"/>
<path d="M41 9.99999V5.47998H42.11C42.2945 5.4797 42.4786 5.49644 42.66 5.52999C42.8114 5.56432 42.9542 5.62896 43.08 5.71999C43.1993 5.8108 43.2924 5.93156 43.35 6.07C43.4154 6.25269 43.4459 6.44603 43.44 6.63999C43.4451 6.79959 43.4214 6.95879 43.37 7.10999C43.323 7.22969 43.2475 7.3361 43.15 7.41999C43.0407 7.49935 42.9137 7.55085 42.78 7.57C42.9444 7.59162 43.0999 7.65726 43.23 7.75998C43.3493 7.85687 43.4392 7.98497 43.49 8.12999C43.5539 8.30615 43.5844 8.49265 43.58 8.67998C43.5819 8.87619 43.555 9.07162 43.5 9.25998C43.4465 9.41053 43.3651 9.54963 43.26 9.66999C43.1465 9.78152 43.01 9.86685 42.86 9.91999C42.6786 9.97536 42.4897 10.0023 42.3 9.99999H41ZM41.83 7.32999H42.11C42.2413 7.33494 42.3718 7.30746 42.49 7.24999C42.5781 7.20232 42.6457 7.12406 42.68 7.02999C42.7146 6.90634 42.7315 6.77838 42.73 6.64998C42.7354 6.52184 42.7079 6.39445 42.65 6.27999C42.5925 6.19049 42.5031 6.12616 42.4 6.09999C42.264 6.08084 42.126 6.08084 41.99 6.09999H41.83V7.32999ZM41.83 9.41999H42.14C42.2332 9.432 42.3279 9.42197 42.4164 9.3907C42.505 9.35944 42.585 9.30783 42.65 9.23999C42.7472 9.07008 42.7924 8.87535 42.78 8.67998C42.7839 8.52775 42.7637 8.37587 42.72 8.22998C42.6821 8.12423 42.6076 8.03554 42.51 7.97998C42.3863 7.91784 42.2481 7.8902 42.11 7.89998H41.83V9.41999Z" fill="white"/>
<path d="M43.8999 9.99998V5.47998H44.7199V9.47998H45.8199V9.99998H43.8999Z" fill="white"/>
<path d="M46.0598 9.99998V5.47998H47.9998V5.99998H46.9298V7.29999H47.7698V7.86998H46.9298V9.36998H47.9998V9.99998H46.0598Z" fill="white"/>
<path d="M21.8899 17.43C21.6187 17.4447 21.3496 17.3748 21.1199 17.23C20.9332 17.1007 20.793 16.9149 20.7199 16.7C20.6448 16.4468 20.6077 16.184 20.6098 15.92V14.3C20.6064 14.0293 20.6434 13.7596 20.7199 13.5C20.7889 13.2829 20.93 13.0959 21.1199 12.97C21.3558 12.8579 21.6137 12.7998 21.8749 12.7998C22.136 12.7998 22.3939 12.8579 22.6299 12.97C22.8039 13.0725 22.9379 13.2312 23.0099 13.42C23.0852 13.6421 23.1224 13.8754 23.1199 14.11V14.49H22.3199V14.1C22.3199 13.97 22.3199 13.86 22.3199 13.75C22.3061 13.6583 22.2681 13.572 22.2099 13.5C22.12 13.4385 22.0137 13.4056 21.9049 13.4056C21.796 13.4056 21.6897 13.4385 21.5999 13.5C21.5296 13.5703 21.484 13.6615 21.4699 13.76C21.4699 13.87 21.4699 14 21.4699 14.13V16.13C21.4525 16.2661 21.4525 16.4038 21.4699 16.54C21.4879 16.6335 21.5373 16.7182 21.6098 16.78C21.6924 16.8356 21.7904 16.8636 21.8899 16.86C21.9426 16.865 21.9957 16.8587 22.0457 16.8414C22.0957 16.8242 22.1415 16.7964 22.1799 16.76C22.2441 16.6877 22.2828 16.5964 22.2899 16.5C22.3004 16.3802 22.3004 16.2597 22.2899 16.14V15.73H23.0899V16.09C23.0931 16.3311 23.0559 16.5711 22.9799 16.8C22.917 17.0012 22.7862 17.1744 22.6098 17.29C22.3875 17.4027 22.1382 17.4512 21.8899 17.43Z" fill="white"/>
<path d="M24.7599 17.4301C24.4914 17.4442 24.2243 17.3818 23.9899 17.2501C23.7981 17.1284 23.6535 16.945 23.5799 16.7301C23.4941 16.4758 23.4535 16.2084 23.4599 15.9401V14.2501C23.4535 13.9818 23.4941 13.7144 23.5799 13.4601C23.6574 13.2527 23.8016 13.0768 23.9899 12.9601C24.2271 12.8367 24.4927 12.7781 24.7599 12.7901C25.027 12.779 25.2923 12.8376 25.5299 12.9601C25.7182 13.0768 25.8624 13.2527 25.9399 13.4601C26.0257 13.7144 26.0663 13.9818 26.0599 14.2501V16.0001C26.0655 16.2651 26.0249 16.5291 25.9399 16.7801C25.8643 16.9913 25.7199 17.1709 25.5299 17.2901C25.2927 17.4118 25.0248 17.4605 24.7599 17.4301ZM24.7599 16.8201C24.8675 16.827 24.9739 16.7951 25.0599 16.7301C25.1283 16.6624 25.1738 16.575 25.1899 16.4801C25.2007 16.367 25.2007 16.2532 25.1899 16.1401V14.0601C25.2011 13.9471 25.2011 13.8332 25.1899 13.7201C25.1713 13.629 25.126 13.5455 25.0599 13.4801C24.9739 13.4152 24.8675 13.3832 24.7599 13.3901C24.6521 13.3813 24.545 13.4135 24.4599 13.4801C24.3904 13.5429 24.3445 13.6276 24.3299 13.7201C24.3135 13.8329 24.3135 13.9474 24.3299 14.0601V16.1401C24.3191 16.2532 24.3191 16.367 24.3299 16.4801C24.3347 16.5321 24.3501 16.5825 24.3753 16.6282C24.4004 16.6739 24.4347 16.7139 24.4759 16.7458C24.5172 16.7777 24.5646 16.8008 24.6152 16.8136C24.6658 16.8264 24.7184 16.8286 24.7699 16.8201H24.7599Z" fill="white"/>
<path d="M26.5 17.3598V12.8398H27.08L28.18 15.4198V12.8398H28.86V17.3598H28.31L27.21 14.6599V17.3598H26.5Z" fill="white"/>
<path d="M30.52 17.43C30.2834 17.4354 30.0494 17.3804 29.84 17.27C29.6567 17.161 29.5131 16.9964 29.43 16.8C29.3249 16.5639 29.2704 16.3084 29.27 16.05L29.98 15.91C29.9876 16.0647 30.0076 16.2185 30.04 16.37C30.0675 16.4869 30.1262 16.594 30.21 16.68C30.2467 16.7164 30.2905 16.745 30.3387 16.7639C30.3868 16.7828 30.4383 16.7917 30.49 16.79C30.5445 16.7956 30.5996 16.7876 30.6502 16.7667C30.7008 16.7457 30.7455 16.7125 30.78 16.67C30.8358 16.5764 30.8635 16.4689 30.86 16.36C30.8674 16.1904 30.822 16.0227 30.73 15.88C30.6264 15.7388 30.5054 15.6112 30.37 15.5L29.8 15C29.6458 14.8677 29.5171 14.7085 29.42 14.53C29.3166 14.3404 29.2681 14.1257 29.28 13.91C29.2688 13.7575 29.2906 13.6043 29.3441 13.4611C29.3977 13.3178 29.4815 13.1878 29.59 13.08C29.8262 12.8788 30.1301 12.7751 30.44 12.79C30.6221 12.7816 30.8036 12.8158 30.97 12.89C31.1088 12.9423 31.2277 13.0367 31.31 13.16C31.4011 13.2745 31.466 13.4077 31.5 13.55C31.5428 13.7035 31.5696 13.861 31.58 14.02L30.87 14.14C30.8815 14.0136 30.8815 13.8864 30.87 13.76C30.8495 13.6637 30.8047 13.5742 30.74 13.5C30.7055 13.464 30.6633 13.4363 30.6165 13.419C30.5698 13.4017 30.5197 13.3952 30.47 13.4C30.4158 13.3968 30.3615 13.4059 30.3113 13.4267C30.2611 13.4475 30.2162 13.4794 30.18 13.52C30.118 13.6075 30.0864 13.7128 30.09 13.82C30.0839 13.9526 30.1151 14.0842 30.18 14.2C30.2566 14.3144 30.3512 14.4157 30.46 14.5L31.02 15C31.2058 15.1592 31.3675 15.3444 31.5 15.55C31.6364 15.7797 31.7057 16.043 31.7 16.31C31.7041 16.5134 31.6522 16.7141 31.55 16.89C31.463 17.0568 31.3269 17.1929 31.16 17.28C30.9656 17.3907 30.7434 17.4427 30.52 17.43Z" fill="white"/>
<path d="M33.21 17.4298C32.9373 17.4412 32.6669 17.3753 32.43 17.2399C32.2494 17.1132 32.1158 16.9303 32.05 16.7198C31.973 16.4534 31.936 16.1771 31.94 15.8998V12.8398H32.74V15.9998C32.7297 16.133 32.7297 16.2667 32.74 16.3998C32.7586 16.5088 32.8032 16.6117 32.87 16.6998C32.9547 16.7761 33.0662 16.8157 33.18 16.8098C33.238 16.8141 33.2963 16.8066 33.3513 16.7876C33.4063 16.7687 33.4569 16.7389 33.5 16.6998C33.5707 16.6141 33.6158 16.5101 33.63 16.3998C33.6403 16.2667 33.6403 16.133 33.63 15.9998V12.8398H34.43V15.8998C34.434 16.1771 34.3969 16.4534 34.32 16.7198C34.2541 16.9303 34.1205 17.1132 33.94 17.2399C33.7175 17.366 33.4658 17.4315 33.21 17.4298Z" fill="white"/>
<path d="M35 17.3598L35.08 12.8398H35.93L36.57 15.9698L37.24 12.8398H38L38.08 17.3598H37.47L37.4 14.2198L36.76 17.3598H36.26L35.61 14.2099L35.55 17.3598H35Z" fill="white"/>
<path d="M38.5798 17.3603V12.8403H39.9099C40.1426 12.8294 40.374 12.8812 40.5798 12.9903C40.7436 13.0976 40.8723 13.2506 40.9499 13.4303C41.0352 13.6501 41.0759 13.8846 41.0699 14.1203C41.0812 14.3691 41.0296 14.6167 40.9199 14.8403C40.8273 15.0135 40.6794 15.1508 40.4998 15.2303C40.2971 15.314 40.0792 15.3549 39.8598 15.3503H39.4099V17.3503L38.5798 17.3603ZM39.4099 14.7703H39.7198C39.8395 14.7761 39.959 14.7556 40.0699 14.7103C40.1126 14.6894 40.1505 14.6599 40.1815 14.6238C40.2124 14.5877 40.2357 14.5457 40.2498 14.5003C40.2686 14.3743 40.2686 14.2463 40.2498 14.1203C40.2626 13.9873 40.2626 13.8533 40.2498 13.7203C40.2268 13.6265 40.1698 13.5445 40.0898 13.4903C39.9715 13.4342 39.8404 13.41 39.7098 13.4203H39.3998L39.4099 14.7703Z" fill="white"/>
<path d="M41.8098 17.3598V13.4498H41.0898V12.8398H43.3499V13.4498H42.6399V17.3598H41.8098Z" fill="white"/>
<path d="M43.6199 17.3598V12.8398H44.4299V17.3598H43.6199Z" fill="white"/>
<path d="M46.1898 17.4301C45.9246 17.4434 45.661 17.381 45.4298 17.2501C45.2381 17.1284 45.0935 16.945 45.0198 16.7301C44.934 16.4758 44.8934 16.2084 44.8998 15.9401V14.2501C44.8934 13.9818 44.934 13.7144 45.0198 13.4601C45.0973 13.2526 45.2416 13.0768 45.4298 12.9601C45.6638 12.8375 45.926 12.7789 46.1898 12.7901C46.4602 12.7782 46.729 12.8367 46.9698 12.9601C47.1544 13.0784 47.2949 13.2541 47.3698 13.4601C47.4639 13.7125 47.5081 13.9808 47.4998 14.2501V16.0001C47.5073 16.2661 47.4631 16.5309 47.3698 16.7801C47.2968 16.9898 47.1561 17.1692 46.9698 17.2901C46.7295 17.4132 46.458 17.4619 46.1898 17.4301ZM46.1898 16.8201C46.2413 16.8286 46.294 16.8263 46.3445 16.8135C46.3951 16.8008 46.4425 16.7777 46.4838 16.7458C46.5251 16.7139 46.5593 16.6739 46.5845 16.6282C46.6096 16.5824 46.625 16.532 46.6298 16.4801C46.6406 16.367 46.6406 16.2532 46.6298 16.1401V14.0601C46.6411 13.947 46.6411 13.8332 46.6298 13.7201C46.6112 13.629 46.566 13.5455 46.4998 13.4801C46.4108 13.4136 46.3006 13.3817 46.1898 13.3901C46.0851 13.3808 45.9809 13.4131 45.8998 13.4801C45.8305 13.5445 45.7818 13.6281 45.7598 13.7201C45.7486 13.8332 45.7486 13.947 45.7598 14.0601V16.1401C45.7491 16.2532 45.7491 16.367 45.7598 16.4801C45.7714 16.5764 45.8176 16.6653 45.8898 16.7301C45.9758 16.7951 46.0823 16.827 46.1898 16.8201Z" fill="white"/>
<path d="M47.9399 17.3598V12.8398H48.5199L49.6199 15.4198V12.8398H50.2999V17.3598H49.7499L48.6499 14.6599V17.3598H47.9399Z" fill="white"/>
<path d="M20.45 24.76L21.3499 20.23H22.2399L23.14 24.76H22.3799L22.2 23.76H21.4099L21.2199 24.76H20.45ZM21.45 23.19H22.0699L21.7599 21.29L21.45 23.19Z" fill="white"/>
<path d="M23.3999 24.76V20.23H23.9999L25.0999 22.81V20.23H25.7799V24.76H25.2299L24.1299 22.05V24.76H23.3999Z" fill="white"/>
<path d="M26.2798 24.7603V20.2303H27.3498C27.644 20.2163 27.9377 20.2676 28.2098 20.3803C28.4105 20.4757 28.5677 20.6437 28.6498 20.8503C28.7459 21.1022 28.7901 21.3709 28.7798 21.6403V23.2903C28.7896 23.5694 28.7455 23.8479 28.6498 24.1103C28.5695 24.3197 28.417 24.4935 28.2198 24.6003C27.9553 24.7157 27.6682 24.7704 27.3798 24.7603H26.2798ZM27.1098 24.1803H27.3598C27.5038 24.1935 27.648 24.1583 27.7698 24.0803C27.8543 24.0058 27.9079 23.9023 27.9198 23.7903C27.9314 23.6338 27.9314 23.4767 27.9198 23.3203V21.5803C27.933 21.4339 27.933 21.2866 27.9198 21.1403C27.91 21.0906 27.8897 21.0435 27.8604 21.0021C27.8311 20.9608 27.7934 20.926 27.7498 20.9003C27.6309 20.8347 27.4949 20.8068 27.3598 20.8203H27.1198L27.1098 24.1803Z" fill="white"/>
<path d="M30.4199 24.7599V20.23H31.7399C31.9726 20.219 32.2041 20.2708 32.4099 20.38C32.5785 20.4817 32.7086 20.6364 32.7799 20.82C32.8663 21.0429 32.9071 21.281 32.8999 21.52C32.91 21.7654 32.8585 22.0095 32.7499 22.23C32.6574 22.4032 32.5095 22.5405 32.3299 22.62C32.1279 22.7071 31.9099 22.7514 31.6899 22.75H31.2399V24.75L30.4199 24.7599ZM31.2399 22.16H31.5499C31.6695 22.1658 31.789 22.1453 31.8999 22.1C31.9437 22.0806 31.9826 22.0518 32.0138 22.0154C32.0449 21.9791 32.0675 21.9362 32.0799 21.89C32.0987 21.764 32.0987 21.6359 32.0799 21.5099C32.0922 21.3769 32.0922 21.243 32.0799 21.11C32.0569 21.0161 31.9999 20.9342 31.9199 20.88C31.8003 20.8278 31.6703 20.8038 31.5399 20.81H31.2299L31.2399 22.16Z" fill="white"/>
<path d="M33.1699 24.76V20.23H34.2499C34.5141 20.2248 34.7774 20.262 35.0299 20.34C35.2279 20.4041 35.3975 20.5349 35.5099 20.71C35.6281 20.9308 35.6834 21.1798 35.6699 21.43C35.6747 21.5948 35.6579 21.7595 35.6199 21.92C35.5922 22.0547 35.5341 22.1812 35.4499 22.29C35.3616 22.3962 35.2482 22.4787 35.1199 22.53L35.7499 24.76H34.9199L34.3799 22.68H33.9999V24.76H33.1699ZM33.9999 22.16H34.2499C34.3835 22.1666 34.5169 22.1426 34.6399 22.09C34.7324 22.045 34.804 21.9663 34.8399 21.87C34.8839 21.7448 34.9043 21.6126 34.8999 21.48C34.9133 21.3017 34.8714 21.1236 34.7799 20.97C34.719 20.9057 34.6438 20.8568 34.5604 20.8272C34.4769 20.7977 34.3876 20.7884 34.2999 20.8H33.9999V22.16Z" fill="white"/>
<path d="M37.34 24.8202C37.0747 24.8336 36.8111 24.7711 36.58 24.6402C36.39 24.521 36.2456 24.3414 36.17 24.1302C36.0852 23.8722 36.0446 23.6018 36.05 23.3302V21.6402C36.0436 21.3719 36.0842 21.1046 36.17 20.8502C36.2475 20.6428 36.3917 20.4669 36.58 20.3502C36.8139 20.2277 37.0761 20.169 37.34 20.1802C37.6103 20.1683 37.8791 20.2269 38.12 20.3502C38.3045 20.4686 38.445 20.6442 38.52 20.8502C38.6141 21.1027 38.6582 21.371 38.65 21.6402V23.3402C38.6574 23.6062 38.6133 23.8711 38.52 24.1202C38.4489 24.3336 38.308 24.5168 38.12 24.6402C37.882 24.7722 37.6117 24.8346 37.34 24.8202ZM37.34 24.2102C37.3915 24.2187 37.4441 24.2165 37.4947 24.2037C37.5453 24.1909 37.5927 24.1678 37.634 24.136C37.6752 24.1041 37.7095 24.064 37.7346 24.0183C37.7597 23.9726 37.7752 23.9222 37.78 23.8702C37.7912 23.7572 37.7912 23.6433 37.78 23.5302V21.4502C37.7912 21.3372 37.7912 21.2233 37.78 21.1102C37.7613 21.0191 37.7161 20.9356 37.65 20.8702C37.5609 20.8038 37.4508 20.7718 37.34 20.7802C37.2352 20.771 37.1311 20.8033 37.05 20.8702C36.9807 20.9347 36.932 21.0182 36.91 21.1102C36.8988 21.2233 36.8988 21.3372 36.91 21.4502V23.5302C36.8988 23.6433 36.8988 23.7572 36.91 23.8702C36.9216 23.9666 36.9678 24.0554 37.04 24.1202C37.126 24.1852 37.2324 24.2171 37.34 24.2102Z" fill="white"/>
<path d="M39.0898 24.7603V20.2303H40.1599C40.4541 20.2163 40.7477 20.2676 41.0198 20.3803C41.1205 20.4258 41.2111 20.4908 41.2867 20.5714C41.3622 20.6521 41.421 20.7469 41.4598 20.8503C41.556 21.1022 41.6002 21.3709 41.5898 21.6403V23.2903C41.5997 23.5694 41.5555 23.8479 41.4598 24.1103C41.3828 24.3216 41.2294 24.4964 41.0298 24.6003C40.7653 24.7157 40.4783 24.7704 40.1898 24.7603H39.0898ZM39.9199 24.1803H40.1699C40.314 24.1951 40.4587 24.1598 40.5798 24.0803C40.6644 24.0058 40.7179 23.9023 40.7299 23.7903C40.7415 23.6338 40.7415 23.4767 40.7299 23.3203V21.5803C40.7431 21.4339 40.7431 21.2866 40.7299 21.1403C40.7101 21.0424 40.6527 20.9561 40.5699 20.9003C40.4468 20.8361 40.3081 20.8084 40.1699 20.8203H39.9298L39.9199 24.1803Z" fill="white"/>
<path d="M43.2798 24.82C43.0034 24.8374 42.7281 24.7712 42.4898 24.63C42.3052 24.5074 42.1705 24.323 42.1098 24.11C42.0329 23.8436 41.9958 23.5672 41.9998 23.29V20.23H42.8098V23.39C42.7995 23.5231 42.7995 23.6568 42.8098 23.79C42.8198 23.9014 42.8653 24.0066 42.9398 24.09C42.9799 24.1304 43.0286 24.1612 43.0823 24.1803C43.1359 24.1993 43.1932 24.206 43.2498 24.2C43.3065 24.2068 43.3639 24.2004 43.4177 24.1813C43.4715 24.1623 43.5201 24.131 43.5598 24.09C43.6305 24.0042 43.6756 23.9002 43.6898 23.79C43.7001 23.6568 43.7001 23.5231 43.6898 23.39V20.23H44.4898V23.29C44.4989 23.5675 44.4618 23.8447 44.3798 24.11C44.3234 24.3251 44.1876 24.5109 43.9998 24.63C43.783 24.7611 43.5331 24.8271 43.2798 24.82Z" fill="white"/>
<path d="M46.2499 24.8199C45.9757 24.8335 45.7038 24.7637 45.4699 24.6199C45.2839 24.4923 45.1464 24.3055 45.0799 24.0899C44.9966 23.8384 44.9561 23.5748 44.9599 23.3099V21.6999C44.9546 21.4251 44.9951 21.1513 45.0799 20.8899C45.1406 20.674 45.2797 20.4886 45.4699 20.3699C45.7051 20.255 45.9633 20.1953 46.225 20.1953C46.4866 20.1953 46.7448 20.255 46.98 20.3699C47.1575 20.4729 47.2922 20.6361 47.3599 20.8299C47.441 21.0471 47.4784 21.2782 47.4699 21.5099V21.8899H46.6799V21.4999C46.6799 21.3799 46.6799 21.2599 46.6799 21.1599C46.6746 21.066 46.6356 20.9772 46.57 20.9099C46.5301 20.8727 46.4826 20.8444 46.4309 20.8272C46.3791 20.8099 46.3242 20.804 46.2699 20.8099C46.1579 20.8043 46.0476 20.8399 45.9599 20.9099C45.8964 20.9836 45.8548 21.0737 45.8399 21.1699C45.8288 21.2963 45.8288 21.4235 45.8399 21.5499V23.5499C45.8221 23.686 45.8221 23.8238 45.8399 23.9599C45.8619 24.0519 45.9107 24.1354 45.98 24.1999C46.063 24.2543 46.1607 24.2822 46.26 24.2799C46.3142 24.2857 46.3691 24.2798 46.4208 24.2626C46.4726 24.2453 46.5201 24.2171 46.5599 24.1799C46.6218 24.1062 46.6602 24.0156 46.67 23.9199C46.67 23.8099 46.67 23.6899 46.67 23.5599V23.1499H47.4599V23.5099C47.4653 23.7537 47.4316 23.9968 47.3599 24.2299C47.293 24.4263 47.1629 24.5951 46.9899 24.7099C46.7587 24.8161 46.5021 24.8542 46.2499 24.8199Z" fill="white"/>
<path d="M48.3299 24.76V20.84H47.6099V20.23H49.8699V20.84H49.1599V24.76H48.3299Z" fill="white"/>
<path d="M50.1399 24.76V20.23H50.9999V24.76H50.1399Z" fill="white"/>
<path d="M52.7098 24.8202C52.4445 24.8336 52.181 24.7711 51.9498 24.6402C51.7598 24.521 51.6154 24.3414 51.5398 24.1302C51.455 23.8722 51.4145 23.6018 51.4198 23.3302V21.6402C51.4134 21.3719 51.4541 21.1046 51.5398 20.8502C51.6174 20.6428 51.7616 20.4669 51.9498 20.3502C52.1838 20.2277 52.4459 20.169 52.7098 20.1802C52.9802 20.1683 53.249 20.2269 53.4898 20.3502C53.6752 20.4701 53.8186 20.6449 53.8998 20.8502C53.9856 21.1046 54.0262 21.3719 54.0198 21.6402V23.3402C54.0255 23.6052 53.9849 23.8692 53.8998 24.1202C53.8216 24.3326 53.678 24.5146 53.4898 24.6402C53.2519 24.7722 52.9816 24.8346 52.7098 24.8202ZM52.7098 24.2102C52.7613 24.2187 52.814 24.2165 52.8645 24.2037C52.9151 24.1909 52.9625 24.1678 53.0038 24.136C53.0451 24.1041 53.0794 24.064 53.1045 24.0183C53.1296 23.9726 53.145 23.9222 53.1498 23.8702C53.1611 23.7572 53.1611 23.6433 53.1498 23.5302V21.4502C53.1611 21.3372 53.1611 21.2233 53.1498 21.1102C53.1312 21.0191 53.0859 20.9356 53.0198 20.8702C52.9308 20.8038 52.8206 20.7718 52.7098 20.7802C52.6051 20.771 52.5009 20.8033 52.4198 20.8702C52.3505 20.9347 52.3018 21.0182 52.2798 21.1102C52.2686 21.2233 52.2686 21.3372 52.2798 21.4502V23.5302C52.2686 23.6433 52.2686 23.7572 52.2798 23.8702C52.2914 23.9666 52.3376 24.0554 52.4098 24.1202C52.4958 24.1852 52.6023 24.2171 52.7098 24.2102Z" fill="white"/>
<path d="M54.46 24.76V20.23H55L56.1 22.81V20.23H56.78V24.76H56.23L55.13 22.05V24.76H54.46Z" fill="white"/>
<path d="M47.79 32.2703C46.6932 31.4508 45.4427 30.8603 44.113 30.5338C42.7834 30.2074 41.4016 30.1518 40.05 30.3702H39.89C38.35 30.7402 35.89 31.3702 33.03 34.9002V34.9603C33.0198 35.003 33.0198 35.0475 33.03 35.0902C33.0183 35.1294 33.0183 35.1711 33.03 35.2103L33.09 35.3203C33.45 35.9303 33.91 36.7002 34.29 37.4202C34.3107 37.4604 34.3423 37.494 34.3813 37.517C34.4202 37.54 34.4648 37.5515 34.51 37.5502C34.5418 37.5522 34.5736 37.547 34.6031 37.5348C34.6325 37.5227 34.6588 37.504 34.68 37.4802C34.7021 37.4613 34.7193 37.4373 34.73 37.4102C37.28 33.8902 39.28 33.4102 40.64 33.0802H40.8C42.6786 32.8403 44.578 33.3267 46.11 34.4402C47.61 35.6302 48.38 37.5202 48.38 40.0602C48.38 44.3302 46.3 46.0002 44.56 46.6402C42.8145 47.2126 40.9151 47.0872 39.26 46.2902L39.15 46.2403C37.66 45.6003 35.45 44.2403 33.37 40.0703C29.17 31.6403 25.66 30.8503 23.37 30.3203H23.24C21.9074 30.1063 20.5453 30.1644 19.2357 30.4909C17.9261 30.8175 16.6962 31.4057 15.62 32.2202C14.11 33.4202 12.32 35.7602 12.32 40.0802C12.1905 42.3048 12.8727 44.5007 14.24 46.2602C15.3467 47.6348 16.8183 48.6698 18.4862 49.2464C20.1541 49.823 21.9507 49.9179 23.67 49.5203C25.0188 49.2377 26.2846 48.6493 27.37 47.8002L28.69 49.0002C28.7096 49.0202 28.7329 49.0361 28.7586 49.0469C28.7844 49.0577 28.8121 49.0633 28.84 49.0633C28.8679 49.0633 28.8956 49.0577 28.9214 49.0469C28.9471 49.0361 28.9704 49.0202 28.99 49.0002C29.0277 48.9633 29.0492 48.913 29.05 48.8602L30 42.9903V42.9302C30.0012 42.9 29.9955 42.8699 29.9834 42.8422C29.9713 42.8145 29.953 42.7899 29.93 42.7703C29.9112 42.7529 29.8891 42.7396 29.8651 42.731C29.841 42.7224 29.8155 42.7187 29.79 42.7202H29.69L24.06 44.2902H23.96C23.9187 44.3001 23.8807 44.3209 23.85 44.3503C23.8301 44.3698 23.8142 44.3931 23.8034 44.4189C23.7926 44.4446 23.787 44.4723 23.787 44.5002C23.787 44.5282 23.7926 44.5558 23.8034 44.5816C23.8142 44.6074 23.8301 44.6307 23.85 44.6502L23.91 44.7202L25.17 45.8503C24.5457 46.2722 23.8465 46.5709 23.11 46.7302C21.9236 47.0209 20.6797 46.9757 19.5176 46.5995C18.3555 46.2233 17.321 45.531 16.53 44.6003C15.5375 43.3311 15.0559 41.7366 15.18 40.1303C15.18 37.5803 15.93 35.6802 17.41 34.5002C18.9079 33.3962 20.7754 32.9159 22.62 33.1602H22.75C24.65 33.5902 27.26 34.1602 30.85 41.4002C32.72 45.1402 35.06 47.5902 38 48.8902C39.4004 49.5524 40.9309 49.8941 42.48 49.8902C43.5447 49.8974 44.6019 49.711 45.6 49.3402C47.3 48.7102 51.27 46.5302 51.27 40.0802C51.27 35.7702 49.45 33.4302 47.92 32.2202" fill="white"/>
</svg>
