<svg viewBox="0 0 64 64" fill="none" xmlns="http://www.w3.org/2000/svg">
<!-- <path d="M63.2899 0H0.659912V62.8H63.2899V0Z" fill="#EA1D2D"/> -->
<path d="M6.11989 7.83022C5.81352 7.97056 5.49972 8.09408 5.17989 8.20021C4.75989 8.34021 4.49989 8.43021 4.38989 8.48021V6.78021C4.81122 6.61542 5.21911 6.41816 5.60989 6.19021C5.97446 5.99688 6.31091 5.75464 6.60989 5.47021H8.39989V17.4702H6.09989L6.11989 7.83022Z" fill="white"/>
<path d="M13.4399 5.45996H13.9999L15.1099 8.06996V5.45996H15.7999V9.99996H15.2499L14.1499 7.29996V9.99996H13.4399V5.45996Z" fill="white"/>
<path d="M16.6398 9.72014C16.4112 9.39336 16.3018 8.99796 16.3298 8.60013V6.88014C16.3014 6.48851 16.4111 6.09931 16.6398 5.78013C16.7676 5.64679 16.9241 5.5442 17.0973 5.4801C17.2705 5.41601 17.456 5.39209 17.6398 5.41014C17.8235 5.39426 18.0084 5.4192 18.1813 5.48316C18.3542 5.54713 18.5107 5.64854 18.6398 5.78013C18.8605 6.1027 18.9662 6.49018 18.9398 6.88014V8.60013C18.9698 8.99503 18.86 9.38788 18.6298 9.71013C18.5049 9.84831 18.3494 9.95548 18.1759 10.0232C18.0023 10.0909 17.8154 10.1172 17.6298 10.1001C17.4469 10.1146 17.2631 10.0881 17.0918 10.0223C16.9205 9.95655 16.7661 9.85331 16.6398 9.72014ZM17.9998 9.31014C18.0679 9.14909 18.0987 8.97474 18.0898 8.80013V6.69013C18.0996 6.51871 18.0688 6.34739 17.9998 6.19013C17.9398 6.07013 17.8098 6.02014 17.6198 6.02014C17.5483 6.00918 17.4751 6.01945 17.4093 6.04966C17.3436 6.07988 17.2881 6.12872 17.2498 6.19013C17.1739 6.34536 17.1394 6.51763 17.1498 6.69013V8.80013C17.1376 8.97598 17.1721 9.15192 17.2498 9.31014C17.2899 9.36981 17.3456 9.41726 17.4109 9.44726C17.4762 9.47725 17.5485 9.48863 17.6198 9.48013C17.6926 9.4883 17.7662 9.47685 17.833 9.44695C17.8998 9.41706 17.9574 9.36982 17.9998 9.31014Z" fill="white"/>
<path d="M13.4399 12.9399H14.7799C15.5599 12.9399 15.9499 13.3699 15.9499 14.2399C15.9746 14.4067 15.9602 14.5769 15.9079 14.7372C15.8556 14.8975 15.7669 15.0435 15.6486 15.1636C15.5304 15.2838 15.3859 15.3749 15.2265 15.4298C15.0671 15.4847 14.8971 15.5019 14.7299 15.4799H14.2699V17.4799H13.4399V12.9399ZM14.5899 14.9399C14.6721 14.9496 14.7554 14.9421 14.8346 14.918C14.9137 14.8939 14.9871 14.8537 15.0499 14.7999C15.1454 14.6443 15.1875 14.4617 15.1699 14.2799C15.1845 14.1437 15.1845 14.0062 15.1699 13.8699C15.1635 13.8151 15.145 13.7624 15.1155 13.7157C15.0861 13.669 15.0466 13.6294 14.9999 13.5999C14.8827 13.5399 14.7515 13.5123 14.6199 13.5199H14.2999V14.8899L14.5899 14.9399Z" fill="white"/>
<path d="M16.6199 17.2001C16.3956 16.8713 16.2866 16.4775 16.3099 16.0801V14.3601C16.2849 13.9688 16.3942 13.5807 16.6199 13.2601C16.7482 13.1274 16.9046 13.0252 17.0777 12.9611C17.2508 12.8971 17.4362 12.8728 17.6199 12.8901C17.8037 12.8721 17.9893 12.896 18.1625 12.9601C18.3357 13.0242 18.4921 13.1268 18.6199 13.2601C18.8421 13.582 18.9479 13.97 18.9199 14.3601V16.0801C18.9478 16.4733 18.8421 16.8645 18.6199 17.1901C18.342 17.4301 17.9871 17.5621 17.6199 17.5621C17.2527 17.5621 16.8978 17.4301 16.6199 17.1901V17.2001ZM17.9999 16.7901C18.0717 16.63 18.1059 16.4555 18.0999 16.2801V14.1701C18.1103 13.9976 18.0759 13.8253 17.9999 13.6701C17.9399 13.5501 17.8199 13.5001 17.6299 13.5001C17.4399 13.5001 17.3099 13.5001 17.2499 13.6701C17.1739 13.8253 17.1395 13.9976 17.1499 14.1701V16.2801C17.1377 16.456 17.1722 16.6319 17.2499 16.7901C17.2916 16.8506 17.349 16.8985 17.4161 16.9284C17.4831 16.9584 17.5571 16.9694 17.6299 16.9601C17.7013 16.9686 17.7736 16.9572 17.8389 16.9272C17.9042 16.8972 17.9599 16.8498 17.9999 16.7901Z" fill="white"/>
<path d="M19.3298 12.9399H20.0598L20.6698 16.1799L21.2398 12.9399H21.9998L21.0798 17.5099H20.2598L19.3298 12.9399Z" fill="white"/>
<path d="M22.4299 12.9399H24.3499V13.5199H23.2599V14.8399H24.1199V15.4199H23.2599V16.9399H24.3599V17.5099H22.4299V12.9399Z" fill="white"/>
<path d="M24.8198 12.94H25.9198C26.2996 12.91 26.6788 13.0048 26.9998 13.21C27.1297 13.3272 27.2299 13.4735 27.2925 13.6368C27.3551 13.8002 27.3781 13.976 27.3598 14.15C27.3708 14.3934 27.3263 14.6362 27.2298 14.86C27.1871 14.9528 27.1262 15.0361 27.0506 15.1048C26.975 15.1735 26.8863 15.2263 26.7898 15.26L27.4298 17.51H26.5998L26.0498 15.42H25.6498V17.51H24.8198V12.94ZM25.9198 14.94C26.0105 14.9489 26.102 14.9383 26.1882 14.909C26.2744 14.8796 26.3534 14.8323 26.4198 14.77C26.5343 14.6183 26.5879 14.4292 26.5698 14.24C26.5867 14.0538 26.5409 13.8673 26.4398 13.71C26.3767 13.6494 26.3009 13.6036 26.2178 13.5759C26.1348 13.5483 26.0467 13.5394 25.9598 13.55H25.6498V14.9L25.9198 14.94Z" fill="white"/>
<path d="M28.4099 13.5499H27.6499V12.9399H29.9999V13.5499H29.2499V17.5499H28.4199L28.4099 13.5499Z" fill="white"/>
<path d="M31 15.7699L30 12.9399H30.78L31.35 14.7499L31.88 12.9399H32.64L31.73 15.7699V17.5099H31V15.7699Z" fill="white"/>
<path d="M49 30C49 29.6539 49.1026 29.3155 49.2949 29.0278C49.4872 28.74 49.7605 28.5157 50.0803 28.3832C50.4001 28.2508 50.7519 28.2161 51.0914 28.2836C51.4309 28.3512 51.7427 28.5178 51.9874 28.7626C52.2322 29.0073 52.3988 29.3191 52.4664 29.6586C52.5339 29.9981 52.4992 30.3499 52.3668 30.6697C52.2343 30.9895 52.01 31.2628 51.7222 31.4551C51.4345 31.6474 51.0961 31.75 50.75 31.75C50.2859 31.75 49.8408 31.5656 49.5126 31.2374C49.1844 30.9092 49 30.4641 49 30Z" fill="white"/>
<path d="M52.8098 32.3799C53.3872 32.4346 53.9233 32.7027 54.3135 33.1318C54.7037 33.5608 54.9199 34.1199 54.9198 34.6999V39.5399C54.9315 39.6354 54.9227 39.7323 54.8941 39.8242C54.8655 39.9161 54.8177 40.0009 54.7539 40.073C54.6901 40.145 54.6117 40.2027 54.524 40.2422C54.4362 40.2818 54.3411 40.3022 54.2448 40.3022C54.1486 40.3022 54.0534 40.2818 53.9657 40.2422C53.8779 40.2027 53.7995 40.145 53.7357 40.073C53.6719 40.0009 53.6241 39.9161 53.5955 39.8242C53.5669 39.7323 53.5582 39.6354 53.5698 39.5399V35.3799C53.5775 35.3335 53.5746 35.2859 53.5612 35.2408C53.5478 35.1956 53.5243 35.1542 53.4925 35.1195C53.4607 35.0848 53.4215 35.0578 53.3777 35.0405C53.3339 35.0233 53.2867 35.0162 53.2398 35.0199C53.0398 35.0199 52.9998 35.2199 52.9898 35.3599V47.8199C52.9356 48.0361 52.8107 48.228 52.635 48.3652C52.4593 48.5023 52.2427 48.5768 52.0198 48.5768C51.7969 48.5768 51.5804 48.5023 51.4046 48.3652C51.2289 48.228 51.104 48.0361 51.0498 47.8199V40.6399C51.0527 40.6019 51.0475 40.5638 51.0345 40.528C51.0216 40.4922 51.0012 40.4595 50.9748 40.4321C50.9484 40.4047 50.9164 40.3833 50.8811 40.3691C50.8458 40.3549 50.8078 40.3484 50.7698 40.3499C50.7318 40.3484 50.6938 40.3549 50.6585 40.3691C50.6232 40.3833 50.5913 40.4047 50.5648 40.4321C50.5384 40.4595 50.518 40.4922 50.5051 40.528C50.4922 40.5638 50.487 40.6019 50.4898 40.6399V47.8199C50.4898 48.0851 50.3845 48.3395 50.1969 48.527C50.0094 48.7145 49.755 48.8199 49.4898 48.8199C49.2246 48.8199 48.9702 48.7145 48.7827 48.527C48.5952 48.3395 48.4898 48.0851 48.4898 47.8199V35.3599C48.4898 35.2199 48.4898 35.0199 48.2498 35.0199C48.0098 35.0199 47.9198 35.2299 47.9198 35.3799V39.5399C47.9198 39.7202 47.8482 39.8932 47.7206 40.0207C47.5931 40.1482 47.4202 40.2199 47.2398 40.2199C47.0595 40.2199 46.8865 40.1482 46.759 40.0207C46.6315 39.8932 46.5598 39.7202 46.5598 39.5399V34.6999C46.5599 34.1184 46.7775 33.5579 47.1698 33.1287C47.5621 32.6994 48.1007 32.4323 48.6798 32.3799H52.7598" fill="white"/>
<path d="M38.6298 30.8799C38.6298 30.5527 38.5325 30.2329 38.3503 29.9611C38.1681 29.6894 37.9092 29.4779 37.6066 29.3536C37.3039 29.2294 36.9711 29.1979 36.6505 29.2632C36.3299 29.3285 36.036 29.4876 35.806 29.7204C35.5761 29.9531 35.4205 30.249 35.3591 30.5704C35.2977 30.8918 35.3333 31.2241 35.4612 31.5253C35.5892 31.8264 35.8038 32.0827 36.0778 32.2616C36.3517 32.4404 36.6727 32.5338 36.9998 32.5299C37.4374 32.5299 37.8571 32.356 38.1666 32.0466C38.476 31.7371 38.6498 31.3175 38.6498 30.8799" fill="white"/>
<path d="M33.6499 34.6202L32.2699 39.1002C32.2699 39.1002 32.0299 39.9202 32.7299 40.1002C33.4299 40.2802 33.6299 39.5102 33.6299 39.5102L34.7399 35.7701C34.7399 35.7701 34.7999 35.4902 35.0099 35.5502C35.2199 35.6102 35.1499 35.9202 35.1499 35.9202L33.2199 42.9202H34.9999V47.9202C35.0229 48.1335 35.1239 48.3309 35.2836 48.4743C35.4433 48.6177 35.6503 48.697 35.8649 48.697C36.0796 48.697 36.2866 48.6177 36.4463 48.4743C36.6059 48.3309 36.707 48.1335 36.7299 47.9202V42.9202H37.2199V47.9202C37.2093 48.1562 37.2929 48.3868 37.4523 48.5612C37.6117 48.7356 37.8339 48.8395 38.0699 48.8502C38.306 48.8608 38.5366 48.7772 38.711 48.6178C38.8854 48.4584 38.9893 48.2362 38.9999 48.0002V43.0002H40.7899L38.8699 36.0002C38.8699 36.0002 38.7799 35.6901 38.9999 35.6301C39.2199 35.5701 39.2799 35.8502 39.2799 35.8502L40.3799 39.5901C40.3799 39.5901 40.5999 40.3902 41.2899 40.1802C41.9799 39.9702 41.7399 39.1802 41.7399 39.1802L40.3599 34.7001C40.3599 34.7001 39.8699 33.4102 38.7799 33.4102H35.2799C34.1899 33.4102 33.6999 34.7001 33.6999 34.7001" fill="white"/>
<path d="M28.7299 30.8799C28.7319 30.5508 28.6359 30.2285 28.4543 29.9539C28.2727 29.6794 28.0135 29.4651 27.7098 29.3382C27.406 29.2114 27.0714 29.1776 26.7485 29.2414C26.4256 29.3051 26.1289 29.4634 25.8961 29.6962C25.6634 29.9289 25.5051 30.2256 25.4413 30.5486C25.3776 30.8715 25.4113 31.2061 25.5382 31.5098C25.6651 31.8136 25.8794 32.0727 26.1539 32.2543C26.4284 32.436 26.7507 32.5319 27.0799 32.5299C27.5175 32.5299 27.9372 32.3561 28.2466 32.0467C28.556 31.7372 28.7299 31.3175 28.7299 30.8799Z" fill="white"/>
<path d="M23.7398 34.6202L22.3698 39.1002C22.3698 39.1002 22.1198 39.9202 22.8198 40.1002C23.5198 40.2802 23.7198 39.5102 23.7198 39.5102L24.8298 35.7701C24.8298 35.7701 24.8898 35.4902 25.1098 35.5502C25.3298 35.6102 25.2398 35.9202 25.2398 35.9202L23.3098 42.9202H25.1098V47.9202C25.1098 48.1482 25.2004 48.367 25.3617 48.5283C25.523 48.6895 25.7417 48.7802 25.9698 48.7802C26.1979 48.7802 26.4167 48.6895 26.5779 48.5283C26.7392 48.367 26.8298 48.1482 26.8298 47.9202V42.9202H27.3198V47.9202C27.3518 48.1144 27.4495 48.2917 27.5964 48.4226C27.7434 48.5535 27.9309 48.63 28.1275 48.6394C28.3241 48.6487 28.5179 48.5904 28.6767 48.4741C28.8355 48.3577 28.9495 48.1904 28.9998 48.0002V43.0002H30.7998L28.8698 36.0002C28.8698 36.0002 28.7898 35.6901 28.9998 35.6301C29.2098 35.5701 29.2798 35.8502 29.2798 35.8502L30.3898 39.5901C30.3898 39.5901 30.5998 40.3902 31.2898 40.1802C31.9798 39.9702 31.7398 39.1802 31.7398 39.1802L30.3698 34.7001C30.3698 34.7001 29.8798 33.4102 28.7898 33.4102H25.3198C24.2398 33.4102 23.7398 34.7001 23.7398 34.7001" fill="white"/>
<path d="M44.1898 40.1301C44.4632 40.1301 44.7304 40.0489 44.9576 39.8968C45.1847 39.7447 45.3616 39.5286 45.4657 39.2759C45.5699 39.0231 45.5966 38.7452 45.5426 38.4772C45.4885 38.2092 45.3561 37.9634 45.1621 37.7708C44.9681 37.5782 44.7212 37.4475 44.4529 37.3954C44.1845 37.3433 43.9068 37.3721 43.6548 37.4781C43.4028 37.584 43.188 37.7625 43.0375 37.9907C42.8871 38.219 42.8079 38.4868 42.8099 38.7601C42.8098 38.9409 42.8456 39.1198 42.9151 39.2867C42.9846 39.4536 43.0864 39.6051 43.2146 39.7324C43.3429 39.8598 43.4951 39.9605 43.6625 40.0287C43.8299 40.097 44.0091 40.1314 44.1898 40.1301Z" fill="white"/>
<path d="M40.8899 44.41C40.8603 44.4658 40.8419 44.5269 40.8359 44.5898C40.8299 44.6527 40.8364 44.7162 40.855 44.7766C40.8735 44.8369 40.9039 44.8931 40.9442 44.9417C40.9845 44.9904 41.034 45.0306 41.0899 45.06C41.1939 45.11 41.3131 45.1182 41.4229 45.0828C41.5327 45.0474 41.6247 44.9713 41.6799 44.87L42.4299 42.48C42.4299 42.48 42.5599 42.32 42.5599 42.48V48.1C42.5599 48.1928 42.5784 48.2846 42.6142 48.3702C42.65 48.4558 42.7024 48.5334 42.7685 48.5986C42.8345 48.6637 42.9129 48.7151 42.999 48.7496C43.0851 48.7842 43.1772 48.8014 43.2699 48.8C43.4556 48.8 43.6336 48.7263 43.7649 48.595C43.8962 48.4637 43.9699 48.2857 43.9699 48.1V45.89C43.9699 45.89 43.9699 45.58 44.1899 45.58C44.4099 45.58 44.3999 45.89 44.3999 45.89V48.11C44.3999 48.2028 44.4184 48.2947 44.4542 48.3802C44.49 48.4658 44.5424 48.5434 44.6085 48.6086C44.6745 48.6737 44.7529 48.7251 44.839 48.7596C44.9251 48.7942 45.0172 48.8113 45.1099 48.81C45.2956 48.81 45.4736 48.7363 45.6049 48.605C45.7362 48.4737 45.8099 48.2957 45.8099 48.11V42.49C45.8099 42.32 45.8999 42.49 45.8999 42.49L46.4899 44.13C46.5714 44.3948 46.6821 44.6497 46.8199 44.89C46.883 44.9163 46.9506 44.9299 47.0189 44.93C47.0871 44.9302 47.1548 44.9169 47.2179 44.8909C47.2811 44.8649 47.3385 44.8267 47.3869 44.7785C47.4353 44.7303 47.4737 44.6731 47.4999 44.61C47.5447 44.5325 47.5683 44.4446 47.5683 44.355C47.5683 44.2655 47.5447 44.1776 47.4999 44.1C47.4999 44.1 46.6299 41.94 46.4999 41.64C46.1899 40.73 45.6299 40.74 45.0899 40.73C44.5499 40.72 44.2199 40.73 44.2199 40.73C44.2199 40.73 43.8699 40.73 43.1499 40.73C42.4299 40.73 42.2099 41.12 41.4099 43.16C41.2999 43.45 40.9199 44.4 40.9099 44.46L40.8899 44.41Z" fill="white"/>
<path d="M14 30C14 29.6539 13.8974 29.3155 13.7051 29.0278C13.5128 28.74 13.2395 28.5157 12.9197 28.3832C12.5999 28.2508 12.2481 28.2161 11.9086 28.2836C11.5691 28.3512 11.2573 28.5178 11.0126 28.7626C10.7678 29.0073 10.6012 29.3191 10.5336 29.6586C10.4661 29.9981 10.5008 30.3499 10.6332 30.6697C10.7657 30.9895 10.99 31.2628 11.2778 31.4551C11.5655 31.6474 11.9039 31.75 12.25 31.75C12.7141 31.75 13.1592 31.5656 13.4874 31.2374C13.8156 30.9092 14 30.4641 14 30Z" fill="white"/>
<path d="M10.1699 32.3799C9.59258 32.4346 9.05641 32.7027 8.66621 33.1318C8.27601 33.5608 8.05983 34.1199 8.05993 34.6999V39.5399C8.04828 39.6354 8.05705 39.7323 8.08564 39.8242C8.11424 39.9161 8.16202 40.0009 8.22583 40.073C8.28963 40.145 8.36801 40.2027 8.45577 40.2422C8.54353 40.2818 8.63869 40.3022 8.73493 40.3022C8.83118 40.3022 8.92633 40.2818 9.01409 40.2422C9.10185 40.2027 9.18023 40.145 9.24403 40.073C9.30784 40.0009 9.35562 39.9161 9.38422 39.8242C9.41282 39.7323 9.42158 39.6354 9.40993 39.5399V35.3799C9.4022 35.3335 9.40514 35.2859 9.41852 35.2408C9.43191 35.1956 9.4554 35.1542 9.4872 35.1195C9.519 35.0848 9.55829 35.0578 9.60208 35.0405C9.64587 35.0233 9.69301 35.0162 9.73993 35.0199C9.93993 35.0199 9.97993 35.2199 9.98993 35.3599V47.8199C9.95298 47.9673 9.95012 48.1213 9.98159 48.27C10.0131 48.4187 10.078 48.5583 10.1715 48.6782C10.2651 48.798 10.3847 48.895 10.5213 48.9616C10.6579 49.0283 10.8079 49.063 10.9599 49.063C11.1119 49.063 11.262 49.0283 11.3986 48.9616C11.5352 48.895 11.6548 48.798 11.7483 48.6782C11.8418 48.5583 11.9068 48.4187 11.9383 48.27C11.9697 48.1213 11.9669 47.9673 11.9299 47.8199V40.6399C11.9271 40.6019 11.9323 40.5638 11.9452 40.528C11.9581 40.4922 11.9785 40.4595 12.0049 40.4321C12.0314 40.4047 12.0633 40.3833 12.0986 40.3691C12.134 40.3549 12.1719 40.3484 12.2099 40.3499C12.248 40.3484 12.2859 40.3549 12.3212 40.3691C12.3566 40.3833 12.3885 40.4047 12.4149 40.4321C12.4414 40.4595 12.4617 40.4922 12.4746 40.528C12.4876 40.5638 12.4928 40.6019 12.4899 40.6399V47.8199C12.4899 48.0851 12.5953 48.3395 12.7828 48.527C12.9704 48.7145 13.2247 48.8199 13.4899 48.8199C13.7551 48.8199 14.0095 48.7145 14.197 48.527C14.3846 48.3395 14.4899 48.0851 14.4899 47.8199V35.3599C14.4899 35.2199 14.4899 35.0199 14.7299 35.0199C14.9699 35.0199 15.0599 35.2299 15.0599 35.3799V39.5399C15.0599 39.7202 15.1316 39.8932 15.2591 40.0207C15.3866 40.1482 15.5596 40.2199 15.7399 40.2199C15.9203 40.2199 16.0932 40.1482 16.2208 40.0207C16.3483 39.8932 16.4199 39.7202 16.4199 39.5399V34.6999C16.4198 34.1184 16.2022 33.5579 15.81 33.1287C15.4177 32.6994 14.8791 32.4323 14.2999 32.3799H10.1699Z" fill="white"/>
<path d="M7.09995 48.8401H6.99995C6.95198 48.8316 6.90614 48.8138 6.86507 48.7876C6.82401 48.7614 6.78852 48.7273 6.76064 48.6874C6.73277 48.6474 6.71306 48.6024 6.70265 48.5548C6.69223 48.5072 6.69132 48.458 6.69995 48.4101L8.24995 40.1901C8.25832 40.1411 8.27647 40.0943 8.30332 40.0524C8.33017 40.0106 8.36518 39.9746 8.40624 39.9466C8.44731 39.9186 8.4936 39.8992 8.54234 39.8895C8.59109 39.8797 8.64129 39.8799 8.68995 39.8901C8.73765 39.8984 8.78318 39.9163 8.8238 39.9426C8.86443 39.969 8.89933 40.0032 8.9264 40.0434C8.95348 40.0835 8.97217 40.1287 8.98137 40.1763C8.99058 40.2238 8.99009 40.2727 8.97995 40.3201L7.42995 48.5401C7.41506 48.6192 7.37479 48.6912 7.31523 48.7454C7.25568 48.7995 7.1801 48.8327 7.09995 48.8401Z" fill="white"/>
<path d="M17.19 39.4102C17.1315 39.3196 17.0453 39.2504 16.9442 39.2128C16.8432 39.1752 16.7327 39.1713 16.6292 39.2017C16.5258 39.2321 16.4349 39.2951 16.3702 39.3813C16.3054 39.4675 16.2703 39.5724 16.27 39.6802C16.2774 39.7553 16.2942 39.8292 16.32 39.9002L17.7 42.4102C17.7526 42.5128 17.7833 42.6251 17.79 42.7402V48.1302C17.79 48.3105 17.8617 48.4835 17.9892 48.611C18.1167 48.7385 18.2897 48.8102 18.47 48.8102C18.6504 48.8102 18.8233 48.7385 18.9509 48.611C19.0784 48.4835 19.15 48.3105 19.15 48.1302V46.0002C19.15 46.0002 19.15 45.6902 19.35 45.6902C19.55 45.6902 19.56 46.0002 19.56 46.0002V48.1202C19.56 48.3005 19.6317 48.4735 19.7592 48.601C19.8867 48.7285 20.0597 48.8002 20.24 48.8002C20.4204 48.8002 20.5933 48.7285 20.7209 48.601C20.8484 48.4735 20.92 48.3005 20.92 48.1202V42.7402C20.9257 42.6261 20.9529 42.5142 21 42.4102L22.28 40.0902C22.347 39.9592 22.4006 39.8219 22.44 39.6802C22.44 39.5476 22.3873 39.4204 22.2936 39.3266C22.1998 39.2329 22.0726 39.1802 21.94 39.1802C21.8548 39.1796 21.7709 39.2003 21.6957 39.2405C21.6206 39.2806 21.5568 39.339 21.51 39.4102C21.51 39.4102 20.82 40.5902 20.61 40.8002C20.5603 40.8638 20.4965 40.9151 20.4236 40.9498C20.3507 40.9845 20.2707 41.0017 20.19 41.0002H18.52C18.438 41.001 18.3568 40.9835 18.2824 40.9489C18.208 40.9143 18.1422 40.8635 18.09 40.8002C17.88 40.5902 17.24 39.4402 17.2 39.4102H17.19Z" fill="white"/>
<path d="M19.35 40.1298C19.6246 40.1358 19.8947 40.0597 20.1258 39.9113C20.3568 39.7628 20.5384 39.5489 20.6471 39.2967C20.7559 39.0445 20.787 38.7656 20.7363 38.4957C20.6857 38.2258 20.5557 37.9771 20.363 37.7815C20.1702 37.5859 19.9235 37.4522 19.6543 37.3977C19.3852 37.3431 19.1059 37.37 18.8521 37.4751C18.5984 37.5801 18.3817 37.7585 18.23 37.9874C18.0782 38.2162 17.9981 38.4852 18 38.7598C18 39.1231 18.1444 39.4716 18.4013 39.7285C18.6582 39.9855 19.0067 40.1298 19.37 40.1298" fill="white"/>
<path d="M19.3598 42.0698L20.9098 43.1998L21.6498 45.9198H19.3598H17.0598L17.7998 43.1998L19.3598 42.0698Z" fill="white"/>
</svg>
