<svg viewBox="0 0 64 64" fill="none" xmlns="http://www.w3.org/2000/svg">
<!-- <path d="M62.06 0.399902H0V62.4599H62.06V0.399902Z" fill="#00558A"/> -->
<path d="M5.33012 8.1398C5.02392 8.27766 4.71007 8.39786 4.39012 8.4998C3.98012 8.6398 3.72012 8.7298 3.62012 8.7798V7.09981C4.0339 6.9364 4.43501 6.74253 4.82013 6.51981C5.19041 6.33581 5.52819 6.09261 5.82013 5.7998H7.59012V17.6398H5.33012V8.1398Z" fill="white"/>
<path d="M9.60996 16.7398C9.05055 15.9058 8.77685 14.9127 8.82997 13.9098V9.69983C8.76822 8.65318 9.01137 7.61108 9.52996 6.69983C9.81526 6.32509 10.1927 6.03053 10.6255 5.84479C11.0583 5.65905 11.5318 5.58845 12 5.63984C12.4105 5.59983 12.8248 5.6449 13.2171 5.77222C13.6094 5.89954 13.9712 6.10639 14.28 6.37984C14.7955 7.01202 15.0527 7.81583 15 8.62984V8.83983H12.85C12.877 8.44955 12.8225 8.05792 12.69 7.68984C12.6247 7.5736 12.5257 7.47985 12.4061 7.42095C12.2865 7.36204 12.1519 7.34074 12.02 7.35984C11.9161 7.35257 11.812 7.36855 11.7151 7.4066C11.6183 7.44466 11.5311 7.50384 11.46 7.57984C11.3006 7.79244 11.2037 8.04521 11.18 8.30983C11.1197 8.79073 11.093 9.27523 11.1 9.75983V10.9998C11.2461 10.7736 11.4594 10.5987 11.71 10.4998C12.0275 10.372 12.3678 10.3108 12.71 10.3198C13.0789 10.2897 13.4492 10.358 13.783 10.5179C14.1168 10.6778 14.4022 10.9235 14.61 11.2298C15.0469 11.9842 15.2554 12.8492 15.21 13.7198C15.265 14.7697 15.0112 15.8126 14.48 16.7198C14.196 17.0998 13.818 17.3992 13.3831 17.5886C12.9483 17.778 12.4715 17.8508 12 17.7998C11.5453 17.8318 11.0898 17.7519 10.6731 17.5671C10.2565 17.3823 9.89146 17.0983 9.60996 16.7398ZM12.74 15.6298C12.8829 15.1228 12.9437 14.5961 12.92 14.0698C12.9394 13.6868 12.9394 13.3029 12.92 12.9198C12.9036 12.6816 12.8204 12.4529 12.68 12.2598C12.5999 12.16 12.4948 12.0833 12.3752 12.0376C12.2557 11.9919 12.1262 11.9788 12 11.9998C11.805 11.9984 11.6138 12.054 11.45 12.1598C11.3024 12.2604 11.1765 12.3896 11.08 12.5398V14.4298C11.08 15.5498 11.39 16.1098 12.02 16.1098C12.1767 16.1239 12.3336 16.084 12.4646 15.9967C12.5955 15.9094 12.6927 15.78 12.74 15.6298Z" fill="white"/>
<path d="M19.8401 10.3197V5.78971H21.1701C21.3995 5.78008 21.6274 5.83187 21.8301 5.93972C21.9987 6.04142 22.1288 6.19616 22.2001 6.37972C22.2854 6.60298 22.3262 6.84079 22.3201 7.07972C22.3302 7.3252 22.2786 7.5693 22.1701 7.78971C22.0775 7.96294 21.9297 8.10022 21.7501 8.17971C21.5499 8.27253 21.3307 8.31706 21.1101 8.30971H20.6701V10.3097L19.8401 10.3197ZM20.6701 7.72971H21.0001C21.1205 7.73204 21.2399 7.70816 21.3501 7.65972C21.3903 7.63931 21.426 7.61112 21.4552 7.57679C21.4844 7.54245 21.5064 7.50266 21.5201 7.45972C21.5554 7.3328 21.5723 7.20145 21.5701 7.06972C21.5875 6.93696 21.5875 6.80248 21.5701 6.66971C21.5624 6.62443 21.5449 6.58133 21.5191 6.54337C21.4932 6.50541 21.4594 6.47347 21.4201 6.44971C21.3028 6.38969 21.1716 6.36208 21.0401 6.36971H20.7301L20.6701 7.72971Z" fill="white"/>
<path d="M22.6499 10.3201V5.79004H24.5499V6.37004H23.4799V7.68004H24.3199V8.25005H23.4799V9.75005H24.5599V10.3201H22.6499Z" fill="white"/>
<path d="M24.7 10.3201L25.6 5.79004H26.49L27.39 10.3201H26.63L26.45 9.32005H25.66L25.47 10.3201H24.7ZM25.7 8.75005H26.32L26.0099 6.85005L25.7 8.75005Z" fill="white"/>
<path d="M28.8999 10.3798C28.6257 10.3934 28.3537 10.3237 28.1199 10.1798C27.9338 10.0522 27.7964 9.8654 27.7299 9.6498C27.6449 9.39875 27.6042 9.1348 27.6099 8.8698V7.2598C27.6045 6.985 27.6451 6.71124 27.7299 6.4498C27.7931 6.2352 27.9316 6.05058 28.1199 5.9298C28.3548 5.78942 28.6267 5.72321 28.8999 5.73981C29.153 5.72891 29.4046 5.78403 29.6299 5.8998C29.8074 6.00287 29.9422 6.16604 30.0099 6.3598C30.091 6.57701 30.1284 6.8081 30.1199 7.0398V7.4198H29.3299V6.9998C29.3299 6.8798 29.3299 6.75981 29.3299 6.65981C29.3246 6.56594 29.2855 6.47716 29.2199 6.40981C29.1792 6.37435 29.1313 6.34798 29.0796 6.33246C29.0279 6.31694 28.9734 6.31263 28.9199 6.31981C28.8091 6.31138 28.699 6.34334 28.6099 6.40981C28.5464 6.48744 28.505 6.58068 28.4899 6.6798C28.4787 6.80288 28.4787 6.92672 28.4899 7.04981V9.04981C28.4721 9.18589 28.4721 9.32372 28.4899 9.45981C28.5072 9.55367 28.5567 9.63853 28.6299 9.6998C28.713 9.75422 28.8106 9.78213 28.9099 9.7798C28.9641 9.78565 29.019 9.77975 29.0708 9.7625C29.1226 9.74524 29.17 9.71703 29.2099 9.6798C29.2718 9.60611 29.3101 9.51553 29.3199 9.4198C29.3199 9.3198 29.3199 9.1898 29.3199 9.0598V8.6498H30.1099V8.9998C30.1146 9.24028 30.0808 9.47997 30.0099 9.70981C29.9425 9.90889 29.8082 10.0785 29.6299 10.1898C29.4112 10.325 29.1568 10.3912 28.8999 10.3798Z" fill="white"/>
<path d="M30.5901 10.3201V5.79004H32.4901V6.37004H31.4101V7.68004H32.2601V8.25005H31.4101V9.75005H32.5001V10.3201H30.5901Z" fill="white"/>
<path d="M32.88 11.0801L32.8 10.8001C32.899 10.77 32.9886 10.7149 33.06 10.6401C33.1324 10.5498 33.1681 10.4355 33.16 10.3201H32.76V9.56006H33.5V10.2501C33.5124 10.4481 33.4597 10.6447 33.35 10.8101C33.2313 10.954 33.0642 11.05 32.88 11.0801Z" fill="white"/>
<path d="M34.8999 10.4301V9.85007H35.1999C35.2645 9.83535 35.3257 9.80818 35.3799 9.77007C35.4291 9.72174 35.4608 9.6584 35.4699 9.59006C35.4825 9.4938 35.4825 9.39632 35.4699 9.30006V5.81006H36.2899V9.33006C36.2969 9.54371 36.2665 9.75694 36.1999 9.96007C36.1488 10.1191 36.0376 10.2519 35.8899 10.3301C35.6965 10.4212 35.4834 10.4625 35.2699 10.4501L34.8999 10.4301Z" fill="white"/>
<path d="M38.1399 10.3801C37.868 10.3967 37.5971 10.3341 37.3599 10.2C37.1738 10.0724 37.0364 9.88565 36.9699 9.67004C36.893 9.40364 36.8559 9.12732 36.8599 8.85005V5.79004H37.6699V9.00005C37.6597 9.13318 37.6597 9.2669 37.6699 9.40004C37.6841 9.51029 37.7292 9.61429 37.7999 9.70004C37.84 9.74043 37.8887 9.77129 37.9424 9.79033C37.9961 9.80937 38.0533 9.8161 38.1099 9.81004C38.1666 9.81685 38.224 9.81046 38.2778 9.79138C38.3316 9.7723 38.3802 9.74104 38.4199 9.70004C38.4907 9.61429 38.5357 9.51029 38.5499 9.40004C38.5602 9.2669 38.5602 9.13318 38.5499 9.00005V5.84004H39.3499V8.90004C39.3569 9.17679 39.3232 9.45308 39.2499 9.72005C39.1834 9.93565 39.046 10.1224 38.8599 10.25C38.6355 10.356 38.3872 10.4008 38.1399 10.3801Z" fill="white"/>
<path d="M41.0901 10.3801C40.853 10.3903 40.6177 10.3349 40.4101 10.2201C40.2231 10.1128 40.0758 9.94792 39.9901 9.75008C39.8923 9.51205 39.8414 9.2574 39.8401 9.00008L40.5501 8.86008C40.5471 9.01554 40.5673 9.1706 40.6101 9.32008C40.636 9.43542 40.6911 9.54216 40.7701 9.63008C40.8072 9.66887 40.8525 9.69888 40.9027 9.71791C40.9528 9.73694 41.0066 9.74452 41.0601 9.74008C41.1132 9.74587 41.1668 9.73787 41.2159 9.71684C41.2649 9.69582 41.3077 9.66248 41.3401 9.62007C41.4021 9.53261 41.4337 9.42724 41.4301 9.32008C41.4353 9.14619 41.3864 8.97497 41.2901 8.83008C41.1904 8.68881 41.0727 8.56108 40.9401 8.45007L40.3701 7.95007C40.2161 7.81885 40.0844 7.66351 39.9801 7.49008C39.8824 7.29476 39.8343 7.07839 39.8401 6.86008C39.8314 6.70694 39.8555 6.55371 39.9107 6.4106C39.9659 6.26748 40.0509 6.13777 40.1601 6.03007C40.3952 5.82703 40.6999 5.72308 41.0101 5.74008C41.1917 5.73743 41.372 5.77143 41.5401 5.84007C41.6719 5.90409 41.7879 5.99626 41.8801 6.11008C41.9612 6.23421 42.0252 6.36876 42.0701 6.51007C42.1096 6.66051 42.133 6.81471 42.1401 6.97008L41.4401 7.09007C41.4346 6.96218 41.4179 6.83504 41.3901 6.71008C41.376 6.61164 41.3304 6.52041 41.2601 6.45007C41.2233 6.41799 41.1804 6.39353 41.1341 6.37808C41.0878 6.36263 41.0388 6.35651 40.9901 6.36008C40.9374 6.35768 40.8849 6.36724 40.8364 6.38802C40.7879 6.4088 40.7447 6.44026 40.7101 6.48007C40.6445 6.56627 40.6094 6.67177 40.6101 6.78007C40.6035 6.91087 40.6385 7.04039 40.7101 7.15007C40.7849 7.2657 40.8758 7.3701 40.9801 7.46008L41.5501 7.96008C41.7374 8.11485 41.8964 8.30093 42.0201 8.51007C42.1618 8.73747 42.2315 9.00238 42.2201 9.27008C42.2226 9.46889 42.1744 9.66505 42.0801 9.84007C41.9839 10.006 41.846 10.1439 41.6801 10.2401C41.4979 10.3345 41.2953 10.3825 41.0901 10.3801Z" fill="white"/>
<path d="M43.0501 10.3201V6.40004H42.3301V5.79004H44.5801V6.40004H43.8801V10.3201H43.0501Z" fill="white"/>
<path d="M44.9099 10.3201V5.79004H45.7199V10.3201H44.9099Z" fill="white"/>
<path d="M47.53 10.3798C47.2558 10.3934 46.9839 10.3237 46.75 10.1798C46.564 10.0522 46.4265 9.8654 46.36 9.6498C46.275 9.39875 46.2344 9.1348 46.24 8.8698V7.2598C46.2347 6.985 46.2752 6.71124 46.36 6.4498C46.4232 6.2352 46.5617 6.05058 46.75 5.9298C46.985 5.78942 47.2568 5.72321 47.53 5.73981C47.7831 5.72891 48.0347 5.78403 48.26 5.8998C48.4375 6.00287 48.5723 6.16604 48.64 6.3598C48.7158 6.5784 48.753 6.80847 48.75 7.0398V7.4198H48V6.9998C48 6.8798 48 6.75981 48 6.65981C47.9947 6.56594 47.9556 6.47716 47.89 6.40981C47.8493 6.37435 47.8015 6.34798 47.7497 6.33246C47.698 6.31694 47.6436 6.31263 47.59 6.31981C47.4792 6.31138 47.3691 6.34334 47.28 6.40981C47.2166 6.48744 47.1751 6.58068 47.16 6.6798C47.1489 6.80288 47.1489 6.92672 47.16 7.04981V9.04981C47.1422 9.18589 47.1422 9.32372 47.16 9.45981C47.1773 9.55367 47.2268 9.63853 47.3 9.6998C47.3825 9.75544 47.4806 9.78345 47.58 9.7798C47.6343 9.78565 47.6892 9.77975 47.7409 9.7625C47.7927 9.74524 47.8401 9.71703 47.88 9.6798C47.9419 9.60611 47.9802 9.51553 47.99 9.4198C47.99 9.3198 47.99 9.1898 47.99 9.0598V8.6498H48.78V8.9998C48.7847 9.24028 48.7509 9.47997 48.68 9.70981C48.6067 9.9056 48.4737 10.0735 48.3 10.1898C48.0699 10.3331 47.8003 10.3996 47.53 10.3798Z" fill="white"/>
<path d="M49.22 10.3201V5.79004H51.11V6.37004H50V7.68004H50.85V8.25005H50V9.75005H51.09V10.3201H49.22Z" fill="white"/>
<path d="M19.6101 17.7097L20.5101 13.1797H21.4001L22.3001 17.7097H21.5401L21.3601 16.6597H20.5701L20.3901 17.7097H19.6101ZM20.6101 16.1397H21.2301L20.9201 14.2397L20.6101 16.1397Z" fill="white"/>
<path d="M22.6201 17.7097V13.1797H23.2001L24.3001 15.7597V13.1797H25.0001V17.7097H24.4501L23.3401 15.0097V17.7097H22.6201Z" fill="white"/>
<path d="M25.55 17.71V13.18H26.62C26.9143 13.166 27.2079 13.2173 27.48 13.33C27.6808 13.4254 27.838 13.5934 27.92 13.8C28.0196 14.0512 28.0672 14.3199 28.06 14.59V16.25C28.0672 16.5266 28.0196 16.8018 27.92 17.06C27.843 17.2713 27.6896 17.4461 27.4901 17.55C27.2273 17.6712 26.9389 17.7261 26.65 17.71H25.55ZM26.3801 17.13H26.6301C26.7741 17.1448 26.9189 17.1095 27.04 17.03C27.1262 16.9568 27.1801 16.8526 27.19 16.74C27.2016 16.5835 27.2016 16.4264 27.19 16.27V14.54C27.2032 14.3903 27.2032 14.2397 27.19 14.09C27.1703 13.9921 27.1128 13.9059 27.03 13.85C26.9054 13.7905 26.768 13.763 26.6301 13.77H26.39L26.3801 17.13Z" fill="white"/>
<path d="M30.94 17.7697C30.7029 17.78 30.4676 17.7246 30.2599 17.6097C30.0729 17.5024 29.9256 17.3376 29.8399 17.1397C29.7422 16.9017 29.6912 16.647 29.69 16.3897L30.3999 16.2497C30.402 16.4049 30.4222 16.5592 30.46 16.7097C30.4859 16.8251 30.5409 16.9318 30.6199 17.0197C30.6578 17.0574 30.7032 17.0867 30.7532 17.1057C30.8032 17.1246 30.8566 17.1328 30.91 17.1297C30.9644 17.1345 31.0191 17.1261 31.0696 17.1052C31.1201 17.0843 31.1648 17.0515 31.1999 17.0097C31.2544 16.9193 31.2821 16.8153 31.28 16.7097C31.2852 16.5358 31.2362 16.3646 31.14 16.2197C31.0402 16.0785 30.9226 15.9507 30.7899 15.8397L30.22 15.3397C30.0659 15.2085 29.9342 15.0532 29.83 14.8797C29.7323 14.6844 29.6842 14.468 29.69 14.2497C29.6813 14.0966 29.7054 13.9434 29.7605 13.8002C29.8157 13.6571 29.9007 13.5274 30.0099 13.4197C30.2451 13.2167 30.5498 13.1127 30.86 13.1297C31.0415 13.1271 31.2218 13.1611 31.39 13.2297C31.5217 13.2937 31.6378 13.3859 31.7299 13.4997C31.8111 13.6239 31.875 13.7584 31.92 13.8997C31.9594 14.0502 31.9829 14.2044 31.99 14.3597L31.2899 14.4897C31.302 14.3634 31.302 14.2361 31.2899 14.1097C31.278 14.0077 31.2322 13.9127 31.16 13.8397C31.1231 13.8076 31.0803 13.7832 31.0339 13.7677C30.9876 13.7523 30.9387 13.7462 30.89 13.7497C30.8373 13.7473 30.7847 13.7569 30.7362 13.7777C30.6877 13.7984 30.6446 13.8299 30.61 13.8697C30.5444 13.9559 30.5092 14.0614 30.5099 14.1697C30.5019 14.3007 30.5371 14.4306 30.61 14.5397C30.6848 14.6553 30.7757 14.7597 30.88 14.8497L31.4499 15.3497C31.6349 15.5069 31.7936 15.6925 31.92 15.8997C32.0616 16.1271 32.1314 16.392 32.1199 16.6597C32.1225 16.8585 32.0743 17.0547 31.9799 17.2297C31.8838 17.3956 31.7459 17.5335 31.58 17.6297C31.3834 17.7339 31.1621 17.7823 30.94 17.7697Z" fill="white"/>
<path d="M32.8999 17.7097V13.7897H32.1799V13.1797H34.4299V13.7897H33.7299V17.7097H32.8999Z" fill="white"/>
<path d="M34.74 17.7097V13.1797H35.82C36.0809 13.1744 36.341 13.2116 36.59 13.2897C36.7844 13.3604 36.9521 13.4897 37.07 13.6597C37.1916 13.8796 37.2504 14.1287 37.24 14.3797C37.2403 14.5443 37.2236 14.7085 37.19 14.8697C37.1645 15.0051 37.1061 15.1322 37.02 15.2397C36.9317 15.3459 36.8182 15.4284 36.69 15.4797L37.32 17.7097H36.49L35.94 15.6397H35.56V17.7097H34.74ZM35.56 15.1197H35.82C35.95 15.1213 36.0791 15.0975 36.2 15.0497C36.2486 15.0274 36.2922 14.9955 36.3283 14.956C36.3644 14.9165 36.3921 14.8701 36.41 14.8197C36.454 14.6945 36.4743 14.5623 36.47 14.4297C36.4854 14.2499 36.4396 14.0702 36.34 13.9197C36.2786 13.8561 36.2033 13.8076 36.12 13.7781C36.0367 13.7486 35.9477 13.7389 35.86 13.7497H35.56V15.1197Z" fill="white"/>
<path d="M38.9999 17.7699C38.7313 17.784 38.4643 17.7216 38.2299 17.5899C38.0399 17.4707 37.8955 17.2911 37.8199 17.0799C37.7351 16.8219 37.6945 16.5514 37.6999 16.2799V14.5899C37.6934 14.3248 37.734 14.0607 37.8199 13.8099C37.8923 13.5995 38.0378 13.4221 38.2299 13.3099C38.4643 13.1782 38.7313 13.1158 38.9999 13.1299C39.2683 13.1169 39.535 13.1792 39.7699 13.3099C39.9581 13.4265 40.1023 13.6024 40.1799 13.8099C40.2657 14.0607 40.3063 14.3248 40.2999 14.5899V16.2899C40.3055 16.5549 40.2649 16.8188 40.1799 17.0699C40.1062 17.2848 39.9616 17.4681 39.7699 17.5899C39.535 17.7206 39.2683 17.7829 38.9999 17.7699ZM38.9999 17.1599C39.1074 17.1668 39.2139 17.1348 39.2999 17.0699C39.366 17.0045 39.4112 16.921 39.4299 16.8299C39.4402 16.7168 39.4402 16.603 39.4299 16.4899V14.3999C39.4407 14.2868 39.4407 14.173 39.4299 14.0599C39.4112 13.9688 39.366 13.8853 39.2999 13.8199C39.2106 13.7627 39.1058 13.7347 38.9999 13.7399C38.8938 13.7333 38.7886 13.7614 38.6999 13.8199C38.6304 13.8827 38.5845 13.9674 38.5699 14.0599C38.554 14.1727 38.554 14.2871 38.5699 14.3999V16.4899C38.5596 16.603 38.5596 16.7168 38.5699 16.8299C38.5885 16.921 38.6338 17.0045 38.6999 17.0699C38.7863 17.1341 38.8924 17.1659 38.9999 17.1599Z" fill="white"/>
<path d="M40.77 17.7097V13.1797H41.34L42.45 15.7597V13.1797H43.13V17.7097H42.58L41.47 15.0097V17.7097H40.77Z" fill="white"/>
<path d="M44.8399 17.7702C44.5888 17.7862 44.3394 17.7194 44.1299 17.5802C43.9495 17.4447 43.8165 17.2557 43.7499 17.0401C43.6687 16.7747 43.6315 16.4977 43.6399 16.2202V14.7002C43.6302 14.416 43.6674 14.1322 43.7499 13.8602C43.8144 13.6409 43.952 13.4503 44.1399 13.3202C44.3769 13.1847 44.6472 13.1188 44.9199 13.1302C45.176 13.1219 45.4301 13.1769 45.6599 13.2901C45.8394 13.3889 45.9776 13.5485 46.0499 13.7402C46.1353 13.9669 46.1761 14.208 46.1699 14.4502V14.6902H45.3799V14.4301C45.392 14.3071 45.392 14.1832 45.3799 14.0602C45.3696 13.9685 45.3271 13.8834 45.2599 13.8202C45.1738 13.7562 45.0665 13.7275 44.9599 13.7402C44.9041 13.7341 44.8477 13.7399 44.7943 13.7572C44.7409 13.7744 44.6917 13.8027 44.6499 13.8401C44.5792 13.9182 44.5339 14.0158 44.5199 14.1201C44.5199 14.2401 44.5199 14.3602 44.5199 14.5002V16.4001C44.5031 16.5329 44.5031 16.6674 44.5199 16.8002C44.533 16.9039 44.5826 16.9997 44.6599 17.0702C44.7459 17.1351 44.8524 17.167 44.9599 17.1602C45.0157 17.1656 45.072 17.1595 45.1253 17.1423C45.1786 17.1251 45.2278 17.0971 45.2699 17.0602C45.345 16.9826 45.397 16.8856 45.4199 16.7802C45.4367 16.6407 45.4367 16.4997 45.4199 16.3602V15.9301H44.9999V15.4102H46.2299V17.7102H45.6999L45.6399 17.2601C45.583 17.4045 45.49 17.5319 45.3699 17.6302C45.2149 17.737 45.0275 17.7865 44.8399 17.7702Z" fill="white"/>
<path d="M19.8601 25.0998V20.5698H20.6801V25.0998H19.8601Z" fill="white"/>
<path d="M21.26 25.0998V20.5698H21.84L22.94 23.1598V20.5698H23.62V25.0998H23.07L21.97 22.3998V25.0998H21.26Z" fill="white"/>
<path d="M25.3401 25.1598C25.0998 25.1698 24.8614 25.1145 24.6501 24.9998C24.4684 24.8934 24.3249 24.7324 24.2401 24.5398C24.1442 24.2973 24.0901 24.0403 24.0801 23.7798L24.7901 23.6398C24.7957 23.7986 24.8192 23.9562 24.8601 24.1098C24.8864 24.225 24.9414 24.3316 25.0201 24.4198C25.0591 24.4552 25.105 24.4823 25.1548 24.4995C25.2047 24.5167 25.2575 24.5236 25.3101 24.5198C25.3631 24.5256 25.4168 24.5176 25.4658 24.4966C25.5149 24.4755 25.5577 24.4422 25.5901 24.3998C25.6521 24.3123 25.6837 24.2069 25.6801 24.0998C25.6853 23.9259 25.6364 23.7547 25.5401 23.6098C25.4338 23.4708 25.3131 23.3434 25.1801 23.2298L24.6101 22.7298C24.4591 22.5983 24.3307 22.4429 24.2301 22.2698C24.1324 22.0745 24.0843 21.8581 24.0901 21.6398C24.0761 21.4885 24.0967 21.3361 24.1504 21.194C24.2041 21.0519 24.2895 20.924 24.4001 20.8198C24.6362 20.6107 24.9451 20.5029 25.2601 20.5198C25.4417 20.5171 25.6219 20.5511 25.7901 20.6198C25.9218 20.6838 26.0379 20.776 26.1301 20.8898C26.212 21.0121 26.2728 21.1473 26.3101 21.2898C26.3529 21.4399 26.3797 21.5941 26.3901 21.7498L25.6901 21.8798C25.681 21.7522 25.6643 21.6254 25.6401 21.4998C25.6236 21.3992 25.5785 21.3054 25.5101 21.2298C25.4732 21.1977 25.4304 21.1732 25.3841 21.1578C25.3377 21.1423 25.2888 21.1362 25.2401 21.1398C25.1873 21.1366 25.1345 21.1458 25.0859 21.1667C25.0373 21.1875 24.9942 21.2194 24.9601 21.2598C24.8907 21.3439 24.8551 21.4508 24.8601 21.5598C24.8534 21.6937 24.8883 21.8265 24.9601 21.9398C25.0354 22.0521 25.1263 22.1531 25.2301 22.2398L25.7901 22.7398C25.9808 22.8938 26.1433 23.08 26.2701 23.2898C26.4074 23.519 26.4768 23.7826 26.4701 24.0498C26.4735 24.2487 26.4253 24.4451 26.3301 24.6198C26.2339 24.7857 26.096 24.9236 25.9301 25.0198C25.7479 25.1142 25.5452 25.1623 25.3401 25.1598Z" fill="white"/>
<path d="M27.3001 25.0998V21.1798H26.5801V20.5698H28.8301V21.1798H28.1201V25.0998H27.3001Z" fill="white"/>
<path d="M29.1599 25.0998V20.5698H29.9999V25.0998H29.1599Z" fill="white"/>
<path d="M31 25.0998V21.1798H30.28V20.5698H32.54V21.1798H31.83V25.0998H31Z" fill="white"/>
<path d="M34.09 25.1598C33.8181 25.1764 33.5472 25.1139 33.31 24.9798C33.124 24.8522 32.9865 24.6654 32.92 24.4498C32.8437 24.1867 32.8066 23.9138 32.81 23.6398V20.5698H33.62V23.7298C33.6093 23.8629 33.6093 23.9967 33.62 24.1298C33.63 24.2412 33.6756 24.3464 33.75 24.4298C33.7897 24.4714 33.838 24.5038 33.8916 24.5245C33.9452 24.5453 34.0027 24.5539 34.06 24.5498C34.1175 24.5554 34.1754 24.5474 34.2293 24.5266C34.2831 24.5058 34.3313 24.4726 34.37 24.4298C34.4445 24.3464 34.4901 24.2412 34.5 24.1298C34.5107 23.9967 34.5107 23.8629 34.5 23.7298V20.5698H35.3V23.6398C35.3064 23.9133 35.2727 24.1861 35.2 24.4498C35.1335 24.6654 34.9961 24.8522 34.81 24.9798C34.5904 25.103 34.3418 25.1652 34.09 25.1598Z" fill="white"/>
<path d="M36.3499 25.0998V21.1798H35.6299V20.5698H37.8899V21.1798H37.1799V25.0998H36.3499Z" fill="white"/>
<path d="M38.21 25.0998V20.5698H39V25.0998H38.21Z" fill="white"/>
<path d="M40.8401 25.1601C40.5748 25.1734 40.3112 25.111 40.0801 24.9801C39.8901 24.8609 39.7457 24.6813 39.6701 24.4701C39.5861 24.2154 39.5455 23.9483 39.5501 23.6801V22.0001C39.5444 21.7351 39.5851 21.4712 39.6701 21.2201C39.7426 21.0098 39.888 20.8324 40.0801 20.7201C40.3112 20.5892 40.5748 20.5268 40.8401 20.5401C41.1118 20.5257 41.3821 20.5881 41.6201 20.7201C41.8046 20.8384 41.9452 21.0141 42.0201 21.2201C42.1134 21.4693 42.1575 21.7342 42.1501 22.0001V23.7001C42.1566 23.9693 42.1125 24.2373 42.0201 24.4901C41.9471 24.6998 41.8063 24.8792 41.6201 25.0001C41.3801 25.1252 41.1099 25.1806 40.8401 25.1601ZM40.8401 24.5501C40.9509 24.5586 41.061 24.5266 41.1501 24.4601C41.2162 24.3947 41.2614 24.3112 41.2801 24.2201C41.2904 24.107 41.2904 23.9932 41.2801 23.8801V21.7901C41.2909 21.677 41.2909 21.5632 41.2801 21.4501C41.2614 21.359 41.2162 21.2755 41.1501 21.2101C41.0577 21.1515 40.9493 21.1235 40.8401 21.1301C40.7372 21.1235 40.635 21.1517 40.5501 21.2101C40.4775 21.2719 40.4282 21.3565 40.4101 21.4501C40.3993 21.5632 40.3993 21.677 40.4101 21.7901V23.8801C40.3998 23.9932 40.3998 24.107 40.4101 24.2201C40.4247 24.3126 40.4706 24.3973 40.5401 24.4601C40.6261 24.5251 40.7325 24.557 40.8401 24.5501Z" fill="white"/>
<path d="M42.6499 25.0998V20.5698H43.2199L44.3199 23.1598V20.5698H44.9999V25.0998H44.4599L43.3499 22.3998V25.0998H42.6499Z" fill="white"/>
<path d="M46.72 25.1601C46.4696 25.178 46.2193 25.1224 46 25.0001C45.8146 24.8954 45.6675 24.7343 45.58 24.5401C45.4831 24.2984 45.4322 24.0406 45.43 23.7801L46.14 23.6401C46.1427 23.7985 46.1628 23.9562 46.2 24.1101C46.2305 24.2237 46.2851 24.3295 46.36 24.4201C46.4401 24.4897 46.544 24.5256 46.65 24.5201C46.7044 24.5249 46.7592 24.5165 46.8097 24.4956C46.8602 24.4747 46.9049 24.442 46.94 24.4001C46.9944 24.3097 47.0221 24.2057 47.02 24.1001C47.024 23.9278 46.9789 23.7579 46.89 23.6101C46.7838 23.4711 46.6631 23.3437 46.53 23.2301L45.96 22.7301C45.8063 22.6013 45.6775 22.4454 45.58 22.2701C45.4742 22.0775 45.4223 21.8598 45.43 21.6401C45.4173 21.4881 45.4395 21.3352 45.495 21.193C45.5504 21.0509 45.6377 20.9234 45.75 20.8201C45.8645 20.7159 45.9987 20.6357 46.1447 20.5842C46.2907 20.5327 46.4455 20.5109 46.6 20.5201C46.7816 20.5175 46.9619 20.5515 47.13 20.6201C47.2631 20.682 47.3796 20.7746 47.47 20.8901C47.5551 21.012 47.6193 21.1472 47.66 21.2901C47.6995 21.4406 47.7229 21.5948 47.73 21.7501L47.03 21.8801C47.0256 21.7522 47.0088 21.6249 46.98 21.5001C46.968 21.3981 46.9223 21.3031 46.85 21.2301C46.8132 21.198 46.7704 21.1736 46.724 21.1581C46.6777 21.1427 46.6287 21.1366 46.58 21.1401C46.5273 21.1377 46.4748 21.1473 46.4263 21.1681C46.3778 21.1889 46.3346 21.2203 46.3 21.2601C46.2344 21.3463 46.1993 21.4518 46.2 21.5601C46.1985 21.6935 46.233 21.8248 46.3 21.9401C46.3754 22.0524 46.4663 22.1534 46.57 22.2401L47.14 22.7401C47.325 22.8973 47.4836 23.0829 47.61 23.2901C47.7517 23.5175 47.8214 23.7824 47.81 24.0501C47.8214 24.2499 47.7727 24.4484 47.67 24.6201C47.578 24.7892 47.4391 24.9281 47.27 25.0201C47.1002 25.1094 46.9118 25.1574 46.72 25.1601Z" fill="white"/>
<path d="M41.2501 27.9399C40.9088 28.3917 40.7548 28.9576 40.8201 29.5199C41.0044 30.0578 41.3872 30.5049 41.8901 30.7699C42.2268 30.316 42.3803 29.7519 42.3201 29.1899C42.1358 28.6521 41.7531 28.205 41.2501 27.9399Z" fill="white"/>
<path d="M40.2601 32.5299C40.4563 32.3203 40.5982 32.0659 40.6734 31.7888C40.7487 31.5118 40.755 31.2206 40.6919 30.9405C40.6288 30.6605 40.4981 30.4001 40.3113 30.1821C40.1245 29.9641 39.8872 29.7952 39.6201 29.6899C39.2772 30.1447 39.1232 30.7143 39.1901 31.2799C39.3779 31.8158 39.7597 32.2617 40.2601 32.5299Z" fill="white"/>
<path d="M42.75 31.6701C43.1151 32.0324 43.6057 32.2401 44.12 32.2501C44.6268 32.1416 45.0756 31.8495 45.38 31.4301C45.0174 31.0701 44.5308 30.8626 44.02 30.8501C43.5095 30.9563 43.0569 31.2486 42.75 31.6701Z" fill="white"/>
<path d="M43.7999 28.2201C43.4245 28.692 43.2422 29.2889 43.2899 29.89C43.8818 29.9371 44.4691 29.7545 44.9299 29.3801C45.3 28.9057 45.4785 28.3097 45.4299 27.7101C44.841 27.6624 44.2567 27.8453 43.7999 28.2201Z" fill="white"/>
<path d="M42.49 34.0599C43.0107 34.061 43.5132 33.8685 43.9 33.5199C43.6177 33.0903 43.1808 32.7859 42.68 32.6699C42.1593 32.6689 41.6568 32.8614 41.27 33.2099C41.5523 33.6395 41.9892 33.9439 42.49 34.0599Z" fill="white"/>
<path d="M43.1399 45.7198H37.7199C37.6121 45.7075 37.5029 45.7181 37.3995 45.7509C37.296 45.7837 37.2007 45.838 37.1198 45.9102C37.0388 45.9825 36.974 46.071 36.9296 46.17C36.8852 46.2691 36.8623 46.3763 36.8623 46.4848C36.8623 46.5934 36.8852 46.7006 36.9296 46.7997C36.974 46.8987 37.0388 46.9872 37.1198 47.0595C37.2007 47.1317 37.296 47.186 37.3995 47.2188C37.5029 47.2516 37.6121 47.2622 37.7199 47.2498H43.1399C43.3277 47.2283 43.5011 47.1385 43.6269 46.9974C43.7528 46.8563 43.8223 46.6739 43.8223 46.4848C43.8223 46.2958 43.7528 46.1134 43.6269 45.9723C43.5011 45.8312 43.3277 45.7414 43.1399 45.7198Z" fill="white"/>
<path d="M43.1399 54.17H37.7199C37.6121 54.1577 37.5029 54.1683 37.3995 54.2011C37.296 54.2339 37.2007 54.2882 37.1198 54.3604C37.0388 54.4327 36.974 54.5212 36.9296 54.6202C36.8852 54.7192 36.8623 54.8265 36.8623 54.935C36.8623 55.0435 36.8852 55.1508 36.9296 55.2499C36.974 55.3489 37.0388 55.4374 37.1198 55.5097C37.2007 55.5819 37.296 55.6362 37.3995 55.669C37.5029 55.7018 37.6121 55.7124 37.7199 55.7H43.1399C43.3277 55.6785 43.5011 55.5887 43.6269 55.4476C43.7528 55.3065 43.8223 55.1241 43.8223 54.935C43.8223 54.746 43.7528 54.5636 43.6269 54.4225C43.5011 54.2814 43.3277 54.1915 43.1399 54.17Z" fill="white"/>
<path d="M42.94 47.7797H37.94C37.825 47.7823 37.7156 47.8298 37.6353 47.912C37.5549 47.9943 37.5099 48.1047 37.51 48.2197V49.7397L34.23 50.0997L29.44 49.9897V47.0697C30.0822 46.9879 30.7174 46.8575 31.34 46.6797C35.96 45.3797 36.96 42.5097 36.86 39.8697C36.76 37.2297 37.62 36.1397 38.86 35.6697C39.1852 35.5519 39.5197 35.4616 39.86 35.3997C39.8923 36.1969 40.0405 36.9852 40.3 37.7397H40.63C40.3566 36.9816 40.2047 36.1852 40.18 35.3797C40.5425 35.3447 40.9075 35.3447 41.27 35.3797C40.915 35.1637 40.5803 34.916 40.27 34.6397C40.5256 33.5238 41.1404 32.5225 42.02 31.7897C42.476 31.3538 42.8849 30.8711 43.24 30.3497L42.97 30.1797C42.6225 30.6799 42.2236 31.1424 41.78 31.5597C40.9098 32.3036 40.2857 33.2938 39.99 34.3997C39.75 34.1797 39.48 33.9097 39.2 33.6097C38.07 32.3297 36.6 33.2697 34.51 35.2097C32.42 37.1497 29.8 37.2097 27.23 34.5997C23.85 31.1297 20.9 31.1497 18.87 31.3497C20.26 31.9397 20.74 33.2297 21.44 36.5197C22.18 39.9697 24.03 41.5197 26.56 41.7497C25.39 41.9397 25.09 42.0997 23.2 43.4097C21.8573 44.1407 20.2827 44.3201 18.81 43.9097C20.35 44.3997 22.18 46.0197 23.81 46.5797C24.7794 46.9117 25.7878 47.1167 26.81 47.1897V49.9897L17.72 49.7997V51.7497L34.26 51.3797L37.54 51.7497V53.2697C37.54 53.3837 37.5853 53.4931 37.6659 53.5737C37.7466 53.6544 37.8559 53.6997 37.97 53.6997H42.97C43.085 53.6997 43.1954 53.6547 43.2776 53.5744C43.3599 53.494 43.4074 53.3847 43.41 53.2697V48.2697C43.4175 48.2053 43.4107 48.1399 43.3901 48.0784C43.3694 48.0169 43.3354 47.9607 43.2905 47.9139C43.2456 47.867 43.1909 47.8307 43.1302 47.8075C43.0696 47.7843 43.0047 47.7748 42.94 47.7797ZM27.54 47.1697C27.8997 47.1897 28.2602 47.1897 28.62 47.1697V49.9997H27.54V47.1697Z" fill="white"/>
<path d="M17.19 51.37C17.1968 51.4607 17.1856 51.5518 17.1571 51.6381C17.1286 51.7244 17.0833 51.8043 17.0238 51.873C16.9643 51.9418 16.8918 51.9981 16.8105 52.0388C16.7292 52.0795 16.6407 52.1037 16.55 52.11H16.17C15.986 52.0972 15.8145 52.0122 15.6928 51.8737C15.5711 51.7351 15.509 51.5541 15.52 51.37V50C15.5132 49.908 15.5246 49.8156 15.5536 49.7281C15.5826 49.6405 15.6287 49.5596 15.6891 49.4899C15.7495 49.4202 15.8231 49.3631 15.9056 49.322C15.9881 49.2808 16.078 49.2563 16.17 49.25H16.55C16.6416 49.2563 16.731 49.2808 16.813 49.3221C16.8951 49.3634 16.968 49.4206 17.0276 49.4905C17.0872 49.5603 17.1323 49.6414 17.1602 49.7289C17.188 49.8164 17.1982 49.9085 17.19 50V51.37Z" fill="white"/>
</svg>
