<svg viewBox="0 0 64 64" fill="none" xmlns="http://www.w3.org/2000/svg">
<!-- <path d="M62.5101 0.439941H0.580078V62.3699H62.5101V0.439941Z" fill="#D19F2A"/> -->
<path d="M5.57004 16.05L8.43004 11.63L8.60003 11.37C8.90495 10.9226 9.17892 10.4548 9.42003 9.97003C9.59529 9.58387 9.68403 9.16407 9.68004 8.74003C9.70195 8.43393 9.62482 8.12891 9.46003 7.87002C9.38826 7.77469 9.29422 7.69841 9.18613 7.64786C9.07804 7.5973 8.95921 7.57401 8.84003 7.58003C8.67451 7.56233 8.50739 7.5925 8.3585 7.66694C8.2096 7.74139 8.0852 7.85699 8.00004 8.00003C7.82457 8.40643 7.74583 8.84802 7.77003 9.29003V9.82002H5.57004V9.24003C5.51869 8.29961 5.79428 7.37039 6.35003 6.61003C6.6503 6.26426 7.02743 5.99368 7.45118 5.82002C7.87492 5.64635 8.33347 5.57443 8.79004 5.61003C9.21123 5.55856 9.6386 5.6035 10.0399 5.74144C10.4412 5.87938 10.8058 6.10672 11.1064 6.40628C11.4069 6.70584 11.6354 7.06978 11.7746 7.47061C11.9138 7.87144 11.9602 8.29867 11.91 8.72003C11.9112 9.14802 11.8437 9.57343 11.71 9.98002C11.5839 10.3509 11.4232 10.7092 11.23 11.05C11.04 11.36 10.75 11.8 10.37 12.38L8.09003 15.79H11.61V17.57H5.61004L5.57004 16.05Z" fill="white"/>
<path d="M16.72 9.79982L17.93 6.38982H16.78V5.81982H18.78V6.23983L17.5 9.76982H18.77V10.3298H16.77L16.72 9.79982Z" fill="white"/>
<path d="M19.21 5.81982H21.11V6.39983H20V7.69983H20.85V8.26982H20V9.76982H21.09V10.3298H19.21V5.81982Z" fill="white"/>
<path d="M21.5701 5.82016H22.6601C23.0334 5.79242 23.4055 5.88721 23.7201 6.09016C23.8479 6.20635 23.9464 6.35126 24.0072 6.51296C24.0681 6.67466 24.0896 6.8485 24.0701 7.02016C24.0781 7.25923 24.0372 7.49741 23.9501 7.72016C23.9079 7.81048 23.8482 7.89149 23.7743 7.95845C23.7005 8.02542 23.6141 8.07699 23.5201 8.11016L24.1501 10.3302H23.3201L22.7801 8.26016H22.3901V10.3302H21.5701V5.82016ZM22.6501 7.75016C22.74 7.76036 22.831 7.75137 22.9172 7.72379C23.0034 7.69621 23.0828 7.65066 23.1501 7.59016C23.2646 7.43847 23.3181 7.24937 23.3001 7.06016C23.317 6.8771 23.2712 6.69372 23.1701 6.54016C23.1085 6.48037 23.0343 6.435 22.9531 6.40733C22.8718 6.37966 22.7854 6.37038 22.7001 6.38016H22.3901V7.75016H22.6501Z" fill="white"/>
<path d="M24.9002 9.99982C24.6795 9.67726 24.5738 9.28978 24.6002 8.89983V7.19983C24.5719 6.81593 24.678 6.43415 24.9002 6.11982C25.179 5.88176 25.5336 5.75098 25.9002 5.75098C26.2668 5.75098 26.6214 5.88176 26.9002 6.11982C27.1224 6.43415 27.2284 6.81593 27.2002 7.19983V8.89983C27.225 9.28962 27.1195 9.6766 26.9002 9.99982C26.7724 10.1332 26.616 10.2358 26.4427 10.2999C26.2695 10.3639 26.084 10.3879 25.9002 10.3698C25.7163 10.3894 25.5303 10.3662 25.3568 10.302C25.1834 10.2378 25.0271 10.1344 24.9002 9.99982ZM26.2702 9.58982C26.3433 9.43365 26.3776 9.26211 26.3702 9.08982V6.99982C26.3789 6.83066 26.3445 6.66205 26.2702 6.50982C26.231 6.4493 26.1754 6.40118 26.1099 6.37108C26.0444 6.34098 25.9716 6.33014 25.9002 6.33982C25.8288 6.33133 25.7565 6.34271 25.6912 6.3727C25.6259 6.4027 25.5702 6.45015 25.5302 6.50982C25.4582 6.66284 25.424 6.83085 25.4302 6.99982V9.07983C25.4227 9.25212 25.457 9.42365 25.5302 9.57983C25.5741 9.63596 25.6303 9.68134 25.6944 9.71256C25.7585 9.74377 25.8289 9.76 25.9002 9.76C25.9715 9.76 26.0418 9.74377 26.1059 9.71256C26.1701 9.68134 26.2262 9.63596 26.2702 9.57983V9.58982Z" fill="white"/>
<path d="M16.8801 13.1899H17.7001V15.0799H18.6201V13.1899H19.4501V17.7099H18.6201V15.7099H17.7001V17.7099H16.8801V13.1899Z" fill="white"/>
<path d="M20.5801 17.5899C20.3924 17.473 20.2538 17.2917 20.1901 17.0799C20.1061 16.8116 20.0689 16.5309 20.0801 16.2499V13.1899H20.8801V16.3399C20.871 16.5439 20.9016 16.7476 20.9701 16.9399C21.0088 17.0063 21.0643 17.0614 21.131 17.0997C21.1977 17.138 21.2732 17.1581 21.3501 17.1581C21.427 17.1581 21.5025 17.138 21.5692 17.0997C21.6358 17.0614 21.6913 17.0063 21.7301 16.9399C21.7986 16.7476 21.8291 16.5439 21.8201 16.3399V13.1899H22.6201V16.2499C22.6255 16.5306 22.5884 16.8104 22.5101 17.0799C22.4397 17.2882 22.3026 17.4674 22.1201 17.5899C21.8806 17.7081 21.6171 17.7696 21.3501 17.7696C21.083 17.7696 20.8196 17.7081 20.5801 17.5899Z" fill="white"/>
<path d="M23.2402 13.1899H23.8102L24.9102 15.7699V13.1899H25.5902V17.7099H25.0002L23.9002 15.0099V17.7099H23.2002L23.2402 13.1899Z" fill="white"/>
<path d="M26.4601 17.3698C26.2529 17.0235 26.1553 16.6226 26.1801 16.2198V14.6998C26.1487 14.292 26.2505 13.8849 26.4701 13.5398C26.5898 13.3945 26.7441 13.2817 26.9189 13.2117C27.0937 13.1418 27.2833 13.1171 27.4701 13.1398C27.6509 13.1159 27.8348 13.1332 28.0079 13.1903C28.1811 13.2475 28.3391 13.343 28.4701 13.4698C28.6873 13.7558 28.7906 14.1121 28.7601 14.4698V14.6998H27.9801V14.4498C27.9934 14.3202 27.9934 14.1895 27.9801 14.0598C27.9641 13.9707 27.9183 13.8896 27.8501 13.8298C27.7609 13.7726 27.656 13.7447 27.5501 13.7498C27.4413 13.7458 27.3348 13.7813 27.2501 13.8498C27.182 13.9217 27.1368 14.0122 27.1201 14.1098C27.1079 14.2462 27.1079 14.3834 27.1201 14.5198V16.3998C27.1069 16.5951 27.1412 16.7907 27.2201 16.9698C27.2648 17.0298 27.3229 17.0786 27.3897 17.1121C27.4566 17.1457 27.5303 17.1632 27.6051 17.1632C27.6799 17.1632 27.7537 17.1457 27.8206 17.1121C27.8874 17.0786 27.9455 17.0298 27.9901 16.9698C28.0783 16.7828 28.1162 16.576 28.1001 16.3698V15.9498H27.6201V15.4298H28.8401V17.7198H28.3101L28.2501 17.2798C28.1943 17.434 28.0902 17.566 27.9532 17.6561C27.8162 17.7462 27.6538 17.7896 27.4901 17.7798C27.2972 17.8207 27.0964 17.8036 26.9131 17.7306C26.7299 17.6577 26.5722 17.5321 26.4601 17.3698Z" fill="white"/>
<path d="M29.3401 13.1899H31.2301V13.7699H30.1601V15.0699H31.0001V15.6499H30.1601V17.1399H31.2401V17.7099H29.3401V13.1899Z" fill="white"/>
<path d="M31.6902 13.1901H32.7802C33.1566 13.163 33.5317 13.2577 33.8502 13.4601C33.9761 13.5777 34.0733 13.7228 34.134 13.8841C34.1947 14.0454 34.2173 14.2186 34.2002 14.3901C34.2114 14.6303 34.1669 14.8699 34.0702 15.0901C34.028 15.1804 33.9683 15.2614 33.8944 15.3284C33.8206 15.3953 33.7342 15.4469 33.6402 15.4801L34.2702 17.7101H33.4402L32.9002 15.6401H32.5102V17.7101H31.6902V13.1901ZM32.7802 15.1301C32.8685 15.1382 32.9575 15.1282 33.0417 15.1007C33.126 15.0732 33.2037 15.0287 33.2702 14.9701C33.383 14.8175 33.4363 14.6291 33.4202 14.4401C33.4388 14.2569 33.3928 14.073 33.2902 13.9201C33.229 13.8597 33.1549 13.8139 33.0735 13.7862C32.9921 13.7585 32.9055 13.7496 32.8202 13.7601H32.5102V15.1301H32.7802Z" fill="white"/>
<path d="M25.2501 53.1599V54.0799C25.2552 54.1834 25.2992 54.2812 25.3734 54.3536C25.4476 54.4259 25.5465 54.4675 25.6501 54.4699H36.0001C36.1073 54.465 36.2088 54.4203 36.2846 54.3444C36.3605 54.2685 36.4053 54.1671 36.4101 54.0599V53.0599C39.1855 52.2041 41.6757 50.6091 43.6135 48.4457C45.5514 46.2824 46.8638 43.6324 47.4101 40.7799V40.6899C47.4101 40.5812 47.3669 40.4769 47.29 40.4C47.2132 40.3231 47.1089 40.2799 47.0001 40.2799H14.3001C14.2455 40.2786 14.1911 40.2882 14.1402 40.3082C14.0893 40.3282 14.0429 40.3582 14.0037 40.3964C13.9646 40.4346 13.9335 40.4803 13.9123 40.5307C13.891 40.5811 13.8801 40.6352 13.8801 40.6899V40.8799C14.4547 43.7732 15.8178 46.4514 17.8191 48.6185C19.8203 50.7856 22.3816 52.3573 25.2201 53.1599" fill="white"/>
<path d="M36.35 26.3199C36.21 26.5099 33.05 31.0599 36.42 34.7399C37.0036 35.244 37.4142 35.9187 37.5936 36.6688C37.7731 37.4188 37.7123 38.2063 37.42 38.9199H39.57C39.8242 37.9906 39.8197 37.0095 39.5571 36.0825C39.2946 35.1555 38.7838 34.3179 38.08 33.6599C35.6 30.9499 38.08 27.2799 38.15 27.2199C38.2191 27.1217 38.2651 27.0092 38.2848 26.8908C38.3045 26.7723 38.2972 26.651 38.2636 26.5358C38.23 26.4205 38.1709 26.3143 38.0906 26.225C38.0103 26.1357 37.911 26.0656 37.8 26.0199C37.5653 25.8972 37.2952 25.86 37.0361 25.9148C36.777 25.9695 36.545 26.1128 36.38 26.3199" fill="white"/>
<path d="M30.8802 38.9199H33.0002C33.2498 37.9895 33.2421 37.0088 32.9779 36.0824C32.7138 35.156 32.203 34.3187 31.5002 33.6599C29.0202 30.9499 31.5002 27.2799 31.5702 27.2199C31.6392 27.1217 31.6853 27.0092 31.705 26.8908C31.7246 26.7723 31.7174 26.651 31.6838 26.5358C31.6502 26.4205 31.591 26.3143 31.5108 26.225C31.4305 26.1357 31.3312 26.0656 31.2202 26.0199C30.9855 25.8972 30.7154 25.86 30.4563 25.9148C30.1972 25.9695 29.9652 26.1128 29.8002 26.3199C29.6602 26.5099 26.5002 31.0599 29.8702 34.7399C30.4538 35.244 30.8644 35.9187 31.0438 36.6688C31.2233 37.4188 31.1625 38.2063 30.8702 38.9199" fill="white"/>
<path d="M23.33 26.3199C23.19 26.5099 20.03 31.0599 23.4 34.7399C23.9836 35.244 24.3942 35.9187 24.5736 36.6688C24.753 37.4188 24.6923 38.2063 24.4 38.9199H26.56C26.8141 37.9898 26.8086 37.0078 26.5442 36.0806C26.2797 35.1533 25.7664 34.3161 25.06 33.6599C22.58 30.9499 25.06 27.2799 25.13 27.2199C25.199 27.1217 25.2451 27.0092 25.2648 26.8908C25.2844 26.7723 25.2772 26.651 25.2436 26.5358C25.21 26.4205 25.1508 26.3143 25.0706 26.225C24.9903 26.1357 24.891 26.0656 24.78 26.0199C24.5453 25.8972 24.2752 25.86 24.0161 25.9148C23.7569 25.9695 23.525 26.1128 23.36 26.3199" fill="white"/>
</svg>
