<svg viewBox="0 0 64 64" fill="none" xmlns="http://www.w3.org/2000/svg">
<!-- <path d="M62.7101 0.439941H0.790039V62.3599H62.7101V0.439941Z" fill="#2D9A47"/> -->
<path d="M6.43996 16.9101C5.89485 16.142 5.63008 15.21 5.68996 14.2701V13.8601H7.93996V14.2501C7.91598 14.6944 7.99113 15.1385 8.15996 15.5501C8.23022 15.6822 8.33793 15.7907 8.46958 15.8618C8.60122 15.933 8.75092 15.9637 8.89995 15.9501C9.04778 15.9657 9.19678 15.9346 9.32596 15.861C9.45514 15.7875 9.55796 15.6752 9.61995 15.5401C9.76406 15.1226 9.82521 14.681 9.79996 14.2401C9.83042 13.7548 9.73753 13.2698 9.52995 12.8301C9.41678 12.6734 9.26563 12.5481 9.0907 12.4658C8.91577 12.3836 8.72281 12.3472 8.52995 12.3601H8.11995V10.7001H8.47995C8.66709 10.7147 8.85506 10.6853 9.02873 10.6141C9.20241 10.5429 9.35695 10.4319 9.47995 10.2901C9.71014 9.90052 9.82138 9.45211 9.79996 9.00011C9.82545 8.61504 9.7532 8.22978 9.58995 7.88011C9.51296 7.7536 9.40155 7.65161 9.26874 7.58609C9.13592 7.52057 8.98719 7.49421 8.83995 7.5101C8.69627 7.49648 8.5519 7.52761 8.42659 7.59921C8.30128 7.67082 8.20116 7.7794 8.13995 7.91011C7.99329 8.27864 7.92518 8.67373 7.93996 9.07011V9.6001H5.68996V8.90011C5.66374 8.46667 5.72358 8.03233 5.86603 7.62213C6.00848 7.21194 6.23074 6.83399 6.51996 6.5101C6.82788 6.21773 7.19292 5.99219 7.59216 5.84764C7.99141 5.70308 8.41623 5.64264 8.83995 5.6701C9.26738 5.64188 9.69616 5.69896 10.1013 5.83802C10.5065 5.97708 10.8799 6.19535 11.2 6.48011C11.4914 6.79442 11.7154 7.16508 11.8581 7.56923C12.0008 7.97339 12.0593 8.40249 12.03 8.83011C12.051 9.428 11.9056 10.02 11.61 10.5401C11.4987 10.7511 11.3455 10.937 11.1598 11.0867C10.9741 11.2363 10.7598 11.3463 10.53 11.4101C11.51 11.8034 12 12.7334 12 14.2001C12.0566 15.1505 11.7886 16.092 11.24 16.8701C10.949 17.2165 10.5792 17.488 10.1616 17.662C9.74401 17.836 9.2908 17.9074 8.83995 17.8701C8.39306 17.905 7.94413 17.8366 7.52794 17.6701C7.11175 17.5037 6.73948 17.2436 6.43996 16.9101Z" fill="white"/>
<path d="M17.2901 10.0001C17.0829 9.65378 16.9853 9.25289 17.0101 8.85008V7.33009C16.9841 6.91954 17.0854 6.51098 17.3001 6.16008C17.423 6.01933 17.5782 5.91037 17.7523 5.84246C17.9264 5.77456 18.1143 5.74973 18.3001 5.77008C18.4729 5.75309 18.6473 5.77379 18.8113 5.83076C18.9753 5.88774 19.125 5.97962 19.2501 6.10008C19.469 6.38513 19.5725 6.74215 19.5401 7.10008V7.33009H18.7601V7.07008C18.7724 6.94038 18.7724 6.80979 18.7601 6.68008C18.7413 6.59477 18.6958 6.5177 18.6301 6.46008C18.5445 6.40303 18.4428 6.37499 18.3401 6.38009C18.2875 6.37456 18.2344 6.37951 18.1837 6.39466C18.1331 6.4098 18.0859 6.43484 18.045 6.46831C18.0041 6.50179 17.9702 6.54304 17.9453 6.58969C17.9205 6.63634 17.9051 6.68746 17.9001 6.74009C17.8874 6.87646 17.8874 7.01371 17.9001 7.15009V9.00008C17.8872 9.1986 17.9214 9.39736 18.0001 9.58009C18.0399 9.64591 18.0979 9.69885 18.1671 9.73255C18.2363 9.76625 18.3137 9.77928 18.3901 9.77008C18.4672 9.77589 18.5444 9.76028 18.6133 9.72499C18.6821 9.6897 18.7398 9.6361 18.7801 9.57008C18.8614 9.38089 18.899 9.17581 18.8901 8.97009V8.54009H18.4001V8.00008H19.6301V10.2901H19.0001L18.9501 9.85008C18.8928 10.006 18.7872 10.1396 18.6487 10.2313C18.5102 10.323 18.346 10.3682 18.1801 10.3601C18.014 10.3735 17.847 10.348 17.6924 10.2855C17.5379 10.223 17.4001 10.1253 17.2901 10.0001Z" fill="white"/>
<path d="M20.4 9.99982C20.1792 9.67726 20.0736 9.28978 20.1 8.89983V7.19983C20.0734 6.8161 20.1793 6.43486 20.4 6.11982C20.6788 5.88176 21.0333 5.75098 21.4 5.75098C21.7666 5.75098 22.1212 5.88176 22.4 6.11982C22.6206 6.43486 22.7265 6.8161 22.7 7.19983V8.89983C22.7248 9.28962 22.6192 9.6766 22.4 9.99982C22.2726 10.1344 22.1166 10.2384 21.9434 10.3042C21.7703 10.37 21.5845 10.3959 21.4 10.3798C21.2153 10.3974 21.0291 10.3722 20.8557 10.3063C20.6823 10.2404 20.5264 10.1356 20.4 9.99982ZM21.77 9.59982C21.838 9.43878 21.8688 9.26443 21.86 9.08982V6.99982C21.8698 6.8284 21.8389 6.65708 21.77 6.49982C21.724 6.44685 21.6671 6.40437 21.6033 6.37525C21.5395 6.34614 21.4701 6.33107 21.4 6.33107C21.3298 6.33107 21.2605 6.34614 21.1966 6.37525C21.1328 6.40437 21.076 6.44685 21.03 6.49982C20.954 6.65505 20.9195 6.82732 20.93 6.99982V9.06982C20.9178 9.24567 20.9523 9.42161 21.03 9.57983C21.0692 9.64035 21.1248 9.68846 21.1903 9.71857C21.2558 9.74867 21.3285 9.75951 21.4 9.74982C21.4676 9.76276 21.5375 9.75755 21.6025 9.73471C21.6675 9.71188 21.7253 9.67224 21.77 9.61982V9.59982Z" fill="white"/>
<path d="M23.5101 9.99982C23.2894 9.67726 23.1837 9.28978 23.2101 8.89983V7.19983C23.1835 6.8161 23.2894 6.43486 23.5101 6.11982C23.7889 5.88176 24.1435 5.75098 24.5101 5.75098C24.8767 5.75098 25.2313 5.88176 25.5101 6.11982C25.7308 6.43486 25.8367 6.8161 25.8101 7.19983V8.89983C25.8349 9.28962 25.7294 9.6766 25.5101 9.99982C25.3828 10.1344 25.2267 10.2384 25.0535 10.3042C24.8804 10.37 24.6946 10.3959 24.5101 10.3798C24.3254 10.3974 24.1392 10.3722 23.9658 10.3063C23.7924 10.2404 23.6365 10.1356 23.5101 9.99982ZM24.8801 9.59982C24.9481 9.43878 24.9789 9.26443 24.9701 9.08982V6.99982C24.9799 6.8284 24.949 6.65708 24.8801 6.49982C24.8341 6.44685 24.7772 6.40437 24.7134 6.37525C24.6496 6.34614 24.5802 6.33107 24.5101 6.33107C24.4399 6.33107 24.3706 6.34614 24.3067 6.37525C24.2429 6.40437 24.1861 6.44685 24.1401 6.49982C24.0641 6.65505 24.0296 6.82732 24.0401 6.99982V9.06982C24.0279 9.24567 24.0624 9.42161 24.1401 9.57983C24.1793 9.64035 24.2349 9.68846 24.3004 9.71857C24.3659 9.74867 24.4386 9.75951 24.5101 9.74982C24.5777 9.76276 24.6476 9.75755 24.7126 9.73471C24.7776 9.71188 24.8354 9.67224 24.8801 9.61982V9.59982Z" fill="white"/>
<path d="M26.3901 5.82011H27.4501C27.7443 5.80617 28.038 5.8574 28.3101 5.97011C28.5099 6.0603 28.6699 6.22031 28.7601 6.42011C28.8529 6.67637 28.897 6.94768 28.8901 7.22011V8.87011C28.8966 9.15231 28.8525 9.4334 28.7601 9.70011C28.6711 9.90472 28.5163 10.0737 28.3201 10.1801C28.058 10.291 27.7745 10.3423 27.4901 10.3301H26.3901V5.82011ZM27.4601 9.76011C27.5996 9.77265 27.7395 9.74117 27.8601 9.67011C27.9395 9.59833 27.9953 9.5042 28.0201 9.40011C28.0337 9.23372 28.0337 9.0665 28.0201 8.90011V7.17011C28.0392 7.01737 28.0392 6.86285 28.0201 6.71011C27.9971 6.61627 27.9401 6.53431 27.8601 6.48011C27.7345 6.42442 27.5972 6.40038 27.4601 6.41011H27.2201V9.76011H27.4601Z" fill="white"/>
<path d="M30.8 5.81982H31.62V7.69983H32.54V5.81982H33.37V10.3298H32.54V8.32983H31.62V10.3298H30.8V5.81982Z" fill="white"/>
<path d="M34 5.81982H35.9V6.39983H34.82V7.69983H35.67V8.26982H34.82V9.76982H35.91V10.3298H34V5.81982Z" fill="white"/>
<path d="M37.0602 5.81982H37.9402L38.8502 10.3298H38.0802L37.9001 9.32983H37.1201L36.9301 10.3298H36.1602L37.0602 5.81982ZM37.8102 8.81982L37.5101 6.91982L37.2001 8.81982H37.8102Z" fill="white"/>
<path d="M39.27 5.81982H40.09V9.81982H41.19V10.3798H39.27V5.81982Z" fill="white"/>
<path d="M41.9202 6.42982H41.1602V5.81982H43.4801V6.42982H42.7402V10.3298H41.9202V6.42982Z" fill="white"/>
<path d="M43.8201 5.81982H44.6401V7.69983H45.5601V5.81982H46.3901V10.3298H45.5601V8.32983H44.6401V10.3298H43.8201V5.81982Z" fill="white"/>
<path d="M17.7601 13.1899H18.6401L19.5401 17.7099H18.7801L18.6001 16.7099H17.8101L17.6301 17.7099H16.8501L17.7601 13.1899ZM18.5101 16.1899L18.2001 14.2999L17.8901 16.1899H18.5101Z" fill="white"/>
<path d="M20 13.1899H20.58L21.67 15.7699V13.1899H22.35V17.7099H21.81L20.66 14.9999V17.6999H20V13.1899Z" fill="white"/>
<path d="M23 13.1897H24C24.2942 13.1758 24.5879 13.227 24.86 13.3397C25.055 13.4333 25.2108 13.5927 25.3 13.7897C25.3988 14.0479 25.4431 14.3237 25.43 14.5997V16.2397C25.4425 16.5223 25.3983 16.8045 25.3 17.0697C25.2184 17.279 25.0614 17.4503 24.86 17.5497C24.6006 17.6701 24.3156 17.725 24.03 17.7097H23V13.1897ZM24.08 17.1897C24.2173 17.1985 24.3539 17.1635 24.47 17.0897C24.5132 17.0598 24.5497 17.0213 24.5773 16.9765C24.6048 16.9318 24.6228 16.8818 24.63 16.8297C24.6432 16.66 24.6432 16.4895 24.63 16.3197V14.5397C24.6497 14.3904 24.6497 14.2391 24.63 14.0897C24.6208 14.0411 24.6018 13.9947 24.5744 13.9535C24.5469 13.9123 24.5114 13.877 24.47 13.8497C24.3483 13.7928 24.2139 13.7686 24.08 13.7797H23.83V17.1397L24.08 17.1897Z" fill="white"/>
<path d="M27.21 13.1899H27.8999L28.27 16.1199L28.74 13.2099H29.3L29.78 16.1199L30.1499 13.1899H30.83L30.2 17.7099H29.53L29.03 14.7099L28.53 17.7099H27.85L27.21 13.1899Z" fill="white"/>
<path d="M31.3201 13.1899H33.2201V13.7699H32.1401V15.0699H33.0001V15.6499H32.1501V17.1499H33.2401V17.7099H31.3301L31.3201 13.1899Z" fill="white"/>
<path d="M33.6799 13.1899H34.4999V17.1899H35.5999V17.7499H33.6799V13.1899Z" fill="white"/>
<path d="M36 13.1899H36.82V17.1899H37.92V17.7499H36V13.1899Z" fill="white"/>
<path d="M38.29 15.6201H39.64V16.1401H38.29V15.6201Z" fill="white"/>
<path d="M40.27 13.1898H41.38C41.7328 13.1642 42.0843 13.2556 42.38 13.4497C42.5047 13.5571 42.601 13.6936 42.6603 13.8471C42.7196 14.0006 42.7401 14.1664 42.72 14.3298C42.72 14.8898 42.51 15.2098 42.07 15.3298C42.59 15.4298 42.85 15.7998 42.85 16.4398C42.8831 16.801 42.7716 17.1606 42.54 17.4398C42.409 17.5671 42.2513 17.6637 42.0783 17.7226C41.9054 17.7814 41.7214 17.8009 41.54 17.7798H40.24L40.27 13.1898ZM41.37 15.0398C41.4584 15.0512 41.5483 15.0427 41.633 15.0151C41.7178 14.9874 41.7953 14.9412 41.86 14.8797C41.9611 14.7262 42.0069 14.5428 41.99 14.3598C41.9992 14.2736 41.9887 14.1866 41.9592 14.1051C41.9298 14.0237 41.8822 13.95 41.82 13.8898C41.6461 13.7941 41.4477 13.7523 41.25 13.7697H41.09V14.9998L41.37 15.0398ZM41.37 17.1297C41.4622 17.1394 41.5554 17.1293 41.6434 17.0999C41.7314 17.0706 41.812 17.0228 41.88 16.9598C41.9826 16.788 42.0314 16.5895 42.02 16.3898C42.0317 16.1778 41.9756 15.9677 41.86 15.7898C41.7937 15.7238 41.7135 15.6734 41.6253 15.6422C41.5371 15.6111 41.443 15.6 41.35 15.6098H41.06V17.1297H41.37Z" fill="white"/>
<path d="M43.3401 13.1899H45.2401V13.7699H44.1601V15.0699H45.0001V15.6499H44.1501V17.1499H45.2401V17.7099H43.3301L43.3401 13.1899Z" fill="white"/>
<path d="M45.72 13.1899H46.54V17.7099H45.72V13.1899Z" fill="white"/>
<path d="M47.21 13.1899H47.78L48.88 15.7699V13.1899H49.56V17.7099H49L47.8999 15.0099V17.7099H47.2L47.21 13.1899Z" fill="white"/>
<path d="M50.4301 17.3699C50.2194 17.0247 50.1183 16.6237 50.1402 16.2199V14.6999C50.1163 14.2927 50.2175 13.8879 50.4301 13.5399C50.6966 13.2835 51.0489 13.1353 51.4186 13.1242C51.7882 13.1131 52.1488 13.2399 52.4301 13.4799C52.6473 13.7658 52.7506 14.1221 52.7202 14.4799V14.7099H51.9301V14.4599C51.9434 14.3302 51.9434 14.1995 51.9301 14.0699C51.9157 13.9801 51.8696 13.8985 51.8002 13.8399C51.7139 13.785 51.6119 13.7603 51.5101 13.7699C51.4559 13.764 51.401 13.7699 51.3493 13.7872C51.2975 13.8044 51.2501 13.8326 51.2102 13.8699C51.1406 13.9381 51.092 14.0249 51.0702 14.1199C51.0579 14.2563 51.0579 14.3935 51.0702 14.5299V16.3999C51.0584 16.5961 51.0962 16.7921 51.1801 16.9699C51.2183 17.0349 51.2746 17.0874 51.342 17.1211C51.4095 17.1549 51.4852 17.1683 51.5601 17.1599C51.6377 17.1694 51.7164 17.1555 51.7859 17.1198C51.8554 17.0842 51.9127 17.0284 51.9501 16.9599C52.0335 16.7713 52.0712 16.5657 52.0601 16.3599V15.9399H51.5802V15.4199H52.8002V17.7099H52.2702L52.2102 17.2699C52.1544 17.424 52.0502 17.556 51.9132 17.6461C51.7763 17.7362 51.6138 17.7796 51.4501 17.7699C51.2597 17.8097 51.0617 17.793 50.8805 17.722C50.6993 17.6509 50.5428 17.5286 50.4301 17.3699Z" fill="white"/>
<path d="M52.6401 39.18C52.6758 38.7835 52.63 38.384 52.5055 38.0059C52.3811 37.6278 52.1807 37.2791 51.9166 36.9813C51.6525 36.6835 51.3303 36.4428 50.9698 36.274C50.6092 36.1053 50.218 36.012 49.8202 36C48.8626 36.2146 48.0039 36.7424 47.3802 37.5C46.8302 36.93 45.8701 36 45.0201 36C44.6199 36.0127 44.2263 36.1054 43.8625 36.2726C43.4987 36.4398 43.172 36.6781 42.9017 36.9735C42.6315 37.269 42.4231 37.6155 42.2889 37.9927C42.1546 38.37 42.0972 38.7703 42.1201 39.17C42.1189 40.0069 42.4456 40.8111 43.0301 41.41L47.3901 45.78L51.7402 41.41C52.3196 40.8125 52.6425 40.0123 52.6401 39.18Z" fill="white"/>
<path d="M34.0799 52.9199H33.9999C33.8399 52.9091 33.6881 52.8452 33.5685 52.7383C33.449 52.6314 33.3685 52.4877 33.3399 52.3299L31.1199 39.4299L27.7699 45.6499C27.6969 45.7807 27.5848 45.8855 27.4494 45.9496C27.3139 46.0137 27.1619 46.034 27.0144 46.0076C26.8669 45.9811 26.7313 45.9094 26.6265 45.8022C26.5218 45.6951 26.453 45.5579 26.4299 45.4099L25.0099 35.4099L22.3999 41.2699C22.3428 41.3945 22.2513 41.5002 22.1362 41.5746C22.021 41.649 21.887 41.689 21.7499 41.6899H11.6499C11.5489 41.7019 11.4465 41.6923 11.3495 41.6618C11.2525 41.6314 11.163 41.5807 11.087 41.5131C11.011 41.4456 10.9501 41.3627 10.9084 41.2699C10.8668 41.1771 10.8452 41.0766 10.8452 40.9749C10.8452 40.8732 10.8668 40.7726 10.9084 40.6799C10.9501 40.5871 11.011 40.5042 11.087 40.4367C11.163 40.3691 11.2525 40.3184 11.3495 40.288C11.4465 40.2575 11.5489 40.2479 11.6499 40.2599H21.3099L24.7399 32.5599C24.8044 32.4195 24.9118 32.3033 25.0466 32.2278C25.1813 32.1523 25.3366 32.1215 25.4899 32.1399C25.6451 32.1588 25.7895 32.2292 25.9001 32.3398C26.0106 32.4503 26.081 32.5947 26.0999 32.7499L27.5699 43.0099L30.8799 36.8799C30.9497 36.7468 31.0599 36.6392 31.1947 36.5728C31.3294 36.5063 31.4818 36.4843 31.6299 36.5099C31.7768 36.5362 31.912 36.6068 32.0175 36.7123C32.123 36.8178 32.1936 36.953 32.2199 37.0999L34.2699 49.0999L41.7399 24.2599C41.7833 24.1233 41.8664 24.0028 41.9786 23.9137C42.0908 23.8247 42.2271 23.7711 42.3699 23.7599C42.514 23.7432 42.6597 23.773 42.7856 23.845C42.9115 23.9169 43.0112 24.0273 43.0699 24.1599L46.9999 32.2999C47.0471 32.3871 47.0757 32.4831 47.084 32.582C47.0924 32.6808 47.0802 32.7802 47.0483 32.8741C47.0163 32.968 46.9654 33.0543 46.8985 33.1276C46.8317 33.2008 46.7505 33.2595 46.6599 33.2999C46.5753 33.3404 46.4835 33.3638 46.3898 33.3686C46.2961 33.3734 46.2024 33.3596 46.114 33.328C46.0257 33.2964 45.9445 33.2476 45.8751 33.1844C45.8058 33.1212 45.7496 33.0449 45.7099 32.9599L42.5699 26.4699L34.7499 52.4699C34.696 52.6033 34.6033 52.7174 34.4839 52.7976C34.3645 52.8778 34.2238 52.9204 34.0799 52.9199Z" fill="white"/>
</svg>
