<svg viewBox="0 0 64 64" fill="none" xmlns="http://www.w3.org/2000/svg">
<!-- <path d="M61.92 0.439941H-0.0100098V62.3699H61.92V0.439941Z" fill="#C22033"/> -->
<path d="M8.27997 14.8401H4.71997V13.0601L7.79997 5.83008H10.32V13.1301H11.5V14.8401H10.32V17.6401H8.31998L8.27997 14.8401ZM8.27997 13.1301V8.13008L6.47997 13.1301H8.27997Z" fill="white"/>
<path d="M18 10.9001C17.8423 10.7428 17.6985 10.5722 17.57 10.3901H17.48C17.2955 10.4062 17.1097 10.3803 16.9365 10.3146C16.7634 10.2488 16.6073 10.1447 16.48 10.0101C16.2593 9.68758 16.1536 9.3001 16.18 8.91014V7.21014C16.1518 6.82625 16.2578 6.44447 16.48 6.13014C16.6078 5.9968 16.7642 5.89421 16.9375 5.83011C17.1107 5.76602 17.2962 5.74209 17.48 5.76014C17.664 5.73979 17.8502 5.76265 18.0238 5.82688C18.1974 5.89111 18.3536 5.99495 18.48 6.13014C18.7105 6.44083 18.8206 6.8245 18.79 7.21014V8.91014C18.8296 9.17079 18.7909 9.43733 18.6787 9.67592C18.5666 9.91451 18.386 10.1144 18.16 10.2501C18.2907 10.4124 18.442 10.557 18.61 10.6801L18.46 11.2301C18.29 11.1455 18.1347 11.0341 18 10.9001ZM17.85 9.61014C17.9232 9.45397 17.9575 9.28243 17.95 9.11014V7.00014C17.9562 6.83117 17.922 6.66316 17.85 6.51014C17.81 6.45047 17.7543 6.40302 17.689 6.37302C17.6237 6.34302 17.5514 6.33165 17.48 6.34014C17.4073 6.33197 17.3337 6.34343 17.2668 6.37333C17.2 6.40322 17.1424 6.45046 17.1 6.51014C17.0319 6.66412 17.001 6.832 17.01 7.00014V9.08015C17.0012 9.25476 17.032 9.4291 17.1 9.59014C17.1424 9.64982 17.2 9.69706 17.2668 9.72696C17.3337 9.75685 17.4073 9.76831 17.48 9.76014C17.5555 9.78032 17.6353 9.77674 17.7087 9.7499C17.7821 9.72306 17.8454 9.67426 17.89 9.61014H17.85Z" fill="white"/>
<path d="M19.87 10.2198C19.6824 10.1029 19.5438 9.92156 19.48 9.70982C19.3962 9.43804 19.3591 9.15402 19.37 8.86982V5.86982H20.1701V8.99982C20.161 9.20376 20.1916 9.40751 20.26 9.59982C20.3007 9.66384 20.3568 9.71657 20.4232 9.7531C20.4897 9.78963 20.5642 9.80878 20.6401 9.80878C20.7159 9.80878 20.7904 9.78963 20.8569 9.7531C20.9233 9.71657 20.9794 9.66384 21.0201 9.59982C21.0885 9.40751 21.1191 9.20376 21.1101 8.99982V5.81982H21.9101V8.81982C21.9162 9.10378 21.8791 9.38702 21.8001 9.65982C21.7296 9.86807 21.5926 10.0473 21.4101 10.1698C21.1706 10.288 20.9071 10.3495 20.6401 10.3495C20.373 10.3495 20.1095 10.288 19.87 10.1698V10.2198Z" fill="white"/>
<path d="M23.2 5.81982H24.08L24.9901 10.3298H24.22L24.04 9.32983H23.26L23.0701 10.3298H22.3L23.2 5.81982ZM23.95 8.81982L23.65 6.91982L23.34 8.81982H23.95Z" fill="white"/>
<path d="M25.4099 5.81982H26.2299V9.81982H27.3299V10.3798H25.4099V5.81982Z" fill="white"/>
<path d="M27.75 5.81982H28.56V10.3298H27.75V5.81982Z" fill="white"/>
<path d="M29.6699 6.42982H28.9199V5.81982H31.2299V6.42982H30.4899V10.3298H29.6699V6.42982Z" fill="white"/>
<path d="M32.2 8.60983L31.28 5.81982H32.05L32.61 7.60983L33.13 5.81982H33.89L33 8.60983V10.3298H32.22L32.2 8.60983Z" fill="white"/>
<path d="M16.29 13.1899H18.18V13.7699H17.1001V15.0699H18V15.6499H17.15V17.1499H18.2401V17.7099H16.34L16.29 13.1899Z" fill="white"/>
<path d="M18.6399 13.1897H19.7099C20.0041 13.1758 20.2978 13.227 20.5699 13.3397C20.7649 13.4333 20.9207 13.5927 21.0099 13.7897C21.1087 14.0479 21.153 14.3237 21.1399 14.5997V16.2397C21.1513 16.5222 21.1071 16.8042 21.0099 17.0697C20.9283 17.279 20.7713 17.4503 20.5699 17.5497C20.3105 17.6701 20.0255 17.725 19.7399 17.7097H18.6399V13.1897ZM19.7199 17.1297C19.8561 17.1408 19.9923 17.1094 20.1099 17.0397C20.1531 17.0098 20.1896 16.9713 20.2171 16.9265C20.2447 16.8818 20.2627 16.8318 20.2699 16.7797C20.2831 16.61 20.2831 16.4395 20.2699 16.2697V14.5397C20.2835 14.39 20.2835 14.2394 20.2699 14.0897C20.2458 13.991 20.185 13.9052 20.0999 13.8497C19.9782 13.7928 19.8438 13.7686 19.7099 13.7797H19.4599V17.1297H19.7199Z" fill="white"/>
<path d="M22.1899 17.5899C22.0022 17.473 21.8636 17.2917 21.7999 17.0799C21.7153 16.8118 21.6781 16.5309 21.6899 16.2499V13.1899H22.4899V16.3399C22.4818 16.5471 22.5123 16.754 22.5799 16.9499C22.6205 17.014 22.6766 17.0667 22.743 17.1032C22.8095 17.1397 22.8841 17.1589 22.9599 17.1589C23.0357 17.1589 23.1103 17.1397 23.1767 17.1032C23.2432 17.0667 23.2993 17.014 23.3399 16.9499C23.4075 16.754 23.438 16.5471 23.4299 16.3399V13.1899H24.2299V16.2499C24.2353 16.5306 24.1982 16.8104 24.1199 17.0799C24.0495 17.2882 23.9124 17.4674 23.7299 17.5899C23.495 17.7206 23.2283 17.783 22.9599 17.7699C22.6912 17.7857 22.4237 17.7232 22.1899 17.5899Z" fill="white"/>
<path d="M25.07 17.3797C24.852 17.0522 24.7467 16.6625 24.77 16.2697V14.6497C24.7444 14.255 24.8461 13.8624 25.06 13.5297C25.184 13.3903 25.3392 13.2822 25.5131 13.2144C25.6869 13.1466 25.8743 13.121 26.06 13.1397C26.232 13.1234 26.4056 13.1455 26.5681 13.2043C26.7306 13.2631 26.8781 13.3571 27 13.4797C27.2153 13.7662 27.3152 14.1231 27.28 14.4797V14.8597H26.49V14.4697C26.497 14.3465 26.497 14.223 26.49 14.0997C26.4791 14.0111 26.4364 13.9294 26.37 13.8697C26.3309 13.8386 26.286 13.8156 26.2379 13.8018C26.1899 13.7881 26.1396 13.784 26.09 13.7897C25.982 13.7788 25.8741 13.8112 25.79 13.8797C25.7205 13.9425 25.6746 14.0272 25.66 14.1197C25.6426 14.2525 25.6426 14.387 25.66 14.5197V16.5197C25.6503 16.7083 25.6845 16.8966 25.76 17.0697C25.7992 17.1302 25.8548 17.1784 25.9203 17.2085C25.9858 17.2386 26.0585 17.2494 26.13 17.2397C26.2315 17.2474 26.332 17.2151 26.41 17.1497C26.4732 17.0876 26.5152 17.0071 26.53 16.9197C26.5368 16.7865 26.5368 16.653 26.53 16.5197V15.9997H27.32V16.3597C27.3389 16.7133 27.2443 17.0637 27.05 17.3597C26.9312 17.4904 26.7832 17.5911 26.6181 17.6536C26.453 17.7162 26.2755 17.7388 26.1 17.7197C25.9136 17.7522 25.722 17.7381 25.5424 17.6788C25.3627 17.6195 25.2004 17.5167 25.07 17.3797Z" fill="white"/>
<path d="M28.5001 13.1899H29.3801L30.2901 17.7099H29.5201L29.3401 16.7099H28.5601L28.3701 17.7099H27.6001L28.5001 13.1899ZM29.2601 16.1899L29.0001 14.2499L28.6901 16.1399L29.2601 16.1899Z" fill="white"/>
<path d="M31 13.7999H30.24V13.1899H32.56V13.7999H31.81V17.7099H31V13.7999Z" fill="white"/>
<path d="M32.9199 13.1899H33.7399V17.7099H32.9199V13.1899Z" fill="white"/>
<path d="M34.6301 17.3901C34.4079 17.0682 34.3021 16.6802 34.3301 16.2901V14.6001C34.3036 14.2133 34.4094 13.8289 34.6301 13.5101C34.7596 13.3791 34.9162 13.278 35.089 13.2141C35.2618 13.1502 35.4465 13.1249 35.6301 13.1401C35.8139 13.1221 35.9994 13.146 36.1726 13.2101C36.3459 13.2742 36.5023 13.3768 36.6301 13.5101C36.8589 13.8255 36.9687 14.2116 36.9401 14.6001V16.2901C36.9636 16.6812 36.8543 17.0688 36.6301 17.3901C36.5042 17.5265 36.3483 17.6318 36.1748 17.6977C36.0013 17.7637 35.8148 17.7884 35.6301 17.7701C35.4456 17.7862 35.2598 17.7603 35.0866 17.6945C34.9135 17.6287 34.7574 17.5247 34.6301 17.3901ZM36.0001 17.0001C36.068 16.8425 36.0988 16.6715 36.0901 16.5001V14.4101C36.0999 14.2387 36.0691 14.0674 36.0001 13.9101C35.9523 13.8583 35.8943 13.8169 35.8298 13.7887C35.7653 13.7604 35.6956 13.7458 35.6251 13.7458C35.5546 13.7458 35.4849 13.7604 35.4204 13.7887C35.3558 13.8169 35.2978 13.8583 35.2501 13.9101C35.1792 14.0632 35.1483 14.2318 35.1601 14.4001V16.4801C35.1514 16.6515 35.1822 16.8225 35.2501 16.9801C35.2909 17.0415 35.3483 17.09 35.4155 17.1201C35.4828 17.1501 35.5572 17.1606 35.6301 17.1501C35.6996 17.1619 35.771 17.1541 35.8364 17.1276C35.9017 17.1011 35.9584 17.057 36.0001 17.0001Z" fill="white"/>
<path d="M37.52 13.1899H38.09L39.19 15.7699V13.1899H39.87V17.7099H39.32L38.22 15.0099V17.7099H37.52V13.1899Z" fill="white"/>
<path d="M27.43 33.66L16.28 27.21V48.06L27.43 51.42V33.66Z" fill="white"/>
<path d="M28.6599 33.7V51.43L39.8899 48.05V27.21L28.6599 33.7Z" fill="white"/>
<path d="M46.34 47.6901H46.01L47.33 52.3001L48.65 47.6901H48.32H48.65V29.1401H48.32H47.99H47.64H46.99H46.66H46.34H46.01V47.6901H46.34Z" fill="white"/>
<path d="M42.2899 28.1102L41.0899 27.1602V48.6202L28.6899 52.6301H28.1199H28.0099H27.4299L15.0899 49.1802V27.1602L13.8899 28.1102V50.0201L27.3799 53.7502H28.0099H28.1199H28.7499L41.1899 49.8002L42.2899 49.4802V28.1102Z" fill="white"/>
<path d="M48.65 26.6901C48.65 26.34 48.5109 26.0043 48.2634 25.7567C48.0158 25.5092 47.6801 25.3701 47.33 25.3701C46.9799 25.3701 46.6442 25.5092 46.3966 25.7567C46.1491 26.0043 46.01 26.34 46.01 26.6901V28.1101H48.65V26.6901Z" fill="white"/>
</svg>
