<svg viewBox="0 0 64 64" fill="none" xmlns="http://www.w3.org/2000/svg">
<!-- <path d="M62.0299 0.490234H0.189941V62.3302H62.0299V0.490234Z" fill="#EF412A"/> -->
<path d="M6.38984 17.4201C5.94848 17.1351 5.62247 16.7028 5.46983 16.2001C5.29142 15.5489 5.21055 14.8749 5.22984 14.2001H7.40983C7.38165 14.7009 7.44606 15.2026 7.59983 15.6801C7.65453 15.8281 7.75697 15.9536 7.89097 16.0369C8.02498 16.1202 8.1829 16.1565 8.33982 16.1401C8.46218 16.1486 8.58474 16.1265 8.69645 16.0759C8.80817 16.0253 8.90555 15.9477 8.97984 15.8501C9.13174 15.6129 9.22116 15.3411 9.23982 15.0601C9.23982 14.7201 9.28984 14.2401 9.28984 13.6101C9.31254 13.066 9.24494 12.522 9.08982 12.0001C9.0358 11.8324 8.92592 11.6883 8.77851 11.5919C8.63111 11.4954 8.4551 11.4524 8.27983 11.4701C7.75983 11.4701 7.41983 11.8201 7.27983 12.5301H5.33982L5.49983 5.83008H10.9298V7.80008H7.34983L7.21983 10.4101C7.40985 10.2081 7.65217 10.0627 7.91984 9.99008C8.26161 9.87628 8.61962 9.81886 8.97984 9.82008C9.34568 9.80417 9.70886 9.88901 10.0298 10.0653C10.3507 10.2417 10.6171 10.5028 10.7998 10.8201C11.2539 11.6589 11.4652 12.6078 11.4098 13.5601C11.4282 14.341 11.3442 15.121 11.1598 15.8801C11.0244 16.4554 10.6962 16.967 10.2298 17.3301C9.64121 17.7255 8.93702 17.9121 8.22984 17.8601C7.58779 17.8846 6.95134 17.7324 6.38984 17.4201Z" fill="white"/>
<path d="M16.6799 10.0003C16.4726 9.65399 16.375 9.2531 16.3999 8.85029V7.3603C16.3685 6.95243 16.4702 6.54539 16.6899 6.2003C16.8112 6.05706 16.9659 5.94571 17.1402 5.87599C17.3145 5.80626 17.5032 5.78028 17.6899 5.80029C17.8714 5.77768 18.0557 5.79653 18.2289 5.85542C18.4021 5.91431 18.5597 6.01171 18.6899 6.14029C18.907 6.42623 19.0104 6.78255 18.9799 7.14029V7.37029H18.1899V7.10029C18.2031 6.97063 18.2031 6.83996 18.1899 6.71029C18.1754 6.62055 18.1293 6.53894 18.0599 6.48029C17.9737 6.42539 17.8716 6.40076 17.7699 6.41029C17.7156 6.40509 17.661 6.4113 17.6093 6.42852C17.5576 6.44575 17.5101 6.4736 17.4699 6.51029C17.3997 6.57666 17.3539 6.66472 17.3399 6.76029C17.327 6.89666 17.327 7.03393 17.3399 7.17029V9.0603C17.3301 9.25638 17.3679 9.45191 17.4499 9.6303C17.4881 9.69531 17.5443 9.74786 17.6117 9.78158C17.6792 9.8153 17.7549 9.82875 17.8299 9.82029C17.9071 9.82727 17.9848 9.81218 18.0538 9.77678C18.1229 9.74138 18.1805 9.68711 18.2199 9.62029C18.3012 9.4311 18.3388 9.22602 18.3299 9.0203V8.59029H17.8499V8.0803H18.9999V10.3603H18.4699L18.4099 9.92029C18.3555 10.0754 18.2517 10.2083 18.1143 10.2987C17.977 10.389 17.8138 10.4317 17.6499 10.4203C17.4651 10.4479 17.2763 10.4232 17.1049 10.3489C16.9334 10.2747 16.7862 10.1539 16.6799 10.0003Z" fill="white"/>
<path d="M19.5498 5.86035H21.4398V6.43035H20.3698V7.73035H21.2198V8.30035H20.3698V9.80035H21.4498V10.3604H19.5498V5.86035Z" fill="white"/>
<path d="M21.9099 5.86035H22.4799L23.5799 8.43035V5.86035H24.2499V10.3604H23.7099L22.6099 7.67035V10.3604H21.9099V5.86035Z" fill="white"/>
<path d="M24.9099 5.86032H25.9999C26.2934 5.84322 26.587 5.89102 26.8599 6.00032C27.0593 6.08763 27.2171 6.24897 27.2999 6.45032C27.4021 6.70772 27.4498 6.98354 27.4399 7.26032V8.90032C27.4487 9.18353 27.401 9.46565 27.2999 9.73032C27.222 9.93625 27.0681 10.1045 26.8699 10.2003C26.6101 10.3195 26.3254 10.3744 26.0399 10.3603H24.9399L24.9099 5.86032ZM25.9999 9.79032C26.1361 9.80141 26.2724 9.76997 26.3899 9.70032C26.4693 9.62854 26.525 9.53441 26.5499 9.43032C26.5635 9.26393 26.5635 9.09671 26.5499 8.93032V7.20032C26.5696 7.05097 26.5696 6.89967 26.5499 6.75032C26.5418 6.70125 26.5234 6.65446 26.4958 6.61307C26.4682 6.57169 26.4321 6.53666 26.3899 6.51032C26.2643 6.45462 26.127 6.43059 25.9899 6.44032H25.7499V9.79032H25.9999Z" fill="white"/>
<path d="M28 5.86035H29.9V6.43035H28.8V7.73035H29.65V8.30035H28.8V9.80035H29.89V10.3604H28V5.86035Z" fill="white"/>
<path d="M30.3398 5.85999H31.4199C31.7962 5.83296 32.1713 5.92761 32.4898 6.12999C32.6163 6.24514 32.7138 6.38841 32.7746 6.54823C32.8354 6.70805 32.8578 6.87994 32.8398 7.04999C32.851 7.29023 32.8066 7.5298 32.7098 7.74999C32.6677 7.84031 32.6079 7.92132 32.5341 7.98828C32.4603 8.05524 32.3738 8.10682 32.2798 8.13999L32.9099 10.36H32.0898L31.5498 8.29999H31.1599V10.36H30.3398V5.85999ZM31.4199 7.78999C31.601 7.80354 31.7803 7.74617 31.9199 7.62999C32.0245 7.47395 32.0738 7.28734 32.0598 7.09999C32.0768 6.91693 32.0309 6.73355 31.9298 6.57999C31.8695 6.51834 31.7956 6.47174 31.7139 6.44394C31.6323 6.41615 31.5452 6.40794 31.4598 6.41999H31.1599V7.78999H31.4199Z" fill="white"/>
<path d="M16.47 13.2202H18.36V13.8002H17.29V15.1002H18.13V15.6702H17.29V17.1702H18.37V17.7302H16.47V13.2202Z" fill="white"/>
<path d="M20.5698 18.2902C20.4076 18.1398 20.2664 17.9683 20.1498 17.7802H20.0498C19.8652 17.7978 19.679 17.7726 19.5056 17.7067C19.3322 17.6409 19.1762 17.536 19.0498 17.4002C18.8277 17.0783 18.7219 16.6904 18.7498 16.3002V14.6202C18.7216 14.2363 18.8276 13.8546 19.0498 13.5402C19.3286 13.3022 19.6832 13.1714 20.0498 13.1714C20.4164 13.1714 20.771 13.3022 21.0498 13.5402C21.272 13.8546 21.3781 14.2363 21.3498 14.6202V16.3102C21.3498 17.0102 21.1398 17.4502 20.7298 17.6502C20.8526 17.8196 21.0051 17.9653 21.1798 18.0802L21.0198 18.6302C20.8537 18.54 20.702 18.4254 20.5698 18.2902ZM20.4298 17.0002C20.4967 16.8424 20.5275 16.6715 20.5198 16.5002V14.4302C20.5288 14.2621 20.498 14.0942 20.4298 13.9402C20.3874 13.8806 20.3298 13.8333 20.263 13.8034C20.1962 13.7735 20.1226 13.7621 20.0498 13.7702C19.9785 13.7617 19.9062 13.7731 19.8409 13.8031C19.7756 13.8331 19.7199 13.8806 19.6798 13.9402C19.6055 14.0925 19.5711 14.2611 19.5798 14.4302V16.5102C19.5735 16.6824 19.6078 16.8537 19.6798 17.0102C19.7199 17.0699 19.7756 17.1174 19.8409 17.1474C19.9062 17.1774 19.9785 17.1887 20.0498 17.1802C20.1235 17.1873 20.1978 17.1744 20.2647 17.1427C20.3316 17.111 20.3886 17.0618 20.4298 17.0002Z" fill="white"/>
<path d="M22.4 17.6102C22.2175 17.4877 22.0804 17.3085 22.01 17.1002C21.9302 16.831 21.8931 16.5509 21.9 16.2702V13.2702H22.7V16.4102C22.6919 16.6174 22.7224 16.8242 22.79 17.0202C22.8306 17.0842 22.8867 17.137 22.9531 17.1735C23.0196 17.21 23.0942 17.2292 23.17 17.2292C23.2458 17.2292 23.3204 17.21 23.3868 17.1735C23.4533 17.137 23.5094 17.0842 23.55 17.0202C23.6176 16.8242 23.6481 16.6174 23.64 16.4102V13.2202H24.44V16.2202C24.4454 16.5008 24.4083 16.7807 24.33 17.0502C24.2596 17.2585 24.1225 17.4377 23.94 17.5602C23.7005 17.6784 23.437 17.7399 23.17 17.7399C22.9029 17.7399 22.6395 17.6784 22.4 17.5602V17.6102Z" fill="white"/>
<path d="M25.7299 13.2202H26.6098L27.5099 17.7302H26.7498L26.5699 16.7302H25.7899L25.5999 17.7302H24.8298L25.7299 13.2202ZM26.4799 16.1602L26.1798 14.2702L25.8698 16.1602H26.4799Z" fill="white"/>
<path d="M27.9299 13.2202H28.7499V17.2202H29.8499V17.7802H27.9299V13.2202Z" fill="white"/>
<path d="M30.27 13.2202H31.08V17.7302H30.27V13.2202Z" fill="white"/>
<path d="M32.1899 13.8302H31.4399V13.2202H33.7499V13.8302H32.9999V17.7302H32.1799L32.1899 13.8302Z" fill="white"/>
<path d="M34.7098 16.0005L33.7998 13.2104H34.5698L35.1298 15.0005L35.6498 13.2104H36.3998L35.4998 16.0005V17.7205H34.7098V16.0005Z" fill="white"/>
<path d="M45.2998 23.8501H37.5798C37.5533 23.8501 37.5279 23.8606 37.5091 23.8794C37.4904 23.8981 37.4799 23.9236 37.4799 23.9501V26.5101C37.4799 26.5366 37.4904 26.5621 37.5091 26.5808C37.5279 26.5996 37.5533 26.6101 37.5798 26.6101H40.6598L37.2398 30.0001C36.0141 29.046 34.5851 28.3871 33.0636 28.0746C31.542 27.7622 29.969 27.8045 28.4664 28.1983C26.9639 28.5921 25.5723 29.3268 24.3997 30.3454C23.227 31.364 22.3049 32.6392 21.7047 34.0718C21.1046 35.5045 20.8427 37.0562 20.9392 38.6064C21.0358 40.1567 21.4883 41.6639 22.2615 43.011C23.0348 44.3581 24.1081 45.509 25.3981 46.3742C26.6881 47.2394 28.1601 47.7958 29.6999 48.0001V51.0001H26.6999C26.6733 51.0001 26.6479 51.0106 26.6291 51.0294C26.6104 51.0481 26.5998 51.0736 26.5998 51.1001V53.8501C26.5998 53.8766 26.6104 53.9021 26.6291 53.9208C26.6479 53.9396 26.6733 53.9501 26.6999 53.9501H29.6999V56.8601C29.7023 56.8849 29.714 56.9078 29.7324 56.9244C29.7509 56.9411 29.775 56.9502 29.7998 56.9501H32.5498C32.5747 56.9502 32.5988 56.9411 32.6172 56.9244C32.6357 56.9078 32.6473 56.8849 32.6498 56.8601V53.9501H35.6498C35.6764 53.9501 35.7018 53.9396 35.7205 53.9208C35.7393 53.9021 35.7498 53.8766 35.7498 53.8501V51.1001C35.7498 51.0736 35.7393 51.0481 35.7205 51.0294C35.7018 51.0106 35.6764 51.0001 35.6498 51.0001H32.6498V48.0001C34.3393 47.7217 35.9303 47.0189 37.2738 45.9574C38.6173 44.896 39.6692 43.5107 40.3308 41.9315C40.9925 40.3523 41.2422 38.6309 41.0567 36.9288C40.8711 35.2267 40.2563 33.5996 39.2698 32.2001L42.6399 28.8401V31.7101C42.6399 31.7366 42.6504 31.7621 42.6691 31.7808C42.6879 31.7996 42.7133 31.8101 42.7398 31.8101H45.2998C45.3264 31.8101 45.3518 31.7996 45.3705 31.7808C45.3893 31.7621 45.3998 31.7366 45.3998 31.7101V24.0001C45.4014 23.9866 45.4 23.9729 45.3955 23.96C45.391 23.9471 45.3837 23.9355 45.3741 23.9258C45.3645 23.9162 45.3528 23.9089 45.3399 23.9044C45.3271 23.9 45.3133 23.8985 45.2998 23.9001M30.9998 45.4201C29.5279 45.4181 28.0897 44.9796 26.8671 44.16C25.6444 43.3404 24.6924 42.1765 24.1314 40.8157C23.5704 39.4549 23.4257 37.9582 23.7155 36.5151C24.0053 35.072 24.7167 33.7473 25.7596 32.7086C26.8025 31.6699 28.1301 30.9639 29.5743 30.6799C31.0186 30.3959 32.5146 30.5467 33.8732 31.1132C35.2317 31.6796 36.3917 32.6364 37.2064 33.8623C38.0211 35.0882 38.4538 36.5282 38.4499 38.0001C38.4419 39.9708 37.6535 41.858 36.2572 43.2487C34.8609 44.6393 32.9705 45.4201 30.9998 45.4201Z" fill="white"/>
<path d="M35.55 34.9202H26.55C26.5261 34.9202 26.5032 34.9297 26.4863 34.9466C26.4694 34.9635 26.46 34.9864 26.46 35.0102V37.2002C26.46 37.2241 26.4694 37.247 26.4863 37.2639C26.5032 37.2807 26.5261 37.2902 26.55 37.2902H35.55C35.5626 37.2916 35.5754 37.2904 35.5875 37.2865C35.5996 37.2826 35.6107 37.2762 35.6202 37.2677C35.6296 37.2592 35.6372 37.2488 35.6423 37.2371C35.6474 37.2255 35.65 37.2129 35.65 37.2002V35.0002C35.65 34.9875 35.6474 34.9749 35.6423 34.9633C35.6372 34.9517 35.6296 34.9413 35.6202 34.9328C35.6107 34.9243 35.5996 34.9179 35.5875 34.914C35.5754 34.9101 35.5626 34.9088 35.55 34.9102" fill="white"/>
<path d="M35.55 38.8301H26.55C26.5261 38.8301 26.5032 38.8396 26.4863 38.8565C26.4694 38.8734 26.46 38.8963 26.46 38.9201V41.1001C26.46 41.124 26.4694 41.1469 26.4863 41.1638C26.5032 41.1807 26.5261 41.1901 26.55 41.1901H35.55C35.5626 41.1916 35.5754 41.1903 35.5875 41.1864C35.5996 41.1825 35.6107 41.1761 35.6202 41.1676C35.6296 41.1591 35.6372 41.1487 35.6423 41.1371C35.6474 41.1254 35.65 41.1129 35.65 41.1001V38.9201C35.65 38.9074 35.6474 38.8949 35.6423 38.8832C35.6372 38.8716 35.6296 38.8612 35.6202 38.8527C35.6107 38.8442 35.5996 38.8378 35.5875 38.8339C35.5754 38.83 35.5626 38.8287 35.55 38.8301Z" fill="white"/>
</svg>
