<svg viewBox="0 0 64 64" fill="none" xmlns="http://www.w3.org/2000/svg">
<!-- <path d="M61.6201 0.75H0.310059V62.06H61.6201V0.75Z" fill="#00ADD8"/> -->
<path d="M42.31 25.5102C42.2836 25.4843 42.2524 25.4639 42.218 25.4502C42.1837 25.4365 42.147 25.4297 42.11 25.4302H19.76C19.6861 25.433 19.6155 25.4612 19.56 25.5102C19.5188 25.5757 19.5012 25.6533 19.51 25.7302L23.26 48.4302C23.2697 48.492 23.3013 48.5483 23.349 48.5887C23.3968 48.6291 23.4575 48.6509 23.52 48.6502H28.13L28.44 52.3502H26.5L31.01 56.8602L35.54 52.3402H33.6L33.91 48.6502H38.6C38.6626 48.6509 38.7233 48.6291 38.7711 48.5887C38.8188 48.5483 38.8504 48.492 38.86 48.4302L42.37 25.7302C42.3754 25.6914 42.3729 25.6519 42.3626 25.6141C42.3522 25.5762 42.3344 25.5409 42.31 25.5102ZM33.68 43.6902C32.9202 44.2921 31.9794 44.6196 31.01 44.6196C30.0407 44.6196 29.0998 44.2921 28.34 43.6902C27.74 43.0503 27.3671 42.2308 27.2785 41.358C27.19 40.4853 27.3908 39.6076 27.85 38.8602C28.21 38.1902 30.78 34.3302 31 34.0002C31.21 34.3302 33.79 38.1902 34.15 38.8602C34.6119 39.6055 34.8161 40.4819 34.7311 41.3546C34.6462 42.2273 34.2769 43.0479 33.68 43.6902ZM40.76 30.2902C40.4172 30.1716 40.0542 30.122 39.6921 30.1444C39.3299 30.1667 38.9758 30.2604 38.65 30.4202C35.88 31.5402 33.99 31.9502 31.08 31.0302C29.24 30.4602 27.52 29.2602 25.49 30.0302C24.1865 30.5937 22.7892 30.9091 21.37 30.9602L20.48 26.4502H41.4L40.76 30.2902Z" fill="white"/>
<path d="M9.49002 18.3501C11.71 18.3501 12.57 17.1401 12.57 15.2201V13.3901C12.57 11.3901 11.76 10.3301 10.26 10.3301C9.90615 10.3053 9.55292 10.3873 9.24622 10.5656C8.93952 10.7439 8.6935 11.0103 8.54004 11.3301V8.66014C8.54004 7.91014 8.78004 7.38014 9.54004 7.38014C10.3 7.38014 10.54 7.82014 10.54 8.59014V9.41014H12.45V8.75014C12.45 6.92014 11.84 5.64014 9.53003 5.64014C7.22003 5.64014 6.53003 7.05014 6.53003 8.99014V15.0001C6.53003 16.9201 7.37003 18.3101 9.53003 18.3101M8.53003 13.0901C8.53003 12.4001 8.86003 11.9601 9.53003 11.9601C10.2 11.9601 10.53 12.4001 10.53 13.2001V15.4001C10.53 16.1901 10.24 16.6501 9.53003 16.6501C8.82003 16.6501 8.53003 16.1701 8.53003 15.4001V13.0901Z" fill="white"/>
<path d="M18.0001 9.76992V7.24992C17.9744 7.06867 17.9894 6.88398 18.0442 6.7093C18.0989 6.53462 18.192 6.37436 18.3166 6.24021C18.4411 6.10607 18.5941 6.00142 18.7642 5.9339C18.9344 5.86638 19.1174 5.83768 19.3001 5.84992C20.3001 5.84992 20.5401 6.38992 20.5401 7.14992V7.76992H19.7401V7.08992C19.7401 6.75992 19.6301 6.57992 19.3201 6.57992C19.0101 6.57992 18.8801 6.79992 18.8801 7.11992V9.89992C18.8801 10.2199 19.0101 10.4399 19.3201 10.4399C19.6301 10.4399 19.7401 10.2399 19.7401 9.92992V8.99992H20.5401V9.88992C20.5401 10.6299 20.2301 11.1899 19.3001 11.1899C19.1155 11.2027 18.9304 11.1737 18.7585 11.1051C18.5867 11.0365 18.4326 10.9299 18.3076 10.7934C18.1827 10.657 18.0901 10.494 18.0369 10.3168C17.9836 10.1396 17.9711 9.95267 18.0001 9.76992Z" fill="white"/>
<path d="M21.05 5.91016H21.9201V10.3902H23.0001V11.1002H21.08L21.05 5.91016Z" fill="white"/>
<path d="M23.3601 5.91016H25.4501V6.63016H24.2401V8.11016H25.1001V8.82016H24.2401V10.3902H25.4501V11.1002H23.3601V5.91016Z" fill="white"/>
<path d="M25.77 11.1002L26.77 5.91016H27.77L28.77 11.1002H27.87L27.71 10.1602H26.79L26.63 11.1002H25.77ZM26.87 9.46016H27.57L27.22 7.38016L26.87 9.46016Z" fill="white"/>
<path d="M29.8301 7.84016V11.1002H29.1001V5.91016H30.0001L30.9501 8.91016V5.91016H31.6701V11.1002H30.9101L29.8301 7.84016Z" fill="white"/>
<path d="M35.3201 7.90016L34.83 11.1002H34.0001L33.3 5.91016H34.1401L34.55 9.21016L34.9801 5.91016H35.7001L36.1801 9.21016L36.5701 5.91016H37.3101L36.6401 11.1002H35.8101L35.3 7.90016H35.3201Z" fill="white"/>
<path d="M37.27 11.1002L38.27 5.91016H39.27L40.27 11.1002H39.38L39.22 10.1602H38.29L38.14 11.1002H37.27ZM38.36 9.46016H39.06L38.72 7.38016L38.36 9.46016Z" fill="white"/>
<path d="M40.1101 5.91016H42.4301V6.63016H41.7101V11.1002H40.8301V6.63016H40.1101V5.91016Z" fill="white"/>
<path d="M42.8301 5.91016H44.9201V6.63016H43.7101V8.11016H44.5701V8.82016H43.7101V10.3902H44.9201V11.1002H42.8301V5.91016Z" fill="white"/>
<path d="M46.2601 8.72016V11.1002H45.3801V5.91016H46.6501C47.5301 5.91016 47.8601 6.35016 47.8601 7.08016V7.74016C47.8601 8.30016 47.6601 8.63016 47.1601 8.74016L48.0001 11.1002H47.0901L46.2601 8.72016ZM46.2601 6.63016V8.24016H46.5501C46.6085 8.24852 46.6681 8.24316 46.7241 8.2245C46.7801 8.20585 46.8309 8.17442 46.8727 8.13269C46.9144 8.09096 46.9458 8.04009 46.9645 7.98411C46.9831 7.92813 46.9885 7.86857 46.9801 7.81016V7.05016C46.9801 6.76016 46.8501 6.63016 46.5501 6.63016H46.2601Z" fill="white"/>
<path d="M17.9102 18.3802L18.9102 13.1802H19.9102L20.9102 18.3802H20.0002L19.8401 17.4302H18.9202L18.7602 18.3802H17.9102ZM19.0002 16.7302H19.7002L19.3502 14.6502L19.0002 16.7302Z" fill="white"/>
<path d="M22 15.1102V18.3802H21.27V13.1802H22.13L23.07 16.1802V13.1802H23.79V18.3802H23L22 15.1102Z" fill="white"/>
<path d="M26.86 14.5802V17.0002C26.86 17.8002 26.53 18.4002 25.6 18.4002H24.25V13.2002H25.6C26.53 13.1802 26.86 13.7802 26.86 14.5802ZM25.49 17.6602C25.5595 17.6689 25.6301 17.6613 25.6961 17.6379C25.7622 17.6146 25.8219 17.5761 25.8704 17.5256C25.919 17.4751 25.9551 17.414 25.9758 17.3471C25.9966 17.2801 26.0014 17.2093 25.99 17.1402V14.4202C26.0014 14.3511 25.9966 14.2802 25.9758 14.2133C25.9551 14.1464 25.919 14.0853 25.8704 14.0348C25.8219 13.9843 25.7622 13.9458 25.6961 13.9225C25.6301 13.8991 25.5595 13.8915 25.49 13.9002H25.12V17.6602H25.49Z" fill="white"/>
<path d="M28.63 17.2601V16.5601H29.44V17.2701C29.44 17.5601 29.57 17.7301 29.87 17.7301C30.17 17.7301 30.26 17.5501 30.26 17.2701V17.0701C30.2558 16.9265 30.2184 16.786 30.1507 16.6593C30.083 16.5327 29.987 16.4234 29.87 16.3401L29.36 15.8301C29.1385 15.6712 28.9571 15.4629 28.8304 15.2215C28.7037 14.9802 28.635 14.7126 28.63 14.4401V14.2601C28.6213 14.1002 28.6479 13.9404 28.708 13.792C28.768 13.6436 28.86 13.5102 28.9775 13.4014C29.0949 13.2926 29.2348 13.2109 29.3874 13.1623C29.5399 13.1137 29.7013 13.0993 29.86 13.1201C30.73 13.1201 31.08 13.5501 31.08 14.3001V14.7201H30.28V14.2701C30.28 13.9701 30.14 13.8301 29.87 13.8301C29.8128 13.8253 29.7552 13.8333 29.7014 13.8534C29.6476 13.8735 29.5989 13.9052 29.5588 13.9462C29.5187 13.9873 29.4882 14.0367 29.4693 14.091C29.4505 14.1452 29.4439 14.203 29.45 14.2601V14.3601C29.45 14.6501 29.61 14.8201 29.87 15.0701L30.43 15.6201C30.6413 15.7774 30.814 15.9807 30.9353 16.2146C31.0565 16.4484 31.1231 16.7067 31.13 16.9701V17.2201C31.1449 17.3884 31.1218 17.5579 31.0625 17.7161C31.0031 17.8743 30.9091 18.0172 30.7872 18.1342C30.6654 18.2513 30.5188 18.3395 30.3583 18.3925C30.1979 18.4454 30.0276 18.4617 29.86 18.4401C29.6973 18.4638 29.5314 18.45 29.3748 18.3999C29.2183 18.3497 29.0752 18.2645 28.9566 18.1507C28.838 18.0369 28.7469 17.8975 28.6903 17.7432C28.6337 17.5888 28.6131 17.4236 28.63 17.2601Z" fill="white"/>
<path d="M31.3701 18.3802L32.3701 13.1802H33.3701L34.3701 18.3802H33.4701L33.3101 17.4302H32.3801L32.2301 18.3802H31.3701ZM32.4701 16.7302H33.1701L32.8201 14.6502L32.4701 16.7302Z" fill="white"/>
<path d="M35.4302 15.1102V18.3802H34.7002V13.1802H35.5502L36.5002 16.1802V13.1802H37.2202V18.3802H36.4602L35.4302 15.1102Z" fill="white"/>
<path d="M37.72 13.1802H38.59V18.3802H37.72V13.1802Z" fill="white"/>
<path d="M39 13.1802H41.32V13.9002H40.6V18.3802H39.72V13.9002H39V13.1802Z" fill="white"/>
<path d="M41.2002 18.3802L42.2002 13.1802H43.2002L44.2002 18.3802H43.3002L43.1402 17.4302H42.2102L42.0602 18.3802H41.2002ZM42.3002 16.7302H43.0002L42.6602 14.6502L42.3002 16.7302Z" fill="white"/>
<path d="M44 13.1802H46.32V13.9002H45.6V18.3802H44.72V13.9002H44V13.1802Z" fill="white"/>
<path d="M46.77 13.1802H47.64V18.3802H46.77V13.1802Z" fill="white"/>
<path d="M48.1501 17V14.53C48.1501 14.1799 48.2892 13.8441 48.5368 13.5966C48.7843 13.349 49.1201 13.21 49.4702 13.21C49.8202 13.21 50.156 13.349 50.4035 13.5966C50.6511 13.8441 50.7902 14.1799 50.7902 14.53V17C50.7902 17.35 50.6511 17.6858 50.4035 17.9333C50.156 18.1809 49.8202 18.32 49.4702 18.32C49.1201 18.32 48.7843 18.1809 48.5368 17.9333C48.2892 17.6858 48.1501 17.35 48.1501 17ZM49.9202 17.13V14.39C49.9202 14.07 49.7801 13.85 49.4601 13.85C49.1401 13.85 49.0201 14.07 49.0201 14.39V17.17C49.0201 17.49 49.1601 17.71 49.4601 17.71C49.7601 17.71 49.9202 17.49 49.9202 17.17V17.13Z" fill="white"/>
<path d="M52 15.1102V18.3802H51.26V13.1802H52.12L53.06 16.1802V13.1802H53.79V18.3802H53.03L52 15.1102Z" fill="white"/>
</svg>
