<svg viewBox="0 0 64 64" fill="none" xmlns="http://www.w3.org/2000/svg">
<!-- <path d="M62.24 0.0898438H0.219971V62.1098H62.24V0.0898438Z" fill="#FDB714"/> -->
<path d="M8.53006 7.19998H5.31006V5.47998H10.7301V6.99998L8.23006 17.36H6.00006L8.53006 7.19998Z" fill="white"/>
<path d="M16.45 5.46973H17.33L18.23 9.98973H17.47L17.29 8.98973H16.5L16.32 9.98973H15.54L16.45 5.46973ZM17.2 8.41972L16.89 6.52972L16.59 8.41972H17.2Z" fill="white"/>
<path d="M18.5701 5.46973H20.4301V5.99973H19.4301V7.31973H20.2801V7.88972H19.4301V9.99973H18.6101L18.5701 5.46973Z" fill="white"/>
<path d="M20.77 5.46973H22.63V5.99973H21.63V7.31973H22.48V7.88972H21.63V9.99973H20.81L20.77 5.46973Z" fill="white"/>
<path d="M23.1899 9.67981C22.9678 9.35416 22.8621 8.96306 22.8899 8.56983V6.87982C22.8618 6.49283 22.9678 6.10793 23.1899 5.78981C23.3177 5.65647 23.4741 5.55389 23.6474 5.48979C23.8206 5.4257 24.0061 5.40177 24.1899 5.41982C24.3739 5.40025 24.5598 5.42348 24.7333 5.48766C24.9068 5.55184 25.063 5.65524 25.1899 5.78981C25.4156 6.10664 25.5251 6.49164 25.4999 6.87982V8.56983C25.5234 8.96094 25.4142 9.34851 25.1899 9.66982C25.065 9.80745 24.9093 9.91361 24.7355 9.97965C24.5617 10.0457 24.3748 10.0697 24.1899 10.0498C24.0061 10.0679 23.8206 10.0439 23.6474 9.97985C23.4741 9.91575 23.3177 9.81316 23.1899 9.67981ZM24.5599 9.26982C24.6359 9.1146 24.6704 8.94233 24.6599 8.76982V6.68982C24.6697 6.51839 24.6389 6.34707 24.5699 6.18982C24.5275 6.13014 24.4699 6.08289 24.4031 6.053C24.3363 6.0231 24.2627 6.01166 24.1899 6.01982C24.1186 6.01133 24.0463 6.02269 23.981 6.05269C23.9157 6.08269 23.86 6.13015 23.8199 6.18982C23.752 6.34739 23.7212 6.51846 23.7299 6.68982V8.76982C23.7201 8.94125 23.751 9.11257 23.8199 9.26982C23.8578 9.33218 23.9129 9.38231 23.9785 9.41423C24.0441 9.44615 24.1175 9.4585 24.1899 9.44982C24.2625 9.45981 24.3364 9.44803 24.4023 9.41599C24.4681 9.38394 24.523 9.33308 24.5599 9.26982Z" fill="white"/>
<path d="M26 5.46986H27.09C27.4664 5.44282 27.8415 5.53748 28.16 5.73986C28.286 5.8575 28.3831 6.00261 28.4438 6.16392C28.5045 6.32522 28.5271 6.49836 28.51 6.66985C28.5212 6.91009 28.4767 7.14966 28.38 7.36985C28.2918 7.55228 28.1383 7.69501 27.95 7.76986L28.58 9.98986H27.75L27.21 7.91985H26.82V9.99986H26V5.46986ZM27.08 7.40986C27.1699 7.41881 27.2606 7.40923 27.3466 7.38171C27.4326 7.35419 27.512 7.30931 27.58 7.24985C27.6928 7.09731 27.7461 6.90889 27.73 6.71986C27.7486 6.53667 27.7026 6.35274 27.6 6.19985C27.5397 6.13767 27.4661 6.09006 27.3846 6.0606C27.3032 6.03114 27.2161 6.02062 27.13 6.02985H26.82V7.40986H27.08Z" fill="white"/>
<path d="M29 5.47001H30.07C30.3642 5.45608 30.6579 5.50729 30.93 5.62001C31.1271 5.71064 31.2838 5.87091 31.37 6.07002C31.4688 6.32814 31.5131 6.60394 31.5 6.88002V8.52002C31.5114 8.80579 31.4673 9.09106 31.37 9.36001C31.288 9.56663 31.1308 9.73455 30.93 9.83001C30.6706 9.95037 30.3856 10.0053 30.1 9.99002H29V5.47001ZM30.08 9.42001C30.2207 9.43172 30.3613 9.39657 30.48 9.32002C30.5619 9.25611 30.6156 9.16286 30.63 9.06001C30.6435 8.89028 30.6435 8.71975 30.63 8.55002V6.82002C30.6431 6.66697 30.6431 6.51307 30.63 6.36001C30.6189 6.3121 30.5981 6.26696 30.5688 6.2274C30.5396 6.18784 30.5025 6.15471 30.46 6.13002C30.3383 6.07306 30.2039 6.04892 30.07 6.06001H29.82V9.42001H30.08Z" fill="white"/>
<path d="M32.62 5.46973H33.5L34.41 9.98973H33.64L33.47 8.98973H32.68L32.49 9.98973H31.72L32.62 5.46973ZM33.38 8.41972L33.07 6.52972L32.76 8.41972H33.38Z" fill="white"/>
<path d="M34.75 5.4696H35.87C36.2227 5.44553 36.5737 5.53678 36.87 5.7296C36.9932 5.83599 37.0886 5.97085 37.1478 6.12247C37.2071 6.27408 37.2284 6.43787 37.21 6.59961C37.21 7.16961 36.99 7.48961 36.56 7.59961C37.08 7.69961 37.34 8.0696 37.34 8.7196C37.3562 8.89921 37.3362 9.08023 37.2812 9.25198C37.2262 9.42374 37.1374 9.58274 37.02 9.7196C36.8947 9.83662 36.7464 9.92635 36.5846 9.98315C36.4228 10.04 36.251 10.0626 36.08 10.0496H34.75V5.4696ZM35.85 7.31961C35.9385 7.33176 36.0285 7.32366 36.1134 7.29594C36.1983 7.26823 36.2758 7.22162 36.34 7.15961C36.4411 7.00605 36.4869 6.82267 36.47 6.6396C36.4816 6.55336 36.4722 6.46559 36.4426 6.38376C36.4131 6.30192 36.3641 6.22845 36.3 6.1696C36.129 6.07586 35.9344 6.03415 35.74 6.04961H35.57V7.31961H35.85ZM35.85 9.40961C35.9407 9.41914 36.0323 9.40887 36.1187 9.37952C36.205 9.35017 36.2839 9.30244 36.35 9.23961C36.4526 9.06789 36.5014 8.86933 36.49 8.6696C36.5076 8.46168 36.4548 8.25387 36.34 8.07961C36.2731 8.01103 36.1916 7.95835 36.1016 7.92546C36.0116 7.89258 35.9154 7.88033 35.82 7.8896H35.53V9.40961H35.85Z" fill="white"/>
<path d="M37.75 5.46973H38.57V9.46973H39.67V9.99973H37.75V5.46973Z" fill="white"/>
<path d="M40 5.46973H41.89V6.04973H40.81V7.34973H41.65V7.92972H40.81V9.42972H41.89V9.99973H40V5.46973Z" fill="white"/>
<path d="M44.18 5.46973H45.06L46 9.99973H45.2L45 8.99973H44.21L44.02 9.99973H43.25L44.18 5.46973ZM44.94 8.41972L44.63 6.52972L44.32 8.41972H44.94Z" fill="white"/>
<path d="M46.3101 5.46973H46.8801L47.98 8.04973V5.46973H48.67V9.99973H48.12L47 7.28972V9.99973H46.3L46.3101 5.46973Z" fill="white"/>
<path d="M49.24 5.47001H50.31C50.6042 5.45608 50.8979 5.50729 51.17 5.62001C51.365 5.71362 51.5208 5.87296 51.61 6.07002C51.7088 6.32814 51.7531 6.60394 51.74 6.88002V8.52002C51.7514 8.80579 51.7073 9.09106 51.61 9.36001C51.528 9.56663 51.3708 9.73455 51.17 9.83001C50.9106 9.95037 50.6256 10.0053 50.34 9.99002H49.24V5.47001ZM50.32 9.42001C50.4577 9.43344 50.5957 9.39805 50.71 9.32002C50.7532 9.2901 50.7897 9.25154 50.8172 9.20678C50.8448 9.16203 50.8627 9.11206 50.87 9.06001C50.8835 8.89028 50.8835 8.71975 50.87 8.55002V6.82002C50.889 6.66728 50.889 6.51276 50.87 6.36001C50.8606 6.31272 50.8415 6.26788 50.814 6.2283C50.7865 6.18872 50.7511 6.15527 50.71 6.13002C50.5879 6.07435 50.4538 6.05027 50.32 6.06001H50.07V9.42001H50.32Z" fill="white"/>
<path d="M15.9999 17.0501C15.7898 16.7157 15.6885 16.3244 15.7099 15.9301V14.3201C15.6843 13.9222 15.7859 13.5265 15.9999 13.1901C16.265 12.9533 16.6055 12.8182 16.9608 12.8091C17.3161 12.7999 17.6631 12.9172 17.9399 13.1401C18.1527 13.4278 18.2523 13.7837 18.2199 14.1401V14.5201H17.4299V14.1301C17.4369 14.0035 17.4369 13.8767 17.4299 13.7501C17.4145 13.6658 17.3725 13.5887 17.3099 13.5301C17.2289 13.4631 17.1247 13.4308 17.0199 13.4401C16.9124 13.4332 16.8059 13.4651 16.7199 13.5301C16.6515 13.5978 16.6061 13.6852 16.5899 13.7801C16.5772 13.9131 16.5772 14.047 16.5899 14.1801V16.1801C16.5754 16.369 16.6098 16.5584 16.6899 16.7301C16.7299 16.7874 16.7841 16.8332 16.8473 16.8631C16.9104 16.8929 16.9803 16.9056 17.0499 16.9001C17.1544 16.9073 17.2579 16.8752 17.3399 16.8101C17.4041 16.7458 17.4431 16.6607 17.4499 16.5701C17.4626 16.4404 17.4626 16.3098 17.4499 16.1801V15.7701H18.2399V16.1401C18.2589 16.4937 18.1643 16.8441 17.9699 17.1401C17.8461 17.2782 17.6899 17.3834 17.5154 17.4463C17.3408 17.5091 17.1534 17.5276 16.9699 17.5001C16.7842 17.5067 16.5996 17.4695 16.431 17.3913C16.2625 17.3131 16.1148 17.1962 15.9999 17.0501Z" fill="white"/>
<path d="M18.6699 12.8599H19.4899V16.8099H20.5899V17.3799H18.6699V12.8599Z" fill="white"/>
<path d="M20.9099 12.8599H22.8099V13.4399H21.7299V14.7399H22.5799V15.3099H21.7299V16.8099H22.8199V17.3799H20.9099V12.8599Z" fill="white"/>
<path d="M23.87 12.8599H24.75L25.65 17.3799H24.89L24.71 16.3799H23.92L23.74 17.3799H23L23.87 12.8599ZM24.62 15.8099L24.31 13.9099L24 15.8099H24.62Z" fill="white"/>
<path d="M26 12.8599H26.58L27.68 15.4399V12.8599H28.36V17.3799H27.8L26.7 14.6799V17.3799H26V12.8599Z" fill="white"/>
<path d="M30.1699 12.8599H32.0599V13.4399H30.9999V14.7399H31.8499V15.3099H30.9999V16.8099H32.0899V17.3799H30.1699V12.8599Z" fill="white"/>
<path d="M32.4399 12.8599H32.9999L34.0999 15.4399V12.8599H34.7799V17.3799H34.2299L33.1299 14.6799V17.3799H32.4199L32.4399 12.8599Z" fill="white"/>
<path d="M35.3699 12.8599H37.2699V13.4399H36.1999V14.7399H36.9999V15.3099H36.1999V16.8099H37.2799V17.3799H35.3699V12.8599Z" fill="white"/>
<path d="M37.6499 12.86H38.7399C39.1163 12.833 39.4914 12.9276 39.8099 13.13C39.9359 13.2476 40.033 13.3927 40.0937 13.5541C40.1544 13.7154 40.1771 13.8885 40.1599 14.06C40.17 14.3001 40.1256 14.5395 40.0299 14.76C39.9877 14.8503 39.928 14.9313 39.8542 14.9983C39.7803 15.0652 39.6939 15.1168 39.5999 15.15L40.2299 17.38H39.4099L38.8599 15.31H38.4699V17.38H37.6499V12.86ZM38.7399 14.79C38.8283 14.8007 38.918 14.7919 39.0026 14.7643C39.0873 14.7366 39.1649 14.6908 39.2299 14.63C39.3444 14.4783 39.3979 14.2892 39.3799 14.1C39.3968 13.9169 39.351 13.7336 39.2499 13.58C39.1887 13.5196 39.1146 13.4738 39.0332 13.4461C38.9518 13.4184 38.8652 13.4095 38.7799 13.42H38.4699V14.79H38.7399Z" fill="white"/>
<path d="M40.8799 16.9997C40.6727 16.6534 40.5751 16.2525 40.5999 15.8497V14.3297C40.574 13.9192 40.6752 13.5106 40.8899 13.1597C41.0134 13.0196 41.1686 12.9111 41.3426 12.8433C41.5165 12.7754 41.7042 12.7502 41.8899 12.7697C42.0707 12.7458 42.2546 12.7631 42.4277 12.8202C42.6009 12.8774 42.7589 12.9729 42.8899 13.0997C43.1054 13.3865 43.2085 13.7422 43.1799 14.0997V14.3397H42.3899V14.0797C42.4023 13.95 42.4023 13.8194 42.3899 13.6897C42.384 13.6462 42.3694 13.6044 42.3471 13.5666C42.3248 13.5288 42.2951 13.4959 42.2599 13.4697C42.175 13.4113 42.0728 13.3831 41.9699 13.3897C41.9142 13.3843 41.8579 13.3904 41.8046 13.4076C41.7513 13.4248 41.702 13.4528 41.6599 13.4897C41.5932 13.5626 41.5482 13.6526 41.5299 13.7497C41.5176 13.8828 41.5176 14.0167 41.5299 14.1497V16.0497C41.5229 16.2446 41.557 16.4388 41.6299 16.6197C41.6698 16.6855 41.7278 16.7385 41.7969 16.7722C41.8661 16.8059 41.9435 16.8189 42.0199 16.8097C42.0972 16.8167 42.1749 16.8016 42.2439 16.7662C42.3129 16.7308 42.3705 16.6765 42.4099 16.6097C42.4926 16.4209 42.5302 16.2155 42.5199 16.0097V15.5797H42.0299V15.0597H43.2599V17.3597H42.7299L42.6699 16.9197C42.6128 17.073 42.5083 17.204 42.3717 17.2939C42.235 17.3838 42.0733 17.4279 41.9099 17.4197C41.7161 17.4532 41.5169 17.4316 41.3348 17.3573C41.1527 17.283 40.9951 17.1592 40.8799 16.9997Z" fill="white"/>
<path d="M44.2799 15.6499L43.3599 12.8599H44.1299L44.6899 14.6499L45.2199 12.8599H45.9999L45.0899 15.6499V17.3799H44.3099L44.2799 15.6499Z" fill="white"/>
<path d="M31.2599 30.2998C29.4541 30.2998 27.689 30.8353 26.1875 31.8385C24.6861 32.8417 23.5159 34.2676 22.8249 35.9359C22.1338 37.6042 21.953 39.4399 22.3053 41.211C22.6576 42.982 23.5271 44.6088 24.804 45.8857C26.0809 47.1625 27.7077 48.0321 29.4787 48.3844C31.2498 48.7367 33.0855 48.5559 34.7538 47.8648C36.4221 47.1738 37.848 46.0036 38.8512 44.5022C39.8544 43.0007 40.3899 41.2355 40.3899 39.4298C40.3899 37.0084 39.428 34.6861 37.7158 32.9739C36.0036 31.2617 33.6813 30.2998 31.2599 30.2998ZM30.5799 33.9098C30.5924 33.7373 30.6692 33.5758 30.7952 33.4573C30.9211 33.3388 31.087 33.2719 31.2599 33.2698C31.4321 33.2741 31.5967 33.3418 31.7222 33.4598C31.8477 33.5779 31.9252 33.7381 31.9399 33.9098V36.9998C31.9252 37.1715 31.8477 37.3317 31.7222 37.4498C31.5967 37.5678 31.4321 37.6355 31.2599 37.6398C31.0876 37.6355 30.923 37.5678 30.7976 37.4498C30.6721 37.3317 30.5946 37.1715 30.5799 36.9998V33.9098ZM31.2599 44.1098C30.1213 44.113 29.0195 43.7071 28.1551 42.9661C27.2907 42.2251 26.7212 41.1983 26.5504 40.0726C26.3795 38.9469 26.6187 37.7973 27.2243 36.8332C27.8299 35.8691 28.7617 35.1546 29.8499 34.8198V36.5898C29.2232 36.9059 28.7214 37.4241 28.4255 38.0606C28.1297 38.6971 28.0571 39.4148 28.2196 40.0977C28.3821 40.7805 28.77 41.3886 29.3208 41.8237C29.8716 42.2589 30.553 42.4955 31.2549 42.4955C31.9568 42.4955 32.6382 42.2589 33.189 41.8237C33.7398 41.3886 34.1277 40.7805 34.2902 40.0977C34.4526 39.4148 34.3801 38.6971 34.0842 38.0606C33.7884 37.4241 33.2866 36.9059 32.6599 36.5898V34.8198C33.7473 35.1543 34.6785 35.868 35.2841 36.8311C35.8898 37.7942 36.1296 38.9426 35.9601 40.0676C35.7906 41.1926 35.2229 42.2194 34.3603 42.9612C33.4977 43.703 32.3976 44.1106 31.2599 44.1098Z" fill="white"/>
<path d="M20.7699 39.3496C20.768 39.1598 20.6951 38.9775 20.5655 38.8387C20.436 38.6999 20.2591 38.6146 20.0699 38.5996H16.0699C15.8814 38.6168 15.7059 38.7027 15.5768 38.841C15.4477 38.9794 15.374 39.1604 15.3699 39.3496C15.3718 39.5395 15.4447 39.7217 15.5742 39.8605C15.7038 39.9993 15.8806 40.0846 16.0699 40.0996H20.0699C20.26 40.0869 20.4382 40.0023 20.5682 39.863C20.6982 39.7237 20.7703 39.5402 20.7699 39.3496Z" fill="white"/>
<path d="M47.15 39.3496C47.1458 39.1604 47.0722 38.9794 46.943 38.841C46.8139 38.7027 46.6384 38.6168 46.45 38.5996H42.45C42.251 38.5996 42.0603 38.6786 41.9196 38.8193C41.779 38.9599 41.7 39.1507 41.7 39.3496C41.7 39.5485 41.779 39.7393 41.9196 39.8799C42.0603 40.0206 42.251 40.0996 42.45 40.0996H46.45C46.6392 40.0846 46.816 39.9993 46.9456 39.8605C47.0751 39.7217 47.148 39.5395 47.15 39.3496Z" fill="white"/>
<path d="M31.26 55.2399C31.4499 55.2379 31.6321 55.165 31.7709 55.0355C31.9097 54.9059 31.995 54.7291 32.01 54.5398V50.5398C31.9929 50.3514 31.9069 50.1759 31.7686 50.0468C31.6302 49.9176 31.4492 49.844 31.26 49.8398C31.0702 49.8418 30.8879 49.9147 30.7491 50.0442C30.6103 50.1738 30.525 50.3506 30.51 50.5398V54.5398C30.5227 54.73 30.6073 54.9081 30.7466 55.0381C30.8859 55.1682 31.0695 55.2403 31.26 55.2399Z" fill="white"/>
<path d="M45.0499 47.2399C45.1449 47.0741 45.1729 46.8782 45.1283 46.6923C45.0837 46.5065 44.9698 46.3447 44.8099 46.2399L41.3399 44.2399C41.1689 44.1588 40.9736 44.1453 40.793 44.2021C40.6125 44.259 40.4601 44.382 40.3665 44.5465C40.2729 44.7109 40.2449 44.9048 40.2882 45.089C40.3315 45.2733 40.4428 45.4343 40.5999 45.5399L44.0699 47.5399C44.245 47.6238 44.4453 47.6385 44.6307 47.581C44.8161 47.5235 44.973 47.3981 45.0699 47.2299" fill="white"/>
<path d="M23.3699 53.1399C23.5346 53.2358 23.7297 53.2654 23.9154 53.2227C24.1012 53.1799 24.2637 53.0681 24.3699 52.9099L26.3699 49.4399C26.4694 49.2675 26.4963 49.0626 26.4447 48.8704C26.3932 48.6782 26.2673 48.5143 26.0949 48.4149C25.9226 48.3154 25.7177 48.2885 25.5255 48.3401C25.3333 48.3917 25.1694 48.5175 25.0699 48.6899L23.0699 52.1599C22.9836 52.3345 22.9676 52.5357 23.0253 52.7218C23.083 52.9079 23.2099 53.0647 23.3799 53.1599" fill="white"/>
<path d="M39.18 53.1298C39.3482 53.0329 39.4731 52.8754 39.5289 52.6894C39.5846 52.5035 39.5672 52.3032 39.48 52.1298L37.48 48.6598C37.3707 48.5053 37.2091 48.3958 37.0251 48.3516C36.8412 48.3075 36.6474 48.3317 36.48 48.4198C36.3152 48.5199 36.194 48.6782 36.1403 48.8633C36.0866 49.0485 36.1044 49.247 36.19 49.4198L38.19 52.8798C38.2978 53.036 38.4595 53.1469 38.644 53.1912C38.8286 53.2355 39.023 53.21 39.19 53.1198" fill="white"/>
<path d="M17.4799 47.2798C17.5784 47.4464 17.7366 47.5691 17.9224 47.623C18.1082 47.6769 18.3076 47.6579 18.4799 47.5699L21.9499 45.5699C22.1223 45.4704 22.2481 45.3065 22.2997 45.1143C22.3513 44.9221 22.3244 44.7172 22.2249 44.5448C22.1254 44.3725 21.9616 44.2466 21.7694 44.1951C21.5771 44.1435 21.3723 44.1704 21.1999 44.2699L17.7399 46.2699C17.5871 46.3804 17.4789 46.542 17.4349 46.7254C17.3909 46.9089 17.4139 47.102 17.4999 47.2699" fill="white"/>
<path d="M31.26 28.8699C31.4492 28.8658 31.6302 28.7921 31.7686 28.663C31.9069 28.5339 31.9929 28.3584 32.01 28.1699V24.1699C32.01 23.971 31.931 23.7802 31.7903 23.6396C31.6497 23.4989 31.4589 23.4199 31.26 23.4199C31.0611 23.4199 30.8703 23.4989 30.7297 23.6396C30.589 23.7802 30.51 23.971 30.51 24.1699V28.1699C30.525 28.3592 30.6103 28.536 30.7491 28.6656C30.8879 28.7951 31.0702 28.868 31.26 28.8699Z" fill="white"/>
<path d="M22.16 34.1398C22.2526 33.9734 22.2793 33.7783 22.2349 33.5931C22.1904 33.4079 22.0781 33.2461 21.92 33.1398L18.45 31.1398C18.279 31.0587 18.0837 31.0452 17.9032 31.102C17.7226 31.1589 17.5703 31.2819 17.4766 31.4464C17.383 31.6108 17.355 31.8047 17.3983 31.9889C17.4416 32.1732 17.5529 32.3343 17.71 32.4398L21.18 34.4398C21.3551 34.5237 21.5554 34.5384 21.7408 34.4809C21.9263 34.4235 22.0831 34.2981 22.18 34.1298" fill="white"/>
<path d="M36.4699 30.2497C36.634 30.3481 36.8298 30.3791 37.0162 30.3362C37.2027 30.2933 37.3652 30.1799 37.4699 30.0197L39.4699 26.5497C39.5191 26.4644 39.5511 26.3701 39.5639 26.2724C39.5767 26.1747 39.5702 26.0755 39.5447 25.9803C39.5191 25.8851 39.4751 25.7959 39.4151 25.7177C39.3551 25.6396 39.2802 25.574 39.1949 25.5247C39.1095 25.4755 39.0153 25.4435 38.9176 25.4307C38.8199 25.4179 38.7206 25.4244 38.6254 25.4499C38.5302 25.4755 38.441 25.5195 38.3629 25.5795C38.2847 25.6396 38.2191 25.7144 38.1699 25.7997L36.1699 29.2697C36.086 29.4448 36.0713 29.6451 36.1288 29.8305C36.1863 30.016 36.3117 30.1728 36.4799 30.2697" fill="white"/>
<path d="M25.9999 30.2599C26.1682 30.163 26.293 30.0055 26.3488 29.8195C26.4046 29.6336 26.3871 29.4333 26.2999 29.2599L24.2999 25.7999C24.1944 25.6428 24.0333 25.5314 23.849 25.4881C23.6648 25.4449 23.471 25.4728 23.3065 25.5665C23.142 25.6601 23.019 25.8125 22.9621 25.993C22.9053 26.1735 22.9188 26.3689 22.9999 26.5399L24.9999 29.9999C25.1078 30.1562 25.2702 30.2665 25.4553 30.3091C25.6404 30.3517 25.8347 30.3234 25.9999 30.2299" fill="white"/>
<path d="M40.3501 34.1301C40.4486 34.2966 40.6062 34.4198 40.7915 34.4754C40.9767 34.531 41.1762 34.5148 41.3501 34.4301L44.8101 32.4301C44.9671 32.3245 45.0785 32.1634 45.1218 31.9791C45.1651 31.7949 45.1371 31.6011 45.0435 31.4366C44.9498 31.2721 44.7975 31.1491 44.6169 31.0922C44.4364 31.0354 44.241 31.0489 44.0701 31.1301L40.6001 33.1301C40.4437 33.2379 40.3334 33.4003 40.2908 33.5854C40.2483 33.7705 40.2765 33.9648 40.3701 34.1301" fill="white"/>
</svg>
