<svg viewBox="0 0 64 64" fill="none" xmlns="http://www.w3.org/2000/svg">
<!-- <path d="M62.75 0.97998H0.52002V63.21H62.75V0.97998Z" fill="#8F1838"/> -->
<path d="M5.38996 16.1099C5.37635 15.5144 5.49593 14.9234 5.73996 14.38C5.94723 13.921 6.29824 13.5419 6.73996 13.3C6.37046 13.0201 6.07235 12.6569 5.86996 12.24C5.62947 11.7347 5.51291 11.1793 5.52996 10.6199C5.47912 9.78856 5.75548 8.97027 6.29996 8.33994C6.59707 8.06041 6.94806 7.8444 7.33149 7.70513C7.71491 7.56586 8.12271 7.50625 8.52996 7.52995C8.93393 7.49977 9.33971 7.55545 9.72061 7.69334C10.1015 7.83122 10.4489 8.04819 10.74 8.32995C11.2792 8.94746 11.5556 9.7514 11.51 10.57C11.5291 11.1445 11.4162 11.7158 11.18 12.24C10.99 12.6618 10.6936 13.0271 10.32 13.3C10.7695 13.5459 11.1221 13.9373 11.32 14.41C11.5632 14.9783 11.6825 15.5919 11.67 16.21C11.7297 17.1328 11.4604 18.0469 10.91 18.7899C10.6009 19.1143 10.2231 19.3652 9.80431 19.5244C9.38554 19.6836 8.93643 19.747 8.48996 19.71C6.42329 19.71 5.38996 18.5099 5.38996 16.1099ZM9.38996 17.5099C9.53284 17.0884 9.60053 16.645 9.58996 16.1999C9.60578 15.7284 9.53807 15.2579 9.38996 14.8099C9.33873 14.6493 9.23488 14.5107 9.09518 14.4163C8.95548 14.322 8.78807 14.2775 8.61996 14.2899C8.45218 14.2792 8.28557 14.3245 8.14624 14.4186C8.00691 14.5127 7.90271 14.6503 7.84996 14.8099C7.70286 15.2581 7.63518 15.7285 7.64996 16.1999C7.63939 16.645 7.70708 17.0884 7.84996 17.5099C7.91177 17.6636 8.01813 17.7952 8.15535 17.8879C8.29256 17.9806 8.45437 18.0301 8.61996 18.0301C8.78555 18.0301 8.94736 17.9806 9.08458 17.8879C9.22179 17.7952 9.32814 17.6636 9.38996 17.5099ZM9.45996 10.6199C9.47378 10.2744 9.40162 9.93077 9.24996 9.61994C9.19246 9.50285 9.10249 9.40476 8.99079 9.33738C8.87909 9.27 8.75036 9.23619 8.61996 9.23995C8.48835 9.2367 8.35847 9.27062 8.24527 9.33784C8.13206 9.40505 8.04011 9.50283 7.97996 9.61994C7.8211 9.92854 7.74528 10.2732 7.75996 10.6199C7.75996 11.8399 8.03996 12.4499 8.61996 12.4499C9.19996 12.4499 9.40996 11.8399 9.40996 10.6199H9.45996Z" fill="white"/>
<path d="M16.21 7.65996H17.28C17.5742 7.64602 17.8678 7.69723 18.14 7.80995C18.24 7.8539 18.3303 7.91715 18.4058 7.99609C18.4813 8.07503 18.5405 8.1681 18.58 8.26996C18.6809 8.52424 18.7285 8.79652 18.72 9.06996V10.7299C18.7287 11.0132 18.6811 11.2953 18.58 11.5599C18.4983 11.7693 18.3414 11.9405 18.14 12.0399C17.8805 12.1603 17.5955 12.2152 17.31 12.1999H16.21V7.65996ZM17.29 11.66C17.4292 11.6694 17.5682 11.6381 17.69 11.57C17.7717 11.5016 17.8251 11.4054 17.84 11.3C17.855 11.1303 17.855 10.9596 17.84 10.7899V8.99995C17.8545 8.84696 17.8545 8.69293 17.84 8.53995C17.83 8.49156 17.8097 8.44592 17.7803 8.4062C17.751 8.36648 17.7133 8.33364 17.67 8.30995C17.5494 8.2491 17.4148 8.22149 17.28 8.22995H17V11.6L17.29 11.66Z" fill="white"/>
<path d="M19.1799 7.66016H21.0799V8.25015H19.9999V9.55016H20.8599V10.1302H19.9999V11.6302H21.0999V12.2001H19.1799V7.66016Z" fill="white"/>
<path d="M21.6501 11.8698C21.44 11.5354 21.3386 11.1441 21.3601 10.7498V9.12978C21.3345 8.73189 21.436 8.33616 21.6501 7.99977C21.9148 7.75841 22.2576 7.62051 22.6158 7.61133C22.9739 7.60215 23.3233 7.72229 23.6001 7.94977C23.8128 8.23752 23.9125 8.59339 23.8801 8.94977V9.32977H23.0801V8.93978C23.0921 8.8134 23.0921 8.68615 23.0801 8.55977C23.071 8.47272 23.0321 8.39149 22.9701 8.32977C22.8851 8.27136 22.783 8.24318 22.6801 8.24977C22.5721 8.23889 22.4642 8.27125 22.3801 8.33977C22.3085 8.4065 22.2596 8.4939 22.2401 8.58977C22.2274 8.7228 22.2274 8.85675 22.2401 8.98978V10.9898C22.2296 11.1817 22.2638 11.3734 22.3401 11.5498C22.3809 11.6086 22.4367 11.6555 22.5018 11.6854C22.5669 11.7153 22.6388 11.7272 22.7101 11.7198C22.7604 11.7241 22.8111 11.7184 22.8591 11.703C22.9072 11.6875 22.9517 11.6626 22.9901 11.6298C23.053 11.5635 23.0948 11.4799 23.1101 11.3898C23.1217 11.26 23.1217 11.1295 23.1101 10.9998V10.5898H23.9101V10.9498C23.9283 11.3033 23.8338 11.6535 23.6401 11.9498C23.5147 12.0858 23.3583 12.1896 23.1842 12.2522C23.0101 12.3149 22.8234 12.3346 22.6401 12.3098C22.4519 12.3208 22.2638 12.2867 22.0916 12.2101C21.9194 12.1335 21.768 12.0168 21.6501 11.8698Z" fill="white"/>
<path d="M24.3101 7.66016H26.2201V8.25015H25.1301V9.55016H26.0001V10.1302H25.1401V11.6302H26.2401V12.2001H24.3201L24.3101 7.66016Z" fill="white"/>
<path d="M26.5601 7.66016H27.1401L28.2401 10.2502V7.66016H28.9301V12.2001H28.3801L27.2701 9.49016V12.2001H26.5601V7.66016Z" fill="white"/>
<path d="M29.9099 8.27016H29.1599V7.66016H31.4799V8.27016H30.7399V12.2001H29.9099V8.27016Z" fill="white"/>
<path d="M32.75 7.66016H33.44L33.82 10.6002L34.29 7.67015H34.85L35.33 10.6002L35.7 7.66016H36.39L35.75 12.2001H35.08L34.58 9.20015L34.08 12.2001H33.39L32.75 7.66016Z" fill="white"/>
<path d="M37 11.8799C36.7793 11.5574 36.6736 11.1699 36.7 10.7799V9.06994C36.6781 8.68982 36.7837 8.31325 37 7.99993C37.1299 7.86946 37.2866 7.76879 37.4593 7.7049C37.632 7.64101 37.8165 7.61544 38 7.62993C38.1838 7.61262 38.3691 7.63688 38.5422 7.70093C38.7153 7.76498 38.8718 7.86718 39 7.99993C39.2288 8.31527 39.3386 8.70139 39.31 9.08993V10.7999C39.3335 11.191 39.2243 11.5786 39 11.8999C38.7231 12.1419 38.3678 12.2752 38 12.2752C37.6323 12.2752 37.277 12.1419 37 11.8999V11.8799ZM38.38 11.4799C38.4518 11.3198 38.486 11.1453 38.48 10.9699V8.87993C38.4926 8.7105 38.458 8.5409 38.38 8.38993C38.32 8.26993 38.2 8.21993 38.01 8.21993C37.82 8.21993 37.7 8.26993 37.64 8.38993C37.563 8.54124 37.5285 8.71057 37.54 8.87993V10.9999C37.5278 11.1758 37.5623 11.3517 37.64 11.5099C37.6792 11.5704 37.7348 11.6186 37.8003 11.6487C37.8658 11.6788 37.9386 11.6896 38.01 11.6799C38.0776 11.6781 38.1436 11.6587 38.2015 11.6236C38.2593 11.5885 38.3071 11.539 38.34 11.4799H38.38Z" fill="white"/>
<path d="M39.74 7.65974H40.83C41.2065 7.63126 41.5821 7.72602 41.9 7.92973C42.0292 8.04746 42.129 8.1938 42.1915 8.35703C42.2541 8.52025 42.2775 8.69583 42.26 8.86974C42.2651 9.10951 42.2208 9.34779 42.13 9.56975C42.0878 9.66007 42.0281 9.74107 41.9543 9.80803C41.8804 9.87499 41.794 9.92658 41.7 9.95975L42.33 12.1997H41.5L40.96 10.1197H40.56V12.1997H39.74V7.65974ZM40.83 9.65974C40.9205 9.66736 41.0117 9.65619 41.0977 9.62694C41.1838 9.59769 41.2628 9.55098 41.33 9.48975C41.4454 9.3385 41.499 9.14904 41.48 8.95975C41.4918 8.77711 41.4463 8.59534 41.35 8.43974C41.2869 8.37915 41.211 8.33335 41.128 8.30568C41.045 8.27801 40.9569 8.26914 40.87 8.27974H40.56V9.65974H40.83Z" fill="white"/>
<path d="M42.74 7.66016H43.56V9.66016L44.46 7.66016H45.25L44.38 9.66016L45.38 12.1801H44.56L43.8 10.1201L43.6 10.4602V12.1801H42.78L42.74 7.66016Z" fill="white"/>
<path d="M47.4701 7.66016H48.3501L49.2601 12.2001H48.4901L48.3101 11.2001H47.5201L47.3401 12.2001H46.5601L47.4701 7.66016ZM48.2201 10.6602L47.9101 8.75015L47.6101 10.6602H48.2201Z" fill="white"/>
<path d="M49.5701 7.66016H50.1401L51.2501 10.2502V7.66016H51.9301V12.2001H51.3801L50.2701 9.49016V12.2001H49.5701V7.66016Z" fill="white"/>
<path d="M52.47 7.65996H53.54C53.8342 7.64602 54.1278 7.69723 54.4 7.80995C54.6027 7.90097 54.7634 8.06531 54.85 8.26996C54.9475 8.52496 54.9917 8.79721 54.98 9.06996V10.7299C54.9914 11.0125 54.9472 11.2945 54.85 11.5599C54.7659 11.7677 54.6097 11.9382 54.41 12.0399C54.1502 12.1591 53.8655 12.214 53.58 12.1999H52.47V7.65996ZM53.55 11.66C53.6894 11.6725 53.8293 11.641 53.95 11.57C54.0347 11.5027 54.0916 11.4066 54.11 11.3C54.1238 11.1302 54.1238 10.9597 54.11 10.7899V8.99995C54.1295 8.84724 54.1295 8.69265 54.11 8.53995C54.1018 8.49222 54.0832 8.44688 54.0556 8.40713C54.0279 8.36738 53.9919 8.3342 53.95 8.30995C53.8254 8.25042 53.6879 8.22292 53.55 8.22995H53.31V11.6L53.55 11.66Z" fill="white"/>
<path d="M16.21 15.0698H18.11V15.6598H17V16.9998H17.85V17.5798H17V18.9998H18.09V19.5698H16.21V15.0698Z" fill="white"/>
<path d="M18.7099 19.2801C18.4998 18.9458 18.3985 18.5545 18.4199 18.1601V16.5401C18.3943 16.1422 18.4959 15.7465 18.7099 15.4101C18.8334 15.27 18.9886 15.1615 19.1625 15.0937C19.3365 15.0258 19.5242 15.0006 19.7099 15.0201C19.8915 14.996 20.0762 15.0141 20.2497 15.0731C20.4231 15.1321 20.5806 15.2303 20.7099 15.3601C20.9226 15.6479 21.0223 16.0037 20.9899 16.3601V16.7401H20.1899V16.3501C20.202 16.2238 20.202 16.0965 20.1899 15.9701C20.1808 15.8831 20.142 15.8018 20.0799 15.7401C19.9949 15.6817 19.8928 15.6535 19.7899 15.6601C19.6868 15.6487 19.5833 15.6777 19.5012 15.7412C19.4191 15.8046 19.3648 15.8975 19.3499 16.0001C19.3372 16.1332 19.3372 16.2671 19.3499 16.4001V18.4001C19.3394 18.592 19.3736 18.7837 19.4499 18.9601C19.4907 19.019 19.5466 19.0658 19.6116 19.0957C19.6767 19.1256 19.7487 19.1375 19.8199 19.1301C19.8915 19.1057 19.9542 19.0604 19.9999 19.0001C20.0629 18.9338 20.1046 18.8503 20.1199 18.7601C20.1316 18.6304 20.1316 18.4999 20.1199 18.3701V17.9601H20.9199V18.3201C20.9396 18.6752 20.8411 19.0269 20.6399 19.3201C20.5161 19.4583 20.3599 19.5635 20.1853 19.6263C20.0108 19.6891 19.8234 19.7076 19.6399 19.6801C19.4649 19.6866 19.2907 19.6541 19.1298 19.5849C18.969 19.5158 18.8255 19.4116 18.7099 19.2801Z" fill="white"/>
<path d="M21.6299 19.2901C21.4092 18.9675 21.3035 18.58 21.3299 18.1901V16.4801C21.3034 16.0932 21.4092 15.7089 21.6299 15.3901C21.7598 15.2596 21.9165 15.1589 22.0892 15.095C22.2619 15.0311 22.4464 15.0056 22.6299 15.0201C22.8137 15.0028 22.999 15.027 23.1721 15.0911C23.3452 15.1551 23.5017 15.2573 23.6299 15.3901C23.8587 15.7054 23.9685 16.0915 23.9399 16.4801V18.1901C23.9683 18.5817 23.8586 18.9709 23.6299 19.2901C23.353 19.532 22.9977 19.6653 22.6299 19.6653C22.2622 19.6653 21.9069 19.532 21.6299 19.2901ZM23.0099 18.8901C23.0876 18.7319 23.1221 18.5559 23.1099 18.3801V16.2901C23.1225 16.1206 23.0879 15.951 23.0099 15.8001C22.9499 15.6801 22.8299 15.6301 22.6399 15.6301C22.5686 15.6216 22.4963 15.6329 22.431 15.6629C22.3657 15.6929 22.3099 15.7404 22.2699 15.8001C22.1929 15.9514 22.1584 16.1207 22.1699 16.2901V18.3801C22.1577 18.5559 22.1922 18.7319 22.2699 18.8901C22.3099 18.9497 22.3657 18.9972 22.431 19.0272C22.4963 19.0572 22.5686 19.0686 22.6399 19.0601C22.7098 19.0678 22.7804 19.056 22.844 19.026C22.9075 18.996 22.9615 18.9489 22.9999 18.8901H23.0099Z" fill="white"/>
<path d="M24.4499 15.0698H24.9999L26.1099 17.6598V15.0698H26.7899V19.6098H26.2399L25.1299 16.8998V19.6098H24.4299L24.4499 15.0698Z" fill="white"/>
<path d="M27.6201 19.2901C27.3914 18.9709 27.2817 18.5817 27.3101 18.1901V16.4801C27.2815 16.0915 27.3913 15.7054 27.6201 15.3901C27.7484 15.2573 27.9048 15.1551 28.0779 15.0911C28.251 15.027 28.4364 15.0028 28.6201 15.0201C28.8037 15.0056 28.9882 15.0311 29.1608 15.095C29.3335 15.1589 29.4902 15.2596 29.6201 15.3901C29.8408 15.7089 29.9466 16.0932 29.9201 16.4801V18.1901C29.9485 18.5817 29.8388 18.9709 29.6101 19.2901C29.4837 19.4258 29.3278 19.5307 29.1544 19.5966C28.981 19.6625 28.7948 19.6876 28.6101 19.6701C28.4269 19.6884 28.2419 19.6635 28.07 19.5975C27.8981 19.5316 27.744 19.4263 27.6201 19.2901ZM28.9901 18.8901C29.0678 18.7319 29.1023 18.5559 29.0901 18.3801V16.2901C29.1019 16.1217 29.071 15.9532 29.0001 15.8001C28.9532 15.7469 28.8955 15.7043 28.8308 15.6751C28.7662 15.6459 28.6961 15.6308 28.6251 15.6308C28.5542 15.6308 28.4841 15.6459 28.4194 15.6751C28.3547 15.7043 28.297 15.7469 28.2501 15.8001C28.1782 15.9531 28.1439 16.1211 28.1501 16.2901V18.3801C28.1441 18.5555 28.1783 18.7299 28.2501 18.8901C28.2901 18.9497 28.3459 18.9972 28.4112 19.0272C28.4765 19.0572 28.5488 19.0686 28.6201 19.0601C28.6931 19.0718 28.768 19.0619 28.8355 19.0317C28.903 19.0015 28.9602 18.9523 29.0001 18.8901H28.9901Z" fill="white"/>
<path d="M30.49 15.0698H31.35L32 18.2198L32.66 15.0698H33.5L33.58 19.6098H33L32.94 16.4598L32.29 19.6098H31.79L31.14 16.4498L31.08 19.6098H30.46L30.49 15.0698Z" fill="white"/>
<path d="M34.1599 15.0698H34.9999V19.6098H34.1799L34.1599 15.0698Z" fill="white"/>
<path d="M35.79 19.2801C35.5754 18.9476 35.4737 18.5549 35.5 18.1601V16.5401C35.4693 16.1417 35.5712 15.7444 35.79 15.4101C35.9134 15.27 36.0686 15.1615 36.2426 15.0936C36.4166 15.0258 36.6043 15.0006 36.79 15.0201C36.9635 15.0044 37.1384 15.0267 37.3025 15.0854C37.4665 15.1441 37.6158 15.2378 37.74 15.3601C37.9486 15.6498 38.0478 16.0041 38.02 16.3601V16.7401H37.22V16.3501C37.2269 16.2235 37.2269 16.0966 37.22 15.9701C37.2066 15.8822 37.1644 15.8013 37.1 15.7401C37.0188 15.6817 36.9198 15.6534 36.82 15.6601C36.7685 15.6516 36.7158 15.6538 36.6653 15.6666C36.6147 15.6794 36.5673 15.7025 36.526 15.7344C36.4847 15.7663 36.4505 15.8063 36.4254 15.852C36.4002 15.8977 36.3848 15.9481 36.38 16.0001C36.3673 16.1331 36.3673 16.267 36.38 16.4001V18.4001C36.3646 18.5922 36.399 18.7851 36.48 18.9601C36.5208 19.0189 36.5766 19.0658 36.6417 19.0957C36.7068 19.1256 36.7787 19.1375 36.85 19.1301C36.9515 19.1378 37.052 19.1055 37.13 19.0401C37.1929 18.9738 37.2347 18.8902 37.25 18.8001C37.2566 18.6702 37.2566 18.54 37.25 18.4101V18.0001H38.05V18.3601C38.0653 18.7147 37.9672 19.065 37.77 19.3601C37.6512 19.4907 37.5032 19.5914 37.3381 19.654C37.173 19.7166 36.9955 19.7392 36.82 19.7201C36.6253 19.7378 36.4292 19.7069 36.2494 19.6301C36.0697 19.5533 35.9118 19.433 35.79 19.2801Z" fill="white"/>
<path d="M39.9401 19.2702C39.7309 18.9211 39.6332 18.5164 39.6601 18.1102V16.5902C39.628 16.1791 39.7297 15.7687 39.9501 15.4202C40.0709 15.2763 40.2254 15.1645 40.3999 15.0947C40.5744 15.0249 40.7634 14.9993 40.9501 15.0202C41.1317 14.9953 41.3167 15.0131 41.4903 15.0721C41.6639 15.1311 41.8213 15.2298 41.9501 15.3602C42.1735 15.6434 42.2807 16.0009 42.2501 16.3602V16.6002H41.4601V16.3402C41.4724 16.2105 41.4724 16.0799 41.4601 15.9502C41.4401 15.8654 41.3947 15.7887 41.3301 15.7302C41.2428 15.6688 41.1364 15.6404 41.0301 15.6502C40.9743 15.6448 40.9181 15.6509 40.8648 15.6681C40.8114 15.6853 40.7622 15.7133 40.7201 15.7502C40.6534 15.8231 40.6084 15.9131 40.5901 16.0102C40.5775 16.1466 40.5775 16.2838 40.5901 16.4202V18.3102C40.5795 18.5096 40.6173 18.7086 40.7001 18.8902C40.7363 18.9571 40.7921 19.0112 40.8601 19.0452C40.9281 19.0792 41.0049 19.0914 41.0801 19.0802C41.1574 19.0872 41.235 19.0721 41.3041 19.0367C41.3731 19.0013 41.4307 18.947 41.4701 18.8802C41.5583 18.6896 41.5961 18.4796 41.5801 18.2702V17.8502H41.0001V17.3302H42.2301V19.6302H41.6901L41.6301 19.1902C41.5743 19.3444 41.4702 19.4764 41.3332 19.5665C41.1962 19.6566 41.0338 19.7 40.8701 19.6902C40.6922 19.7051 40.5134 19.6743 40.3507 19.6008C40.1879 19.5273 40.0466 19.4135 39.9401 19.2702Z" fill="white"/>
<path d="M42.75 15.07H43.84C44.2181 15.0391 44.5955 15.1378 44.91 15.35C45.0379 15.4662 45.1363 15.6111 45.1971 15.7728C45.258 15.9345 45.2795 16.1083 45.26 16.28C45.2688 16.5191 45.228 16.7575 45.14 16.98C45.0478 17.1631 44.891 17.3056 44.7 17.38L45.34 19.61H44.51L43.96 17.53H43.57V19.61H42.75V15.07ZM43.84 17.07C43.9306 17.0776 44.0217 17.0664 44.1077 17.0372C44.1938 17.0079 44.2728 16.9612 44.34 16.9C44.4554 16.7487 44.509 16.5593 44.49 16.37C44.504 16.1858 44.4546 16.0023 44.35 15.85C44.2897 15.7884 44.2157 15.7417 44.1341 15.7139C44.0524 15.6862 43.9654 15.678 43.88 15.69H43.57V17L43.84 17.07Z" fill="white"/>
<path d="M46 19.2901C45.7793 18.9676 45.6737 18.5801 45.7 18.1901V16.4801C45.6736 16.0933 45.7794 15.7089 46 15.3901C46.2797 15.154 46.634 15.0244 47 15.0244C47.3661 15.0244 47.7204 15.154 48 15.3901C48.2207 15.7089 48.3265 16.0933 48.3 16.4801V18.1901C48.3264 18.5801 48.2207 18.9676 48 19.2901C47.8727 19.4247 47.7167 19.5287 47.5435 19.5945C47.3704 19.6603 47.1846 19.6862 47 19.6701C46.8153 19.6885 46.6289 19.6637 46.4554 19.5977C46.2818 19.5318 46.126 19.4265 46 19.2901ZM47.38 18.8901C47.4481 18.7291 47.4789 18.5548 47.47 18.3801V16.2901C47.4819 16.1218 47.4509 15.9533 47.38 15.8001C47.3417 15.7387 47.2863 15.6899 47.2205 15.6597C47.1548 15.6295 47.0816 15.6192 47.01 15.6301C46.9373 15.622 46.8637 15.6334 46.7969 15.6633C46.73 15.6932 46.6724 15.7405 46.63 15.8001C46.5619 15.9541 46.5311 16.122 46.54 16.2901V18.3801C46.5312 18.5548 46.562 18.7291 46.63 18.8901C46.6724 18.9498 46.73 18.9971 46.7969 19.0269C46.8637 19.0568 46.9373 19.0683 47.01 19.0601C47.0829 19.0694 47.1569 19.0585 47.2239 19.0285C47.2909 18.9985 47.3484 18.9506 47.39 18.8901H47.38Z" fill="white"/>
<path d="M48.6599 15.0698H49.3499L49.7199 18.0098L50.1899 15.0798H50.7499L51.2399 18.0098L51.6099 15.0698H52.2899L51.6599 19.6098H50.9999L50.4899 16.6098L49.9999 19.6098H49.3099L48.6599 15.0698Z" fill="white"/>
<path d="M53.1401 15.6798H52.3901V15.0698H54.7101V15.6798H54.0001V19.6098H53.1701L53.1401 15.6798Z" fill="white"/>
<path d="M55 15.0698H55.82V16.9998H56.74V15.0998H57.57V19.6398H56.74V17.5898H55.82V19.6398H55V15.0698Z" fill="white"/>
<path d="M43.5001 32.8699L37.1401 38.8699C37.0087 38.9771 36.9067 39.1159 36.8437 39.2734C36.7808 39.4308 36.7589 39.6017 36.7801 39.7699V56.7099C36.78 56.8063 36.8177 56.8989 36.8849 56.968C36.9521 57.0371 37.0437 57.0773 37.1401 57.0799H43.7101C43.8065 57.0773 43.898 57.0371 43.9653 56.968C44.0325 56.8989 44.0701 56.8063 44.0701 56.7099V32.9999C44.0701 32.7999 43.9101 32.4399 43.5001 32.8499" fill="white"/>
<path d="M25.1899 40.7498L18.8399 46.7498C18.7087 46.8599 18.6064 47.0003 18.5419 47.1589C18.4774 47.3175 18.4527 47.4895 18.4699 47.6598V56.7198C18.4724 56.8172 18.5122 56.9098 18.5811 56.9787C18.6499 57.0475 18.7426 57.0873 18.8399 57.0898H25.3999C25.4963 57.0872 25.5879 57.0471 25.6551 56.978C25.7223 56.9089 25.7599 56.8163 25.7599 56.7198V40.8998C25.7599 40.6998 25.5999 40.3298 25.1899 40.7498Z" fill="white"/>
<path d="M46.3801 25.5401C46.3907 25.5183 46.3962 25.4943 46.3962 25.4701C46.3962 25.4458 46.3907 25.4219 46.3801 25.4001C46.3449 25.3735 46.3037 25.3563 46.2601 25.3501H46.1801L41.3101 26.4501H41.2201H41.1301C41.0963 26.487 41.0776 26.5351 41.0776 26.5851C41.0776 26.6351 41.0963 26.6832 41.1301 26.7201V26.7701L42.2401 27.8801L31.2401 38.8801L26.1501 33.7801C26.1201 33.7566 26.0831 33.7438 26.0451 33.7438C26.007 33.7438 25.97 33.7566 25.9401 33.7801L24.5601 35.1701L16.3901 43.3301C16.3665 43.36 16.3538 43.397 16.3538 43.4351C16.3538 43.4732 16.3665 43.5101 16.3901 43.5401L17.7601 45.0001C17.7723 45.0148 17.7875 45.0266 17.8048 45.0347C17.8221 45.0428 17.841 45.047 17.8601 45.047C17.8792 45.047 17.898 45.0428 17.9153 45.0347C17.9326 45.0266 17.9479 45.0148 17.9601 45.0001L26.0001 37.0001L29.7001 40.7001L31.0801 42.0801C31.0932 42.095 31.1094 42.1069 31.1275 42.1151C31.1456 42.1233 31.1652 42.1275 31.1851 42.1275C31.2049 42.1275 31.2246 42.1233 31.2427 42.1151C31.2608 42.1069 31.2769 42.095 31.2901 42.0801L43.8001 29.5701L45.0001 30.7001C45.0353 30.7331 45.0818 30.7515 45.1301 30.7515C45.1784 30.7515 45.2248 30.7331 45.2601 30.7001C45.2717 30.6609 45.2717 30.6192 45.2601 30.5801L46.3301 25.5801L46.3801 25.5401Z" fill="white"/>
<path d="M34.38 41.8102L31.3 44.9102C31.2741 44.9341 31.2402 44.9473 31.205 44.9473C31.1697 44.9473 31.1358 44.9341 31.11 44.9102L28.32 42.0702C27.81 41.5602 27.7 41.9702 27.7 42.1702V56.7702C27.6999 56.8666 27.7375 56.9592 27.8048 57.0283C27.872 57.0974 27.9636 57.1376 28.06 57.1402H34.63C34.7263 57.1376 34.8179 57.0974 34.8851 57.0283C34.9524 56.9592 34.99 56.8666 34.99 56.7702V41.9202C34.99 41.7202 34.83 41.3602 34.38 41.8102Z" fill="white"/>
</svg>
