<svg viewBox="0 0 64 64" fill="none" xmlns="http://www.w3.org/2000/svg">
<!-- <path d="M61.88 0.169922H0.0300293V62.0199H61.88V0.169922Z" fill="#F36E24"/> -->
<path d="M5.7701 16.7497C5.26102 16.1106 5.00793 15.305 5.06009 14.4897V14.3097H7.1901C7.16476 14.6966 7.21923 15.0846 7.3501 15.4497C7.42235 15.5665 7.52694 15.6598 7.65119 15.7184C7.77543 15.777 7.914 15.7983 8.0501 15.7797C8.15102 15.7876 8.2524 15.7718 8.34615 15.7336C8.4399 15.6954 8.52343 15.6359 8.59009 15.5597C8.73969 15.3473 8.82949 15.0986 8.8501 14.8397C8.90132 14.3614 8.92468 13.8806 8.92009 13.3997V12.1997C8.77558 12.4235 8.56629 12.5979 8.3201 12.6997C8.02342 12.8278 7.70325 12.8925 7.3801 12.8897C7.00059 12.9145 6.62156 12.8344 6.28463 12.658C5.94769 12.4816 5.66587 12.2157 5.4701 11.8897C5.03685 11.1156 4.829 10.2358 4.87009 9.34968C4.87009 6.68301 5.9301 5.34968 8.0501 5.34968C8.50078 5.31406 8.95347 5.38617 9.37078 5.56005C9.78809 5.73393 10.158 6.00459 10.4501 6.34968C11.0034 7.15994 11.274 8.13002 11.2201 9.10967V13.4097C11.2835 14.4577 11.0365 15.5012 10.5101 16.4097C10.2233 16.7946 9.84065 17.0978 9.4003 17.289C8.95995 17.4803 8.47721 17.5529 8.00009 17.4997C7.59678 17.5349 7.19053 17.4865 6.8068 17.3575C6.42307 17.2284 6.07013 17.0215 5.7701 16.7497ZM8.92009 10.6297V8.74967C8.93786 8.33445 8.87328 7.91982 8.73009 7.52967C8.67926 7.39215 8.58594 7.27439 8.46367 7.19347C8.3414 7.11256 8.19655 7.07271 8.0501 7.07967C7.89628 7.06844 7.74321 7.10982 7.61602 7.19704C7.48882 7.28427 7.39505 7.41214 7.3501 7.55967C7.20769 8.06341 7.14691 8.58671 7.17009 9.10967C7.16612 9.49695 7.18281 9.88417 7.2201 10.2697C7.22869 10.5064 7.31279 10.7342 7.4601 10.9197C7.53401 11.0049 7.62663 11.0718 7.73073 11.1151C7.83483 11.1585 7.94757 11.1772 8.06009 11.1697C8.2386 11.1646 8.4125 11.1119 8.56374 11.017C8.71497 10.922 8.83802 10.7883 8.92009 10.6297Z" fill="white"/>
<path d="M13.8401 9.99974V5.48975H14.6501V9.99974H13.8401Z" fill="white"/>
<path d="M15.0601 9.99974V5.48975H15.6301L16.7301 8.05974V5.48975H17.4101V9.99974H16.8701L15.7601 7.29974V9.99974H15.0601Z" fill="white"/>
<path d="M17.8101 10V5.49003H18.8701C19.1643 5.4761 19.4579 5.52731 19.7301 5.64003C19.9302 5.73144 20.0876 5.89607 20.1701 6.10003C20.2662 6.35191 20.3104 6.62062 20.3001 6.89003V8.54002C20.3099 8.81591 20.2657 9.09107 20.1701 9.35003C20.0898 9.55943 19.9373 9.73322 19.7401 9.84002C19.4756 9.9555 19.1885 10.0102 18.9001 10H17.8101ZM18.6301 9.42003H18.8801C19.0242 9.43482 19.1689 9.39951 19.2901 9.32004C19.3762 9.24685 19.4301 9.14265 19.4401 9.03003C19.452 8.87359 19.452 8.71647 19.4401 8.56003V6.80003C19.4527 6.65364 19.4527 6.50642 19.4401 6.36003C19.4302 6.31031 19.41 6.26323 19.3807 6.22188C19.3514 6.18052 19.3137 6.14581 19.2701 6.12002C19.1495 6.05918 19.0149 6.03156 18.8801 6.04002H18.6401L18.6301 9.42003Z" fill="white"/>
<path d="M21.8501 9.99998C21.5769 10.0166 21.305 9.95036 21.0701 9.80998C20.8855 9.68744 20.7507 9.50304 20.6901 9.28998C20.6137 9.02687 20.5766 8.75393 20.5801 8.47998V5.47998H21.3901V8.61998C21.3901 8.75998 21.3901 8.89999 21.3901 9.01999C21.4067 9.12956 21.4515 9.23293 21.5201 9.31999C21.5601 9.36105 21.6085 9.39301 21.662 9.41371C21.7155 9.43442 21.7728 9.44338 21.8301 9.43999C21.889 9.44559 21.9485 9.43769 22.0039 9.4169C22.0593 9.39611 22.1093 9.36297 22.15 9.31999C22.2186 9.23293 22.2634 9.12956 22.2801 9.01999C22.2907 8.88687 22.2907 8.7531 22.2801 8.61998V5.47998H23.0701V8.47998C23.0765 8.75342 23.0428 9.02631 22.9701 9.28998C22.9094 9.50304 22.7746 9.68744 22.59 9.80998C22.3662 9.94169 22.1097 10.0076 21.8501 9.99998Z" fill="white"/>
<path d="M24.61 9.99969C24.3765 10.0052 24.1457 9.95005 23.94 9.83968C23.753 9.73239 23.6056 9.56753 23.52 9.36968C23.4222 9.13166 23.3712 8.877 23.37 8.61968L24.07 8.47968C24.0756 8.63848 24.0991 8.79613 24.14 8.94968C24.1643 9.06264 24.2197 9.16655 24.3 9.24969C24.337 9.28848 24.3823 9.31848 24.4325 9.33751C24.4827 9.35655 24.5365 9.36412 24.59 9.35969C24.643 9.36548 24.6967 9.35747 24.7457 9.33645C24.7948 9.31542 24.8376 9.2821 24.87 9.23969C24.9291 9.15131 24.9573 9.04579 24.95 8.93969C24.9602 8.76979 24.9145 8.60122 24.82 8.45969C24.7189 8.31634 24.5976 8.18835 24.46 8.07969L23.9 7.57969C23.7462 7.45088 23.6174 7.29496 23.52 7.11968C23.4141 6.92703 23.3623 6.70937 23.37 6.48969C23.3572 6.33766 23.3794 6.18471 23.4349 6.04258C23.4903 5.90045 23.5776 5.7729 23.69 5.66968C23.8053 5.56727 23.9398 5.48889 24.0858 5.43909C24.2317 5.3893 24.3861 5.3691 24.54 5.37969C24.7208 5.37517 24.9008 5.40573 25.07 5.46969C25.2002 5.53162 25.3135 5.62428 25.4 5.73969C25.4888 5.85932 25.5534 5.99521 25.59 6.13968C25.6328 6.28976 25.6596 6.44396 25.67 6.59969L24.97 6.71969C24.9602 6.59552 24.9435 6.47199 24.92 6.34969C24.8994 6.25042 24.8547 6.1577 24.79 6.07969C24.7531 6.04761 24.7103 6.02313 24.664 6.00768C24.6176 5.99223 24.5687 5.98613 24.52 5.98969C24.4672 5.98654 24.4144 5.99575 24.3658 6.01658C24.3172 6.03741 24.2741 6.06929 24.24 6.10969C24.1706 6.19384 24.135 6.30075 24.14 6.40969C24.1334 6.54049 24.1684 6.67001 24.24 6.77968C24.3148 6.89532 24.4057 6.9997 24.51 7.08968L25.07 7.57969C25.2583 7.73617 25.4204 7.92187 25.55 8.12969C25.6873 8.35895 25.7567 8.62252 25.75 8.88968C25.7554 9.09011 25.7034 9.28791 25.6 9.45969C25.5106 9.62737 25.3753 9.76611 25.21 9.85969C25.0245 9.95489 24.8184 10.003 24.61 9.99969Z" fill="white"/>
<path d="M26.3899 9.99974V6.08974H25.6699V5.48975H27.9199V6.08974H27.2099V9.99974H26.3899Z" fill="white"/>
<path d="M28 9.9999V5.48991H29.08C29.3445 5.47978 29.6086 5.51704 29.86 5.59991C30.0572 5.66054 30.2248 5.79244 30.33 5.9699C30.4528 6.18568 30.5118 6.4319 30.5 6.67989C30.5163 6.84282 30.5163 7.00697 30.5 7.1699C30.468 7.30314 30.4103 7.42883 30.33 7.53989C30.2417 7.64611 30.1283 7.72861 30 7.7799L30.63 9.9999H29.8L29.26 7.92989H28.88V9.9999H28ZM28.83 7.4099H29.08C29.2136 7.41652 29.347 7.39257 29.47 7.3399C29.5625 7.29498 29.6341 7.2162 29.67 7.1199C29.714 6.99474 29.7343 6.86249 29.73 6.7299C29.7454 6.5501 29.6996 6.37037 29.6 6.2199C29.5402 6.1571 29.4666 6.10905 29.385 6.07955C29.3035 6.05005 29.2162 6.03991 29.13 6.0499H28.83V7.4099Z" fill="white"/>
<path d="M31.45 9.99974V8.27974L30.54 5.48975H31.31L31.86 7.26974L32.39 5.48975H33.14L32.2401 8.27974V9.99974H31.45Z" fill="white"/>
<path d="M33.1801 10.72L33.1101 10.45C33.2055 10.4184 33.2914 10.3634 33.3601 10.2899C33.4344 10.2002 33.4735 10.0864 33.4701 9.96996H33.0701V9.20996H33.8101V9.89995C33.8181 10.0989 33.762 10.2952 33.6501 10.46C33.5309 10.6017 33.3634 10.6943 33.1801 10.72Z" fill="white"/>
<path d="M35.1499 9.99974V5.48975H35.9999V9.99974H35.1499Z" fill="white"/>
<path d="M36.3701 9.99969V5.4897H37.0001L38.0001 7.99969V5.42969H38.6801V9.99969H38.1401L37.0301 7.2997V9.99969H36.3701Z" fill="white"/>
<path d="M39.1201 9.99974V5.48975H39.6901L40.7901 8.05974V5.48975H41.4701V9.99974H40.9201L39.8201 7.29974V9.99974H39.1201Z" fill="white"/>
<path d="M43.09 9.99976C42.8215 10.0128 42.5548 9.95044 42.32 9.81976C42.1337 9.69889 41.993 9.51945 41.92 9.30975C41.8359 9.05502 41.7954 8.78796 41.8 8.51976V6.82976C41.7935 6.5647 41.8341 6.30061 41.92 6.04976C41.9949 5.84376 42.1355 5.66808 42.32 5.54976C42.5613 5.43785 42.824 5.37988 43.09 5.37988C43.3559 5.37988 43.6187 5.43785 43.86 5.54976C44.0495 5.66246 44.1916 5.84014 44.26 6.04976C44.3548 6.29852 44.399 6.5637 44.39 6.82976V8.51976C44.3974 8.78572 44.3533 9.05059 44.26 9.29976C44.1889 9.51314 44.048 9.69634 43.86 9.81976C43.6251 9.95044 43.3584 10.0128 43.09 9.99976ZM43.09 9.38976C43.1977 9.39854 43.3049 9.36641 43.39 9.29976C43.4595 9.23695 43.5053 9.15225 43.52 9.05975C43.5303 8.94666 43.5303 8.83286 43.52 8.71976V6.63976C43.5312 6.5267 43.5312 6.41281 43.52 6.29976C43.5053 6.20726 43.4595 6.12256 43.39 6.05975C43.3013 6.00127 43.196 5.97319 43.09 5.97975C42.9841 5.97459 42.8792 6.00256 42.79 6.05975C42.7239 6.12513 42.6786 6.20866 42.66 6.29976C42.6488 6.41281 42.6488 6.5267 42.66 6.63976V8.71976C42.6497 8.83286 42.6497 8.94666 42.66 9.05975C42.6746 9.15225 42.7205 9.23695 42.79 9.29976C42.8292 9.33904 42.8761 9.36992 42.9277 9.39055C42.9792 9.41118 43.0345 9.42112 43.09 9.41975V9.38976Z" fill="white"/>
<path d="M45.38 9.99974L44.47 5.48975H45.2L45.79 8.67973L46.35 5.48975H47.1L46.19 9.99974H45.38Z" fill="white"/>
<path d="M46.8701 9.99974L47.7701 5.48975H48.6501L49.5601 9.99974H48.7901L48.6201 8.99974H47.8301L47.6501 9.99974H46.8701ZM47.8701 8.42973H48.4901L48.1801 6.53973L47.8701 8.42973Z" fill="white"/>
<path d="M50 9.99974V6.08974H49.28V5.48975H51.53V6.08974H50.82V9.99974H50Z" fill="white"/>
<path d="M51.6301 9.99974V5.48975H52.4501V9.99974H51.6301Z" fill="white"/>
<path d="M54.08 9.99976C53.8115 10.0128 53.5448 9.95044 53.31 9.81976C53.1237 9.69889 52.983 9.51945 52.91 9.30975C52.8259 9.05502 52.7854 8.78796 52.79 8.51976V6.82976C52.7835 6.5647 52.8241 6.30061 52.91 6.04976C52.9849 5.84376 53.1254 5.66808 53.31 5.54976C53.5513 5.43785 53.814 5.37988 54.08 5.37988C54.3459 5.37988 54.6087 5.43785 54.85 5.54976C55.0395 5.66246 55.1816 5.84014 55.25 6.04976C55.3448 6.29852 55.389 6.5637 55.38 6.82976V8.51976C55.3874 8.78572 55.3433 9.05059 55.25 9.29976C55.1789 9.51314 55.038 9.69634 54.85 9.81976C54.6151 9.95044 54.3484 10.0128 54.08 9.99976ZM54.08 9.38976C54.1877 9.39854 54.2949 9.36641 54.38 9.29976C54.4495 9.23695 54.4953 9.15225 54.51 9.05975C54.5203 8.94666 54.5203 8.83286 54.51 8.71976V6.63976C54.5212 6.5267 54.5212 6.41281 54.51 6.29976C54.4953 6.20726 54.4495 6.12256 54.38 6.05975C54.2913 6.00127 54.186 5.97319 54.08 5.97975C53.9741 5.97459 53.8692 6.00256 53.78 6.05975C53.7139 6.12513 53.6686 6.20866 53.65 6.29976C53.6384 6.4128 53.6384 6.52672 53.65 6.63976V8.71976C53.6396 8.83285 53.6396 8.94666 53.65 9.05975C53.6646 9.15225 53.7105 9.23695 53.78 9.29976C53.8192 9.33904 53.8661 9.36992 53.9177 9.39055C53.9692 9.41118 54.0245 9.42112 54.08 9.41975V9.38976Z" fill="white"/>
<path d="M55.7 9.99974V5.48975H56.27L57.3699 8.05974V5.48975H58.05V9.99974H57.5L56.3999 7.29974V9.99974H55.7Z" fill="white"/>
<path d="M13.5901 17.3298L14.4901 12.8198H15.3701L16.2801 17.3298H15.5101L15.3301 16.3298H14.5501L14.3701 17.3298H13.5901ZM14.5901 15.7698H15.2101L14.9001 13.8798L14.5901 15.7698Z" fill="white"/>
<path d="M16.49 17.3298V12.8198H17.06L18.16 15.3898V12.8198H18.84V17.3298H18.29L17.19 14.6398V17.3298H16.49Z" fill="white"/>
<path d="M19.3 17.3301V12.8201H20.37C20.6643 12.8062 20.9579 12.8574 21.23 12.9701C21.4285 13.0687 21.5848 13.2356 21.67 13.4401C21.762 13.6931 21.8061 13.961 21.8 14.2301V15.8701C21.8049 16.1489 21.7609 16.4265 21.67 16.6901C21.591 16.901 21.4333 17.0731 21.23 17.1701C20.9706 17.2905 20.6856 17.3454 20.4 17.3301H19.3ZM20.1301 16.7601H20.3801C20.521 16.7751 20.6627 16.7396 20.78 16.6601C20.824 16.625 20.8601 16.5811 20.886 16.5311C20.9118 16.4811 20.9268 16.4263 20.93 16.3701C20.9416 16.2136 20.9416 16.0566 20.93 15.9001V14.1701C20.9482 14.024 20.9482 13.8762 20.93 13.7301C20.922 13.681 20.9035 13.6342 20.8759 13.5929C20.8483 13.5515 20.8122 13.5164 20.7701 13.4901C20.6512 13.4245 20.5152 13.3966 20.3801 13.4101H20.14L20.1301 16.7601Z" fill="white"/>
<path d="M23.3501 17.3298V12.8198H24.1601V17.3298H23.3501Z" fill="white"/>
<path d="M24.6401 17.3298V12.8198H25.2101L26.3101 15.3898V12.8198H27.0001V17.3298H26.4501L25.3501 14.6398V17.3298H24.6401Z" fill="white"/>
<path d="M27.45 17.3298V12.8198H29.31V13.3898H28.31V14.6998H29.1499V15.2798H28.31V17.3298H27.45Z" fill="white"/>
<path d="M29.52 17.3297V12.8197H30.6C30.8609 12.8153 31.1208 12.8524 31.37 12.9297C31.568 12.9938 31.7376 13.1246 31.85 13.2997C31.9683 13.5169 32.0237 13.7627 32.01 14.0097C32.0323 14.1722 32.0323 14.3371 32.01 14.4997C31.9845 14.6351 31.9262 14.7621 31.84 14.8697C31.7572 14.9816 31.642 15.0653 31.51 15.1097L32.14 17.3297H31.32L30.77 15.2697H30.39V17.3297H29.52ZM30.34 14.7497H30.6C30.7305 14.7573 30.8608 14.7333 30.98 14.6797C31.0731 14.6356 31.145 14.5566 31.18 14.4597C31.2305 14.3325 31.2543 14.1964 31.25 14.0597C31.2579 13.8806 31.2126 13.7032 31.12 13.5497C31.0582 13.4872 30.9825 13.4402 30.8991 13.4124C30.8157 13.3846 30.727 13.3768 30.64 13.3897H30.34V14.7497Z" fill="white"/>
<path d="M32.2 17.3298L33.1 12.8198H34L34.8999 17.3298H34.14L33.96 16.3298H33.1799L32.99 17.3298H32.2ZM33.2 15.7698H33.81L33.5 13.8798L33.2 15.7698Z" fill="white"/>
<path d="M36.2301 17.3899C35.9944 17.398 35.7605 17.3464 35.5501 17.24C35.3668 17.131 35.2232 16.9663 35.1401 16.77C35.0378 16.5266 34.99 16.2638 35.0001 16L35.7101 15.86C35.7176 16.0147 35.7377 16.1685 35.7701 16.32C35.796 16.4353 35.8511 16.542 35.9301 16.63C36.0092 16.7023 36.1129 16.7416 36.2201 16.74C36.2731 16.7457 36.3268 16.7377 36.3759 16.7167C36.4249 16.6957 36.4677 16.6624 36.5001 16.6199C36.5621 16.5325 36.5937 16.4271 36.5901 16.32C36.5953 16.1461 36.5464 15.9748 36.4501 15.83C36.3503 15.6887 36.2327 15.5609 36.1001 15.4499L35.5301 14.9499C35.3764 14.8211 35.2476 14.6652 35.1501 14.49C35.049 14.2995 35.0007 14.0854 35.0101 13.8699C35.0001 13.7175 35.0226 13.5648 35.0761 13.4217C35.1295 13.2786 35.2127 13.1485 35.3201 13.0399C35.5562 12.8387 35.8602 12.735 36.1701 12.75C36.3517 12.7473 36.5319 12.7813 36.7001 12.85C36.8318 12.914 36.9479 13.0061 37.0401 13.1199C37.1201 13.2398 37.1808 13.3713 37.2201 13.5099C37.2629 13.6634 37.2897 13.8209 37.3001 13.9799L36.6001 14.1C36.5953 13.972 36.5785 13.8448 36.5501 13.72C36.5341 13.6221 36.4887 13.5315 36.4201 13.46C36.3833 13.4279 36.3404 13.4034 36.2941 13.388C36.2478 13.3725 36.1988 13.3664 36.1501 13.3699C36.0984 13.3683 36.0469 13.3772 35.9987 13.3961C35.9506 13.415 35.9068 13.4435 35.8701 13.4799C35.8081 13.5674 35.7765 13.6728 35.7801 13.7799C35.7755 13.9124 35.8066 14.0436 35.8701 14.16C35.9428 14.2743 36.0341 14.3756 36.1401 14.46L36.7001 14.96C36.8908 15.114 37.0533 15.3001 37.1801 15.5099C37.3174 15.7392 37.3868 16.0028 37.3801 16.27C37.3813 16.4686 37.3332 16.6645 37.2401 16.8399C37.1465 17.0053 37.0078 17.1406 36.8401 17.2299C36.6556 17.3391 36.4444 17.3945 36.2301 17.3899Z" fill="white"/>
<path d="M38.0801 17.3298V13.4298H37.3601V12.8198H39.6101V13.4298H38.9001V17.3298H38.0801Z" fill="white"/>
<path d="M39.8 17.3298V12.8198H40.8801C41.141 12.8146 41.401 12.8517 41.65 12.9298C41.848 12.9939 42.0176 13.1247 42.1301 13.2998C42.2518 13.516 42.3107 13.7619 42.3 14.0098C42.3009 14.1745 42.2841 14.3387 42.25 14.4998C42.2194 14.6335 42.1615 14.7594 42.08 14.8698C41.9972 14.9817 41.882 15.0655 41.75 15.1098L42.37 17.3298H41.55L41 15.2698H40.6301V17.3298H39.8ZM40.6301 14.7498H40.8801C41.0105 14.7575 41.1409 14.7335 41.26 14.6798C41.3557 14.6361 41.4308 14.5574 41.47 14.4598C41.5133 14.331 41.5336 14.1956 41.53 14.0598C41.5425 13.8803 41.4969 13.7015 41.4 13.5498C41.3397 13.4882 41.2658 13.4416 41.1841 13.4138C41.1025 13.386 41.0154 13.3778 40.93 13.3898H40.6301V14.7498Z" fill="white"/>
<path d="M43.9301 17.3898C43.6581 17.4064 43.3872 17.3439 43.1501 17.2098C42.9617 17.089 42.8233 16.9044 42.7601 16.6898C42.6868 16.4228 42.6531 16.1466 42.6601 15.8698V12.8198H43.4601V15.9998C43.4498 16.133 43.4498 16.2667 43.4601 16.3998C43.4743 16.5101 43.5193 16.6141 43.5901 16.6998C43.6317 16.7381 43.6806 16.7675 43.7338 16.7864C43.7871 16.8053 43.8436 16.8133 43.9001 16.8098C43.9566 16.8145 44.0135 16.8071 44.0669 16.7882C44.1203 16.7692 44.1692 16.7391 44.2101 16.6998C44.2808 16.6141 44.3259 16.5101 44.3401 16.3998C44.3503 16.2667 44.3503 16.133 44.3401 15.9998V12.8498H45.1401V15.8998C45.1441 16.1771 45.107 16.4534 45.0301 16.7198C44.9642 16.9303 44.8306 17.1131 44.6501 17.2398C44.4276 17.3526 44.1791 17.4044 43.9301 17.3898Z" fill="white"/>
<path d="M46.84 17.3901C46.5668 17.4067 46.295 17.3405 46.06 17.2001C45.874 17.0725 45.7365 16.8857 45.67 16.6701C45.595 16.4169 45.5579 16.1541 45.56 15.8901V14.2801C45.5565 14.0094 45.5936 13.7397 45.67 13.4801C45.7341 13.2659 45.8723 13.0815 46.06 12.9601C46.295 12.8197 46.5668 12.7535 46.84 12.7701C47.0931 12.7592 47.3447 12.8143 47.57 12.9301C47.7448 13.0363 47.8787 13.1984 47.95 13.3901C48.0258 13.6087 48.063 13.8388 48.06 14.0701V14.4501H47.27V14.0601C47.27 13.9301 47.27 13.8201 47.27 13.7101C47.2632 13.6195 47.2242 13.5344 47.16 13.4701C47.1229 13.4319 47.0773 13.4029 47.027 13.3855C46.9766 13.3681 46.9228 13.3629 46.87 13.3701C46.8143 13.3653 46.7582 13.3716 46.705 13.3888C46.6517 13.406 46.6024 13.4336 46.56 13.4701C46.4897 13.5404 46.4441 13.6316 46.43 13.7301C46.4193 13.8532 46.4193 13.977 46.43 14.1001V16.1001C46.4172 16.2364 46.4172 16.3737 46.43 16.5101C46.4562 16.6004 46.5043 16.6828 46.57 16.7501C46.6562 16.8059 46.7575 16.8338 46.86 16.8301C46.9126 16.8333 46.9652 16.8261 47.015 16.809C47.0648 16.7918 47.1107 16.765 47.15 16.7301C47.2062 16.653 47.2439 16.5641 47.26 16.4701C47.26 16.3601 47.26 16.2401 47.26 16.1101V15.7001H48.05V16.0001C48.0533 16.2412 48.0161 16.4812 47.94 16.7101C47.8772 16.9113 47.7464 17.0845 47.57 17.2001C47.3511 17.3347 47.0969 17.4009 46.84 17.3901Z" fill="white"/>
<path d="M48.8699 17.3298V13.4298H48.1499V12.8198H50.3999V13.4298H49.6899V17.3298H48.8699Z" fill="white"/>
<path d="M51.83 17.3898C51.558 17.4064 51.2871 17.3439 51.05 17.2098C50.8617 17.089 50.7232 16.9044 50.66 16.6898C50.5867 16.4228 50.553 16.1466 50.56 15.8698V12.8198H51.36V15.9998C51.3497 16.133 51.3497 16.2667 51.36 16.3998C51.3742 16.5101 51.4193 16.6141 51.49 16.6998C51.5316 16.7381 51.5805 16.7675 51.6338 16.7864C51.687 16.8053 51.7436 16.8133 51.8 16.8098C51.8565 16.8145 51.9134 16.8071 51.9668 16.7882C52.0203 16.7692 52.0691 16.7391 52.11 16.6998C52.1807 16.6141 52.2258 16.5101 52.24 16.3998C52.2503 16.2667 52.2503 16.133 52.24 15.9998V12.8498H53.04V15.8998C53.044 16.1771 53.0069 16.4534 52.93 16.7198C52.8641 16.9303 52.7305 17.1131 52.55 17.2398C52.3275 17.3526 52.079 17.4044 51.83 17.3898Z" fill="white"/>
<path d="M53.53 17.3297V12.8197H54.61C54.8709 12.8153 55.1308 12.8524 55.38 12.9297C55.578 12.9938 55.7476 13.1246 55.86 13.2997C55.9783 13.5169 56.0338 13.7627 56.02 14.0097C56.0209 14.1743 56.0041 14.3386 55.97 14.4997C55.9446 14.6351 55.8862 14.7621 55.8 14.8697C55.7172 14.9816 55.602 15.0653 55.47 15.1097L56.1 17.3297H55.27L54.73 15.2697H54.35V17.3297H53.53ZM54.35 14.7497H54.61C54.7404 14.7566 54.8706 14.7326 54.99 14.6797C55.0807 14.6325 55.1516 14.5545 55.19 14.4597C55.2333 14.3309 55.2536 14.1955 55.25 14.0597C55.2603 13.8816 55.2186 13.7045 55.13 13.5497C55.0669 13.4891 54.9911 13.4433 54.9081 13.4156C54.825 13.3879 54.7369 13.3791 54.65 13.3897H54.35V14.7497Z" fill="white"/>
<path d="M56.4199 17.3298V12.8198H58.3099V13.3998H57.2399V14.6998H58.0899V15.2698H57.2399V16.7598H58.3199V17.3298H56.4199Z" fill="white"/>
<path d="M46.83 40.8701L39.44 36.6001V28.0801C39.4413 27.9911 39.4187 27.9035 39.3748 27.8261C39.3308 27.7488 39.2671 27.6845 39.19 27.6401L31.55 23.2301C31.474 23.1862 31.3878 23.1631 31.3 23.1631C31.2122 23.1631 31.126 23.1862 31.05 23.2301L23.41 27.6401C23.3343 27.6861 23.2716 27.7506 23.2279 27.8276C23.1841 27.9046 23.1608 27.9915 23.16 28.0801V36.6001L15.77 40.8701C15.6945 40.9137 15.6316 40.9764 15.5878 41.0518C15.5439 41.1272 15.5205 41.2128 15.52 41.3001V50.1201C15.5208 50.2086 15.5441 50.2955 15.5879 50.3725C15.6316 50.4495 15.6943 50.5141 15.77 50.5601L23.41 54.9701C23.4872 55.0158 23.5753 55.04 23.665 55.04C23.7547 55.04 23.8428 55.0158 23.92 54.9701L31.3 50.7101L38.69 54.9701C38.7661 55.0142 38.8521 55.0382 38.94 55.0401C39.0275 55.0356 39.1129 55.0117 39.19 54.9701L46.83 50.5601C46.9057 50.5141 46.9684 50.4495 47.0121 50.3725C47.0559 50.2955 47.0793 50.2086 47.08 50.1201V41.3001C47.0795 41.2128 47.0561 41.1272 47.0123 41.0518C46.9684 40.9764 46.9056 40.9137 46.83 40.8701ZM30.83 49.2501L24.7 45.7101L30.83 42.1801V49.2501ZM37.96 36.8901L31.83 40.4301V33.3601L37.96 36.8901ZM30.83 40.4301L24.7 36.8901L30.83 33.3601V40.4301ZM32.34 41.3001L38.97 37.4801L45.6 41.3001L38.97 45.1301L32.34 41.3001ZM38.46 36.0201L32.34 32.4801L38.46 28.9501V36.0201ZM30.32 32.4801L24.17 36.0001V29.0001L30.32 32.4801ZM23.19 53.6601L16.56 49.8301V42.1801L23.19 46.0001V53.6601ZM24.19 53.6601V46.5901L30.31 50.1201L24.19 53.6601ZM46.09 49.8301L39.46 53.6601V46.0001L46.09 42.1801V49.8301Z" fill="white"/>
</svg>
